<?xml version="1.0" encoding="utf-8"?>
<!-- Generator: Adobe Illustrator 20.1.0, SVG Export Plug-In . SVG Version: 6.00 Build 0)  -->
<svg version="1.1" id="AppStore" xmlns="http://www.w3.org/2000/svg" xmlns:xlink="http://www.w3.org/1999/xlink" x="0px" y="0px"
	 viewBox="0 0 480.1 171" style="enable-background:new 0 0 480.1 171;" xml:space="preserve">
<style type="text/css">
	.st0{fill:none;enable-background:new    ;}
	.st1{fill:#FFFFFF;}
	.st2{fill:#A7A9AC;}
</style>
<path class="st0" d="z"/>
<g>
	<path class="st1" d="M449.6,1H30.5C22.4,1,15,4.3,9.6,9.6C4.3,15,1,22.4,1,30.5v110c0,8.1,3.3,15.5,8.6,20.9
		c5.3,5.3,12.7,8.6,20.9,8.6h419.1c8.1,0,15.5-3.3,20.9-8.6c5.3-5.3,8.6-12.7,8.6-20.9v-110c0-8.1-3.3-15.5-8.6-20.9
		C465.1,4.3,457.7,1,449.6,1"/>
	<path class="st1" d="M30.5,1h419.1c8.1,0,15.5,3.3,20.9,8.6c5.3,5.3,8.6,12.7,8.6,20.9v110c0,8.1-3.3,15.5-8.6,20.9
		c-5.3,5.3-12.7,8.6-20.9,8.6H30.5c-8.1,0-15.5-3.3-20.9-8.6C4.3,156,1,148.6,1,140.5v-110C1,22.4,4.3,15,9.6,9.6
		C15,4.3,22.4,1,30.5,1L30.5,1 M449.6,0H30.5C13.7,0,0,13.7,0,30.5v110C0,157.3,13.7,171,30.5,171h419.1c16.8,0,30.5-13.7,30.5-30.5
		v-110C480.1,13.7,466.4,0,449.6,0"/>
	<path class="st2" d="M265.2,86.5c-0.1-11.7,9.5-17.3,10-17.6c-5.4-7.9-13.9-9-16.9-9.1c-7.2-0.7-14,4.3-17.7,4.3
		c-3.6,0-9.3-4.1-15.2-4c-7.8,0.1-15.1,4.6-19.1,11.6c-8.1,14.1-2,35.1,5.9,46.5c3.9,5.6,8.5,11.9,14.6,11.7
		c5.9-0.2,8.1-3.8,15.1-3.8c7.1,0,9.1,3.8,15.3,3.6c6.3-0.1,10.3-5.7,14.1-11.4c4.4-6.5,6.3-12.8,6.4-13.1
		C277.5,105.2,265.4,100.5,265.2,86.5"/>
	<path class="st2" d="M253.6,52.2c3.2-3.9,5.4-9.3,4.8-14.7c-4.6,0.2-10.3,3.1-13.6,7c-3,3.5-5.6,9-4.9,14.3
		C245.1,59.2,250.4,56.2,253.6,52.2"/>
</g>
</svg>
