<svg xmlns="http://www.w3.org/2000/svg" xmlns:xlink="http://www.w3.org/1999/xlink" version="1.1" width="195.52671762393834" height="268.89312950424585" style=""><rect id="backgroundrect" width="100%" height="100%" x="0" y="0" fill="none" stroke="none" style="" class=""/><g class="currentLayer" style=""><title>Layer 1</title><path d="M96.7328223183722,126.49456168469078 A32.76172637939453,32.76172637939453 0 0 1 63.97109593897767,93.73283530529625 A32.76172637939453,32.76172637939453 0 0 1 96.7328223183722,60.97110892590172 A32.76172637939453,32.76172637939453 0 0 1 129.49454869776673,93.73283530529625 A32.76172637939453,32.76172637939453 0 0 1 96.7328223183722,126.49456168469078 M96.7328223183722,2.000001442991561 A91.73283386230469,91.73283386230469 0 0 0 4.999988456067513,93.73283530529625 C4.999988456067513,162.53246070202476 96.7328223183722,264.0938124781478 96.7328223183722,264.0938124781478 C96.7328223183722,264.0938124781478 188.4656561806769,162.53246070202476 188.4656561806769,93.73283530529625 A91.73283386230469,91.73283386230469 0 0 0 96.7328223183722,2.000001442991561 z" id="svg_1" class="" stroke="#ffffff" stroke-opacity="1" fill="#ffffff" fill-opacity="1"/></g></svg>