<?xml version="1.0" encoding="utf-8"?>
<!-- Generator: Adobe Illustrator 20.1.0, SVG Export Plug-In . SVG Version: 6.00 Build 0)  -->
<svg version="1.1" id="AppStore" xmlns="http://www.w3.org/2000/svg" xmlns:xlink="http://www.w3.org/1999/xlink" x="0px" y="0px"
	 viewBox="0 0 480.1 171" style="enable-background:new 0 0 480.1 171;" xml:space="preserve">
<style type="text/css">
	.st0{fill:none;enable-background:new    ;}
	.st1{fill:#FFFFFF;}
	.st2{fill:url(#SVGID_1_);}
	.st3{fill:url(#SVGID_2_);}
	.st4{fill:url(#SVGID_3_);}
	.st5{fill:url(#SVGID_4_);}
	.st6{fill:#CCCCCC;}
	.st7{fill:url(#SVGID_5_);}
	.st8{fill:#E0E0E0;}
	.st9{fill:url(#SVGID_6_);}
	.st10{fill:url(#SVGID_7_);}
	.st11{fill:url(#SVGID_8_);}
	.st12{fill:url(#SVGID_9_);}
	.st13{fill:url(#SVGID_10_);}
	.st14{fill:url(#SVGID_11_);}
	.st15{fill:url(#SVGID_12_);}
</style>
<path class="st0" d="z"/>
<g>
	<path class="st1" d="M208.8,49.5C208.8,49.5,208.8,49.5,208.8,49.5c1.1,0,2.3,0.3,3.5,1L257.2,76l15,8.5c2.1,1.2,3.2,2.8,3.2,4.4
		c0,0,0,0,0,0c0,0,0,0,0,0c0,0,0,0,0,0l0,0l0,0c0,0.6-0.1,1.2-0.4,1.7c-0.5,1-1.4,1.9-2.8,2.7l-15,8.5l-0.3,0.2l-44.6,25.3l0,0
		c-1,0.6-2,0.9-2.9,1c-0.2,0-0.4,0-0.5,0c-1.1,0-2-0.3-2.7-1l0,0l0,0c-0.1-0.1-0.1-0.1-0.2-0.2l0,0l0,0l0,0l0,0
		c-0.9-0.9-1.4-2.4-1.4-4.3v0l0,0V55c0,0,0,0,0,0c0,0,0,0,0,0c0-0.2,0-0.4,0-0.5c0,0,0,0,0,0c0,0,0,0,0,0c0,0,0,0,0,0c0,0,0,0,0,0
		c0,0,0,0,0,0v0C204.7,51.3,206.4,49.5,208.8,49.5 M449.6,1H30.5C22.4,1,15,4.3,9.6,9.6C4.3,15,1,22.4,1,30.5v110
		c0,8.1,3.3,15.5,8.6,20.9c5.3,5.3,12.7,8.6,20.9,8.6h419.1c8.1,0,15.5-3.3,20.9-8.6c5.3-5.3,8.6-12.7,8.6-20.9v-110
		c0-8.1-3.3-15.5-8.6-20.9C465.1,4.3,457.7,1,449.6,1"/>
	<path class="st1" d="M30.5,1h419.1c8.1,0,15.5,3.3,20.9,8.6c5.3,5.3,8.6,12.7,8.6,20.9v110c0,8.1-3.3,15.5-8.6,20.9
		c-5.3,5.3-12.7,8.6-20.9,8.6H30.5c-8.1,0-15.5-3.3-20.9-8.6C4.3,156,1,148.6,1,140.5v-110C1,22.4,4.3,15,9.6,9.6
		C15,4.3,22.4,1,30.5,1L30.5,1 M449.6,0H30.5C13.7,0,0,13.7,0,30.5v110C0,157.3,13.7,171,30.5,171h419.1c16.8,0,30.5-13.7,30.5-30.5
		v-110C480.1,13.7,466.4,0,449.6,0"/>
	
		<linearGradient id="SVGID_1_" gradientUnits="userSpaceOnUse" x1="0" y1="171" x2="1" y2="171" gradientTransform="matrix(-51.5459 51.5459 -51.5459 -51.5459 9055.1777 8868.6719)">
		<stop  offset="0" style="stop-color:#00A0FF"/>
		<stop  offset="6.574450e-03" style="stop-color:#00A1FF"/>
		<stop  offset="0.2601" style="stop-color:#00BEFF"/>
		<stop  offset="0.5122" style="stop-color:#00D2FF"/>
		<stop  offset="0.7604" style="stop-color:#00DFFF"/>
		<stop  offset="1" style="stop-color:#00E3FF"/>
	</linearGradient>
	<path class="st2" d="M204.5,54.5c0,0.2,0,0.4,0,0.5C204.5,54.8,204.5,54.7,204.5,54.5 M204.5,54.5
		C204.5,54.5,204.5,54.5,204.5,54.5C204.5,54.5,204.5,54.5,204.5,54.5 M204.5,54.4C204.5,54.4,204.5,54.4,204.5,54.4
		C204.5,54.4,204.5,54.4,204.5,54.4 M204.5,54.4L204.5,54.4L204.5,54.4 M206.1,50.9c-1,0.9-1.6,2.5-1.6,4.5V55c0,0,0,0,0,0
		c0,0,0,0,0,0V123l0,0v-0.4c0,1.9,0.5,3.4,1.4,4.3l0.2,0.2L244.2,89L206.1,50.9"/>
	
		<linearGradient id="SVGID_2_" gradientUnits="userSpaceOnUse" x1="0" y1="170.997" x2="1" y2="170.997" gradientTransform="matrix(-74.319 0 0 -74.319 277.7897 12797.5488)">
		<stop  offset="0" style="stop-color:#FFE000"/>
		<stop  offset="0.4087" style="stop-color:#FFBD00"/>
		<stop  offset="0.7754" style="stop-color:#FFA500"/>
		<stop  offset="1" style="stop-color:#FF9C00"/>
	</linearGradient>
	<path class="st3" d="M275,90.7c-0.5,1-1.4,1.9-2.8,2.7l-15,8.5l-0.3,0.2l0,0l0.3-0.2l15-8.5C273.6,92.7,274.5,91.7,275,90.7
		 M256.9,76.3L244.2,89l12.7,12.7l15.3-8.7c1.9-1.1,3-2.5,3.2-4c0,0,0,0,0,0c-0.2-1.5-1.3-2.9-3.2-4L256.9,76.3"/>
	
		<linearGradient id="SVGID_3_" gradientUnits="userSpaceOnUse" x1="0" y1="171" x2="1" y2="171" gradientTransform="matrix(-69.9004 69.9004 -69.9004 -69.9004 12203.0879 12049.0137)">
		<stop  offset="0" style="stop-color:#FF3A44"/>
		<stop  offset="1" style="stop-color:#C31162"/>
	</linearGradient>
	<path class="st4" d="M206.2,127.5L206.2,127.5c0.7,0.7,1.6,1,2.7,1c0.2,0,0.3,0,0.5,0c-0.2,0-0.3,0-0.5,0
		C207.8,128.5,206.9,128.2,206.2,127.5 M205.9,127.3c0.1,0.1,0.1,0.1,0.2,0.2L205.9,127.3 M244.2,89L244.2,89l-38.1,38.1l0,0
		l-0.2,0.2l0,0l0.2-0.2c0.7,0.7,1.7,1,2.7,1c1,0,2.2-0.3,3.4-1l44.6-25.3l0.3,0.3l-0.3-0.3L244.2,89"/>
	
		<linearGradient id="SVGID_4_" gradientUnits="userSpaceOnUse" x1="0" y1="171" x2="1" y2="171" gradientTransform="matrix(31.2134 31.2134 -31.2134 31.2134 5533.7813 -5309.3887)">
		<stop  offset="0" style="stop-color:#32A071"/>
		<stop  offset="6.850000e-02" style="stop-color:#2DA771"/>
		<stop  offset="0.4762" style="stop-color:#15CF74"/>
		<stop  offset="0.8009" style="stop-color:#06E775"/>
		<stop  offset="1" style="stop-color:#00F076"/>
	</linearGradient>
	<path class="st5" d="M208.9,49.9c-1.1,0-2,0.3-2.7,1L244.2,89l12.7-12.7L212.3,51C211.1,50.3,209.9,49.9,208.9,49.9 M208.9,49.5
		C208.8,49.5,208.8,49.5,208.9,49.5C208.8,49.5,208.8,49.5,208.9,49.5c1,0,2.2,0.3,3.4,1L257.2,76l0,0l-44.9-25.5
		C211.1,49.8,209.9,49.5,208.9,49.5"/>
	<path class="st6" d="M206.1,127.5L206.1,127.5L206.1,127.5C206.1,127.5,206.1,127.5,206.1,127.5 M212.3,127.5c-1,0.6-2,0.9-2.9,1
		C210.3,128.4,211.3,128.1,212.3,127.5 M205.9,127.3L205.9,127.3L205.9,127.3C205.9,127.3,205.9,127.3,205.9,127.3"/>
	
		<linearGradient id="SVGID_5_" gradientUnits="userSpaceOnUse" x1="0" y1="171" x2="1" y2="171" gradientTransform="matrix(-69.9004 69.9004 -69.9004 -69.9004 12203.0879 12049.0137)">
		<stop  offset="0" style="stop-color:#CC2E36"/>
		<stop  offset="1" style="stop-color:#9C0E4E"/>
	</linearGradient>
	<path class="st7" d="M256.9,101.7L212.3,127c-1.2,0.7-2.4,1-3.4,1c-1.1,0-2-0.3-2.7-1l-0.2,0.2c0,0,0,0,0,0l0.2,0.2c0,0,0,0,0,0
		l0,0c0.7,0.7,1.7,1,2.7,1c0.2,0,0.3,0,0.5,0c0.9-0.1,1.9-0.4,2.9-1l0,0l44.9-25.5L256.9,101.7"/>
	<path class="st8" d="M204.5,123L204.5,123c0,1.9,0.5,3.4,1.4,4.3l0,0c0,0,0,0,0,0l0,0C205,126.3,204.5,124.9,204.5,123"/>
	
		<linearGradient id="SVGID_6_" gradientUnits="userSpaceOnUse" x1="0" y1="170.6609" x2="1" y2="170.6609" gradientTransform="matrix(-51.5459 51.5459 -51.5459 -51.5459 9055.1777 8868.6719)">
		<stop  offset="0" style="stop-color:#008DE0"/>
		<stop  offset="6.574450e-03" style="stop-color:#008DE0"/>
		<stop  offset="0.2601" style="stop-color:#00A7E0"/>
		<stop  offset="0.5122" style="stop-color:#00B8E0"/>
		<stop  offset="0.7604" style="stop-color:#00C4E0"/>
		<stop  offset="1" style="stop-color:#00C7E0"/>
	</linearGradient>
	<path class="st9" d="M204.5,122.5v0.4c0,1.9,0.5,3.4,1.4,4.3l0,0l0,0l0.2-0.2l-0.2-0.2C205,125.9,204.5,124.4,204.5,122.5"/>
	
		<linearGradient id="SVGID_7_" gradientUnits="userSpaceOnUse" x1="0" y1="171.0928" x2="1" y2="171.0928" gradientTransform="matrix(-69.9004 69.9004 -69.9004 -69.9004 12203.0879 12049.0137)">
		<stop  offset="0" style="stop-color:#E0333C"/>
		<stop  offset="1" style="stop-color:#AB0F56"/>
	</linearGradient>
	<polyline class="st10" points="206.1,127.1 205.9,127.3 205.9,127.3 205.9,127.3 206.2,127.1 206.1,127.1 	"/>
	<path class="st8" d="M275.4,89C275.4,89,275.4,89,275.4,89c0,0.6-0.1,1.2-0.4,1.7C275.3,90.2,275.4,89.6,275.4,89"/>
	
		<linearGradient id="SVGID_8_" gradientUnits="userSpaceOnUse" x1="0" y1="170.9127" x2="1" y2="170.9127" gradientTransform="matrix(-74.319 0 0 -74.319 277.7897 12797.5488)">
		<stop  offset="0" style="stop-color:#E0C500"/>
		<stop  offset="0.4087" style="stop-color:#E0A600"/>
		<stop  offset="0.7754" style="stop-color:#E09100"/>
		<stop  offset="1" style="stop-color:#E08900"/>
	</linearGradient>
	<path class="st11" d="M275.4,89c-0.2,1.5-1.3,2.9-3.2,4l-15.3,8.7l0.3,0.3l15-8.5c1.4-0.8,2.3-1.7,2.8-2.7
		C275.3,90.2,275.4,89.6,275.4,89"/>
	
		<linearGradient id="SVGID_9_" gradientUnits="userSpaceOnUse" x1="0" y1="170.9092" x2="2.182934e-02" y2="170.9092" gradientTransform="matrix(-69.9004 69.9004 -69.9004 -69.9004 12203.0879 12049.0137)">
		<stop  offset="0" style="stop-color:#E0333C"/>
		<stop  offset="1" style="stop-color:#AB0F56"/>
	</linearGradient>
	<polyline class="st12" points="256.9,101.7 256.9,101.7 257.2,102 256.9,101.7 	"/>
	<path class="st1" d="M257.2,76L257.2,76L257.2,76l15,8.5c2.1,1.2,3.2,2.8,3.2,4.4c0,0,0,0,0,0c0-1.6-1.1-3.2-3.2-4.4L257.2,76
		 M204.5,55C204.5,55,204.5,55,204.5,55C204.5,55,204.5,55,204.5,55 M204.5,54.5C204.5,54.5,204.5,54.5,204.5,54.5
		C204.5,54.5,204.5,54.5,204.5,54.5 M204.5,54.5C204.5,54.5,204.5,54.5,204.5,54.5C204.5,54.5,204.5,54.5,204.5,54.5 M204.5,54.4
		C204.5,54.4,204.5,54.4,204.5,54.4C204.5,54.4,204.5,54.4,204.5,54.4 M208.8,49.5c-2.4,0-4.1,1.8-4.3,4.9c0.1-1.6,0.6-2.9,1.4-3.7
		l0,0c0.1-0.1,0.1-0.1,0.2-0.2l0,0C206.9,49.9,207.8,49.5,208.8,49.5"/>
	
		<linearGradient id="SVGID_10_" gradientUnits="userSpaceOnUse" x1="0" y1="171.3573" x2="1" y2="171.3573" gradientTransform="matrix(-51.5459 51.5459 -51.5459 -51.5459 9055.1777 8868.6719)">
		<stop  offset="0" style="stop-color:#40B8FF"/>
		<stop  offset="6.574450e-03" style="stop-color:#40B9FF"/>
		<stop  offset="0.2601" style="stop-color:#40CEFF"/>
		<stop  offset="0.5122" style="stop-color:#40DDFF"/>
		<stop  offset="0.7604" style="stop-color:#40E7FF"/>
		<stop  offset="1" style="stop-color:#40EAFF"/>
	</linearGradient>
	<path class="st13" d="M205.9,50.7L205.9,50.7c-0.8,0.8-1.3,2.1-1.4,3.7v0c0,0,0,0,0,0c0,0,0,0,0,0c0,0,0,0,0,0c0,0,0,0,0,0
		c0,0,0,0,0,0c0,0.2,0,0.4,0,0.5c0,0,0,0,0,0c0,0,0,0,0,0v0.4c0-2.1,0.6-3.6,1.6-4.5L205.9,50.7 M206.1,50.5L206.1,50.5
		C206.1,50.5,206.1,50.5,206.1,50.5L206.1,50.5"/>
	
		<linearGradient id="SVGID_11_" gradientUnits="userSpaceOnUse" x1="0" y1="171.0873" x2="1" y2="171.0873" gradientTransform="matrix(-74.319 0 0 -74.319 277.7897 12797.5488)">
		<stop  offset="0" style="stop-color:#FFE840"/>
		<stop  offset="0.4087" style="stop-color:#FFCE40"/>
		<stop  offset="0.7754" style="stop-color:#FFBC40"/>
		<stop  offset="1" style="stop-color:#FFB540"/>
	</linearGradient>
	<path class="st14" d="M257.2,76l-0.3,0.3l15.3,8.7c1.9,1.1,3,2.5,3.2,4c0-1.6-1.1-3.2-3.2-4.4L257.2,76L257.2,76"/>
	
		<linearGradient id="SVGID_12_" gradientUnits="userSpaceOnUse" x1="0" y1="171" x2="1" y2="171" gradientTransform="matrix(31.2134 31.2134 -31.2134 31.2134 5533.7813 -5309.3887)">
		<stop  offset="0" style="stop-color:#65B895"/>
		<stop  offset="6.850000e-02" style="stop-color:#62BD95"/>
		<stop  offset="0.4762" style="stop-color:#50DB97"/>
		<stop  offset="0.8009" style="stop-color:#44ED98"/>
		<stop  offset="1" style="stop-color:#40F498"/>
	</linearGradient>
	<path class="st15" d="M208.9,49.5C208.8,49.5,208.8,49.5,208.9,49.5c-1.1,0-2,0.4-2.7,1c0,0,0,0,0,0c-0.1,0.1-0.1,0.1-0.2,0.2l0,0
		l0.2,0.2c0.7-0.7,1.6-1,2.7-1c1,0,2.2,0.3,3.4,1l44.6,25.3l0.3-0.3l0,0l-44.9-25.5C211.1,49.8,209.9,49.5,208.9,49.5"/>
</g>
</svg>
