<?xml version="1.0" encoding="iso-8859-1"?>
<!-- Generator: Adobe Illustrator 19.0.0, SVG Export Plug-In . SVG Version: 6.00 Build 0)  -->
<svg version="1.1" id="Capa_1" xmlns="http://www.w3.org/2000/svg" xmlns:xlink="http://www.w3.org/1999/xlink" x="0px" y="0px"
	 viewBox="0 0 480.629 480.629" style="enable-background:new 0 0 480.629 480.629;" xml:space="preserve">
<g>
	<g>
		<path style="fill:#673AB7;" d="M479.029,235.735l-96-128c-1.511-2.014-3.882-3.2-6.4-3.2h-79.888C270.342,24.73,184.247-18.564,104.442,7.835
			s-123.099,112.494-96.7,192.299c26.356,79.675,112.231,122.982,191.967,96.809l9.328,26.12l24,72
			c0.184,0.56,0.431,1.096,0.736,1.6l24,40c0.462,0.769,1.049,1.456,1.736,2.032l48,40l10.24-12.304l-46.952-39.136l-22.856-38.08
			l-23.776-71.328l-29.488-82.552c-4.674-13.147,2.194-27.593,15.341-32.268c11.511-4.093,24.302,0.638,30.379,11.236l16.736,29.28
			l5.112,20.448c1.889,7.531,4.59,14.836,8.056,21.784l19.2,38.336c1.975,3.952,6.78,5.555,10.732,3.58
			c0.134-0.067,0.266-0.137,0.396-0.212l56-32c1.575-0.902,2.797-2.312,3.464-4l16-40c0.847-2.12,0.748-4.501-0.272-6.544l-40-80
			c-1.367-2.713-4.154-4.418-7.192-4.4h-24.344c0.144-2.664,0.344-5.328,0.344-8c-0.014-10.759-1.173-21.486-3.456-32h71.456
			l92,122.664v237.336h16v-240C480.629,238.804,480.067,237.12,479.029,235.735z M246.541,196.743
			c-11.897-11.19-29.289-14.279-44.312-7.872c-20.013,8.607-29.903,31.275-22.6,51.8l3.96,11.088
			c-55.193,17.574-114.183-12.921-131.757-68.115C34.257,128.452,64.753,69.462,119.946,51.887
			c55.193-17.574,114.183,12.921,131.757,68.115C259.763,145.313,257.918,172.74,246.541,196.743z M266.229,227.255l-9.088-15.904
			C289.95,153.392,269.562,79.81,211.603,47C153.644,14.191,80.062,34.579,47.253,92.538S34.831,224.079,92.79,256.888
			c29.261,16.564,64.108,20.159,96.135,9.919l5.384,15.08c-13.461,4.378-27.525,6.621-41.68,6.648c-75.111,0-136-60.889-136-136
			s60.889-136,136-136s136,60.889,136,136C288.717,179.109,280.922,205.113,266.229,227.255z M300.005,309.391l-15.376-30.768
			c-2.955-5.901-5.251-12.109-6.848-18.512l-4-16c0.896-1.195,1.776-2.397,2.64-3.608h23.264l26.848,53.696L300.005,309.391z
			 M302.653,176.535h21.032l36.184,72.368l-13.6,34.072l-5.792,3.304l-28.648-57.32c-1.362-2.725-4.153-4.441-7.2-4.424h-18.216
			C294.461,209.551,299.95,193.328,302.653,176.535z"/>
	</g>
</g>
<g>
	<g>
		<path style="fill:#673AB7;" d="M192.629,72.535c-13.255,0-24,10.745-24,24s10.745,24,24,24s24-10.745,24-24S205.883,72.535,192.629,72.535z
			 M192.629,104.535c-4.418,0-8-3.582-8-8s3.582-8,8-8s8,3.582,8,8S197.047,104.535,192.629,104.535z"/>
	</g>
</g>
<g>
	<g>
		<path style="fill:#673AB7;" d="M120.629,184.535c-13.255,0-24,10.745-24,24s10.745,24,24,24s24-10.745,24-24S133.883,184.535,120.629,184.535z
			 M120.629,216.535c-4.418,0-8-3.582-8-8s3.582-8,8-8s8,3.582,8,8S125.047,216.535,120.629,216.535z"/>
	</g>
</g>
<g>
	<g>
		<path style="fill:#673AB7;" d="M152.529,110.643c-1-16.892-14.979-30.085-31.9-30.108c-16.951,0.021-30.953,13.239-31.952,30.16
			c-9.879,8.784-10.767,23.913-1.983,33.792c8.784,9.879,23.913,10.767,33.792,1.983c0.702-0.624,1.367-1.289,1.991-1.992
			C140.119,143.434,153.574,128.286,152.529,110.643z M120.676,128.488c-0.072,0-0.143,0-0.215-0.001v0h-0.096l-1.136-0.128
			c-3.133-0.278-6.138,1.306-7.68,4.048c-1.376,2.54-4.031,4.125-6.92,4.128c-4.418,0-8-3.582-8-8
			c0.006-2.893,1.592-5.551,4.136-6.928c2.739-1.544,4.319-4.549,4.04-7.68c0-0.12-0.16-1.264-0.176-1.392
			c-0.026-8.836,7.116-16.021,15.953-16.047c8.836-0.026,16.021,7.116,16.047,15.953
			C136.654,121.278,129.512,128.462,120.676,128.488z"/>
	</g>
</g>
<g>
	<g>
		<circle style="fill:#673AB7;" cx="212.629" cy="132.535" r="12"/>
	</g>
</g>
<g>
	<g>
		<rect style="fill:#673AB7;" x="176.629" y="160.535" width="16" height="16"/>
	</g>
</g>
<g>
</g>
<g>
</g>
<g>
</g>
<g>
</g>
<g>
</g>
<g>
</g>
<g>
</g>
<g>
</g>
<g>
</g>
<g>
</g>
<g>
</g>
<g>
</g>
<g>
</g>
<g>
</g>
<g>
</g>
</svg>
