<?xml version="1.0" encoding="iso-8859-1"?>
<!-- Generator: Adobe Illustrator 19.0.0, SVG Export Plug-In . SVG Version: 6.00 Build 0)  -->
<svg version="1.1" id="Capa_1" xmlns="http://www.w3.org/2000/svg" xmlns:xlink="http://www.w3.org/1999/xlink" x="0px" y="0px"
	 viewBox="0 0 480 480" style="enable-background:new 0 0 480 480;" xml:space="preserve">
<g>
	<g>
		<path style="fill:#673AB7;" d="M480,168v-16h-62.112l-7.552-3.776c-5.557-2.77-11.679-4.215-17.888-4.224H368v-24c0-4.418-3.582-8-8-8H241.296
			c0.278-0.167,0.545-0.352,0.8-0.552c3.123-3.124,3.123-8.188,0-11.312L224,82.008V80c-0.012-10.168-6.418-19.229-16-22.632V0h-16
			v40h-24V0h-16v62.112l-3.784,7.552c-2.762,5.559-4.204,11.681-4.216,17.888V112h-24c-4.418,0-8,3.582-8,8v118.712
			c-0.168-0.277-0.353-0.544-0.552-0.8c-3.124-3.123-8.188-3.123-11.312,0L82.016,256H80c-10.168,0.012-19.229,6.418-22.632,16H0v16
			h40v24H0v16h62.112l7.552,3.776c5.557,2.77,11.679,4.215,17.888,4.224H112v24c0,4.418,3.582,8,8,8h118.704
			c-0.278,0.167-0.545,0.352-0.8,0.552c-3.123,3.124-3.123,8.188,0,11.312L256,397.992V400c0.012,10.168,6.418,19.229,16,22.632V480
			h16v-40h24v40h16v-62.112l3.784-7.552c2.762-5.559,4.204-11.681,4.216-17.888V368h24c4.418,0,8-3.582,8-8V241.288
			c0.169,0.277,0.353,0.544,0.552,0.8c3.124,3.123,8.188,3.123,11.312,0L397.984,224H400c10.168-0.012,19.229-6.418,22.632-16H480
			v-16h-40v-24H480z M224,104.64l6.816,6.808c0.254,0.202,0.521,0.387,0.8,0.552H224V104.64z M160,87.552
			c0.003-3.723,0.868-7.395,2.528-10.728l4.632-9.24C167.712,66.47,168,65.243,168,64v-8h24v8c0,4.418,3.582,8,8,8s8,3.582,8,8v48
			c0,4.418-3.582,8-8,8h-32c-4.418,0-8-3.582-8-8V87.552z M128,128h16c0,13.255,10.745,24,24,24h32c13.255,0,24-10.745,24-24h8
			v38.104h0.144c0.51,4.349,4.449,7.461,8.797,6.951c1.714-0.201,3.316-0.956,4.563-2.151c5.302-5.042,13.687-4.832,18.73,0.47
			c5.042,5.302,4.832,13.688-0.47,18.73c-5.115,4.864-13.145,4.864-18.259,0c-3.206-3.04-8.27-2.905-11.31,0.302
			c-1.404,1.481-2.189,3.442-2.194,5.482V232h-22.664c2.728-15.926-7.971-31.047-23.896-33.776s-31.047,7.971-33.776,23.896
			c-0.56,3.269-0.56,6.61,0,9.879H128V128z M111.448,249.184c0.201-0.254,0.385-0.522,0.552-0.8V256h-7.368L111.448,249.184z
			 M87.552,320c-3.724-0.002-7.397-0.87-10.728-2.536l-9.248-4.624c-1.111-0.554-2.335-0.841-3.576-0.84h-8v-24h8
			c4.418,0,8-3.582,8-8s3.582-8,8-8h48c4.418,0,8,3.582,8,8v32c0,4.418-3.582,8-8,8H87.552z M232,352H128v-16
			c13.255,0,24-10.745,24-24v-32c0-13.255-10.745-24-24-24v-8h35.704c4.418-0.001,7.999-3.583,7.999-8.001
			c0-1.761-0.582-3.474-1.655-4.871c-4.503-5.772-3.474-14.102,2.299-18.605c5.773-4.503,14.102-3.474,18.605,2.299
			c3.739,4.793,3.739,11.514,0,16.307c-2.691,3.504-2.031,8.527,1.473,11.217c1.397,1.073,3.109,1.654,4.871,1.655H232v18.192
			c-2.036-0.451-4.115-0.679-6.2-0.68c-16.155-0.267-29.469,12.613-29.736,28.768c-0.267,16.155,12.613,29.469,28.768,29.736
			c0.323,0.005,0.645,0.005,0.968,0c2.085-0.001,4.164-0.229,6.2-0.68V352z M256,375.36l-6.816-6.808
			c-0.254-0.202-0.521-0.387-0.8-0.552H256V375.36z M320,392.448c-0.003,3.723-0.868,7.395-2.528,10.728l-4.632,9.24
			c-0.552,1.114-0.839,2.341-0.84,3.584v8h-24v-8c0-4.418-3.582-8-8-8s-8-3.582-8-8v-48c0-4.418,3.582-8,8-8h32c4.418,0,8,3.582,8,8
			V392.448z M352,352h-16c0-13.255-10.745-24-24-24h-32c-13.255,0-24,10.745-24,24h-8v-41.528c-0.002-4.418-3.585-7.998-8.004-7.996
			c-1.983,0.001-3.894,0.738-5.364,2.068c-5.399,4.944-13.784,4.576-18.729-0.823c-4.944-5.399-4.576-13.784,0.823-18.729
			c5.067-4.64,12.839-4.64,17.905,0c3.276,2.965,8.335,2.712,11.3-0.564c1.33-1.47,2.067-3.382,2.068-5.364V248h23.744
			c-0.988,2.945-1.493,6.03-1.496,9.136c0.267,16.155,13.58,29.035,29.736,28.768c15.779-0.261,28.507-12.989,28.768-28.768
			c-0.003-3.106-0.508-6.191-1.496-9.136H352V352z M352,232h-40c-4.418-0.004-8.003,3.575-8.007,7.993
			c-0.002,2.558,1.219,4.963,3.287,6.471c3.451,2.459,5.498,6.435,5.496,10.672c-0.18,7.319-6.259,13.106-13.578,12.926
			c-7.066-0.174-12.753-5.86-12.926-12.926c0.002-4.238,2.053-8.213,5.504-10.672c3.57-2.603,4.354-7.607,1.751-11.177
			c-1.512-2.074-3.928-3.296-6.495-3.287H248v-23c15.74,3.649,31.458-6.152,35.108-21.892s-6.152-31.458-21.892-35.108
			c-4.348-1.008-8.868-1.008-13.216,0v-24h104v16c-13.255,0-24,10.745-24,24v32c0,13.255,10.745,24,24,24V232z M368.552,230.816
			c-0.201,0.254-0.385,0.522-0.552,0.8V224h7.368L368.552,230.816z M424,192h-8c-4.418,0-8,3.582-8,8s-3.582,8-8,8h-48
			c-4.418,0-8-3.582-8-8v-32c0-4.418,3.582-8,8-8h40.448c3.732-0.002,7.414,0.866,10.752,2.536l9.248,4.624
			c1.103,0.55,2.319,0.837,3.552,0.84h8V192z"/>
	</g>
</g>
<g>
</g>
<g>
</g>
<g>
</g>
<g>
</g>
<g>
</g>
<g>
</g>
<g>
</g>
<g>
</g>
<g>
</g>
<g>
</g>
<g>
</g>
<g>
</g>
<g>
</g>
<g>
</g>
<g>
</g>
</svg>
