<?xml version="1.0" encoding="iso-8859-1"?>
<!-- Generator: Adobe Illustrator 19.0.0, SVG Export Plug-In . SVG Version: 6.00 Build 0)  -->
<svg version="1.1" id="Capa_1" xmlns="http://www.w3.org/2000/svg" xmlns:xlink="http://www.w3.org/1999/xlink" x="0px" y="0px"
	 viewBox="0 0 480 480" style="enable-background:new 0 0 480 480;" xml:space="preserve">
<g>
	<g>
		<path style="fill:#673AB7;" d="M365.095,369.776l-85.088-85.088V168c0-4.418-3.582-8-8-8h-24v-8h24c44.163-0.049,79.952-35.837,80-80
			c0-4.418-3.582-8-8-8h-32c-30.718,0.043-58.699,17.671-72,45.36c-13.301-27.689-41.282-45.317-72-45.36h-32c-4.418,0-8,3.582-8,8
			c0.049,44.163,35.837,79.951,80,80h24v8h-24c-4.418,0-8,3.582-8,8v116.688L136.663,348c-0.224,0-0.424,0-0.656,0v0.688
			l-21.088,21.088c-12.148,12.083-18.958,28.522-18.912,45.656V440c0.026,22.08,17.92,39.974,40,40h208
			c22.08-0.026,39.974-17.92,40-40v-24.568C384.053,398.298,377.243,381.859,365.095,369.776z M312.007,80h23.504
			c-4.079,31.977-31.268,55.953-63.504,56h-5.6l50.016-33.344l-8.88-13.312l-57.36,38.24C257.649,99.56,283.006,80.044,312.007,80z
			 M213.607,136h-5.6c-32.236-0.047-59.425-24.023-63.504-56h23.504c28.992,0.054,54.337,19.569,61.8,47.584l-57.36-38.24
			l-8.88,13.312L213.607,136z M248.007,176h16v112c0,2.122,0.844,4.156,2.344,5.656l75.512,75.512
			c-5.255-2.028-10.248-4.678-14.872-7.896c-12.057-8.873-26.696-13.536-41.664-13.272c-13.218-0.342-26.229,3.328-37.32,10.528V176
			z M213.663,293.656c1.5-1.5,2.344-3.534,2.344-5.656V176h16v191.88c-6.737,2.915-14.03,4.321-21.368,4.12
			c-11.892,0.26-23.52-3.522-32.984-10.728c-6.476-4.533-13.595-8.068-21.12-10.488L213.663,293.656z M368.007,440
			c0,13.255-10.745,24-24,24h-208c-13.255,0-24-10.745-24-24v-24.568c-0.037-12.888,5.085-25.256,14.224-34.344l16.712-16.712
			c9.448,1.086,18.439,4.658,26.056,10.352c12.048,8.873,26.68,13.537,41.64,13.272c7.238,0.089,14.445-0.942,21.368-3.056V400h-8
			c-22.08,0.026-39.974,17.92-40,40h16c0-13.255,10.745-24,24-24h8v24h16v-24h8c13.255,0,24,10.745,24,24h16
			c-0.026-22.08-17.92-39.974-40-40h-8v-22.56c1.472-0.912,2.904-1.816,4.296-2.712c19.69-14.303,46.35-14.303,66.04,0
			c11.915,8.763,26.354,13.421,41.144,13.272c5.563,8.065,8.536,17.634,8.52,27.432V440z"/>
	</g>
</g>
<g>
	<g>
		<path style="fill:#673AB7;" d="M73.767,349.064l-12.784,9.592c3.792,5.04,7.856,9.976,12.072,14.68l11.912-10.672
			C81.055,358.296,77.287,353.712,73.767,349.064z"/>
	</g>
</g>
<g>
	<g>
		<path style="fill:#673AB7;" d="M376.1,46.06C337.025,16.177,289.199-0.01,240.007,0C116.296-0.013,15.997,100.266,15.985,223.977
			C15.98,267.452,28.627,309.989,52.383,346.4l13.392-8.752C2.945,241.446,29.998,112.525,126.2,49.695
			s225.123-35.777,287.953,60.425c47.3,72.422,44.853,166.556-6.146,236.424V328h-16v40c0,4.418,3.582,8,8,8h40v-16h-22.064
			C493.081,261.753,474.347,121.198,376.1,46.06z"/>
	</g>
</g>
<g>
	<g>
		<path style="fill:#673AB7;" d="M372.511,108.16l-12.04,10.528c52.793,60.39,52.711,150.538-0.192,210.832l12.024,10.568
			C430.503,273.762,430.592,174.59,372.511,108.16z"/>
	</g>
</g>
<g>
	<g>
		<path style="fill:#673AB7;" d="M111.487,294.832l-3.808,18.928c-40.899-60.117-36.035-140.269,11.832-195l-12.048-10.536
			C55.798,167.261,49.57,253.41,92.207,319.264l-18.128-4.8l-4.136,15.392l40,10.672c0.672,0.186,1.367,0.277,2.064,0.272
			c3.802,0.001,7.08-2.675,7.84-6.4l7.328-36.416L111.487,294.832z"/>
	</g>
</g>
<g>
</g>
<g>
</g>
<g>
</g>
<g>
</g>
<g>
</g>
<g>
</g>
<g>
</g>
<g>
</g>
<g>
</g>
<g>
</g>
<g>
</g>
<g>
</g>
<g>
</g>
<g>
</g>
<g>
</g>
</svg>
