<?xml version="1.0" encoding="iso-8859-1"?>
<!-- Generator: Adobe Illustrator 19.0.0, SVG Export Plug-In . SVG Version: 6.00 Build 0)  -->
<svg version="1.1" id="Capa_1" xmlns="http://www.w3.org/2000/svg" xmlns:xlink="http://www.w3.org/1999/xlink" x="0px" y="0px"
	 viewBox="0 0 493.236 493.236" style="enable-background:new 0 0 493.236 493.236;" xml:space="preserve">
<g>
	<g>
		<path style="fill:#673AB7;" d="M165.126,41.82c9.712-17.48,10.968-30,3.744-37.232c-11.08-11.088-32.936,0-49.312,11.272l-0.592,0.424
			c-1.834-0.194-3.676-0.29-5.52-0.288c-29.393,0.035-53.213,23.855-53.248,53.248c0,1.472,0.104,2.92,0.216,4.352
			C48.686,89.548,33.27,115.404,45.646,127.78c3.229,3.137,7.606,4.806,12.104,4.616c8.933-0.698,17.561-3.565,25.136-8.352
			c3.096-1.72,6.304-3.712,9.6-5.88c26.958,11.639,58.248-0.779,69.888-27.737c5.959-13.802,5.797-29.483-0.448-43.159
			C163.072,45.423,164.139,43.607,165.126,41.82z M57.19,116.796c-0.824-1.976,0.872-9.984,8.976-23.152
			c2.934,5.643,6.851,10.717,11.568,14.984C71.796,113.239,64.672,116.071,57.19,116.796z M91.558,99.236
			C74.94,87.2,71.227,63.971,83.263,47.354c7.007-9.674,18.238-15.388,30.182-15.358c11.613,0.037,22.539,5.512,29.52,14.792
			c-7.614,10.603-16.105,20.547-25.384,29.728C109.457,84.697,100.76,92.29,91.558,99.236z M113.446,106.5
			c-1.558-0.06-3.11-0.217-4.648-0.472c6.704-5.48,13.48-11.584,20.096-18.2c7.56-7.533,14.661-15.512,21.264-23.896
			c0.308,1.755,0.487,3.531,0.536,5.312C150.671,89.808,134.009,106.474,113.446,106.5z M151.934,32.548
			c-3.76-3.97-8.107-7.34-12.888-9.992c5.496-3.64,11.731-6.017,18.256-6.96C158.254,17.852,156.582,23.932,151.934,32.548z"/>
	</g>
</g>
<g>
	<g>
		<path style="fill:#673AB7;" d="M329.623,136.146c-4.548-0.904-9.23-0.9-13.777,0.011l3.136,15.68c6.307-1.318,12.851,0.662,17.368,5.256
			c4.575,4.502,6.554,11.018,5.256,17.304l15.68,3.136C361.075,158.465,348.69,139.935,329.623,136.146z"/>
	</g>
</g>
<g>
	<g>
		<rect style="fill:#673AB7;" x="242.136" y="255.973" transform="matrix(0.7071 -0.7071 0.7071 0.7071 -112.4238 256.5311)" width="22.624" height="16"/>
	</g>
</g>
<g>
	<g>
		<rect style="fill:#673AB7;" x="267.506" y="207.997" transform="matrix(0.7071 -0.7071 0.7071 0.7071 -64.4418 276.4184)" width="67.88" height="16"/>
	</g>
</g>
<g>
	<g>
		<path style="fill:#673AB7;" d="M484.358,7.996C367.933,7.742,264.248,81.589,226.43,191.7l-0.296,0.296H69.446c-4.418,0.001-7.999,3.583-7.998,8.002
			c0,2.121,0.843,4.154,2.342,5.654l26.344,26.344L71.79,250.34c-3.123,3.124-3.123,8.188,0,11.312l24,24
			c3.124,3.123,8.188,3.123,11.312,0l18.344-18.344l18.344,18.344l10.344,10.344L135.79,314.34c-1.077,1.128-1.789,2.556-2.04,4.096
			c-1.232,0.308-2.444,0.688-3.632,1.136c-0.8,0.32-1.456,0.8-2.2,1.152c-1.175,0.549-2.316,1.169-3.416,1.856
			c-0.728,0.48-1.368,1.08-2.064,1.6c-0.99,0.733-1.941,1.518-2.848,2.352c-0.648,0.632-1.192,1.36-1.792,2.048
			c-0.81,0.88-1.571,1.804-2.28,2.768c-0.544,0.8-0.968,1.6-1.448,2.4c-0.612,0.996-1.17,2.024-1.672,3.08
			c-0.4,0.896-0.68,1.84-1,2.784c-0.402,1.088-0.746,2.196-1.032,3.32c-0.232,1-0.336,2.024-0.472,3.056
			c-0.112,0.864-0.344,1.696-0.392,2.576L23.79,434.34l11.312,11.312l88-88c1.5-1.5,2.344-3.534,2.344-5.656V350.5
			c0.009-9.664,7.84-17.495,17.504-17.504v-0.2l17.528,17.528c0,0.056,0,0.104,0,0.16c0,9.672-7.84,17.512-17.512,17.512
			c-0.005,0-0.011,0-0.016,0h-1.504c-2.122,0-4.156,0.844-5.656,2.344l-88,88l11.312,11.312l85.712-85.712
			c14.21-0.826,26.341-10.556,30.232-24.248c1.54-0.251,2.968-0.963,4.096-2.04l18.304-18.344l10.344,10.344
			c0.056,0.056,0.128,0.072,0.176,0.12c0.048,0.048,0.072,0.12,0.128,0.168l19,17.096L207.79,386.34
			c-3.123,3.124-3.123,8.188,0,11.312l24,24c3.124,3.123,8.188,3.123,11.312,0l4.48-4.48c16.721,29.136,38.692,54.925,64.8,76.064
			l10.104-12.44c-25.707-20.83-47.14-46.436-63.12-75.408l4.896-4.896l23.832,21.448c1.469,1.323,3.375,2.055,5.352,2.056
			c1.122,0.002,2.232-0.235,3.256-0.696c2.884-1.285,4.743-4.146,4.744-7.304V267.308l77.656-77.656
			c1.115-1.117,1.875-2.54,2.184-4.088l11.24-56.152c2.624-13.114-5.881-25.872-18.995-28.496c-3.136-0.627-6.365-0.627-9.501,0
			l-56.184,11.24c-1.548,0.309-2.971,1.069-4.088,2.184l-46.888,46.888c24.441-46.714,62.721-84.733,109.6-108.856
			c4.524,19.32,23.853,31.315,43.173,26.791c19.32-4.524,31.315-23.853,26.791-43.173c-0.557-2.377-1.354-4.691-2.38-6.906
			c16.562-3.333,33.41-5.037,50.304-5.088V7.996z M101.446,268.684l-12.688-12.688l12.688-12.688l12.688,12.688L101.446,268.684z
			 M149.446,268.684l-60.688-60.688h121.376L149.446,268.684z M173.446,340.684l-20.688-20.688l42.344-42.344
			c5.836-5.59,15.098-5.391,20.688,0.445c5.421,5.659,5.421,14.584,0,20.243L173.446,340.684z M237.446,404.684l-12.688-12.688
			l14.24-14.24l13.36,12L237.446,404.684z M285.446,398.036l-60.384-54.344l60.384-60.384V398.036z M313.39,127.364l53.784-10.76
			c4.45-0.887,8.777,2.001,9.664,6.451c0.211,1.061,0.211,2.153,0,3.213l-10.76,53.784L287.79,258.34l-74.344,74.344l-4.688-4.688
			l18.344-18.344c11.96-11.96,11.96-31.352,0-43.312c-11.96-11.96-31.352-11.96-43.312,0l-18.344,18.344l-4.688-4.688l74.344-74.344
			l3.504-3.504l0.92,0.296c0.208-0.656,0.48-1.264,0.696-1.912L313.39,127.364z M401.604,64.058
			c-10.573,0.058-19.356-8.142-20.023-18.694c11.796-5.095,23.958-9.296,36.384-12.568c2.263,3.297,3.477,7.201,3.48,11.2
			C421.506,55.015,412.623,63.997,401.604,64.058z"/>
	</g>
</g>
<g>
	<g>
		<path style="fill:#673AB7;" d="M405.446,375.996c-17.673,0-32,14.327-32,32c0,17.673,14.327,32,32,32c17.673,0,32-14.327,32-32
			C437.446,390.323,423.119,375.996,405.446,375.996z M405.446,423.996c-8.837,0-16-7.163-16-16s7.163-16,16-16s16,7.163,16,16
			S414.282,423.996,405.446,423.996z"/>
	</g>
</g>
<g>
	<g>
		<path style="fill:#673AB7;" d="M389.446,207.996h-16c0.044,39.746,32.254,71.956,72,72v-16C414.534,263.957,389.485,238.908,389.446,207.996z"/>
	</g>
</g>
<g>
	<g>
		<path style="fill:#673AB7;" d="M445.446,167.996c-22.091,0-40,17.909-40,40s17.909,40,40,40c22.091,0,40-17.909,40-40
			C485.419,185.916,467.526,168.023,445.446,167.996z M445.446,231.996c-13.255,0-24-10.745-24-24s10.745-24,24-24s24,10.745,24,24
			S458.7,231.996,445.446,231.996z"/>
	</g>
</g>
<g>
	<g>
		<rect style="fill:#673AB7;" x="29.161" y="292.004" transform="matrix(0.7071 -0.7071 0.7071 0.7071 -195.3109 128.4863)" width="56.56" height="16"/>
	</g>
</g>
<g>
	<g>
		<rect style="fill:#673AB7;" x="10.167" y="327.998" transform="matrix(0.7071 -0.7071 0.7071 0.7071 -231.2954 113.5991)" width="22.624" height="16"/>
	</g>
</g>
<g>
	<g>
		<rect style="fill:#673AB7;" x="165.159" y="428.028" transform="matrix(0.7071 -0.7071 0.7071 0.7071 -251.6615 264.4919)" width="56.56" height="16"/>
	</g>
</g>
<g>
	<g>
		<rect style="fill:#673AB7;" x="146.101" y="463.998" transform="matrix(0.7071 -0.7071 0.7071 0.7071 -287.6478 249.552)" width="22.624" height="16"/>
	</g>
</g>
<g>
	<g>
		<rect style="fill:#673AB7;" x="8.477" y="459.994" transform="matrix(0.7071 -0.7071 0.7071 0.7071 -323.4674 155.0667)" width="33.944" height="16"/>
	</g>
</g>
<g>
</g>
<g>
</g>
<g>
</g>
<g>
</g>
<g>
</g>
<g>
</g>
<g>
</g>
<g>
</g>
<g>
</g>
<g>
</g>
<g>
</g>
<g>
</g>
<g>
</g>
<g>
</g>
<g>
</g>
</svg>
