<?xml version="1.0" encoding="iso-8859-1"?>
<!-- Generator: Adobe Illustrator 19.0.0, SVG Export Plug-In . SVG Version: 6.00 Build 0)  -->
<svg version="1.1" id="Capa_1" xmlns="http://www.w3.org/2000/svg" xmlns:xlink="http://www.w3.org/1999/xlink" x="0px" y="0px"
	 viewBox="0 0 512 512" style="enable-background:new 0 0 512 512;" xml:space="preserve">
<path style="fill:#ACABB1;" d="M88.809,453.921c0.07,2.245-0.17,4.43-0.681,6.504c-2.566,10.433-11.976,18.23-23.271,18.23
	c-13.539,0-24.383-11.204-23.952-24.734l7.456-297.557h32.992L88.809,453.921z"/>
<path style="fill:#C6C5CA;" d="M88.809,453.921c0.07,2.245-0.17,4.43-0.681,6.504c-13.219-0.371-23.682-11.415-23.261-24.714
	l6.995-279.348h9.491L88.809,453.921z"/>
<path style="fill:#D8D7DA;" d="M122.192,140.99c0,6.755-1.614,13.159-4.48,18.831c-6.945,13.77-21.246,23.281-37.642,23.281H49.644
	c-23.16,0-42.122-18.961-42.122-42.112l11.465-98.284c0-5.151,3.377-9.36,7.496-9.36c2.736,0,5.211,1.112,7.005,2.896
	c1.784,1.794,2.896,4.269,2.896,7.005v63.518c0,0.241,0.01,0.481,0.03,0.722c0.311,4.359,3.498,8.138,7.857,8.809
	c5.793,0.902,10.834-3.608,10.834-9.24V43.097c0-5.392,4.37-9.751,9.751-9.751c2.686,0,5.131,1.092,6.895,2.856
	c1.764,1.764,2.856,4.199,2.856,6.895v63.669c0,4.66,3.277,8.819,7.887,9.531c5.793,0.902,10.834-3.608,10.834-9.24V43.097
	c0-5.392,4.359-9.751,9.751-9.751h0.15c4.119,0,7.496,4.209,7.496,9.36L122.192,140.99z"/>
<path style="fill:#ACABB1;" d="M496.937,454.732c0.04,1.323-0.05,2.616-0.281,3.868c-1.553,8.929-9.441,15.774-18.991,15.774
	c-10.894,0-19.623-8.899-19.272-19.643l5.993-236.114h26.558L496.937,454.732z"/>
<path style="fill:#C6C5CA;" d="M496.937,454.732c0.04,1.323-0.05,2.616-0.281,3.868c-9.721-1.203-17.147-9.561-16.827-19.482
	l5.592-220.5h5.522L496.937,454.732z"/>
<path style="fill:#E0E0E2;" d="M122.192,140.99c0,6.755-1.614,13.159-4.48,18.831c-3.227,0.802-6.604,1.233-10.082,1.233H77.204
	c-23.16,0-42.122-18.961-42.122-42.112l1.333-11.455c0.311,4.359,3.498,8.138,7.857,8.809c5.793,0.902,10.834-3.608,10.834-9.24
	V43.097c0-5.392,4.37-9.751,9.751-9.751c2.686,0,5.131,1.092,6.895,2.856c1.764,1.764,2.856,4.199,2.856,6.895v63.669
	c0,4.66,3.277,8.819,7.887,9.531c5.793,0.902,10.834-3.608,10.834-9.24V43.097c0-5.392,4.359-9.751,9.751-9.751h0.15
	c4.119,0,7.496,4.209,7.496,9.36L122.192,140.99z"/>
<path style="fill:#D8D7DA;" d="M504.484,37.825v192.709c0,7.196-5.823,13.018-13.008,13.018h-18.089
	c-12.447,0-22.539-9.431-22.539-21.056V93.787c0-25.335,10.874-46.682,31.919-55.19c5.472-2.215,11.635-3.558,18.48-3.878
	C503.01,34.628,504.484,36.061,504.484,37.825z"/>
<path style="fill:#E0E0E2;" d="M504.484,37.825v179.35h-4.73c-12.447,0-22.529-9.421-22.529-21.056V67.41
	c0-10.503,1.864-20.314,5.542-28.813c5.472-2.215,11.635-3.558,18.48-3.878C503.01,34.628,504.484,36.061,504.484,37.825z"/>
<circle style="fill:#C6C5CA;" cx="271.17" cy="290.893" r="167.865"/>
<path style="fill:#D8D7DA;" d="M406.21,290.896c0,30.456-10.082,58.557-27.089,81.147c-24.644,32.731-63.819,53.888-107.945,53.888
	c-74.582,0-135.034-60.452-135.034-135.034c0-42.773,19.883-80.896,50.911-105.64c23.08-18.4,52.314-29.394,84.123-29.394
	C345.758,155.862,406.21,216.314,406.21,290.896z"/>
<path style="fill:#E0E0E2;" d="M406.21,290.896c0,30.456-10.082,58.557-27.089,81.147c-23.07,18.41-52.314,29.414-84.133,29.414
	c-74.582,0-135.044-60.462-135.044-135.034c0-30.466,10.092-58.577,27.109-81.167c23.08-18.4,52.314-29.394,84.123-29.394
	C345.758,155.862,406.21,216.314,406.21,290.896z"/>
<path d="M501.597,341.847c-0.11-4.089-3.448-7.326-7.516-7.326h-0.19c-4.149,0.1-7.426,3.558-7.326,7.707l2.866,112.745v0.381
	c0,6.344-5.271,11.505-11.766,11.505c-6.484,0-11.766-5.161-11.766-11.505c0-0.12,0-0.241,0.01-0.431l3.748-147.621
	c0.11-4.149-3.177-7.597-7.326-7.707c-4.119-0.08-7.596,3.177-7.697,7.326l-3.748,147.541c-0.01,0.301-0.02,0.601-0.02,0.892
	c0,14.632,12.026,26.538,26.798,26.538c14.782,0,26.798-11.906,26.798-26.538c0-0.291,0-0.581-0.01-0.812L501.597,341.847z"/>
<path d="M92.878,316.211c-0.1-4.159-3.578-7.426-7.707-7.326c-4.149,0.1-7.426,3.548-7.326,7.697l3.448,137.569
	c0.01,0.19,0.01,0.371,0.01,0.551c0,9.06-7.376,16.436-16.446,16.436s-16.446-7.376-16.446-16.436c0-0.18,0-0.361,0.01-0.601
	l4.911-196.016c0.1-4.149-3.177-7.597-7.326-7.697c-4.139-0.09-7.597,3.177-7.707,7.326L33.399,453.68
	c-0.02,0.341-0.02,0.681-0.02,1.022c0,17.348,14.121,31.468,31.478,31.468s31.478-14.121,31.478-31.468c0-0.341,0-0.681-0.01-0.972
	L92.878,316.211z"/>
<path d="M39.051,227.658c-0.1,4.149,3.177,7.597,7.326,7.697c4.179,0.08,7.597-3.177,7.707-7.326l0.932-37.411h19.683l2.395,95.909
	c0.11,4.089,3.448,7.326,7.516,7.326h0.19c4.149-0.1,7.426-3.548,7.326-7.707l-2.415-96.47c22.77-4.5,39.997-24.624,39.997-48.686
	c0-0.835,0.647,5.25-11.475-98.775c-0.23-9.08-6.875-16.386-15.003-16.386h-0.15c-9.521,0-17.268,7.747-17.268,17.268
	c-0.421,66.685,0.715,64.197-0.661,65.352c-1.191,1.066-3.027,0.167-3.027-1.684V43.097c0-9.521-7.747-17.268-17.268-17.268
	S47.59,33.576,47.59,43.097c-0.421,66.685,0.715,64.197-0.661,65.352c-1.191,1.066-3.027,0.167-3.027-1.684V43.247
	c0-9.601-7.817-17.418-17.418-17.418c-8.128,0-14.772,7.306-15.003,16.386C-0.64,146.24,0.006,140.158,0.006,140.99
	c0,24.062,17.227,44.186,39.997,48.686L39.051,227.658z M15.049,141.401C27.551,34.579,26.519,41.597,26.975,40.912
	c1.082,0.231,1.894,1.193,1.894,2.335v63.518c0,14.529,16.816,22.586,27.841,13.099c3.758-3.217,5.913-7.887,5.913-12.808V43.097
	c0-1.233,1.002-2.235,2.235-2.235c1.233,0,2.235,1.002,2.235,2.235v63.669c0,14.484,16.76,22.608,27.841,13.099
	c3.758-3.217,5.913-7.887,5.913-12.808V43.097c0-1.112,0.812-2.044,1.884-2.215c0.49,0.736-0.552-6.125,11.936,100.519
	c-0.216,18.812-15.587,34.184-34.595,34.184h-5.753c-9.248,0-15.501,0-24.674,0c-3.207,0-6.304-0.441-9.25-1.253
	C25.912,170.304,15.229,157.085,15.049,141.401z"/>
<path d="M504.484,27.122c-27.199,0-47.864,14.291-56.683,39.205c-1.393,3.909,0.661,8.208,4.57,9.591
	c3.909,1.383,8.208-0.661,9.591-4.57c5.843-16.476,18.129-26.468,35.006-28.712V159.36c0,4.149,3.367,7.516,7.516,7.516
	c4.159,0,7.516-3.367,7.516-7.516V34.638C512,30.489,508.643,27.122,504.484,27.122z"/>
<path d="M504.484,181.909c-4.149,0-7.516,3.357-7.516,7.516v24.704v21.908h-13.099h-10.483c-0.651,0-1.293-0.04-1.914-0.12
	c-7.386-0.842-13.109-6.534-13.109-13.419v-8.358V98.447c0-4.149-3.367-7.516-7.516-7.516c-4.149,0-7.516,3.367-7.516,7.516v124.05
	c0,9.671,5.081,18.24,12.848,23.411l-0.782,30.957c-0.11,4.149,3.167,7.596,7.316,7.697c4.139,0.07,7.607-3.167,7.707-7.316
	l0.671-26.267c0.752,0.06,1.523,0.09,2.295,0.09h10.864l1.553,61.103c0.1,4.079,3.447,7.326,7.506,7.326c0.07,0,0.13,0,0.2-0.01
	c4.149-0.1,7.426-3.548,7.316-7.697l-1.533-60.722h5.191c4.159,0,7.516-3.367,7.516-7.516v-54.128
	C512,185.266,508.643,181.909,504.484,181.909z"/>
<path d="M116.9,334.781c-29.044-102.377,48.133-204.234,154.276-204.234c45.339,0,88.763,19.332,119.139,53.035
	c2.786,3.077,7.536,3.327,10.623,0.551c3.077-2.786,3.327-7.536,0.551-10.623c-33.232-36.86-80.726-57.996-130.314-57.996
	c-115.91,0-200.547,111.243-168.737,223.376c0.942,3.307,3.959,5.462,7.226,5.462c0.681,0,1.373-0.09,2.064-0.291
	C115.718,342.929,118.033,338.78,116.9,334.781z"/>
<path d="M409.978,196.16c-3.528,2.185-4.62,6.815-2.435,10.343c15.694,25.295,23.982,54.479,23.982,84.394
	c0,88.412-71.937,160.349-160.349,160.349c-61.614,0-116.794-34.375-143.993-89.705c-1.834-3.728-6.334-5.261-10.062-3.427
	c-3.728,1.824-5.261,6.334-3.427,10.062c29.014,59.006,89.329,98.103,157.483,98.103c96.7,0,175.382-78.671,175.382-175.382
	c0-32.721-9.07-64.641-26.237-92.311C418.136,195.057,413.506,193.965,409.978,196.16z"/>
<path d="M140.179,257.122c-4.077-0.811-8.027,1.839-8.834,5.911c-17.454,88.031,49.98,170.416,139.83,170.416
	c78.605,0,142.554-63.949,142.554-142.553s-63.95-142.553-142.554-142.553c-0.003,0,0.001,0-0.002,0
	c-56.193,0-107.316,33.168-130.229,84.495c-1.692,3.79,0.009,8.236,3.799,9.928c3.793,1.694,8.236-0.008,9.928-3.799
	c20.501-45.92,66.231-75.591,116.505-75.59c70.316,0,127.521,57.205,127.521,127.52s-57.205,127.52-127.521,127.52
	c-80.14,0-140.749-73.446-125.084-152.461C146.898,261.885,144.251,257.929,140.179,257.122z"/>
<g>
</g>
<g>
</g>
<g>
</g>
<g>
</g>
<g>
</g>
<g>
</g>
<g>
</g>
<g>
</g>
<g>
</g>
<g>
</g>
<g>
</g>
<g>
</g>
<g>
</g>
<g>
</g>
<g>
</g>
</svg>
