<?xml version="1.0" encoding="iso-8859-1"?>
<!-- Generator: Adobe Illustrator 19.0.0, SVG Export Plug-In . SVG Version: 6.00 Build 0)  -->
<svg version="1.1" id="Capa_1" xmlns="http://www.w3.org/2000/svg" xmlns:xlink="http://www.w3.org/1999/xlink" x="0px" y="0px"
	 viewBox="0 0 512 512" style="enable-background:new 0 0 512 512;" xml:space="preserve">
<path style="fill:#2C733F;" d="M349.119,341.697v118.54c0,0.561-0.01,1.112-0.03,1.663c-0.871,23.668,8.824,48.758-44.221,42.588
	h-97.737c-49.79,4.918-43.349-18.92-44.221-42.588c-0.02-0.551-0.03-1.102-0.03-1.663v-118.54c0-18.67,3.526-37.22,10.427-54.988
	l26.072-67.107l11.789-30.329c6.901-17.788,10.427-36.338,10.427-54.998V95.733h68.81v38.542c0,18.66,3.526,37.21,10.427,54.998
	l11.789,30.329l26.072,67.107C345.594,304.478,349.119,323.027,349.119,341.697z"/>
<path style="fill:#368B4C;" d="M349.119,341.697v118.54c0,0.561-0.01,1.112-0.03,1.663c-0.871,23.668-20.343,42.588-44.221,42.588
	h-68.59c-23.878,0-43.349-18.92-44.221-42.588c-0.02-0.551-0.03-1.102-0.03-1.663v-118.54c0-18.67,3.526-37.22,10.427-54.988
	l19.912-51.252l6.16-15.855l11.789-30.329c6.901-17.788,10.427-36.338,10.427-54.998V95.733h39.664v38.542
	c0,18.66,3.526,37.21,10.427,54.998l11.789,30.329l26.072,67.107C345.594,304.478,349.119,323.027,349.119,341.697z"/>
<path style="fill:#FFE477;" d="M312.621,219.602c-14.573,14.343-34.575,23.177-56.621,23.177c-11.999,0-23.397-2.614-33.634-7.322
	c-8.574-3.926-16.356-9.325-22.987-15.855l11.789-30.329c6.901-17.788,10.427-36.338,10.427-54.998V95.733l69.051,0.15v38.542
	c0,18.66,3.526,37.21,10.427,54.998L312.621,219.602z"/>
<path style="fill:#FFCD00;" d="M349.119,351.072v109.165c0,0.561-0.01,1.112-0.03,1.663H162.911c-0.02-0.551-0.03-1.102-0.03-1.663
	V351.072H349.119z"/>
<path style="fill:#FFDA44;" d="M250.742,95.733v38.542c0,18.66-3.526,37.21-10.427,54.998l-11.789,30.329l-6.16,15.855
	c-8.574-3.926-16.356-9.325-22.987-15.855l11.789-30.329c6.901-17.788,10.427-36.338,10.427-54.998V95.733H250.742z"/>
<path style="fill:#DDB200;" d="M300.321,39.012v56.821c0,10.757-8.714,19.471-19.461,19.471h-49.72
	c-10.747,0-19.461-8.714-19.461-19.471V39.012c0-17.398,14.103-31.5,31.5-31.5h25.641C286.218,7.512,300.321,21.615,300.321,39.012z
	"/>
<path style="fill:#FFCD00;" d="M300.321,39.012v56.821c0,10.757-8.714,19.471-19.461,19.471h-28.686
	c-10.747,0-19.461-8.714-19.461-19.471V39.012c0-17.398,14.103-31.5,31.5-31.5h4.607C286.218,7.512,300.321,21.615,300.321,39.012z"
	/>
<path style="fill:#CCA400;" d="M192.028,460.237V351.072h-29.147v109.165c0,0.561,0.01,1.112,0.03,1.663h29.147
	C192.038,461.349,192.028,460.798,192.028,460.237z"/>
<path d="M345.694,283.985l-26.052-67.037c0-0.02-0.01-0.05-0.02-0.07l-11.789-30.329c-12.584-32.457-9.415-56.728-9.916-63.732
	h2.404c4.147,0,7.512-3.365,7.512-7.512V39.012C307.833,17.498,290.325,0,268.811,0h-25.621c-21.514,0-39.023,17.498-39.023,39.012
	v76.292c0,4.147,3.365,7.512,7.512,7.512h2.404c-0.501,7.004,2.666,31.279-9.916,63.732l-11.789,30.329
	c-0.01,0.02-0.02,0.05-0.02,0.07l-26.052,67.037c-7.252,18.68-10.938,38.101-10.938,57.712v162.791c0,4.147,3.365,7.512,7.512,7.512
	h186.238c4.147,0,7.512-3.365,7.512-7.512V341.697C356.631,322.086,352.945,302.665,345.694,283.985z M218.169,191.987
	c13.696-35.301,10.426-62.162,10.938-69.171h3.045c4.149,0,7.512-3.363,7.512-7.512s-3.363-7.512-7.512-7.512h-12.961v-68.78
	c0-13.249,10.74-23.988,23.988-23.988h25.631c13.254,0,23.998,10.744,23.998,23.998v68.77h-29.107c-4.149,0-7.512,3.363-7.512,7.512
	s3.363,7.512,7.512,7.512h19.191c0.511,6.993-2.812,33.735,10.938,69.171l9.936,25.561c-13.281,11.468-30.068,17.718-47.767,17.718
	s-34.485-6.25-47.766-17.718L218.169,191.987z M341.607,343.56h-94.431c-4.149,0-7.512,3.363-7.512,7.512s3.363,7.512,7.512,7.512
	h94.431v95.803h-15.996c-4.149,0-7.512,3.363-7.512,7.512c0,4.149,3.363,7.512,7.512,7.512h15.996v27.564H170.393v-27.564h123.668
	c4.149,0,7.512-3.363,7.512-7.512c0-4.149-3.363-7.512-7.512-7.512H170.393v-95.803h45.232c4.149,0,7.512-3.363,7.512-7.512
	s-3.363-7.512-7.512-7.512h-45.232v-1.863c0-17.748,3.335-35.337,9.916-52.274l22.216-57.162
	c15.294,11.699,33.924,18.029,53.476,18.029s38.181-6.33,53.476-18.029l22.216,57.162c6.581,16.937,9.916,34.525,9.916,52.274
	L341.607,343.56L341.607,343.56z"/>
<g>
</g>
<g>
</g>
<g>
</g>
<g>
</g>
<g>
</g>
<g>
</g>
<g>
</g>
<g>
</g>
<g>
</g>
<g>
</g>
<g>
</g>
<g>
</g>
<g>
</g>
<g>
</g>
<g>
</g>
</svg>
