<?xml version="1.0" encoding="iso-8859-1"?>
<!-- Generator: Adobe Illustrator 19.0.0, SVG Export Plug-In . SVG Version: 6.00 Build 0)  -->
<svg version="1.1" id="Capa_1" xmlns="http://www.w3.org/2000/svg" xmlns:xlink="http://www.w3.org/1999/xlink" x="0px" y="0px"
	 viewBox="0 0 512 512" style="enable-background:new 0 0 512 512;" xml:space="preserve">
<path style="fill:#C70024;" d="M141.635,59.115c0,17.547-8.758,33.06-22.157,42.369c-8.348,5.822-18.499,9.239-29.452,9.239
	c-28.5,0-51.609-23.109-51.609-51.609S61.526,7.516,90.026,7.516c0.872,0,1.734,0.02,2.585,0.07
	C119.909,8.929,141.635,31.486,141.635,59.115z"/>
<path style="fill:#FF0C38;" d="M141.635,59.115c0,17.547-8.758,33.06-22.157,42.369c-27.288-1.353-48.993-23.92-48.993-51.539
	c0-17.537,8.748-33.03,22.127-42.359C119.909,8.929,141.635,31.486,141.635,59.115z"/>
<path style="fill:#B3D8F4;" d="M471.37,63.364l-51.609,60.307L309.599,252.402l-3.497,4.089c-12.607,14.731-32.679,14.731-45.286,0
	l-113.66-132.82L95.548,63.364c-4.189-4.89-1.303-13.418,4.53-13.418h366.764C472.673,49.945,475.549,58.473,471.37,63.364z"/>
<g>
	<path style="fill:#D1E7F8;" d="M471.37,63.364l-51.609,60.307L309.599,252.402c-6.283-1.263-12.316-4.76-17.226-10.492
		L191.189,123.671l-12.476-14.581l-50.617-59.146h338.745C472.673,49.945,475.549,58.473,471.37,63.364z"/>
	<rect x="268.356" y="194.651" style="fill:#D1E7F8;" width="30.204" height="286.935"/>
</g>
<path style="fill:#B3D8F4;" d="M383.168,487.754l-95.435-28.283c-2.747-0.815-5.805-0.815-8.551,0l-95.435,28.283
	c-11.892,3.524-8.517,16.73,4.276,16.73h190.87C391.685,504.484,395.06,491.277,383.168,487.754z"/>
<path style="fill:#FF0C38;" d="M419.762,123.671L309.599,252.402l-3.497,4.089c-12.607,14.731-32.679,14.731-45.286,0
	l-113.66-132.82L419.762,123.671L419.762,123.671z"/>
<path style="fill:#C70024;" d="M309.599,252.402l-3.497,4.089c-12.607,14.731-32.679,14.731-45.286,0l-113.66-132.82h44.033
	L292.373,241.91C297.283,247.642,303.316,251.14,309.599,252.402z"/>
<path d="M466.841,42.43h-92.726c-4.149,0-7.516,3.367-7.516,7.516s3.367,7.516,7.516,7.516h91.683c0.02,0.11,0.04,0.23,0.04,0.361
	s-0.02,0.471-0.18,0.651l-49.364,57.682H307.695c-4.149,0-7.516,3.367-7.516,7.516s3.367,7.516,7.516,7.516h95.742
	C291.782,261.659,298.534,255.332,291.461,258.335l-1.102,0.451c-0.01,0-0.02,0.01-0.03,0.01c-4.587,1.654-9.58,1.698-14.461-0.291
	c-7.138-2.872-0.12,3.866-112.387-127.319h114.151c4.149,0,7.516-3.367,7.516-7.516s-3.367-7.516-7.516-7.516H150.614
	c-41.026-47.948-48.194-56.326-49.204-57.506c-0.013-0.015-0.023-0.027-0.034-0.04c0.007,0.009,0.012,0.014,0.018,0.021
	c-0.02-0.024-0.049-0.057-0.103-0.121c0.005,0.005,0.01,0.011,0.016,0.018c-0.013-0.016-0.024-0.028-0.032-0.038
	c0.001,0.001,0.003,0.003,0.004,0.005c-0.007-0.008-0.012-0.014-0.019-0.022c-0.16-0.19-0.18-0.521-0.18-0.651
	s0.01-0.251,0.03-0.361c9.178,0,230.27,0,242.942,0c4.149,0,7.516-3.367,7.516-7.516s-3.367-7.516-7.516-7.516H146.746
	C139.53,17.928,116.833,0,90.026,0C68.12,0,48.108,12.025,37.806,31.376c-1.954,3.668-0.561,8.217,3.107,10.161
	c3.658,1.954,8.207,0.561,10.161-3.097c7.686-14.44,22.608-23.409,38.952-23.409c18.409,0,34.222,11.334,40.816,27.398h-30.765
	c-7.867,0-14.03,6.764-14.03,15.392c0,3.868,1.343,7.576,3.788,10.432l23.951,27.989c-6.864,4.409-15.022,6.965-23.76,6.965
	c-22.908,0-41.778-17.166-43.893-39.944c-0.391-4.129-4.049-7.155-8.187-6.784c-4.129,0.391-7.165,4.049-6.784,8.187
	c1.363,14.601,8.087,28.109,18.94,38.05c10.923,10.011,25.103,15.523,39.924,15.523c12.476,0,24.051-3.888,33.601-10.502
	l17.778,20.764c0.01,0.02,0.02,0.04,0.04,0.06c0.086,0.1,36.09,42.179,36.487,42.54c0.065,0.104,82.808,97.172,82.905,97.272v62.565
	c0,4.149,3.367,7.516,7.516,7.516c4.159,0,7.516-3.367,7.516-7.516v-56.72c5.158,1.148,10.785,1.06,15.172,0.01v25.444
	c0,4.149,3.367,7.516,7.516,7.516c4.159,0,7.516-3.367,7.516-7.516v-32.729c4.491-3.584-9.45,12.192,171.011-198.699
	c2.445-2.856,3.788-6.554,3.788-10.422C480.87,49.194,474.707,42.43,466.841,42.43z"/>
<path d="M303.232,471.893C303.242,471.897,303.241,471.896,303.232,471.893L303.232,471.893z"/>
<path d="M303.226,471.892c-0.01-0.003-0.017-0.005-0.026-0.008c0.015,0.004,0.025,0.007,0.032,0.009
	C303.231,471.893,303.227,471.892,303.226,471.892z"/>
<path d="M303.036,471.836C302.905,471.797,302.952,471.811,303.036,471.836L303.036,471.836z"/>
<path d="M385.309,480.544l-79.237-23.48V329.736c0-4.149-3.357-7.516-7.516-7.516c-4.149,0-7.516,3.367-7.516,7.516v122.879
	c-0.661-0.154-3.388-1.263-7.576-1.263c-2.175,0-4.349,0.301-6.414,0.912l-1.182,0.351v-91.613c0-4.149-3.357-7.516-7.516-7.516
	c-4.149,0-7.516,3.367-7.516,7.516v96.063l-79.227,23.48c-9.981,2.966-13.498,10.793-12.566,17.236
	c1.213,8.368,9.019,14.22,18.98,14.22h190.873c9.961,0,17.767-5.852,18.98-14.22C398.807,491.336,395.28,483.51,385.309,480.544z
	 M378.895,496.968H188.023c-2.265,0-3.507-0.711-3.948-1.162c0.291-0.23,0.852-0.561,1.804-0.852
	c104.459-30.954,96.754-29.152,99.72-28.28c13.145,3.891,16.669,4.934,17.445,5.164c-0.002,0-0.004-0.001-0.006-0.001
	c0.01,0.003,0.021,0.006,0.034,0.01c0.024,0.007,0.047,0.014,0.065,0.02c0.019,0.005,0.04,0.012,0.063,0.019
	c-0.009-0.003-0.018-0.005-0.029-0.009c0.026,0.008,0.045,0.013,0.056,0.017c0.004,0.001,0.006,0.001,0.01,0.003l77.794,23.059
	c0.952,0.291,1.523,0.621,1.814,0.852C382.403,496.257,381.16,496.968,378.895,496.968z"/>
<g>
</g>
<g>
</g>
<g>
</g>
<g>
</g>
<g>
</g>
<g>
</g>
<g>
</g>
<g>
</g>
<g>
</g>
<g>
</g>
<g>
</g>
<g>
</g>
<g>
</g>
<g>
</g>
<g>
</g>
</svg>
