<?xml version="1.0" encoding="iso-8859-1"?>
<!-- Generator: Adobe Illustrator 19.0.0, SVG Export Plug-In . SVG Version: 6.00 Build 0)  -->
<svg version="1.1" id="Capa_1" xmlns="http://www.w3.org/2000/svg" xmlns:xlink="http://www.w3.org/1999/xlink" x="0px" y="0px"
	 viewBox="0 0 512 512" style="enable-background:new 0 0 512 512;" xml:space="preserve">
<path style="fill:#C2DFF6;" d="M289.61,288.95l-0.311,0.08c-5.53,1.465-11.14,2.569-16.781,3.292
	c-16.309,2.108-32.92,1.104-48.918-3.061c-0.391-0.1-0.783-0.211-1.174-0.311C103.333,257.385,98.947,165.722,115.578,95.507
	c7.738-32.689,20.033-60.731,27.43-75.906c3.603-7.397,11.11-12.074,19.33-12.074h187.361c8.22,0,15.727,4.677,19.33,12.074
	c7.397,15.175,19.692,43.217,27.43,75.906C413.089,165.722,408.703,257.385,289.61,288.95z"/>
<g>
	<path style="fill:#D1E7F8;" d="M289.61,288.95l-0.311,0.08c-5.53,1.465-11.14,2.569-16.781,3.292
		c-5.309-0.682-10.588-1.706-15.797-3.061c-0.391-0.1-0.783-0.211-1.174-0.311C136.454,257.385,132.068,165.722,148.698,95.507
		c7.738-32.689,20.033-60.731,27.43-75.906c3.603-7.397,11.11-12.074,19.33-12.074h154.24c8.22,0,15.727,4.677,19.33,12.074
		c7.397,15.175,19.692,43.217,27.43,75.906C413.089,165.722,408.703,257.385,289.61,288.95z"/>
	<rect x="236.449" y="247.549" style="fill:#D1E7F8;" width="39.14" height="233.338"/>
</g>
<path style="fill:#B3D8F4;" d="M251.614,458.106l-98.304,29.133c-12.249,3.63-8.773,17.234,4.404,17.234h196.609
	c13.177,0,16.654-13.603,4.404-17.234l-98.304-29.133C257.593,457.267,254.442,457.267,251.614,458.106z"/>
<path style="fill:#FF0C38;" d="M289.61,288.95l-0.311,0.08c-5.53,1.465-11.14,2.569-16.781,3.292
	c-16.309,2.108-32.92,1.104-48.918-3.061c-0.391-0.1-0.783-0.211-1.174-0.311C103.333,257.385,98.947,165.722,115.578,95.507h280.88
	C413.089,165.722,408.703,257.385,289.61,288.95z"/>
<path style="fill:#C70024;" d="M272.518,292.322c-16.309,2.108-32.92,1.104-48.918-3.061c-0.391-0.1-0.783-0.211-1.174-0.311
	C103.333,257.385,98.947,165.722,115.578,95.507h33.12c-16.63,70.215-12.244,161.878,106.848,193.443
	c0.391,0.1,0.783,0.211,1.174,0.311C261.93,290.616,267.209,291.639,272.518,292.322z"/>
<path d="M360.869,480.024l-77.752-23.044v-21.227c0-4.165-3.372-7.527-7.527-7.527s-7.527,3.362-7.527,7.527v16.761
	c-2.611-0.356-9.444-4.326-18.588-1.626l-5.5,1.626v-68.981c0-4.155-3.372-7.527-7.527-7.527s-7.527,3.372-7.527,7.527v73.447
	l-77.752,23.044c-10.157,3.011-13.74,10.96-12.796,17.514c1.234,8.511,9.193,14.463,19.34,14.463h196.614
	c10.147,0,18.106-5.952,19.34-14.463C374.609,490.984,371.026,483.035,360.869,480.024z M354.325,496.945H157.711
	c-2.71,0-4.025-0.933-4.366-1.435c0.251-0.251,0.883-0.693,2.098-1.054c66.903-19.831,64.967-19.258,98.307-29.136
	c3.709-1.082,5.912,0.732,14.312,2.901c75.324,22.321,86.919,25.758,88.357,26.183c-0.006-0.001,0.001,0,0.024,0.007
	c0.017,0.005,0.033,0.009,0.046,0.014c-0.011-0.003-0.022-0.007-0.032-0.01c0.014,0.004,0.032,0.009,0.055,0.017
	c0.041,0.012,0.066,0.02,0.078,0.023c-0.004-0.001-0.008-0.002-0.013-0.004c0.006,0.002,0.01,0.003,0.016,0.005
	c1.214,0.361,1.847,0.803,2.098,1.054C358.35,496.012,357.035,496.945,354.325,496.945z M356.593,494.456
	C356.605,494.459,356.604,494.459,356.593,494.456L356.593,494.456z"/>
<path d="M356.512,494.432c-0.007-0.002-0.015-0.004-0.023-0.007c0.031,0.009,0.065,0.019,0.088,0.026
	C356.552,494.443,356.53,494.437,356.512,494.432z"/>
<path d="M375.793,16.309C370.976,6.403,360.728,0,349.698,0h-81.486c-4.165,0-7.527,3.372-7.527,7.527s3.362,7.527,7.527,7.527
	h81.486c5.309,0,10.237,3.081,12.566,7.849c6.082,12.475,16.831,36.573,24.519,65.076H182.802c-4.155,0-7.527,3.372-7.527,7.527
	c0,4.155,3.372,7.527,7.527,7.527h207.644c0.05,0.211,0.09,0.422,0.13,0.632c17.156,79.091-4.863,143.351-80.934,170.991
	c-28.401,10.792-48.217,12.319-65.669,10.609c-20.813-2.06-51.726-12.068-74.681-27.369c-3.131-4.104-62.964-32.289-51.858-129.832
	c0.843-7.732,2.929-19.91,4.165-25.031h31.093c4.155,0,7.527-3.372,7.527-7.527c0-4.155-3.372-7.527-7.527-7.527h-27.44
	c7.688-28.504,18.437-52.601,24.519-65.086c2.328-4.757,7.256-7.838,12.566-7.838h75.765c4.155,0,7.527-3.372,7.527-7.527
	S242.258,0,238.103,0h-75.765c-11.03,0-21.277,6.403-26.095,16.299c-39.812,81.735-58.067,185.935,11.803,244.508
	c1.55,0.504,22.19,22.016,72.513,35.439c0.473,0.118,4.037,1.106,8.36,1.967v55.211c0,4.155,3.372,7.527,7.527,7.527
	s7.527-3.372,7.527-7.527v-53.033c7.864,0.697,15.874,0.726,24.088-0.01v105.262c0,4.155,3.372,7.527,7.527,7.527
	s7.527-3.372,7.527-7.527v-107.45c56.521-11.305,107.804-46.124,122.535-103.165C420.957,138.556,401.21,68.452,375.793,16.309z"/>
<g>
</g>
<g>
</g>
<g>
</g>
<g>
</g>
<g>
</g>
<g>
</g>
<g>
</g>
<g>
</g>
<g>
</g>
<g>
</g>
<g>
</g>
<g>
</g>
<g>
</g>
<g>
</g>
<g>
</g>
</svg>
