<?xml version="1.0" encoding="iso-8859-1"?>
<!-- Generator: Adobe Illustrator 19.0.0, SVG Export Plug-In . SVG Version: 6.00 Build 0)  -->
<svg version="1.1" id="Capa_1" xmlns="http://www.w3.org/2000/svg" xmlns:xlink="http://www.w3.org/1999/xlink" x="0px" y="0px"
	 viewBox="0 0 512 512" style="enable-background:new 0 0 512 512;" xml:space="preserve">
<g>
	<path style="fill:#D1E7F8;" d="M159.88,104.569l-40.333-66.249c-2.034-3.818-7.243-4.452-10.135-1.233l-12.16,13.541L85.091,64.168
		c-2.89,3.218-1.702,8.33,2.312,9.943l64.655,39.168C157.452,115.446,162.613,109.699,159.88,104.569z"/>
	<path style="fill:#D1E7F8;" d="M202.723,112.746l13.641-76.352c1.004-4.208-2.481-8.133-6.777-7.635l-18.079,2.095l-18.079,2.095
		c-4.297,0.498-6.791,5.116-4.852,8.982l22.517,72.161C193.7,119.29,201.374,118.4,202.723,112.746z"/>
</g>
<path style="fill:#FFCD00;" d="M493.476,191.079l11.525,89.255c2.521,19.524-11.265,37.398-30.788,39.918l-53.108,6.858
	l-4.662-36.099l37.861-4.889c0.922-0.119,1.822-0.298,2.695-0.534c9.638-2.596,16.124-11.986,14.81-22.162l-6.141-47.562
	c-1.313-10.176-9.972-17.61-19.954-17.672c-0.904-0.007-1.82,0.049-2.742,0.168l-37.861,4.889l-4.662-36.099l53.108-6.858
	C473.082,157.77,490.956,171.556,493.476,191.079z"/>
<g>
	<path style="fill:#DDB200;" d="M441.03,161.909l4.685,36.283c-0.904-0.007-1.82,0.049-2.742,0.168l-37.861,4.889l-4.662-36.099
		L441.03,161.909z"/>
	<path style="fill:#DDB200;" d="M454.305,286.122c0.922-0.119,1.822-0.298,2.695-0.534l4.685,36.283l-40.58,5.24l-4.662-36.099
		L454.305,286.122z"/>
</g>
<path style="fill:#FFCD00;" d="M407.388,116.794l26.39,204.378c1.288,9.979-0.271,19.671-4.043,28.257
	c-7.279,16.537-22.781,28.966-42.007,31.449l-58.972,7.615c-29.205,3.771-55.935-16.845-59.706-46.049l-26.39-204.378
	L407.388,116.794z"/>
<path style="fill:#FFDA44;" d="M407.388,116.794l26.39,204.378c1.288,9.979-0.271,19.671-4.043,28.257
	c-7.345,5.829-16.324,9.8-26.302,11.088l-68.653,8.865c-23.856,3.081-45.694-13.756-48.773-37.612l-25.313-196.033L407.388,116.794z
	"/>
<path style="fill:#FFF5CC;" d="M419.561,89.65c0.812-3.925,0.924-8.072,0.208-12.287c-2.841-16.733-18.178-28.761-35.103-27.503
	c-13.277,0.986-23.969,9.538-28.463,20.954c-0.927,2.353-4.173,2.53-5.344,0.288c-7.346-14.068-22.898-22.772-39.558-20.621
	c-13.596,1.755-24.64,10.319-30.164,21.819c-1.5,3.123-4.777,5.064-8.234,4.855c-2.049-0.124-4.138-0.059-6.249,0.214
	c-18.168,2.346-30.995,18.977-28.649,37.145l0.025,0.192c0.372,2.861-1.048,5.62-3.529,7.094
	c-11.329,6.73-18.066,19.919-15.809,33.861c2.761,17.053,18.474,29.26,35.679,27.711c18.856-1.698,32.358-18.686,29.956-37.287
	l-0.004-0.028c-0.119-0.924,0.931-1.541,1.673-0.979c6.688,5.067,15.286,7.619,24.266,6.459c1.357-0.175,2.682-0.432,3.974-0.763
	c2.432-0.624,4.869,0.976,5.191,3.467l13.875,107.456c1.035,8.017,8.44,13.728,16.457,12.693l0,0
	c8.017-1.035,13.728-8.44,12.693-16.457l-6.336-49.836c1.155,8.948,9.422,15.324,18.37,14.168l0,0
	c8.948-1.155,15.324-9.422,14.168-18.37l-6.72-52.04c-0.255-1.975,1.61-3.547,3.516-2.969c4.951,1.499,10.344,1.863,15.838,0.811
	c16.604-3.179,28.266-18.66,26.757-35.499c-0.593-6.618-3.074-12.571-6.844-17.413C419.63,94.764,419.042,92.158,419.561,89.65z"/>
<g>
	<path style="fill:#FFEB99;" d="M382.184,191.424c-2.568,3.33-6.4,5.685-10.874,6.263c-8.948,1.155-17.216-5.221-18.371-14.169
		l6.339,49.839c0.517,4.006-0.652,7.865-2.948,10.843c-2.302,2.985-5.731,5.096-9.744,5.614c-8.02,1.036-15.422-4.681-16.457-12.693
		l3.173,24.574c1.036,8.02,8.437,13.729,16.457,12.693c4.013-0.518,7.442-2.629,9.745-5.607c2.296-2.984,3.466-6.837,2.948-10.85
		l-6.339-49.832c1.155,8.948,9.422,15.324,18.371,14.169c4.474-0.578,8.305-2.933,10.874-6.262c2.568-3.33,3.873-7.634,3.295-12.108
		l-3.174-24.581C386.058,183.791,384.753,188.095,382.184,191.424z"/>
	<path style="fill:#FFEB99;" d="M311.301,50.48c-13.599,1.756-24.637,10.322-30.161,21.821c-1.506,3.124-4.778,5.062-8.236,4.854
		c-2.049-0.121-4.136-0.058-6.251,0.214c-18.168,2.346-30.99,18.979-28.645,37.146l0.024,0.19c0.37,2.86-1.052,5.622-3.529,7.093
		c-11.33,6.735-18.069,19.923-15.808,33.862c2.178,13.448,12.402,23.879,25.064,26.93c-3.78-4.453-6.425-9.936-7.413-16.038
		c-2.262-13.941,4.477-27.134,15.808-33.863c2.478-1.471,3.899-4.232,3.529-7.093l-0.024-0.189
		c-2.346-18.168,10.476-34.801,28.645-37.147c2.115-0.274,4.203-0.336,6.251-0.214c3.459,0.208,6.737-1.731,8.236-4.854
		c5.524-11.5,16.562-20.066,30.161-21.821c5.498-0.71,10.88-0.233,15.879,1.223C336.557,53.71,324.263,48.805,311.301,50.48z"/>
</g>
<path style="fill:#FFCD00;" d="M19.05,285.476L7.525,374.73c-2.521,19.524,11.265,37.398,30.788,39.918l53.108,6.858l4.662-36.099
	l-37.861-4.889c-0.922-0.119-1.822-0.298-2.695-0.534c-9.638-2.596-16.124-11.986-14.81-22.162l6.141-47.562
	c1.314-10.176,9.972-17.61,19.954-17.672c0.904-0.007,1.82,0.049,2.742,0.168l37.861,4.889l4.662-36.099l-53.108-6.859
	C39.445,252.166,21.571,265.952,19.05,285.476z"/>
<g>
	<path style="fill:#DDB200;" d="M71.496,256.305l-4.685,36.283c0.904-0.007,1.82,0.049,2.742,0.168l37.861,4.889l4.662-36.099
		L71.496,256.305z"/>
	<path style="fill:#DDB200;" d="M58.221,380.518c-0.922-0.119-1.822-0.298-2.695-0.534l-4.685,36.283l40.58,5.24l4.662-36.099
		L58.221,380.518z"/>
</g>
<path style="fill:#FFCD00;" d="M105.139,211.19L78.748,415.569c-1.288,9.979,0.271,19.671,4.043,28.257
	c7.279,16.537,22.781,28.966,42.007,31.449l58.972,7.615c29.205,3.771,55.935-16.845,59.705-46.049l26.39-204.378L105.139,211.19z"
	/>
<path style="fill:#FFDA44;" d="M105.139,211.19L78.748,415.569c-1.288,9.979,0.271,19.671,4.043,28.257
	c7.345,5.829,16.324,9.8,26.302,11.088l68.653,8.865c23.856,3.081,45.694-13.756,48.773-37.612l25.313-196.033L105.139,211.19z"/>
<path style="fill:#FFF5CC;" d="M92.966,184.048c-0.812-3.925-0.924-8.072-0.208-12.287c2.841-16.733,18.178-28.761,35.103-27.503
	c13.277,0.986,23.969,9.538,28.463,20.954c0.927,2.353,4.173,2.53,5.344,0.288c7.346-14.068,22.898-22.772,39.558-20.621
	c13.596,1.755,24.64,10.319,30.164,21.819c1.5,3.123,4.777,5.064,8.234,4.855c2.049-0.124,4.138-0.059,6.249,0.214
	c18.168,2.346,30.995,18.977,28.649,37.145l-0.025,0.192c-0.372,2.861,1.048,5.62,3.529,7.094
	c11.329,6.73,18.066,19.919,15.809,33.861c-2.761,17.053-18.474,29.26-35.679,27.711c-18.856-1.698-32.358-18.686-29.956-37.287
	l0.004-0.028c0.119-0.924-0.931-1.541-1.673-0.979c-6.688,5.067-15.286,7.619-24.265,6.459c-1.356-0.175-2.682-0.432-3.974-0.763
	c-2.432-0.624-4.869,0.976-5.191,3.467l-13.875,107.456c-1.035,8.017-8.44,13.728-16.457,12.693l0,0
	c-8.017-1.035-13.728-8.44-12.693-16.457l6.336-49.836c-1.155,8.948-9.422,15.324-18.37,14.168l0,0
	c-8.948-1.155-15.324-9.422-14.168-18.37l6.72-52.04c0.255-1.975-1.61-3.546-3.516-2.969c-4.951,1.499-10.344,1.863-15.838,0.811
	c-16.604-3.179-28.266-18.66-26.757-35.499c0.593-6.618,3.074-12.571,6.844-17.413C92.897,189.16,93.485,186.555,92.966,184.048z"/>
<g>
	<path style="fill:#FFEB99;" d="M130.342,285.821c2.568,3.33,6.4,5.685,10.874,6.264c8.948,1.155,17.216-5.221,18.371-14.169
		l-6.339,49.839c-0.517,4.006,0.652,7.865,2.948,10.843c2.302,2.985,5.73,5.096,9.744,5.614c8.02,1.036,15.422-4.681,16.457-12.693
		l-3.173,24.574c-1.036,8.02-8.437,13.729-16.457,12.693c-4.013-0.518-7.442-2.629-9.745-5.607
		c-2.296-2.984-3.466-6.837-2.948-10.85l6.339-49.832c-1.155,8.948-9.422,15.324-18.371,14.169
		c-4.474-0.578-8.305-2.933-10.874-6.263c-2.568-3.33-3.873-7.634-3.295-12.108l3.174-24.581
		C126.469,278.187,127.774,282.491,130.342,285.821z"/>
	<path style="fill:#FFEB99;" d="M201.226,144.876c13.599,1.756,24.637,10.322,30.161,21.821c1.506,3.124,4.778,5.062,8.236,4.854
		c2.049-0.121,4.136-0.058,6.251,0.214c18.168,2.346,30.991,18.979,28.645,37.146l-0.025,0.19c-0.37,2.86,1.052,5.622,3.529,7.093
		c11.33,6.735,18.069,19.923,15.808,33.862c-2.178,13.448-12.402,23.879-25.064,26.93c3.78-4.453,6.425-9.936,7.413-16.038
		c2.262-13.941-4.477-27.134-15.808-33.863c-2.478-1.471-3.899-4.232-3.529-7.093l0.024-0.189
		c2.346-18.168-10.476-34.801-28.645-37.147c-2.115-0.273-4.203-0.336-6.251-0.214c-3.459,0.208-6.737-1.731-8.236-4.854
		c-5.524-11.5-16.562-20.066-30.161-21.821c-5.498-0.71-10.88-0.233-15.879,1.223C175.969,148.107,188.264,143.202,201.226,144.876z
		"/>
	<path style="fill:#FFEB99;" d="M127.865,144.261c-16.931-1.262-32.269,10.77-35.104,27.5c-0.721,4.218-0.611,8.365,0.2,12.283
		c0.521,2.515-0.06,5.119-1.633,7.133c-3.777,4.849-6.251,10.8-6.853,17.412c-1.292,14.537,7.213,28.071,20.247,33.531
		c-4.238-6.181-6.432-13.775-5.72-21.68c0.591-6.612,3.076-12.563,6.843-17.412c1.573-2.014,2.164-4.618,1.643-7.133
		c-0.811-3.927-0.922-8.075-0.21-12.283c2.845-16.731,18.183-28.763,35.104-27.5c3.707,0.271,7.213,1.142,10.439,2.495
		C147.35,150.612,138.424,145.042,127.865,144.261z"/>
</g>
<path d="M500.178,191.007c-2.964-23.059-24.083-40.267-48.228-37.238l-32.359,4.168l-0.922-7.183
	c10.068-7.464,16.44-19.426,16.44-32.63c0-1.182-0.05-2.394-0.16-3.577c-1.264-14.274-8.606-20.62-8.606-22.04
	c0-0.515,0.872-3.558,0.872-8.466c0-22.734-18.889-40.645-40.594-40.645c-0.992,0-1.984,0.03-2.965,0.11
	c-12.884,0.952-24.174,7.714-31.017,18.193c-8.686-11.231-22.101-17.953-36.627-17.953c-1.984,0-3.987,0.13-5.971,0.391
	c-15.649,2.004-29.073,11.711-35.926,25.948c-0.17,0.351-0.551,0.601-0.972,0.601c-0.01,0-0.01,0-0.01,0
	c-23.27-1.419-43.089,17.152-43.089,40.494c0,1.713,0.11,3.436,0.321,5.149c-8.976,5.38-15.458,14.026-18.233,23.884
	c-18.394-6.81-40.006-1.43-52.777,15.078c-21.748-33.356-74.567-18.167-74.567,22.331c0,5.207,0.872,7.89,0.872,8.476
	c0,0.956-8.776,10.135-8.776,25.617c0,13.204,6.372,25.166,16.44,32.63l-0.922,7.183C59.467,247.392,59.226,247,54.5,247
	c-21.58,0-39.923,16.16-42.688,37.589C-0.196,378.913,0,374.159,0,379.202c0,21.58,16.16,39.933,37.589,42.688l33.001,4.248
	c0.351,16.45,7.734,31.939,20.367,42.658c3.165,2.671,7.891,2.309,10.599-0.872c2.675-3.166,2.284-7.905-0.872-10.589
	c-8.766-7.434-14.116-17.953-14.967-29.254c-0.473-6.262-0.928,0.388,21.89-176.985c4.325,1.125,9.507,1.554,14.637,0.952
	c-6.147,48.312-6.021,45.722-6.021,48.329c0,15.612,14.861,27.063,29.885,23.122l-3.516,27.741
	c-1.563,12.242,7.157,23.287,19.155,24.836c0.942,0.12,1.893,0.18,2.835,0.18c11.12,0,20.588-8.315,22-19.345l6.271-48.699
	c0.531-4.118-2.384-7.874-6.492-8.405c-4.118-0.531-7.884,2.374-8.415,6.491l-6.261,48.689c-0.501,3.857-4.098,6.682-8.015,6.181
	c-3.557-0.451-6.231-3.506-6.231-7.093c0-0.845-0.303,2.092,6.362-50.663c0.521-4.108-2.394-7.864-6.502-8.395
	c-4.118-0.521-7.874,2.384-8.405,6.502c-0.62,4.778-5.025,8.285-9.918,7.644c-4.528-0.578-8.222-4.654-7.654-9.908l6.692-51.945
	c0.885-7.598-6.193-13.203-13.154-11.1c-10.8,3.279-22.848-0.983-29.073-10.96v-0.01c-2.465-3.947-3.877-8.606-3.877-13.525
	c0-14.143,8.776-15.123,8.776-25.617c0-3.124-0.872-4.29-0.872-8.476c0-14.791,12.623-26.507,27.42-25.547
	c9.918,0.731,18.334,6.923,21.97,16.16c3.315,8.381,14.873,8.915,18.985,1.012c12.042-23.063,45.067-22.155,56.143,0.942
	c2.665,5.54,8.345,9.117,14.487,9.117c0.639,0,0.997-0.04,1.262-0.04v-0.01c5.737-0.271,11.208,1.352,15.729,4.478l0.44,0.438
	c6.864,6.833,10.466,16.199,10.321,25.882c0,0.027-0.001,0.053-0.001,0.079c0,5.139,2.785,9.978,7.263,12.643
	c17.121,10.158,16.674,35.216-1.222,44.642v0.01c-18.075,9.541-39.971-5.219-37.198-25.928c0.877-7.889-7.891-12.341-13.665-7.925
	c-11.161,8.454-21.885,4.027-24.695,4.027c-5.851,0-10.83,4.368-11.571,10.159l-3.697,28.723c-0.531,4.118,2.374,7.884,6.492,8.415
	c4.128,0.531,7.884-2.374,8.415-6.492l3.226-25.116c6.21,1.084,13.781,0.503,20.738-2.124c2.625,17.051,15.769,30.576,33.001,33.602
	l0.791,6.121l-19.015,147.72c-2.937,22.842-23.854,39.818-47.677,36.807l-64.999-8.365c-4.108-0.531-7.884,2.384-8.415,6.492
	c-0.521,4.118,2.384,7.884,6.502,8.415l64.999,8.365c2.454,0.311,4.949,0.471,7.414,0.471c28.853,0,53.398-21.61,57.085-50.262
	l11.711-91.037c5.253,30.158,33.479,51.219,64.108,47.237l64.999-8.365c4.118-0.531,7.023-4.288,6.492-8.405
	s-4.298-7.033-8.415-6.492c-68.398,8.681-65.584,8.716-70.499,8.716c-21.319,0-39.452-15.979-42.177-37.158l-6.963-54.139
	l0.862-6.682c35.232-8.83,42.207-55.709,11.17-74.286c1.164-8.997-0.725-18.349-5.73-26.408
	c8.165-6.181,13.815-15.388,15.448-25.938c6.181,2.344,12.904,3.156,19.536,2.304c0.391-0.05,0.791-0.11,1.192-0.17l3.236,25.106
	c0.531,4.118,4.278,7.023,8.405,6.492c4.118-0.531,7.023-4.288,6.492-8.405l-3.697-28.733c-0.741-5.791-5.72-10.149-11.561-10.149
	c-0.982,0-1.974,0.12-2.925,0.371c-1.012,0.25-2.044,0.451-3.066,0.581c-6.722,0.862-13.344-0.922-18.724-4.999
	c-1.503-1.132-3.286-1.733-5.149-1.733c-4.729,0-8.566,3.847-8.566,8.566c0,0.371,0.02,0.741,0.07,1.132
	c1.234,9.613-2.951,18.988-10.89,24.405h-0.01c-6.934-5.243-15.449-8.145-24.355-8.145c-2.463,0-2.979,0.353-3.456-0.521
	c-2.925-6.101-7.063-11.361-12.072-15.549c0.952-7.794,5.5-14.877,12.363-18.945c4.478-2.655,7.253-7.504,7.253-12.643
	c0-0.621-0.04-1.242-0.12-1.863l-0.02-0.18c-0.14-1.102-0.21-2.214-0.21-3.316c0-12.803,9.598-23.693,22.321-25.326
	c1.603-0.21,3.346-0.26,4.759-0.17c6.512,0.441,12.703-3.236,15.508-9.087c4.638-9.628,13.715-16.2,24.295-17.562
	c1.352-0.17,2.715-0.26,4.057-0.26c11.711,0,22.361,6.472,27.791,16.881c1.803,3.466,5.36,5.62,9.257,5.62
	c4.328,0,8.145-2.605,9.728-6.622c3.637-9.237,12.062-15.428,21.97-16.16c0.621-0.05,1.242-0.07,1.863-0.07
	c12.303,0,23.142,9.147,25.196,21.289c0.523,3.114,0.512,6.229-0.16,9.477c-0.948,4.495,0.078,9.434,3.066,13.264
	c3.534,4.535,5.36,10.074,5.36,15.669c0,11.203-7.306,20.977-17.632,24.325c-1.002,0.331-2.044,0.601-3.106,0.801
	c-4.098,0.781-8.295,0.561-12.192-0.621c-0.982-0.301-1.994-0.451-3.006-0.451c-5.65,0-10.249,4.588-10.249,10.239
	c0,0.431,0.03,0.872,0.09,1.312c7.071,55.171,6.752,51.952,6.752,53.067c0,4.438-3.316,8.215-7.724,8.786
	c-5.251,0.568-9.33-3.12-9.908-7.654c-0.531-4.118-4.298-7.013-8.405-6.492c-4.118,0.521-7.023,4.278-6.502,8.395
	c6.688,52.939,6.362,49.846,6.362,50.663c0,3.939-3.225,7.153-7.153,7.153c-3.587,0-6.642-2.685-7.093-6.241l-6.272-48.699
	c-0.531-4.118-4.298-7.023-8.405-6.492c-4.118,0.531-7.023,4.298-6.492,8.415l6.261,48.689c1.545,11.981,12.58,20.758,24.826,19.165
	c12.239-1.567,20.748-12.876,19.175-24.806l-3.516-27.771c16.304,4.276,31.852-9.484,29.684-26.158l-5.831-45.293
	c5.066,0.593,10.236,0.193,14.637-0.952l0.301,2.344c0.615,4.783,20.851,161.998,21.359,165.944c0.371,2.929,0.448,5.829,0.23,8.706
	c-0.852,11.291-6.191,21.82-14.957,29.244c-3.166,2.685-3.557,7.424-0.872,10.589c2.675,3.164,7.435,3.558,10.589,0.872
	c12.633-10.72,20.017-26.208,20.367-42.648l33.011-4.248c21.429-2.765,37.589-21.109,37.589-42.688
	C511.999,280.776,512.332,286.388,500.178,191.007z M87.761,287.543c-16.737-2.088-17.656-2.434-20.698-2.434
	c-13.895,0-25.717,10.409-27.49,24.204l-2.114,16.43c-0.531,4.108,2.374,7.874,6.492,8.405c4.118,0.541,7.884-2.374,8.415-6.492
	l2.114-16.43c0.811-6.322,6.221-11.09,12.583-11.09c1.364,0,0.845,0.039,18.784,2.314L76.5,375.124l-17.141-2.204
	c-6.322-0.811-11.09-6.221-11.09-12.583c0-1.293,0.157-1.955,0.26-2.875c0.531-4.118-2.374-7.874-6.492-8.405
	c-4.118-0.521-7.884,2.374-8.415,6.492c-0.071,0.672-0.381,2.35-0.381,4.789c0,13.895,10.399,25.717,24.194,27.49l17.141,2.204
	l-2.715,21.129l-32.359-4.168c-15.383-1.988-26.26-16.17-24.244-31.418l11.461-89.063c1.973-15.347,16.134-26.282,31.408-24.244
	l32.359,4.168L87.761,287.543z M496.972,285.62c0,14.036-10.529,25.988-24.485,27.781l-32.349,4.168l-2.715-21.129l17.131-2.204
	c13.795-1.773,24.204-13.585,24.204-27.48c0-2.378-0.314-4.074-0.391-4.789c-0.531-4.118-4.298-7.033-8.405-6.502
	c-4.118,0.531-7.023,4.298-6.502,8.415c0.09,0.774,0.27,1.723,0.27,2.875c0,6.352-4.769,11.762-11.09,12.583l-17.141,2.204
	l-0.001-0.006v-0.003c-0.001-0.005-0.001-0.011-0.001-0.011c-0.001-0.006-0.001-0.008-0.001-0.008
	c-2.177-16.907-0.223-1.736-9.353-72.654c17.662-2.231,17.214-2.304,18.794-2.304c6.352,0,11.762,4.769,12.583,11.09l2.114,16.43
	c0.521,4.108,4.288,7.013,8.405,6.492c4.118-0.531,7.023-4.298,6.492-8.415l-2.114-16.43c-1.977-15.38-16.221-25.977-31.047-23.964
	l-17.141,2.204l-2.725-21.119c33.444-4.229,32.761-4.398,35.986-4.398c14.046,0,25.988,10.519,27.781,24.475
	C497.337,287.274,496.972,282.366,496.972,285.62z"/>
<path d="M83.933,80.794c68.2,41.275,64.243,39.023,65.321,39.455c12.5,5.03,23.505-8.961,17.044-19.589l-40.242-66.1
	c-2.426-4.36-7.008-7.057-12.018-7.057c-3.888,0-7.612,1.662-10.216,4.561L79.501,59.146c-2.27,2.528-3.52,5.784-3.52,9.168
	C75.981,73.722,79.078,78.544,83.933,80.794z M113.843,43.398l36.599,60.117l-58.67-35.542L113.843,43.398z"/>
<path d="M184.378,117.463c5.752,11.465,22.689,9.457,25.654-2.974c0.033-0.14,0.063-0.281,0.088-0.422
	c14.692-82.414,13.932-77.228,13.932-79.137c0-7.569-6.158-13.726-13.728-13.726c-0.546,0-1.09,0.031-1.602,0.092l-36.157,4.191
	c-9.143,1.059-14.721,10.662-11.014,19.153C185.336,120.747,183.857,116.425,184.378,117.463z M208.726,36.423l-12.378,69.283
	l-20.432-65.48L208.726,36.423z"/>
<g>
</g>
<g>
</g>
<g>
</g>
<g>
</g>
<g>
</g>
<g>
</g>
<g>
</g>
<g>
</g>
<g>
</g>
<g>
</g>
<g>
</g>
<g>
</g>
<g>
</g>
<g>
</g>
<g>
</g>
</svg>
