<?xml version="1.0" encoding="iso-8859-1"?>
<!-- Generator: Adobe Illustrator 19.0.0, SVG Export Plug-In . SVG Version: 6.00 Build 0)  -->
<svg version="1.1" id="Capa_1" xmlns="http://www.w3.org/2000/svg" xmlns:xlink="http://www.w3.org/1999/xlink" x="0px" y="0px"
	 viewBox="0 0 512.002 512.002" style="enable-background:new 0 0 512.002 512.002;" xml:space="preserve">
<path style="fill:#FFCD00;" d="M453.325,247.204v132.525c0,28.989-23.503,52.493-52.493,52.493h-78.855v-53.6h56.217
	c1.369,0,2.718-0.091,4.036-0.272c14.565-1.973,25.808-14.464,25.808-29.573v-70.621c0-15.109-11.243-27.6-25.808-29.573
	c-1.319-0.181-2.667-0.272-4.036-0.272h-56.217v-53.6h78.855C429.822,194.712,453.325,218.215,453.325,247.204z"/>
<g>
	<path style="fill:#DDB200;" d="M382.231,194.712v53.872c-1.319-0.181-2.667-0.272-4.036-0.272h-56.217v-53.6H382.231z"/>
	<path style="fill:#DDB200;" d="M378.195,378.622c1.369,0,2.718-0.091,4.036-0.272v53.872h-60.253v-53.6H378.195z"/>
</g>
<path style="fill:#FFCD00;" d="M341.606,122.479v303.46c0,14.817-4.107,28.677-11.233,40.504
	c-13.75,22.779-38.733,38.008-67.279,38.008h-87.561c-43.363,0-78.512-35.149-78.512-78.512v-303.46L341.606,122.479
	L341.606,122.479z"/>
<path style="fill:#FFDA44;" d="M341.606,122.479v303.46c0,14.817-4.107,28.677-11.233,40.504
	c-11.827,7.126-25.688,11.233-40.504,11.233H187.933c-35.421,0-64.139-28.707-64.139-64.128V122.479L341.606,122.479
	L341.606,122.479z"/>
<path style="fill:#FFF5CC;" d="M364.503,85.133c1.927-5.579,2.872-11.615,2.621-17.904c-0.993-24.973-21.124-45.431-46.081-46.787
	c-19.577-1.063-36.804,9.41-45.521,25.235c-1.797,3.263-6.571,2.908-7.858-0.588c-8.077-21.931-29.147-37.575-53.883-37.575
	c-20.188,0-37.933,10.423-48.168,26.177c-2.779,4.278-7.931,6.495-12.941,5.537c-2.968-0.568-6.032-0.866-9.167-0.866
	c-26.976,0-48.845,21.87-48.845,48.845v0.286c0.003,4.25-2.591,8.01-6.491,9.695c-17.815,7.692-30.142,25.684-29.473,46.471
	c0.817,25.426,21.462,46.217,46.883,47.199c27.859,1.077,50.781-21.188,50.781-48.807v-0.042c-0.001-1.371,1.65-2.075,2.628-1.113
	c8.813,8.662,20.888,14.009,34.22,14.009c2.014,0,3.999-0.125,5.948-0.365c3.671-0.453,6.927,2.343,6.927,6.042v159.55
	c0,11.903,9.739,21.641,21.641,21.641l0,0c11.903,0,21.641-9.739,21.641-21.641l0.145-73.979c0,13.286,10.87,24.157,24.157,24.157
	l0,0c13.286,0,24.157-10.87,24.157-24.157v-77.27c0-2.932,3.021-4.876,5.695-3.674c6.948,3.123,14.755,4.671,22.978,4.171
	c24.849-1.511,44.799-21.921,45.773-46.797c0.382-9.777-2.118-18.94-6.711-26.721C363.64,92.614,363.272,88.698,364.503,85.133z"/>
<g>
	<path style="fill:#FFEB99;" d="M290.724,226.72c-4.379,4.379-10.418,7.096-17.061,7.096c-13.287,0-24.158-10.871-24.158-24.158
		l-0.141,73.983c0,5.949-2.436,11.364-6.351,15.28c-3.926,3.926-9.331,6.362-15.29,6.362c-11.908,0-21.641-9.744-21.641-21.641
		v36.488c0,11.908,9.734,21.641,21.641,21.641c5.959,0,11.364-2.436,15.29-6.351c3.916-3.926,6.351-9.331,6.351-15.29l0.141-73.973
		c0,13.287,10.871,24.158,24.158,24.158c6.643,0,12.683-2.718,17.061-7.096c4.379-4.379,7.096-10.418,7.096-17.061v-36.498
		C297.82,216.301,295.102,222.341,290.724,226.72z"/>
	<path style="fill:#FFEB99;" d="M213.782,7.51c-20.192,0-37.927,10.428-48.164,26.181c-2.788,4.278-7.932,6.492-12.944,5.536
		c-2.969-0.564-6.029-0.866-9.17-0.866c-26.976,0-48.839,21.873-48.839,48.849v0.282c0,4.248-2.597,8.012-6.492,9.693
		c-17.816,7.7-30.147,25.688-29.472,46.473c0.644,20.051,13.609,37.213,31.526,44.057c-4.681-7.217-7.509-15.723-7.801-24.822
		c-0.674-20.786,11.656-38.783,29.472-46.473c3.895-1.681,6.492-5.446,6.492-9.693v-0.282c0-26.976,21.863-48.849,48.839-48.849
		c3.14,0,6.2,0.302,9.17,0.866c5.013,0.956,10.166-1.258,12.944-5.536c10.237-15.753,27.973-26.181,48.164-26.181
		c8.163,0,15.934,1.711,22.96,4.781C250.059,16.992,233.027,7.51,213.782,7.51z"/>
</g>
<path d="M296.371,488.639c-10.166,5.405-21.671,8.264-33.277,8.264h-87.561c-39.125,0-70.963-31.828-70.963-70.963V284.578
	c0-4.167-3.382-7.549-7.549-7.549s-7.549,3.382-7.549,7.549V425.94c0,47.46,38.602,86.062,86.062,86.062h87.561
	c14.072,0,28.023-3.473,40.363-10.036c3.684-1.953,5.083-6.533,3.12-10.207C304.625,488.075,300.045,486.677,296.371,488.639z"/>
<path d="M89.471,254.381c0,4.177,3.382,7.549,7.549,7.549s7.549-3.372,7.549-7.549v-56.016c0.242,0.02,0.473,0.03,0.715,0.04
	c0.745,0.03,1.49,0.04,2.235,0.04c27.157,0,49.886-19.296,55.21-44.923c9.019,5.818,19.517,8.928,30.479,8.928
	c1.772,0,3.553-0.081,5.325-0.252v26.946c0,4.167,3.382,7.549,7.549,7.549c4.167,0,7.549-3.382,7.549-7.549v-28.566
	c0-8.132-7.165-14.555-15.4-13.528c-12.364,1.5-24.806-2.544-33.952-11.535c-1.711-1.681-3.966-2.607-6.362-2.607
	c-5.023,0-9.109,4.077-9.109,9.14c0,22.779-18.521,41.299-41.289,41.299c-0.544,0-1.097-0.01-1.651-0.03
	c-0.433-0.021-0.866-0.04-1.298-0.07c-5.385-0.382-10.478-1.802-15.099-4.067c-31.979-15.628-30.531-61.143,1.691-75.06
	c6.714-2.899,11.052-9.421,11.052-16.629c0.141-1.308-0.436-8.72,3.976-17.997c1.792-3.765,0.191-8.274-3.573-10.066
	s-8.264-0.191-10.056,3.573c-8.634,18.134-2.733,25.262-7.388,27.258c-47.456,20.484-44.631,88.591,4.298,105.227L89.471,254.381
	L89.471,254.381z"/>
<path d="M446.299,207.997c-9.291-10.77-22.114-17.917-36.106-20.111c-4.117-0.644-7.982,2.174-8.626,6.291
	c-0.644,4.117,2.174,7.982,6.291,8.626c21.973,3.453,37.917,22.124,37.917,44.4v132.525c0,24.782-20.162,44.943-44.943,44.943
	h-51.677V386.17h29.039c20.615,0,37.394-16.78,37.394-37.394v-70.621c0-20.615-16.78-37.394-37.394-37.394h-29.039V202.26h29.714
	c4.167,0,7.549-3.382,7.549-7.549s-3.382-7.549-7.549-7.549h-29.714v-16.427c28.806-15.007,39.399-50.759,22.899-78.714
	c-0.463-0.795-0.715-1.711-0.715-2.647c0-2.566,3.372-8.074,3.372-20.162c0-30.877-25.473-56.398-56.398-56.398
	c-18.42,0-35.542,8.999-46.04,23.846c-21.919-45.276-85.269-49.741-112.987-7.086c-1.097,1.691-3.251,2.607-5.194,2.245
	c-13.182-2.522-26.697-0.229-38.099,6.15c-3.634,2.033-4.932,6.633-2.899,10.277c2.043,3.644,6.643,4.932,10.277,2.899
	c8.313-4.657,18.2-6.343,27.882-4.499c8.142,1.522,16.235-1.981,20.695-8.838c22.61-34.814,74.642-28.107,88.628,9.895
	c1.741,4.721,6.12,7.781,11.153,7.781c4.328,0,8.314-2.365,10.408-6.16c7.392-13.433,21.936-22.201,38.501-21.339
	c20.997,1.137,38.109,18.511,38.944,39.548c0.19,5.236-0.538,10.277-2.214,15.139c-2.022,5.875-1.243,12.06,1.691,17.031
	c20.4,34.627-16.298,74.876-52.452,58.623c-7.581-3.437-16.337,2.112-16.337,10.559v34.525c0,4.167,3.382,7.549,7.549,7.549
	s7.549-3.382,7.549-7.549v-29.362c6.885,2.345,14.193,3.312,21.581,2.869c2.406-0.151,4.781-0.453,7.106-0.906
	c0,24.744,0,182.587,0,204.696v43.967v1.268c0,4.67-0.463,9.301-1.359,13.83c-2.325,11.646-7.539,22.608-15.239,31.787
	c-2.688,3.191-2.275,7.952,0.916,10.639c1.419,1.188,3.141,1.772,4.852,1.772c2.154,0,4.298-0.916,5.788-2.698
	c9.995-11.898,16.538-26.282,19.014-41.501h52.805c33.106,0,60.042-26.936,60.042-60.042V247.204
	C460.874,232.81,455.7,218.879,446.299,207.997z M349.155,255.861h29.039c12.29,0,22.296,10.005,22.296,22.295v70.621
	c0,12.29-10.005,22.296-22.296,22.296h-29.039V255.861z"/>
<path d="M206.082,211.792c-4.167,0-7.549,3.382-7.549,7.549v100.788c0,16.095,13.095,29.19,29.19,29.19s29.19-13.095,29.19-29.17
	l0.091-47.027c4.842,3,10.559,4.741,16.659,4.741c17.484,0,31.707-14.233,31.707-31.707v-12.552c0-4.167-3.382-7.549-7.549-7.549
	s-7.549,3.382-7.549,7.549v12.552c0,9.15-7.449,16.608-16.608,16.608c-9.15,0-16.608-7.459-16.608-16.608
	c0-4.167-3.372-7.549-7.539-7.549c0,0,0,0-0.01,0c-4.157,0-7.539,3.372-7.549,7.529l-0.141,73.993
	c0,7.771-6.321,14.092-14.092,14.092s-14.092-6.321-14.092-14.092V219.341C213.631,215.175,210.249,211.792,206.082,211.792z"/>
<g>
</g>
<g>
</g>
<g>
</g>
<g>
</g>
<g>
</g>
<g>
</g>
<g>
</g>
<g>
</g>
<g>
</g>
<g>
</g>
<g>
</g>
<g>
</g>
<g>
</g>
<g>
</g>
<g>
</g>
</svg>
