<?xml version="1.0" encoding="iso-8859-1"?>
<!-- Generator: Adobe Illustrator 19.0.0, SVG Export Plug-In . SVG Version: 6.00 Build 0)  -->
<svg version="1.1" id="Capa_1" xmlns="http://www.w3.org/2000/svg" xmlns:xlink="http://www.w3.org/1999/xlink" x="0px" y="0px"
	 viewBox="0 0 512 512" style="enable-background:new 0 0 512 512;" xml:space="preserve">
<path style="fill:#D9CCBC;" d="M484.323,291.335v126.27c0,21.882-9.222,42.341-24.608,54.449
	c-13.823,10.886-34.372,21.321-63.782,24.258c-4.451,0.451-9.112,0.722-13.983,0.792v0.03c-0.471,0-0.922-0.01-1.393-0.02
	c-0.461,0.01-0.912,0.02-1.383,0.02v-0.03c-37.028-0.571-61.847-12.52-77.765-25.05c-15.397-12.109-24.608-32.567-24.608-54.449
	v-126.27c0-45.248,9.172-89.824,26.734-130.009l26.293-60.133h101.471l26.293,60.133
	C475.151,201.512,484.323,246.088,484.323,291.335z"/>
<path style="fill:#EBE5DD;" d="M484.323,291.335v126.27c0,21.882-9.222,42.341-24.608,54.449
	c-13.823,10.886-34.372,21.321-63.782,24.258c-29.42-2.937-49.969-13.372-63.782-24.258c-15.397-12.109-24.608-32.567-24.608-54.449
	v-126.27c0-45.248,9.162-89.824,26.734-130.009l26.282-60.133h70.738l26.293,60.133
	C475.151,201.512,484.323,246.088,484.323,291.335z"/>
<g>
	<path style="fill:#C0AB91;" d="M456.442,45.461c-3.047-12.901-9.473-22.143-9.473-22.143l-132.785-0.52
		c0,0-6.737,9.762-9.774,22.673c-1.253,5.323-1.935,11.277-1.343,17.462c0.772,8.199,3.779,16.8,10.615,24.899
		c7.087,8.4,16.85,14.093,27.535,16.67c4.23,1.032,9.493,1.864,15.537,2.666c2.907,0.381,5.844,0.581,8.781,0.581h31.856
		c3.739,0,7.468-0.301,11.157-0.942c4.14-0.722,7.829-1.514,10.966-2.275c10.725-2.576,20.539-8.27,27.656-16.7
		c6.836-8.099,9.843-16.71,10.625-24.909C458.377,56.738,457.695,50.784,456.442,45.461z"/>
	<path style="fill:#C0AB91;" d="M250.226,299.254v99.386c0,55.011-41.98,100.228-95.647,105.36
		c-3.358,0.321-6.756,0.481-10.204,0.481h-10.846c-58.459,0-105.842-47.383-105.842-105.842v-99.386H250.226z"/>
</g>
<path style="fill:#D9CCBC;" d="M250.226,299.254v99.386c0,55.011-41.98,100.228-95.647,105.36
	c-53.678-5.132-95.647-50.35-95.647-105.36v-99.386H250.226z"/>
<path style="fill:#A78966;" d="M250.223,299.161c0,2.693-1.504,5.297-4.301,7.768c-13.339,11.745-56.179,20.34-106.969,20.34
	s-93.631-8.595-106.969-20.34c-2.798-2.473-4.301-5.075-4.301-7.768c0-15.525,49.815-28.109,111.27-28.109
	S250.223,283.636,250.223,299.161z"/>
<path style="fill:#FFE477;" d="M245.923,306.929c-12.382,10.905-50.199,19.097-96.201,20.21c-3.539,0.085-7.138,0.13-10.769,0.13
	c-50.791,0-93.631-8.595-106.969-20.34c13.339-11.751,56.179-20.346,106.969-20.346c3.631,0,7.229,0.045,10.769,0.13
	C195.724,287.826,233.541,296.019,245.923,306.929z"/>
<path style="fill:#FFF5CC;" d="M245.923,306.929c-12.382,10.905-50.199,19.097-96.201,20.21
	c-37.758-0.911-70.011-6.585-87.221-14.614c-4.763-2.218-4.763-8.972,0-11.192c17.21-8.036,49.464-13.71,87.221-14.621
	C195.724,287.826,233.541,296.019,245.923,306.929z"/>
<path style="fill:#B39A7C;" d="M447.095,24.311c0,3.168-3.919,6.105-10.665,8.58c-11.858,4.34-32.457,7.207-55.873,7.207
	s-44.015-2.867-55.873-7.207c-6.746-2.476-10.665-5.413-10.665-8.58c0-8.721,29.791-15.788,66.538-15.788
	S447.095,15.59,447.095,24.311z"/>
<path style="fill:#A78966;" d="M436.429,32.891c-11.858,4.34-32.457,7.207-55.873,7.207s-44.015-2.867-55.873-7.207
	c11.858-4.35,32.457-7.217,55.873-7.217S424.571,28.541,436.429,32.891z"/>
<path d="M484.323,303.454c-4.16,0-7.518,3.358-7.518,7.518v106.633c0,19.687-8.129,37.83-21.742,48.545
	c-33.085,26.046-75.854,23.426-74.437,23.446c-0.175,0.002-0.965,0.012-0.862,0.01c-0.16-0.01-0.311-0.02-0.471-0.02
	c-29.42-0.451-54.059-8.34-73.234-23.436c-13.612-10.715-21.742-28.859-21.742-48.545V386.02c0-4.15-3.368-7.518-7.518-7.518
	s-7.518,3.368-7.518,7.518v31.585c0,90.901,132.182,109.859,195.084,60.363c17.201-13.542,27.475-36.106,27.475-60.363V310.972
	C491.841,306.812,488.473,303.454,484.323,303.454z"/>
<path d="M276.799,363.467c4.15,0,7.518-3.358,7.518-7.518v-64.614c0-92.006,36.691-145.114,49.758-181.121
	c21.652,7.384,48.073,4.405,63.451,5.052c9.63,0,22.49-2.663,29.5-5.052c13.186,35.573,46.953,85.548,49.618,170.916
	c0.12,4.07,3.468,7.287,7.508,7.287c0.08,0,0.16,0,0.241-0.01c4.15-0.12,7.408-3.599,7.277-7.748
	c-2.783-89.094-37.623-140.559-51.091-176.991c14.995-9.728,25.24-26.055,24.979-46.23c-0.19-14.966-5.954-28.688-11.297-36.938
	C445.22,9.465,436.369,6.568,430.545,5.125c-0.421-0.1-0.822-0.2-1.203-0.291c-27.108-6.44-70.419-6.451-97.572,0
	c-0.261,0.06-0.541,0.13-0.832,0.2c-6.084,1.524-18.093,5.493-24.087,15.477c-5.343,8.26-11.096,21.962-11.287,36.938
	c-0.16,11.648,3.067,24.047,12.51,35.234c3.599,4.27,7.799,7.959,12.47,10.986c-12.822,35.413-51.262,91.651-51.262,187.666v64.614
	C269.282,360.109,272.65,363.467,276.799,363.467z M437.562,23.308c-21.837,11.028-92.311,10.97-114.001,0
	C345.311,12.308,415.776,12.305,437.562,23.308z M315.602,36.019c5.794,3.308,12.82,4.972,16.168,5.764
	c33.102,7.866,92.822,6.144,113.74-5.764c1.734,3.839,3.498,8.751,4.451,14.234c-32.204,18.466-106.557,18.474-138.8,0
	C312.103,44.769,313.868,39.858,315.602,36.019z M319.561,82.98c-4.33-5.132-6.826-10.525-8.069-15.838
	c1.574,0.692,3.218,1.353,4.922,1.995c38.091,14.232,99.056,13.021,133.227-1.995c-2.635,11.196-10.624,21.015-21.872,26.533
	c-7.819,3.871-21.633,6.556-30.242,6.556C367.652,100.086,336.863,103.509,319.561,82.98z"/>
<path d="M138.952,263.529c-30.843,0-118.792,5.072-118.792,35.635v81.363c0,4.15,3.368,7.518,7.518,7.518
	c4.16,0,7.518-3.368,7.518-7.518v-34.422c43.062,22.688,165.668,22.047,207.513,0v52.535c0,54.219-44.115,98.324-98.334,98.324
	h-10.846c-50.129,0-92.129-37.499-97.712-87.227c-0.461-4.13-4.19-7.107-8.31-6.636c-4.12,0.461-7.097,4.18-6.626,8.31
	C27.306,468.757,75.741,512,133.529,512h10.846c62.509,0,113.369-50.851,113.369-113.359v-99.476
	C257.744,268.601,169.795,263.529,138.952,263.529z M63.753,286.163c41.619-10.054,108.147-10.204,150.397,0
	c22.574,5.473,28.227,11.577,28.548,13.001c-0.18,0.792-2.025,3.057-7.578,5.854c-38.472,19.382-153.179,19.639-192.337,0
	c-5.633-2.827-7.448-5.102-7.588-5.824C35.436,297.841,40.999,291.676,63.753,286.163z M242.708,326.599v1.363
	c-12.675,16.901-113.611,28.118-178.955,12.299c-22.754-5.513-28.317-11.678-28.558-12.961v-9.312
	c42.891,22.661,165.942,21.964,207.513,0L242.708,326.599L242.708,326.599z"/>
<g>
</g>
<g>
</g>
<g>
</g>
<g>
</g>
<g>
</g>
<g>
</g>
<g>
</g>
<g>
</g>
<g>
</g>
<g>
</g>
<g>
</g>
<g>
</g>
<g>
</g>
<g>
</g>
<g>
</g>
</svg>
