<?xml version="1.0" encoding="iso-8859-1"?>
<!-- Generator: Adobe Illustrator 19.0.0, SVG Export Plug-In . SVG Version: 6.00 Build 0)  -->
<svg version="1.1" id="Capa_1" xmlns="http://www.w3.org/2000/svg" xmlns:xlink="http://www.w3.org/1999/xlink" x="0px" y="0px"
	 viewBox="0 0 512 512" style="enable-background:new 0 0 512 512;" xml:space="preserve">
<path style="fill:#B3D8F4;" d="M391.524,37.501l-8.683,121.74l-21.097,295.776c-0.19,2.431-0.58,4.812-1.14,7.122
	c-3.391,13.995-13.274,25.728-26.829,31.37c-11.914,4.952-28.459,9.453-50.767,10.984h-54.018
	c-22.307-1.531-38.853-6.032-50.767-10.984c-15.805-6.572-26.609-21.427-27.969-38.493l-21.037-294.996l-8.743-122.519
	L391.524,37.501L391.524,37.501z"/>
<path style="fill:#D1E7F8;" d="M391.524,37.501l-8.683,121.74l-21.097,295.776c-0.19,2.431-0.58,4.812-1.14,7.122
	c-0.27,0.13-0.54,0.25-0.82,0.36c-11.914,4.952-28.459,9.453-50.767,10.984H255c-22.307-1.53-38.853-6.032-50.767-10.984
	c-15.805-6.572-26.609-21.427-27.969-38.493l-21.037-294.996l-6.532-91.509L391.524,37.501L391.524,37.501z"/>
<path style="fill:#78B9EB;" d="M391.524,37.501c0,4.271-4.021,8.323-11.284,12.004C359.324,60.099,311.568,67.501,256,67.501
	S152.676,60.099,131.76,49.505c-7.262-3.681-11.284-7.733-11.284-12.004c0-16.565,60.68-30,135.524-30
	S391.524,20.936,391.524,37.501z"/>
<path style="fill:#EBE5DD;" d="M382.841,159.24l-21.097,295.776c-0.3,3.711-1.04,7.322-2.181,10.764
	c-4.111,12.374-13.424,22.587-25.788,27.729c-11.914,4.952-28.459,9.453-50.767,10.984h-54.018
	c-22.307-1.531-38.853-6.032-50.767-10.984c-15.805-6.572-26.609-21.427-27.969-38.493L129.219,160.02
	c0.03-0.17,0.05-0.26,0.05-0.26c0-7.332,11.134-14.065,29.63-19.276c23.258-6.552,58.159-10.723,97.172-10.723
	C325.363,129.76,381.671,142.915,382.841,159.24z"/>
<ellipse style="fill:#C0AB91;" cx="256.073" cy="159.762" rx="126.791" ry="30"/>
<path style="fill:#D9CCBC;" d="M359.784,462.499c0.28-0.11,0.55-0.23,0.82-0.36c-0.3,1.229-0.64,2.451-1.04,3.641
	c-4.111,12.374-13.424,22.587-25.788,27.729c-11.914,4.952-28.459,9.453-50.767,10.984h-54.018
	c-22.307-1.531-38.853-6.032-50.767-10.984c-15.805-6.572-26.609-21.427-27.969-38.493L129.219,160.02
	c0.03-0.17,0.05-0.26,0.05-0.26c0-6.952,10.023-13.374,26.839-18.466l20.157,282.712c1.36,17.066,12.164,31.92,27.969,38.493
	c11.914,4.952,28.459,9.453,50.767,10.984h54.018C331.325,471.952,347.87,467.45,359.784,462.499z"/>
<path style="fill:#957856;" d="M156.107,141.294c-6.182,1.871-11.454,3.921-15.635,6.122c-0.21,0.11-0.42,0.22-0.62,0.32
	c-0.26,0.15-0.52,0.29-0.77,0.43c-0.3,0.17-0.59,0.34-0.87,0.51c-0.32,0.19-0.64,0.38-0.94,0.57
	c-1.751,1.11-3.231,2.251-4.421,3.411c-0.11,0.11-0.23,0.22-0.33,0.33c-0.34,0.35-0.66,0.7-0.94,1.05
	c-0.17,0.21-0.33,0.41-0.48,0.62c-0.15,0.21-0.29,0.42-0.42,0.62c-0.14,0.21-0.26,0.42-0.37,0.63c-0.12,0.21-0.22,0.42-0.32,0.64
	c-0.08,0.17-0.15,0.35-0.22,0.52c-0.1,0.27-0.19,0.55-0.25,0.82c-0.06,0.19-0.1,0.38-0.13,0.57c-0.04,0.22-0.07,0.43-0.09,0.64v0.03
	c-0.02,0.21-0.03,0.42-0.03,0.63c0,7.322,11.094,14.035,29.53,19.246L156.107,141.294z"/>
<path style="fill:#96C8EF;" d="M380.241,49.505C359.324,60.099,311.568,67.501,256,67.501S152.676,60.099,131.76,49.505
	C152.676,38.912,200.432,31.509,256,31.509S359.324,38.911,380.241,49.505z"/>
<path d="M365.011,409.177c-4.121-0.283-7.723,2.817-8.018,6.95l-2.731,38.29c-1.137,14.321-10.093,26.647-23.372,32.164
	c-13.508,5.615-29.705,9.117-48.143,10.409h-53.495c-18.438-1.292-34.635-4.795-48.144-10.409
	c-13.277-5.519-22.233-17.844-23.367-32.104l-3.783-53.044c-0.295-4.132-3.877-7.234-8.018-6.95
	c-4.132,0.295-7.244,3.885-6.949,8.018l3.788,53.105c1.586,19.962,14.067,37.142,32.57,44.833
	c18.147,7.542,43.035,11.559,53.641,11.559c56.895-0.006,54.042,0.016,54.534-0.018c20.173-1.39,38.046-5.273,53.125-11.541
	c18.504-7.69,30.984-24.87,32.575-44.894l2.736-38.351C372.256,413.063,369.144,409.473,365.011,409.177z"/>
<path d="M144.333,379.537c0.179,0,0.36-0.006,0.542-0.019c4.132-0.295,7.244-3.885,6.949-8.018l-13.71-192.211
	c18.799,9.501,53.939,14.319,57.267,14.319c3.715,0,6.942-2.759,7.431-6.542c0.531-4.108-2.37-7.871-6.479-8.402
	c-47.312-6.115-59.161-16.653-59.558-18.874c0.008-0.047,1.632-4.979,19.643-10.727c14.337-4.576,33.956-8.039,56.739-10.011
	c4.127-0.356,7.184-3.993,6.827-8.121c-0.357-4.128-3.983-7.194-8.122-6.827c-23.324,2.019-57.598,6.728-76.435,17.5l-6.056-84.898
	c12.125,5.977,30.939,10.666,56.362,14.021c0.333,0.044,0.663,0.065,0.99,0.065c3.707,0,6.93-2.747,7.428-6.522
	c0.542-4.108-2.349-7.878-6.457-8.42c-46.082-6.08-58.594-15.785-59.679-18.349c0.707-1.635,6.548-6.822,25.584-11.9
	c17.44-4.652,41.62-8.067,68.086-9.616c4.136-0.242,7.293-3.792,7.051-7.929s-3.782-7.298-7.929-7.051
	c-29.297,1.718-110.978,8.917-107.735,38.12l23.784,333.443C137.138,376.52,140.431,379.537,144.333,379.537z"/>
<path d="M399.011,37.129C398.715,24.9,383.809,15.682,353.45,8.962c-31.42-6.955-69.977-9.183-102.256-8.945
	c-4.143,0.031-7.477,3.415-7.446,7.558c0.031,4.124,3.384,7.446,7.501,7.446c0.019,0,0.038,0,0.057,0
	c30.427-0.229,66.464,1.81,96.068,7.982c27.546,5.744,35.738,12.398,36.612,14.497c-5.055,12.137-80.542,27.022-166.893,21.226
	c-4.13-0.252-7.711,2.849-7.988,6.983c-0.278,4.134,2.849,7.711,6.982,7.988c44.326,2.976,128.909,1.339,166.546-17.016
	l-6.051,84.834c-30.077-16.828-97.219-20.019-134.291-19.086c-4.142,0.104-7.416,3.547-7.311,7.69
	c0.104,4.143,3.55,7.421,7.689,7.312c31.312-0.789,69.338,1.127,99.626,8.022c25.36,5.772,32.254,12.286,33.002,14.074l-0.035,0.495
	c-5.56,11.868-71.675,25.954-149.56,21.357c-4.144-0.239-7.688,2.912-7.932,7.047c-0.244,4.137,2.911,7.689,7.047,7.933
	c40.851,2.409,114.351,0.246,149.06-16.93l-14.749,206.766c-0.295,4.132,2.817,7.723,6.949,8.018
	c0.182,0.013,0.362,0.019,0.542,0.019c3.9,0,7.193-3.018,7.475-6.969C399.774,27.263,399.052,37.992,399.011,37.129z"/>
<g>
</g>
<g>
</g>
<g>
</g>
<g>
</g>
<g>
</g>
<g>
</g>
<g>
</g>
<g>
</g>
<g>
</g>
<g>
</g>
<g>
</g>
<g>
</g>
<g>
</g>
<g>
</g>
<g>
</g>
</svg>
