<?xml version="1.0" encoding="iso-8859-1"?>
<!-- Generator: Adobe Illustrator 19.0.0, SVG Export Plug-In . SVG Version: 6.00 Build 0)  -->
<svg version="1.1" id="Capa_1" xmlns="http://www.w3.org/2000/svg" xmlns:xlink="http://www.w3.org/1999/xlink" x="0px" y="0px"
	 viewBox="0 0 512 512" style="enable-background:new 0 0 512 512;" xml:space="preserve">
<path style="fill:#FFA733;" d="M255.968,7.617C118.779,7.617,7.564,118.832,7.564,256.021s111.214,248.404,248.404,248.404
	S504.371,393.21,504.371,256.021S393.157,7.617,255.968,7.617z M255.968,347.571c-50.563,0-91.55-40.987-91.55-91.55
	s40.987-91.55,91.55-91.55s91.55,40.987,91.55,91.55S306.531,347.571,255.968,347.571z"/>
<path style="fill:#EE8700;" d="M145.186,433.393c-46.443-43.097-75.372-103.527-75.372-174.076
	c0-121.996,84.516-224.257,198.192-251.408c-3.989-0.191-7.998-0.291-12.038-0.291C118.779,7.617,7.564,118.832,7.564,256.021
	s111.214,248.404,248.404,248.404c13.374,0,26.497-1.055,39.299-3.095C237.147,494.296,184.796,470.15,145.186,433.393z"/>
<path style="fill:#EA348B;" d="M440.394,179.634c-10.812-26.075-4.2-64.54-23.845-84.195
	c-19.654-19.644-58.119-13.033-84.195-23.845c-25.151-10.43-47.458-42.665-76.387-42.665s-51.236,32.235-76.387,42.665
	c-26.075,10.812-64.54,4.2-84.195,23.845c-19.644,19.654-13.033,58.119-23.845,84.195c-10.43,25.151-42.665,47.458-42.665,76.387
	c0,28.929,32.235,51.236,42.665,76.387c10.812,26.075,4.2,64.54,23.845,84.195c19.654,19.644,58.119,13.033,84.195,23.845
	c25.151,10.43,47.458,42.665,76.387,42.665c28.929,0,51.236-32.235,76.387-42.665c26.075-10.812,64.54-4.2,84.195-23.845
	c19.644-19.654,13.033-58.119,23.845-84.195c10.43-25.151,42.665-47.458,42.665-76.387S450.824,204.785,440.394,179.634z
	 M255.968,347.571c-50.563,0-91.55-40.987-91.55-91.55s40.987-91.55,91.55-91.55s91.55,40.987,91.55,91.55
	S306.531,347.571,255.968,347.571z"/>
<g>
	<path style="fill:#E4187A;" d="M255.968,133.432c-67.705,0-122.589,54.884-122.589,122.589S188.263,378.61,255.968,378.61
		s122.589-54.884,122.589-122.589S323.673,133.432,255.968,133.432z M255.968,347.571c-50.563,0-91.55-40.987-91.55-91.55
		s40.987-91.55,91.55-91.55s91.55,40.987,91.55,91.55S306.531,347.571,255.968,347.571z"/>
	<path style="fill:#E4187A;" d="M131.58,416.602c-19.644-19.654-13.033-58.119-23.845-84.195
		c-10.43-25.151-42.665-47.458-42.665-76.387s32.235-51.236,42.665-76.387c10.812-26.075,14.248-79.07,33.893-98.724
		c0.573-0.573,1.156-1.176,1.738-1.789c-18.268,2.281-36.395,4.733-47.981,16.318c-19.644,19.654-13.033,58.119-23.845,84.195
		c-10.43,25.151-42.665,47.458-42.665,76.387s32.235,51.236,42.665,76.387c10.812,26.075,4.2,64.54,23.845,84.195
		c11.917,11.907,30.738,14.168,49.528,16.509C140.212,426.52,135.75,420.762,131.58,416.602z"/>
</g>
<path d="M378.191,127.435l-24.114,38.683c-5.316,8.527,7.548,16.386,12.79,7.974l24.114-38.683
	C396.249,126.958,383.467,118.965,378.191,127.435z"/>
<path d="M220.344,95.989c-9.9-1.332-11.912,13.581-2.047,14.933c47.812,6.529,45.228,6.261,46.195,6.261
	c9.311,0,10.26-13.736,1.014-15.004L220.344,95.989z"/>
<path d="M81.677,268.819c-9.897-1.339-11.912,13.581-2.047,14.933l45.161,6.191c9.898,1.341,11.908-13.581,2.047-14.933
	L81.677,268.819z"/>
<path d="M120.276,150.216l-6.784,45.076c-1.474,9.781,13.395,12.285,14.904,2.243l6.784-45.076
	C136.666,142.596,121.756,140.357,120.276,150.216z"/>
<path d="M250.345,386.14l36.291,27.583c7.932,6.03,17.064-5.963,9.12-11.999l-36.291-27.583c-3.314-2.519-8.043-1.874-10.56,1.44
	C246.387,378.894,247.031,383.622,250.345,386.14z"/>
<path d="M424.267,252.904l-45.161-6.191c-9.898-1.336-11.912,13.581-2.047,14.933l45.161,6.191
	C432.196,269.19,434.062,254.246,424.267,252.904z"/>
<path d="M383.788,332.538l-32.937,31.511c-4.893,4.681-1.554,12.981,5.211,12.981c5.413,0,4.53-2.461,38.146-33.602
	C401.406,336.543,390.998,325.638,383.788,332.538z"/>
<path d="M149.564,399.529l21.171-40.369c4.627-8.821-8.716-15.841-13.347-7.001l-21.171,40.369
	C131.609,401.314,144.958,408.318,149.564,399.529z"/>
<path d="M271.035,496.427c-116.216,7.16-220.464-68.941-248.718-181.635c-2.423-9.665-17.047-6.012-14.619,3.666
	C36.719,434.216,144.975,519.311,271.964,511.47c4.155-0.256,7.314-3.831,7.057-7.985C278.764,499.33,275.2,496.161,271.035,496.427
	z"/>
<path d="M16.956,286.091C2.651,171.114,71.093,62.091,182.7,26.495c9.497-3.03,4.928-17.386-4.581-14.36
	C126.8,28.504,82.615,60.132,50.343,103.598C10.424,157.365-6.088,222.957,2,287.951C3.232,297.849,18.188,295.986,16.956,286.091z"
	/>
<path d="M503.991,192.606c-2.468-9.67-17.066-5.928-14.605,3.723c34.42,135.011-52.472,271.248-189.363,296.543
	c-9.798,1.812-7.074,16.634,2.738,14.821C448.321,480.797,540.537,335.954,503.991,192.606z"/>
<path d="M211.006,19.34C324.855-2.15,437.749,59.032,480.457,168.531c3.625,9.294,17.663,3.808,14.042-5.477
	C450.14,49.32,330.692-18.584,208.21,4.529c-4.09,0.773-6.78,4.714-6.008,8.803C202.975,17.423,206.92,20.112,211.006,19.34z"/>
<path d="M355.049,256.021c0-80.987-91.913-126.93-156.649-80.652c-8.114,5.802,0.654,18.05,8.767,12.262
	c54.74-39.138,132.809-0.439,132.809,68.39c0,46.324-37.686,84.009-84.009,84.009c-68.571,0-107.801-77.909-68.297-132.94
	c5.807-8.092-6.424-16.894-12.245-8.79c-46.497,64.775-0.472,156.802,80.541,156.802
	C310.601,355.102,355.049,310.654,355.049,256.021z"/>
<path d="M287.04,31.286c-32.687-19.848-54.355-7.484-83.357,15.385c-23.946,18.883-28.295,20.865-60.151,24.836
	c-19.579,2.44-39.825,4.963-53.47,18.607C68,112.179,74.949,151.739,64.579,176.751c-5.258,12.68-17.217,25.271-27.181,39.005
	c-5.902,8.135,6.451,16.777,12.2,8.852c25.377-34.974,31.094-33.273,36.813-79.157c5.777-46.346,12.608-53.205,58.984-58.985
	c34.671-4.321,41.563-7.412,67.621-27.957c24.685-19.464,39.991-30.249,66.202-14.336C287.732,49.339,295.569,36.466,287.04,31.286z
	"/>
<path d="M22.591,245.185c-5.669,24.729,8.706,43.69,24.026,63.121c18.888,23.955,20.865,28.292,24.836,60.151
	c2.44,19.579,4.963,39.825,18.607,53.47c22.068,22.066,61.619,15.111,86.636,25.482c18.061,7.49,35.748,28.41,57.151,38.114
	c9.088,4.116,15.3-9.611,6.223-13.728c-19.234-8.721-36.926-29.736-57.6-38.308c-26.97-11.182-64.578-5.045-81.751-22.219
	c-17.178-17.178-11.017-54.735-22.218-81.75c-12.012-28.969-47.96-51.59-41.219-80.964C39.509,238.843,24.82,235.46,22.591,245.185z
	"/>
<path d="M308.253,465.372c23.955-18.888,28.297-20.865,60.151-24.836c19.579-2.44,39.825-4.963,53.47-18.607
	c22.062-22.064,15.113-61.624,25.482-86.636c9.993-24.098,43.238-46.884,43.238-79.272c0-32.326-33.298-55.303-43.238-79.272
	c-10.338-24.936-3.451-64.602-25.481-86.635c-13.646-13.645-33.892-16.169-53.471-18.608c-29.639-3.695-35.552-5.592-56.359-21.854
	c-7.849-6.138-17.142,5.731-9.281,11.875c23.247,18.17,31.715,20.94,63.775,24.935c46.346,5.777,53.205,12.607,58.985,58.984
	c4.321,34.67,7.412,41.563,27.957,67.621c29.245,37.09,29.7,48.237,0,85.905c-20.576,26.096-23.643,32.996-27.957,67.62
	c-2.224,17.84-4.324,34.691-14.31,44.677c-17.178,17.178-54.735,11.017-81.75,22.218c-23.182,9.612-43.128,35.335-65.056,40.982
	c-4.031,1.037-6.457,5.147-5.419,9.177C263.236,500.141,295.401,475.505,308.253,465.372z"/>
<g>
</g>
<g>
</g>
<g>
</g>
<g>
</g>
<g>
</g>
<g>
</g>
<g>
</g>
<g>
</g>
<g>
</g>
<g>
</g>
<g>
</g>
<g>
</g>
<g>
</g>
<g>
</g>
<g>
</g>
</svg>
