<?xml version="1.0" encoding="iso-8859-1"?>
<!-- Generator: Adobe Illustrator 19.0.0, SVG Export Plug-In . SVG Version: 6.00 Build 0)  -->
<svg version="1.1" id="Capa_1" xmlns="http://www.w3.org/2000/svg" xmlns:xlink="http://www.w3.org/1999/xlink" x="0px" y="0px"
	 viewBox="0 0 512 512" style="enable-background:new 0 0 512 512;" xml:space="preserve">
<path style="fill:#FFC477;" d="M264.397,79.876c0,32.579-26.404,58.983-58.983,58.983c-12.541,0-24.162-3.913-33.72-10.589
	c-15.274-10.659-25.262-28.355-25.262-48.393c0-32.569,26.414-58.983,58.983-58.983c20.038,0,37.734,9.989,48.393,25.262
	C260.484,55.714,264.397,67.335,264.397,79.876z"/>
<path style="fill:#FFB655;" d="M264.397,79.876c0,32.579-26.404,58.983-58.983,58.983c-12.541,0-24.162-3.913-33.72-10.589
	c-6.666-9.549-10.579-21.169-10.579-33.71c0-32.579,26.404-58.983,58.983-58.983c12.531,0,24.152,3.903,33.71,10.579
	C260.484,55.714,264.397,67.335,264.397,79.876z"/>
<path style="fill:#FF9811;" d="M65.33,105.028c0,19.858,9.819,37.433,24.872,48.123c9.629,6.836,21.399,10.86,34.11,10.86
	c32.579,0,58.983-26.414,58.983-58.983c0-12.711-4.024-24.482-10.86-34.11c-10.68-15.053-28.255-24.872-48.123-24.872
	C91.744,46.046,65.33,72.448,65.33,105.028z"/>
<path style="fill:#FFA733;" d="M79.343,119.041c0,12.711,4.024,24.482,10.86,34.11c9.629,6.836,21.399,10.86,34.11,10.86
	c32.579,0,58.983-26.414,58.983-58.983c0-12.711-4.024-24.482-10.86-34.11c-9.629-6.846-21.409-10.86-34.11-10.86
	C105.756,60.058,79.343,86.461,79.343,119.041z"/>
<path style="fill:#CC7400;" d="M213.032,154.081c0,32.579-26.414,58.983-58.983,58.983c-12.201,0-23.541-3.703-32.939-10.059
	c-15.714-10.579-26.043-28.545-26.043-48.924c0-32.569,26.404-58.983,58.983-58.983c20.378,0,38.344,10.339,48.944,26.053
	C209.328,130.56,213.032,141.891,213.032,154.081z"/>
<path style="fill:#EE8700;" d="M213.032,154.081c0,32.579-26.414,58.983-58.983,58.983c-12.201,0-23.541-3.703-32.939-10.059
	c-6.336-9.398-10.029-20.728-10.029-32.909c0-32.569,26.404-58.983,58.983-58.983c12.191,0,23.521,3.703,32.929,10.039
	C209.328,130.56,213.032,141.891,213.032,154.081z"/>
<path style="fill:#FFC477;" d="M317.675,151.228c0,32.579-26.404,58.983-58.983,58.983c-2.462,0-4.884-0.15-7.266-0.44
	c-29.146-3.583-51.716-28.425-51.716-58.542c0-32.579,26.404-58.983,58.983-58.983c10.669,0,20.678,2.833,29.316,7.787
	C305.734,110.213,317.675,129.32,317.675,151.228z"/>
<path style="fill:#FFB655;" d="M317.675,151.228c0,32.579-26.404,58.983-58.983,58.983c-2.462,0-4.884-0.15-7.266-0.44
	c-17.746-10.169-29.696-29.286-29.696-51.206c0-32.569,26.404-58.983,58.983-58.983c2.472,0,4.904,0.15,7.297,0.45
	C305.734,110.213,317.675,129.32,317.675,151.228z"/>
<path style="fill:#FFA733;" d="M446.67,109.191c0,32.579-26.404,58.983-58.983,58.983c-12.451,0-24.001-3.853-33.52-10.449
	c-15.384-10.639-25.463-28.405-25.463-48.533c0-32.569,26.414-58.983,58.983-58.983c20.128,0,37.894,10.079,48.523,25.463
	C442.806,85.191,446.67,96.74,446.67,109.191z"/>
<path style="fill:#CC7400;" d="M363.596,66.443c0,28.696-20.488,52.597-47.632,57.892c-3.673,0.721-7.467,1.091-11.35,1.091
	c-32.569,0-58.983-26.404-58.983-58.983c0-32.569,26.413-58.983,58.983-58.983c3.883,0,7.677,0.37,11.35,1.091
	C343.107,13.847,363.596,37.758,363.596,66.443z"/>
<path style="fill:#EE8700;" d="M363.596,66.443c0,28.696-20.488,52.597-47.632,57.892c-27.154-5.285-47.642-29.196-47.642-57.892
	s20.488-52.607,47.642-57.892C343.107,13.847,363.596,37.758,363.596,66.443z"/>
<path style="fill:#FFB655;" d="M446.67,109.191c0,32.579-26.404,58.983-58.983,58.983c-12.451,0-24.001-3.853-33.52-10.449
	c-6.586-9.518-10.449-21.069-10.449-33.52c0-32.569,26.414-58.983,58.983-58.983c12.441,0,23.991,3.853,33.51,10.449
	C442.806,85.191,446.67,96.74,446.67,109.191z"/>
<path style="fill:#FF9811;" d="M395.958,131.545c0,28.345-19.988,52.016-46.632,57.681c-3.984,0.851-8.117,1.301-12.351,1.301
	c-32.569,0-58.983-26.404-58.983-58.983c0-32.569,26.414-58.983,58.983-58.983c4.234,0,8.367,0.45,12.351,1.301
	C375.97,79.539,395.958,103.21,395.958,131.545z"/>
<path style="fill:#FFA733;" d="M395.958,131.545c0,28.345-19.988,52.016-46.632,57.681c-26.654-5.665-46.642-29.336-46.642-57.681
	c0-28.335,19.988-52.016,46.642-57.681C375.97,79.539,395.958,103.21,395.958,131.545z"/>
<path style="fill:#A5001E;" d="M346.316,147.672l-94.821,356.822h49.711h40.894c13.464,0,25.053-9.511,27.679-22.717l63.474-318.191
	c1.642-8.233-4.656-15.913-13.052-15.913L346.316,147.672L346.316,147.672z"/>
<path style="fill:#C70024;" d="M357.26,162.189l-63.547,319.585c-2.622,13.212-14.213,22.72-27.675,22.72H162.226
	c-13.462,0-25.052-9.508-27.685-22.72L71.005,162.189c0-12.301,14.043-19.587,23.901-12.231
	c14.903,11.12,22.29,30.247,47.652,30.247c4.034,0,7.607-0.48,10.83-1.341c25.403-6.746,28.986-36.693,60.734-36.693
	c31.368,0,35.241,29.236,59.833,36.442c3.453,1.011,7.317,1.591,11.73,1.591c25.383,0,32.759-19.127,47.662-30.247
	c2.722-2.032,5.765-2.943,8.748-2.943C349.904,147.015,357.26,153.29,357.26,162.189z"/>
<path style="fill:#FF0C38;" d="M273.956,178.614l-27.224,325.88h-63.356l-29.987-325.63c25.403-6.746,28.986-36.693,60.734-36.693
	C245.49,142.171,249.364,171.407,273.956,178.614z"/>
<path d="M454.176,109.191c0-44.866-43.779-76.876-86.377-63.447C350.612-6.628,280.039-16.85,249.144,29.83
	c-30.176-26.407-77.069-20.431-99.419,13.762c-43.372-18.059-91.902,13.935-91.902,61.435c0,15.033,5.014,28.916,13.462,40.066
	c-4.764,4.154-7.787,10.279-7.787,17.095c0,0.49,0.04,0.981,0.14,1.461l63.547,319.595C130.498,499.899,145.231,512,162.226,512
	h179.88c16.985,0,31.728-12.101,35.041-28.756l63.467-318.193c0.921-4.604,0.26-9.298-1.802-13.402
	C448.401,140.129,454.176,125.325,454.176,109.191z M304.613,14.968c28.432,0,51.237,23.077,51.466,50.975
	c-34.095-11.096-71.068,7.146-83.104,41.067c-12.226-9.489-19.838-24.335-19.838-40.566
	C253.137,38.106,276.185,14.968,304.613,14.968z M385.936,140.17h-38.394c-20.433-5.167-30.067,18.976-45.28,28.195
	c-33.912-28.953-17.419-84.387,26.634-90.19C364.591,73.489,393.516,105.857,385.936,140.17z M269.452,122.854
	c-1.728,18.046,3.927,35.987,15.954,49.844c-7.375-0.061-12.972-1.955-18.036-5.485c-14.887-10.288-24.973-35.044-57.461-32.389
	c5.39-16.299,19.51-29.924,37.874-33.91C253.197,109.811,260.634,117.339,269.452,122.854z M242.097,43.804
	c-5.072,13.931-5.27,29.282-0.711,43.218c-14.663,3.964-27.334,12.821-36.142,24.702c-4.224-5.105-9.198-9.579-14.763-13.232
	C188.56,78.905,178.11,61.78,162.897,50.91C181.186,24.107,219.302,20.617,242.097,43.804z M124.313,53.552
	c23.35,0,43.143,15.648,49.404,37.013c-36.978-11.514-76.195,11.227-84.595,49.134c-1.622-0.218-2.729-0.19-3.013-0.2
	c-8.247-9.138-13.272-21.229-13.272-34.471C72.837,76.643,95.927,53.552,124.313,53.552z M162.226,496.987
	c-9.849,0-18.396-7.016-20.318-16.675L78.532,161.569c0.417-5.658,7.084-9.2,11.881-5.595c3.873,2.883,7.286,6.516,10.9,10.359
	c2.803,2.988,3.114,3.332,3.853,3.843c2.883,2.042,6.886,1.812,9.518-0.721c2.993-2.873,3.083-7.617,0.22-10.609
	c-4.088-4.273-7.658-8.277-11.831-11.911c6.604-47.24,68.407-60.488,94.104-20.919c-1.666,4.04-3.036,8.571-3.883,13.242
	c-22.402,11.02-28.223,38.353-57.371,32.859c-4.074-0.751-7.997,1.942-8.748,6.015c-0.751,4.074,1.942,7.997,6.015,8.748
	c4.404,0.816,9.136,1.009,13.462,0.681c5.594,60.807,21.07,228.872,28.485,309.426H162.226z M425.891,162.119
	c-5.629,28.217-59.977,300.655-63.477,318.193c-1.922,9.659-10.459,16.675-20.308,16.675h-46.982
	c7.12-9.948,6.02-17.729,11.46-41.427c0.801-4.064-1.842-8.017-5.905-8.828c-4.064-0.811-8.017,1.832-8.828,5.895l-5.505,27.685
	c-1.922,9.659-10.459,16.675-20.308,16.675h-11.15l4.614-55.159c0.34-4.124-2.732-7.757-6.856-8.097
	c-4.134-0.35-7.767,2.722-8.107,6.856l-4.714,56.4h-49.604c-9.954-108.11-22.714-246.643-28.816-312.959
	c23.35-10.032,26.908-34.351,52.717-34.351c25.503,0,29.224,23.632,51.866,33.98c-4.359,52.183-18.508,221.629-18.957,227.002
	c-0.34,4.134,2.732,7.757,6.856,8.107c4.134,0.36,7.767-2.722,8.107-6.856c3.264-39.07,14.884-178.153,18.747-224.43
	c37.96,3.847,49.255-32.969,61.355-32.969c3.513,0,7.297,2.682,7.627,7.056c-12.596,63.337-38.311,192.685-52.016,261.613
	c-0.905,4.594,2.575,8.968,7.377,8.968c3.503,0,6.646-2.472,7.357-6.045c56.119-282.279,52.327-262.889,52.327-263.915
	c0-2.442-0.39-4.804-1.111-7.006c12.919,0,43.748,0,56.55,0C423.848,155.183,426.616,158.51,425.891,162.119z M401.219,140.17
	c4.457-26.455-7.519-53.056-30.427-67.37c0.381-3.79,0.427-7.949,0.05-12.251c49.185-17.047,88.954,41.374,56.851,81.012
	C421.825,139.298,418.733,140.518,401.219,140.17z"/>
<g>
</g>
<g>
</g>
<g>
</g>
<g>
</g>
<g>
</g>
<g>
</g>
<g>
</g>
<g>
</g>
<g>
</g>
<g>
</g>
<g>
</g>
<g>
</g>
<g>
</g>
<g>
</g>
<g>
</g>
</svg>
