<?xml version="1.0" encoding="iso-8859-1"?>
<!-- Generator: Adobe Illustrator 19.0.0, SVG Export Plug-In . SVG Version: 6.00 Build 0)  -->
<svg version="1.1" id="Capa_1" xmlns="http://www.w3.org/2000/svg" xmlns:xlink="http://www.w3.org/1999/xlink" x="0px" y="0px"
	 viewBox="0 0 512 512" style="enable-background:new 0 0 512 512;" xml:space="preserve">
<path style="fill:#891C00;" d="M382.451,23.391v465.219c0,8.753-7.093,15.845-15.845,15.845H140.747
	c-8.753,0-15.845-7.093-15.845-15.845V23.391c0-8.753,7.093-15.845,15.845-15.845h225.859
	C375.358,7.545,382.451,14.638,382.451,23.391z"/>
<path style="fill:#AB2300;" d="M382.451,23.391v465.219c0,8.753-7.093,15.845-15.845,15.845H164.218
	c-8.753,0-15.845-7.093-15.845-15.845V23.391c0-8.753,7.093-15.845,15.845-15.845h202.387
	C375.358,7.545,382.451,14.638,382.451,23.391z"/>
<g>
	<path style="fill:#781900;" d="M236.322,55.474v47.154c0,9.065-7.344,16.419-16.409,16.419h-42.626
		c-9.065,0-16.419-7.354-16.419-16.419V55.474c0-9.065,7.354-16.409,16.419-16.409h42.626
		C228.978,39.065,236.322,46.409,236.322,55.474z"/>
	<path style="fill:#781900;" d="M346.484,55.474v47.154c0,9.065-7.354,16.419-16.419,16.419h-42.626
		c-9.065,0-16.409-7.354-16.409-16.419V55.474c0-9.065,7.344-16.409,16.409-16.409h42.626
		C339.13,39.065,346.484,46.409,346.484,55.474z"/>
	<path style="fill:#781900;" d="M236.322,171.17v47.144c0,9.075-7.344,16.419-16.409,16.419h-42.626
		c-9.065,0-16.419-7.344-16.419-16.419V171.17c0-9.065,7.354-16.419,16.419-16.419h42.626
		C228.978,154.751,236.322,162.105,236.322,171.17z"/>
	<path style="fill:#781900;" d="M346.484,171.17v47.144c0,9.075-7.354,16.419-16.419,16.419h-42.626
		c-9.065,0-16.409-7.344-16.409-16.419V171.17c0-9.065,7.344-16.419,16.409-16.419h42.626
		C339.13,154.751,346.484,162.105,346.484,171.17z"/>
</g>
<g>
	<path style="fill:#891C00;" d="M236.322,55.474v47.154c0,9.065-7.344,16.419-16.409,16.419h-19.155
		c-9.065,0-16.409-7.354-16.409-16.419V55.474c0-9.065,7.344-16.409,16.409-16.409h19.155
		C228.978,39.065,236.322,46.409,236.322,55.474z"/>
	<path style="fill:#891C00;" d="M346.484,55.474v47.154c0,9.065-7.354,16.419-16.419,16.419H310.92
		c-9.065,0-16.419-7.354-16.419-16.419V55.474c0-9.065,7.354-16.409,16.419-16.409h19.145
		C339.13,39.065,346.484,46.409,346.484,55.474z"/>
	<path style="fill:#891C00;" d="M236.322,171.17v47.144c0,9.075-7.344,16.419-16.409,16.419h-19.155
		c-9.065,0-16.409-7.344-16.409-16.419V171.17c0-9.065,7.344-16.419,16.409-16.419h19.155
		C228.978,154.751,236.322,162.105,236.322,171.17z"/>
	<path style="fill:#891C00;" d="M346.484,171.17v47.144c0,9.075-7.354,16.419-16.419,16.419H310.92
		c-9.065,0-16.419-7.344-16.419-16.419V171.17c0-9.065,7.354-16.419,16.419-16.419h19.145
		C339.13,154.751,346.484,162.105,346.484,171.17z"/>
</g>
<path style="fill:#50206C;" d="M382.451,265.92v222.69c0,8.753-7.093,15.845-15.845,15.845H140.747
	c-8.753,0-15.845-7.093-15.845-15.845V265.92H382.451z"/>
<path style="fill:#FF9811;" d="M410.842,354.372c-18.36-5.252-24.035-17.888-51.379-17.888c-34.518,0-34.518,20.121-69.025,20.121
	s-34.508-20.121-69.015-20.121s-34.508,20.121-69.015,20.121c-29.729,0-33.844-14.94-56.48-19.075
	c-6.69-1.217-11.057-7.706-9.588-14.346l2.847-12.857l6.65-30.111c1.841-8.35,9.246-14.296,17.797-14.296h283.888
	c8.873,0,16.459,6.388,17.968,15.141l7.867,45.735l2.404,14.004C427.24,349.412,419.252,356.766,410.842,354.372z"/>
<path style="fill:#FFA733;" d="M423.357,326.796c-2.817,3.571-7.596,5.503-12.515,4.095c-18.36-5.242-24.035-17.878-51.379-17.878
	c-34.518,0-34.518,20.121-69.025,20.121s-34.508-20.121-69.015-20.121s-34.508,20.121-69.015,20.121
	c-29.729,0-33.844-14.94-56.48-19.075c-2.706-0.493-5.03-1.851-6.741-3.732l6.65-30.111c1.841-8.35,9.246-14.296,17.797-14.296
	h283.888c8.873,0,16.459,6.388,17.968,15.141L423.357,326.796z"/>
<path style="fill:#6D2C93;" d="M382.451,366.736v113.573H162.88c-8.751,0-15.845-7.095-15.845-15.845v-76.443
	c0-2.927,2.388-5.261,5.316-5.259c0.019,0,0.038,0,0.056,0c34.508,0,34.508-20.121,69.015-20.121s34.508,20.121,69.015,20.121
	s34.508-20.121,69.025-20.121C369.463,362.642,376.565,364.332,382.451,366.736z"/>
<path d="M124.901,108.241c4.165,0,7.545-3.38,7.545-7.545V23.391c0-4.578,3.722-8.3,8.3-8.3h55.745c4.165,0,7.545-3.38,7.545-7.545
	S200.657,0,196.492,0h-55.745c-12.898,0-23.391,10.493-23.391,23.391v77.305C117.356,104.861,120.736,108.241,124.901,108.241z"/>
<path d="M226.674,15.091h139.932c3.219,0,6.177,1.891,7.535,4.809c0.627,1.111,0.765,3.491,0.765,3.491v157.95
	c0,4.165,3.38,7.545,7.545,7.545s7.545-3.38,7.545-7.545c-0.201-167.696,1.089-160.33-2.173-167.799
	C384.01,5.312,375.68,0,366.605,0H226.674c-4.165,0-7.545,3.38-7.545,7.545S222.509,15.091,226.674,15.091z"/>
<path d="M243.867,55.474c0-13.209-10.745-23.954-23.954-23.954h-42.626c-13.209,0-23.964,10.745-23.964,23.954v47.154
	c0,13.209,10.755,23.964,23.964,23.964h42.626c13.209,0,23.954-10.755,23.954-23.964V55.474z M228.776,102.627
	c0,4.889-3.974,8.873-8.863,8.873h-42.626c-4.889,0-8.873-3.984-8.873-8.873V55.474c0-4.889,3.984-8.863,8.873-8.863h42.626
	c4.889,0,8.863,3.974,8.863,8.863V102.627z"/>
<path d="M287.444,46.609h16.592c4.167,0,7.545-3.377,7.545-7.545s-3.378-7.545-7.545-7.545h-16.592
	c-13.211,0-23.96,10.749-23.96,23.959v47.149c0,13.211,10.749,23.959,23.96,23.959h42.621c13.211,0,23.96-10.749,23.96-23.959
	V55.479c0-10.936-7.389-20.477-17.97-23.203c-4.032-1.041-8.15,1.388-9.189,5.425c-1.04,4.035,1.388,8.15,5.425,9.189
	c3.913,1.008,6.644,4.54,6.644,8.59v47.149c0,4.89-3.979,8.868-8.869,8.868h-42.621c-4.89,0-8.869-3.978-8.869-8.868v-47.15
	C278.575,50.587,282.554,46.609,287.444,46.609z"/>
<path d="M219.913,147.206h-42.626c-13.209,0-23.964,10.755-23.964,23.964v47.144c0,13.22,10.755,23.964,23.964,23.964h42.626
	c13.209,0,23.954-10.745,23.954-23.964V171.17C243.867,157.96,233.122,147.206,219.913,147.206z M228.776,218.313
	c0,4.899-3.974,8.873-8.863,8.873h-42.626c-4.889,0-8.873-3.974-8.873-8.873V171.17c0-4.889,3.984-8.873,8.873-8.873h42.626
	c4.889,0,8.863,3.984,8.863,8.873V218.313z"/>
<path d="M287.439,242.277h42.626c13.209,0,23.964-10.745,23.964-23.964V171.17c0-13.209-10.755-23.964-23.964-23.964h-42.626
	c-13.209,0-23.954,10.755-23.954,23.964v47.144C263.485,231.533,274.23,242.277,287.439,242.277z M278.576,171.17
	c0-4.889,3.974-8.873,8.863-8.873h42.626c4.889,0,8.873,3.984,8.873,8.873v47.144c0,4.899-3.984,8.873-8.873,8.873h-42.626
	c-4.889,0-8.863-3.974-8.863-8.873V171.17z"/>
<path d="M429.504,318.043c-0.704-4.105-4.608-6.871-8.712-6.157s-6.861,4.608-6.157,8.722c3.804,22.246,3.763,21.558,3.763,22.264
	c0,2.758-2.755,5.076-5.483,4.235c-16.611-4.73-24.064-18.169-53.452-18.169c-36.616,0-37.62,20.121-69.025,20.121
	c-28.72,0-30.668-15.735-58.22-19.437c-4.135-0.563-7.928,2.344-8.481,6.469c-0.553,4.135,2.344,7.928,6.469,8.481
	c23.061,3.122,26.977,19.578,60.232,19.578c36.616,0,37.62-20.121,69.025-20.121c6.308,0,11.248,0.724,15.443,1.911
	c0,24.188,0,106.23,0,142.668c0,4.578-3.722,8.3-8.3,8.3c-242.365,0-226.36,0.145-227.931-0.262
	c-3.652-0.951-6.227-4.243-6.227-8.038c0-14.833,0-104.68,0-127.074c5.443,1.59,11.902,2.616,19.97,2.616
	c28.213,0,36.432-12.465,51.429-17.546c3.954-1.338,6.066-5.614,4.728-9.568c-1.338-3.944-5.624-6.066-9.568-4.728
	c-18.065,6.137-22.635,16.751-46.59,16.751c-27.489,0-30.25-14.4-55.132-18.944c-2.485-0.458-4.121-2.838-3.582-5.302l11.348-51.349
	c12.191,0,289.789,0,301.474,0l2.988,17.395c0.634,3.672,3.823,6.268,7.435,6.268c4.711,0,8.232-4.24,7.445-8.823l-4.074-23.662
	c-0.624-3.622-3.763-6.268-7.435-6.268h-22.888v-46.852c0-4.165-3.38-7.545-7.545-7.545s-7.545,3.38-7.545,7.545v46.852
	c-10.336,0-233.753,0-242.459,0V130.877c0-4.165-3.38-7.545-7.545-7.545c-4.165,0-7.545,3.38-7.545,7.545v127.497h-18.36
	c-3.541,0-6.6,2.465-7.364,5.916c-13.339,61.078-13.119,57.722-13.119,61.48c0,9.417,6.751,17.485,16.057,19.185
	c9.364,1.712,14.744,5.381,22.787,9.99c0,29.672,0,118.927,0,133.664C117.356,501.637,128,512,140.747,512
	c23.722,0,202.105,0,225.859,0c12.898,0,23.391-10.493,23.391-23.391c0-13.339,0-119.055,0-135.646
	c1.867,0.943,15.062,9.407,24.095,9.407c10.694,0,19.397-8.743,19.397-19.497C433.488,340.005,433.166,339.841,429.504,318.043z"/>
<g>
</g>
<g>
</g>
<g>
</g>
<g>
</g>
<g>
</g>
<g>
</g>
<g>
</g>
<g>
</g>
<g>
</g>
<g>
</g>
<g>
</g>
<g>
</g>
<g>
</g>
<g>
</g>
<g>
</g>
</svg>
