<?xml version="1.0" encoding="iso-8859-1"?>
<!-- Generator: Adobe Illustrator 19.0.0, SVG Export Plug-In . SVG Version: 6.00 Build 0)  -->
<svg version="1.1" id="Capa_1" xmlns="http://www.w3.org/2000/svg" xmlns:xlink="http://www.w3.org/1999/xlink" x="0px" y="0px"
	 viewBox="0 0 512 512" style="enable-background:new 0 0 512 512;" xml:space="preserve">
<path style="fill:#FF728B;" d="M504.495,287.44c0,19.683-20.014,19.683-20.014,39.357c0,4.923,1.251,8.616,3.122,11.688
	c8.696,14.26-1.001,32.792-17.622,34.414c-4.113,0.4-8.516,0.701-13.149,0.831c-50.565,1.561-129.749-15.521-178.492-122.644
	c15.561-18.102,31.882-33.513,48.333-46.622c47.032-37.506,95.085-56.218,129.358-65.495c16.161-4.373,31.862,9.396,28.84,25.858
	c-0.26,1.391-0.39,2.892-0.39,4.533c0,19.683,20.014,19.683,20.014,39.357c0,19.683-20.014,19.683-20.014,39.357
	C484.481,267.756,504.495,267.756,504.495,287.44z"/>
<path style="fill:#FFA5B5;" d="M470.472,311.456c0,19.683-20.014,19.683-20.014,39.357c0,4.923,1.251,8.616,3.122,11.688
	c2.181,3.582,3.212,7.445,3.252,11.228c-50.565,1.561-129.749-15.521-178.492-122.644c15.561-18.102,31.882-33.513,48.333-46.622
	c35.404-21.975,69.337-34.444,95.335-41.478c16.161-4.373,31.862,9.396,28.84,25.858c-0.26,1.391-0.39,2.892-0.39,4.533
	c0,19.683,20.014,19.683,20.014,39.357c0,19.683-20.014,19.683-20.014,39.357C450.458,291.773,470.472,291.773,470.472,311.456z"/>
<path style="fill:#FF728B;" d="M233.66,260.891c-60.081,69.898-131.44,99.598-177.691,112.117c-0.02,0.01-0.05,0.01-0.07,0.02
	c-16.141,4.313-31.792-9.436-28.77-25.878c0.25-1.391,0.39-2.892,0.39-4.533c0-19.683-20.014-19.683-20.014-39.357
	c0-19.683,20.014-19.683,20.014-39.357c0-19.683-20.014-19.683-20.014-39.367s20.014-19.683,20.014-39.357
	c0-4.923-1.251-8.616-3.132-11.688c-8.696-14.26,1.001-32.792,17.632-34.414c31.361-3.052,79.394-0.19,123.865,33.073
	c0.01,0,0.02,0,0.03,0.01C190.8,190.784,214.557,218.933,233.66,260.891z"/>
<path style="fill:#FFA5B5;" d="M233.66,260.891c-60.081,69.898-131.44,99.598-177.691,112.117c-0.02,0.01-0.05,0.01-0.07,0.02
	c-0.57-2.702-0.63-5.574-0.09-8.536c0.26-1.391,0.4-2.892,0.4-4.533c0-19.673-20.014-19.673-20.014-39.357
	s20.014-19.683,20.014-39.357c0-19.683-20.014-19.683-20.014-39.357c0-19.683,20.014-19.683,20.014-39.367
	c0-4.923-1.251-8.616-3.132-11.688c-8.696-14.26,1.001-32.792,17.622-34.404c24.687-2.402,59.701-1.151,95.185,15.721
	c0.01,0,0.02,0,0.03,0.01C190.8,190.784,214.557,218.933,233.66,260.891z"/>
<path style="fill:#ED539D;" d="M356.864,331.54c-63.194,85.522-200.57,57.396-224.003-48.073
	c-7.755-34.824-0.71-72.58,22.125-103.03c29.735-39.989,72.737-47.221,73.47-47.512C342.979,107.501,426.401,238.804,356.864,331.54
	z"/>
<path style="fill:#F072AE;" d="M356.864,331.54c-1.161,1.571-2.372,3.122-3.632,4.633c-18.573,22.555-43.35,36.985-69.838,42.879
	c-3.322,0.741-6.685,1.341-10.057,1.811c-20.434-2.862-40.398-10.777-57.94-23.926c-1.571-1.161-3.102-2.372-4.623-3.622
	c-1.121-0.921-2.212-1.851-3.272-2.792c-20.694-18.241-34.023-41.879-39.617-67.056c-7.755-34.824-0.71-72.58,22.125-103.03
	c1.161-1.561,2.372-3.102,3.622-4.613c18.583-22.555,43.36-36.995,69.838-42.899h0.01c3.302-0.741,6.635-1.341,9.987-1.801
	c20.454,2.852,40.448,10.767,58.01,23.936c1.561,1.161,3.102,2.372,4.613,3.622c22.555,18.583,36.995,43.36,42.899,69.838v0.01
	C386.724,263.353,379.69,301.099,356.864,331.54z"/>
<g>
	<path style="fill:#A258CD;" d="M381.987,258.638c-16.807-9.53-35.956-15.53-56.516-16.924
		c-24.966-1.692-48.784,3.626-69.547,14.274c10.514-44.028,42.721-79.01,84.048-93.984c3.652,3.268,7.117,6.756,10.361,10.423
		C370.709,195.426,382.708,225.822,381.987,258.638z"/>
	<path style="fill:#A258CD;" d="M255.925,255.988c-44.034-10.522-79.017-42.729-93.991-84.056l0.008-0.007
		c23.808-26.571,58.597-42.826,96.634-41.999c-9.53,16.807-15.531,35.956-16.924,56.516
		C239.96,211.408,245.278,235.226,255.925,255.988z"/>
	<path style="fill:#A258CD;" d="M171.869,349.98l-0.007-0.008c-26.571-23.808-42.825-58.597-41.99-96.641
		c16.799,9.537,35.948,15.538,56.508,16.931c24.966,1.692,48.784-3.626,69.547-14.274
		C245.404,300.023,213.197,335.005,171.869,349.98z"/>
	<path style="fill:#A258CD;" d="M253.268,382.042c9.536-16.799,15.538-35.948,16.93-56.507c1.692-24.966-3.625-48.784-14.274-69.547
		c44.027,10.514,79.01,42.721,93.984,84.049C326.116,366.624,291.311,382.878,253.268,382.042z"/>
</g>
<g>
	<path style="fill:#933EC5;" d="M348.808,341.246c-1.421,1.551-2.872,3.072-4.373,4.533
		C345.927,344.298,347.387,342.787,348.808,341.246z"/>
	<path style="fill:#933EC5;" d="M258.577,129.922c-0.921,1.621-1.801,3.262-2.652,4.923c-23.616,6.825-45.491,20.584-62.293,40.978
		c-1.251,1.511-2.462,3.052-3.622,4.613c-5.053,6.745-9.336,13.839-12.849,21.184c-6.264-9.156-11.398-19.123-15.23-29.69l0.01-0.01
		C185.747,145.353,220.541,129.101,258.577,129.922z"/>
	<path style="fill:#933EC5;" d="M195.644,338.565c-7.485,4.563-15.441,8.396-23.776,11.418l-0.01-0.01
		c-26.568-23.806-42.819-58.6-41.989-96.646c10.917,6.204,22.836,10.907,35.484,13.829c0.49,5.484,1.331,10.927,2.532,16.311
		C172.328,303.441,181.634,322.454,195.644,338.565z"/>
</g>
<path d="M491.986,248.073c0-14.769,20.014-16.417,20.014-39.357c0-24.676-23.021-24.695-19.743-42.539
	c3.98-21.707-16.53-40.316-38.186-34.454c-26.658,7.215-59.791,19.493-94.164,40.358c-50.299-61.989-141.999-66.028-197.375-11.598
	c-44.08-29.43-90.492-31.872-121.243-28.87c-22.279,2.156-34.81,26.938-23.306,45.781c1.401,2.302,2.031,4.703,2.031,7.785
	C20.014,199.955,0,201.595,0,224.537c0,22.694,20.014,24.843,20.014,39.367C20.014,278.68,0,280.311,0,303.26
	c0,24.534,22.993,24.848,19.743,42.539c-3.969,21.643,16.423,40.296,38.176,34.454c26.638-7.205,59.731-19.473,94.064-40.298
	c50.354,61.894,141.902,66.062,197.415,11.488c36.066,24.108,78.452,33.078,121.313,28.92c22.181-2.148,34.858-26.843,23.296-45.781
	c-1.401-2.302-2.021-4.703-2.021-7.785c0-14.824,20.014-16.404,20.014-39.357C512,264.659,491.986,262.804,491.986,248.073z
	 M246.158,137.807c-14.969,33.209-16.423,71.591-3.663,106.233c-32.924-12.467-58.789-37.947-71.879-70.418
	C191.356,153.052,215.77,140.355,246.158,137.807z M234.21,256.899c-32.8,10.65-67.628,7.191-96.666-7.945
	c1.431-23.037,9.235-44.421,22.315-62.463C174.94,218.619,201.51,243.735,234.21,256.899z M53.997,365.763
	c-10.821,2.921-21.52-6.192-19.493-17.262c0.35-1.871,0.52-3.853,0.52-5.884c0-22.714-20.014-24.797-20.014-39.357
	c0-14.763,20.014-16.426,20.014-39.357c0-22.686-20.014-24.848-20.014-39.367c0-14.775,20.014-16.415,20.014-39.357
	c0-5.834-1.381-10.937-4.223-15.601c-5.842-9.543,0.839-21.949,11.938-23.026c38.588-3.749,76.709,4.171,109.415,25.317
	c-11.745,14.26-21.167,32.537-26.018,52.386c-25.738-8.956-46.382-17.102-46.822-17.272c-3.853-1.531-8.216,0.36-9.737,4.213
	c-1.531,3.853,0.36,8.216,4.213,9.736c1.851,0.73,23.246,9.176,49.584,18.272c-1.359,10.767-1.291,20.196-0.41,29.79
	c-18.162,5.404-35.344,9.627-46.992,10.527c-4.133,0.32-7.225,3.933-6.905,8.065c0.292,3.832,3.512,7.138,8.066,6.905
	c12.298-0.951,29.78-5.144,48.163-10.537c3.219,15.197,9.257,30.258,17.892,43.78C110.626,347.341,79.284,358.918,53.997,365.763z
	 M137.764,265.965c-0.01-0.04-0.02-0.176-0.02-0.22c4.253,1.921,8.576,3.622,12.979,5.083h0.01
	c29.793,10.001,62.9,9.749,93.244-1.411c-12.298,32.602-37.656,58.67-70.418,71.879
	C152.166,320.594,139.902,293.249,137.764,265.965z M248.9,374.359c-22.435-1.301-44.05-8.956-62.473-22.305
	c32.182-15.11,57.219-41.648,70.408-74.351C267.145,309.34,264.535,344.346,248.9,374.359z M264.341,215.46
	c-3.592,6.044-6.705,12.328-9.326,18.813c-10.294-31.654-7.717-66.627,7.935-96.656c22.335,1.321,44.03,8.946,62.493,22.325
	c-15.671,7.405-30.021,17.722-41.999,30.301c-2.852,3.002-2.742,7.745,0.26,10.607s7.755,2.742,10.617-0.26
	c12.328-12.949,27.449-23.216,43.97-29.9c21.813,21.813,33.456,47.286,35.804,75.532c-33.528-15.067-71.838-16.363-106.213-3.652
	c2.552-6.735,5.674-13.229,9.366-19.443c2.111-3.572,0.941-8.176-2.632-10.287C271.055,210.727,266.452,211.898,264.341,215.46z
	 M265.692,374.159c15.035-33.335,16.372-71.718,3.663-106.223c32.592,12.255,58.693,37.719,71.879,70.418
	C322.005,358.294,296.129,371.502,265.692,374.159z M277.66,255.077c30.736-10.049,65.877-8.097,96.636,7.935
	c-1.392,22.914-9.208,44.402-22.305,62.483C336.741,292.988,310.033,268.147,277.66,255.077z M476.976,326.797
	c0,5.834,1.381,10.937,4.223,15.601c5.849,9.589-0.873,21.953-11.948,23.026c-27.789,2.712-69.477,0.55-109.495-25.367
	c12.322-15.233,20.865-32.54,25.537-50.705c39.465,13.987,38.965,15.17,42.139,15.17c8.257,0,10.426-11.459,2.772-14.48
	c-1.671-0.66-19.223-7.585-41.959-15.611c1.492-10.629,1.665-21.822,0.58-32.182c19.693-6.014,38.646-10.837,51.195-11.798
	c4.133-0.32,7.225-3.933,6.905-8.066c-0.31-4.133-3.933-7.225-8.056-6.905c-13.249,1.021-32.512,5.814-52.446,11.808
	c-1.866-8.508-4.631-16.895-7.815-24.217c0-0.277-4.102-9.651-9.907-18.763c32.602-19.643,63.984-31.251,89.291-38.096
	c10.805-2.917,21.525,6.165,19.493,17.262c-0.34,1.871-0.51,3.853-0.51,5.884c0,22.726,20.014,24.796,20.014,39.357
	c0,14.836-20.014,16.406-20.014,39.357c0,22.96,20.014,24.548,20.014,39.367C496.99,302.269,476.976,303.856,476.976,326.797z"/>
<g>
</g>
<g>
</g>
<g>
</g>
<g>
</g>
<g>
</g>
<g>
</g>
<g>
</g>
<g>
</g>
<g>
</g>
<g>
</g>
<g>
</g>
<g>
</g>
<g>
</g>
<g>
</g>
<g>
</g>
</svg>
