<?xml version="1.0" encoding="iso-8859-1"?>
<!-- Generator: Adobe Illustrator 19.0.0, SVG Export Plug-In . SVG Version: 6.00 Build 0)  -->
<svg version="1.1" id="Capa_1" xmlns="http://www.w3.org/2000/svg" xmlns:xlink="http://www.w3.org/1999/xlink" x="0px" y="0px"
	 viewBox="0 0 512 512" style="enable-background:new 0 0 512 512;" xml:space="preserve">
<path style="fill:#B3D8F4;" d="M504.502,313.164c0,54.672-98.499,99.611-224.465,104.727c-7.91,0.33-15.921,0.491-24.032,0.491
	c-137.24,0-248.496-47.112-248.496-105.218c0-58.116,111.256-105.218,248.496-105.218c8.111,0,16.121,0.16,24.032,0.491
	C406.003,213.553,504.502,258.481,504.502,313.164z"/>
<path style="fill:#D1E7F8;" d="M504.502,313.164c0,54.672-98.499,99.611-224.465,104.727
	c-125.965-5.117-224.465-50.056-224.465-104.727c0-54.682,98.499-99.611,224.465-104.727
	C406.003,213.553,504.502,258.481,504.502,313.164z"/>
<path style="fill:#EE8700;" d="M441.249,310.02c0,40.924-82.939,74.097-185.243,74.097S70.763,350.943,70.763,310.02
	c0-9.853,4.806-19.255,13.528-27.857c27.516-27.116,94.033-46.241,171.715-46.241c101.734,0,184.322,32.803,185.233,73.416
	C441.249,309.568,441.249,309.789,441.249,310.02z"/>
<path style="fill:#FF9811;" d="M441.239,309.338c-27.516,27.116-94.033,46.241-171.715,46.241
	c-101.734,0-184.322-32.803-185.233-73.416c27.516-27.116,94.033-46.241,171.715-46.241
	C357.74,235.922,440.328,268.725,441.239,309.338z"/>
<path style="fill:#FFA733;" d="M393.476,285.878c0,10.794-7.6,20.857-20.767,29.379c0,0,0,0.01-0.01,0.01
	c-24.272,15.721-67.469,26.184-116.693,26.184c-75.92,0-137.47-24.883-137.47-55.573l33.844-136.669h207.262L393.476,285.878z"/>
<path style="fill:#FFB655;" d="M393.476,285.878c0,10.794-7.6,20.857-20.767,29.379c0,0,0,0.01-0.01,0.01
	c-23,7.009-51.628,11.165-82.648,11.165c-75.92,0-137.47-24.883-137.47-55.573l30.13-121.65h176.932L393.476,285.878z"/>
<path style="fill:#781900;" d="M359.632,149.209c0,28.137-39.001,51.387-89.608,55.052c-4.586,0.34-9.262,0.511-14.018,0.511
	c-57.235,0-103.626-24.873-103.626-55.563s46.391-55.573,103.626-55.573c4.756,0,9.432,0.17,14.018,0.511
	C320.631,97.81,359.632,121.071,359.632,149.209z"/>
<path style="fill:#AB2300;" d="M359.632,149.209c0,28.137-39.001,51.387-89.608,55.052c-50.606-3.665-89.608-26.915-89.608-55.052
	s39.001-51.397,89.608-55.062C320.631,97.81,359.632,121.071,359.632,149.209z"/>
<path d="M131.663,396.543C59.718,378.55,15.02,346.608,15.02,313.164c0-24.542,24.863-49.134,68.2-67.489
	c12.587-5.327,26.335-10.013,40.994-13.988l-4.997,20.197c-30.351,12.698-63.086,35.996-54.702,67.829
	c0.881,3.374,3.925,5.617,7.26,5.617c4.894,0,8.521-4.647,7.27-9.412c-5.223-19.97,17.133-36.21,35.567-45.43
	c-3.433,14.154-3.585,13.795-3.585,15.39c0,18.104,15.971,34.535,44.959,46.251c55.513,22.453,144.511,22.461,200.043,0
	c28.988-11.715,44.959-28.147,44.959-46.251c0-1.615-0.187-1.383-3.525-15.36c5.587,2.794,10.674,5.788,15.18,8.942
	c3.394,2.373,8.081,1.542,10.454-1.852c2.383-3.394,1.552-8.081-1.842-10.454c-7.96-5.567-17.493-10.644-28.307-15.16l-4.936-20.227
	c20.026,5.427,38.25,12.136,54.001,19.976c3.715,1.852,8.221,0.34,10.073-3.374c1.852-3.715,0.34-8.221-3.374-10.073
	c-18.664-9.282-40.583-17.042-64.735-23.07l-16.532-67.799c-0.11-0.431-0.25-0.831-0.421-1.222
	c-1.432-17.743-15.46-34.135-39.001-45.34c-3.745-1.792-8.221-0.2-10.003,3.545c-1.782,3.745-0.2,8.231,3.545,10.013
	c19.426,9.252,30.57,21.929,30.57,34.786c0,26.044-44.018,48.053-96.126,48.053c-23.701,0-46.551-4.516-64.344-12.707
	c-3.765-1.732-8.231-0.09-9.963,3.685c-1.732,3.765-0.09,8.221,3.675,9.963c4.045,1.862,8.321,3.555,12.787,5.057
	c17.273,5.868,37.319,9.022,57.846,9.022c21.388,0,41.184-3.264,57.966-8.982c19.846-6.759,35.467-16.942,44.508-29.228
	c17.415,71.421,22.355,91.682,22.581,92.605c-0.42-1.72-16.433-67.398,4.885,20.013c-1.242,22.52-54.261,47.252-129.941,47.252
	c-75.669,0-128.679-24.722-129.941-47.242c-0.025,0.101,22.079-89.17,27.786-112.217c1.362,1.812,2.884,3.595,4.536,5.327
	c1.482,1.532,3.445,2.303,5.417,2.303c1.872,0,3.745-0.691,5.207-2.093c2.994-2.874,3.084-7.62,0.21-10.614
	c-6.198-6.458-9.342-13.257-9.342-20.197c0-26.054,44.018-48.063,96.126-48.063c13.448,0,26.485,1.412,38.731,4.185
	c4.035,0.921,8.061-1.612,8.982-5.657c0.921-4.045-1.612-8.061-5.657-8.982c-13.337-3.034-27.486-4.566-42.055-4.566
	c-61.731,0-110.205,27.186-111.116,62.071l-16.572,66.908c-18.354,4.586-35.477,10.193-50.957,16.742
	C27.476,252.965,0,281.843,0,313.164c0,41.294,47.863,77.912,128.018,97.949c0.611,0.15,1.222,0.23,1.832,0.23
	c3.364,0,6.418-2.283,7.28-5.697C138.131,401.62,135.688,397.545,131.663,396.543z"/>
<path d="M381.061,266.676C381.072,266.72,381.072,266.721,381.061,266.676L381.061,266.676z"/>
<path d="M475.524,254.377c-3.344-2.453-8.041-1.722-10.494,1.632c-2.443,3.354-1.712,8.051,1.642,10.494
	c56.987,41.597,27.608,86.419-37.88,114.14c-76.465,32.387-184.757,37.011-268.242,22.069c-4.085-0.731-7.99,1.983-8.721,6.058
	c-0.731,4.085,1.983,7.991,6.068,8.721c85.828,15.395,197.3,10.63,276.753-23.01C528.98,354.529,529.981,294.099,475.524,254.377z"
	/>
<path d="M384.204,355.439c-89.943,35.973-239.118,23.822-290.601-19.265c-3.184-2.663-7.92-2.243-10.584,0.941
	c-2.663,3.184-2.243,7.91,0.941,10.574c57.888,48.455,213.697,58.537,305.821,21.698c38.03-15.21,58.977-36.298,58.977-59.368
	c0-6.308-1.582-12.566-4.706-18.594c-1.913-3.675-6.448-5.117-10.133-3.204c-3.675,1.913-5.117,6.448-3.204,10.123
	C443.967,323.922,410.967,344.738,384.204,355.439z"/>
<g>
</g>
<g>
</g>
<g>
</g>
<g>
</g>
<g>
</g>
<g>
</g>
<g>
</g>
<g>
</g>
<g>
</g>
<g>
</g>
<g>
</g>
<g>
</g>
<g>
</g>
<g>
</g>
<g>
</g>
</svg>
