<?xml version="1.0" encoding="iso-8859-1"?>
<!-- Generator: Adobe Illustrator 19.0.0, SVG Export Plug-In . SVG Version: 6.00 Build 0)  -->
<svg version="1.1" id="Capa_1" xmlns="http://www.w3.org/2000/svg" xmlns:xlink="http://www.w3.org/1999/xlink" x="0px" y="0px"
	 viewBox="0 0 512.001 512.001" style="enable-background:new 0 0 512.001 512.001;" xml:space="preserve">
<path style="fill:#EE8700;" d="M424.064,385.345c0,32.936-18.846,62.747-49.318,84.307c-30.402,21.53-72.39,34.838-118.745,34.838
	c-92.819,0-168.063-53.344-168.063-119.145V194.06h336.116L424.064,385.345z"/>
<path style="fill:#FF9811;" d="M424.064,385.345c0,32.936-18.846,62.747-49.318,84.307c-24.644,10.064-53.224,15.812-83.696,15.812
	c-92.819,0-168.063-53.344-168.063-119.145V194.06h301.068L424.064,385.345z"/>
<g>
	<path style="fill:#FFA733;" d="M389.015,265.329v73.101c0,5.598-2.293,10.685-5.978,14.38c-3.695,3.685-8.782,5.978-14.38,5.978
		c-11.195,0-20.358-9.163-20.358-20.358v-46.344C363.87,284.826,377.639,275.763,389.015,265.329z"/>
	<path style="fill:#FFA733;" d="M311.738,304.924l-0.16,1.292v126.425c0,5.598-2.293,10.685-5.978,14.38
		c-3.695,3.685-8.782,5.978-14.38,5.978c-11.206,0-20.368-9.163-20.368-20.358v-35.129c0,11.196-9.163,20.358-20.358,20.358
		c-11.196,0-20.358-9.163-20.358-20.358v-87.261c8.432,0.921,17.074,1.402,25.866,1.402c5.448,0,10.835-0.18,16.152-0.551
		C285.902,310.171,299.16,308.068,311.738,304.924z"/>
	<path style="fill:#FFA733;" d="M424.064,192.508c0,61.936-66.672,112.836-151.911,118.594c-5.317,0.371-10.705,0.551-16.152,0.551
		c-14.049,0-27.698-1.222-40.747-3.535c-2.453-0.431-4.887-0.901-7.3-1.422c-34.468-7.27-64.289-22.161-85.589-41.938
		c-21.6-20.038-34.428-45.083-34.428-72.25c0-60.183,62.927-109.932,144.681-117.994c7.641-0.761,15.451-1.152,23.382-1.152
		c5.448,0,10.835,0.18,16.152,0.551c22.191,1.502,43.13,6.058,61.946,13.078c35.679,13.298,63.798,35.419,78.559,62.276
		C420.018,162.677,424.064,177.257,424.064,192.508z"/>
</g>
<g>
	<path style="fill:#FFB655;" d="M424.064,192.508c0,61.936-66.672,112.836-151.911,118.594c-5.317,0.371-10.705,0.551-16.152,0.551
		c-14.049,0-27.698-1.222-40.747-3.535c-2.453-0.431-4.887-0.901-7.3-1.422c-34.468-7.27-64.289-22.161-85.589-41.938
		c-7.36-13.389-11.396-27.969-11.396-43.21c0-60.183,62.927-109.932,144.681-117.994c7.641-0.761,15.451-1.152,23.382-1.152
		c5.448,0,10.835,0.18,16.152,0.551c22.191,1.502,43.13,6.058,61.946,13.078c21.76,8.111,40.706,19.497,55.527,33.236
		C420.018,162.677,424.064,177.257,424.064,192.508z"/>
	<path style="fill:#FFB655;" d="M389.015,265.329v39.054c0,5.598-2.293,10.685-5.978,14.38c-3.695,3.685-8.782,5.978-14.38,5.978
		c-11.195,0-20.358-9.163-20.358-20.358v-12.297C363.87,284.826,377.639,275.763,389.015,265.329z"/>
	<path style="fill:#FFB655;" d="M311.578,304.964v93.63c0,5.598-2.293,10.685-5.978,14.38c-3.695,3.685-8.782,5.978-14.38,5.978
		c-11.206,0-20.368-9.163-20.368-20.358v-35.129c0,11.196-9.163,20.358-20.358,20.358c-11.196,0-20.358-9.163-20.358-20.358v-53.214
		c8.432,0.921,17.074,1.402,25.866,1.402c5.448,0,10.835-0.18,16.152-0.551C285.842,310.181,299.05,308.088,311.578,304.964z"/>
</g>
<path style="fill:#FFA733;" d="M172.395,295.881v105.717c0,11.206-9.163,20.368-20.368,20.368c-11.196,0-20.358-9.163-20.358-20.368
	V272.659C143.424,281.822,157.153,289.673,172.395,295.881z"/>
<path style="fill:#FFB655;" d="M172.395,295.881v71.669c0,11.206-9.163,20.368-20.368,20.368c-11.196,0-20.358-9.163-20.358-20.368
	v-94.892C143.424,281.822,157.153,289.673,172.395,295.881z"/>
<path style="fill:#AAFFF5;" d="M256.001,102.683c-4.148,0-7.51-3.362-7.51-7.51V60.124c0-4.149,3.363-7.51,7.51-7.51
	c4.149,0,7.51,3.362,7.51,7.51v35.049C263.511,99.322,260.149,102.683,256.001,102.683z"/>
<path style="fill:#368B4C;" d="M376.117,160.193c-6.519-4.566-12.487-6.429-17.735-6.679l8.221-7.09
	c3.134-2.714,3.485-7.45,0.771-10.595c-2.704-3.134-7.45-3.485-10.585-0.771l-8.091,6.99c0.471-5.177-0.531-11.266-4.036-18.275
	c-1.051-2.103-3.795-2.684-5.618-1.212c-6.639,5.377-19.417,18.826-9.043,36.541c0,0.01,0,0.01,0,0.01
	c1.021,1.742,2.253,3.515,3.745,5.327l0.541,0.621c1.532,1.682,3.054,3.134,4.576,4.366c16.072,13.038,31.313,2.303,37.622-3.495
	C378.22,164.339,378.04,161.545,376.117,160.193z"/>
<path style="fill:#00CCB3;" d="M265.514,185.048h-19.026c-6.609,0-12.017-5.408-12.017-12.017v-55.076
	c0-11.841,9.688-21.53,21.53-21.53l0,0c11.841,0,21.53,9.688,21.53,21.53v55.076C277.53,179.64,272.123,185.048,265.514,185.048z"/>
<path style="fill:#C70024;" d="M330.047,229.289c23.383-8.444,32.886-36.898,18.104-54.018l-11.296-13.082l-11.296-13.082
	c-14.783-17.12-44.273-11.842-56.08,10.036c0,0-15.935,27.559-15.65,56.431c0.082,8.336,5.717,15.612,13.774,17.75
	C280.431,236.727,302.448,239.255,330.047,229.289z"/>
<path style="fill:#368B4C;" d="M184.772,104.466c-1.592-1.722-4.386-1.532-5.728,0.401c-4.526,6.549-6.349,12.527-6.569,17.775
	l-7.14-8.181c-2.734-3.124-7.48-3.445-10.605-0.711c-3.124,2.724-3.445,7.47-0.711,10.595l7.03,8.051
	c-5.187-0.441-11.266,0.591-18.245,4.136c-2.103,1.061-2.664,3.805-1.172,5.628c5.418,6.599,18.926,19.297,36.581,8.822
	c1.732-1.021,3.505-2.273,5.317-3.775l0.621-0.541c1.672-1.542,3.114-3.074,4.336-4.606
	C201.425,125.916,190.62,110.745,184.772,104.466z"/>
<path style="fill:#C70024;" d="M248.402,150.538c-8.578-23.334-37.086-32.673-54.121-17.793l-13.017,11.371l-13.017,11.371
	c-17.035,14.881-11.588,44.34,10.358,56.022c0,0,27.65,15.776,56.52,15.325c8.336-0.13,15.579-5.806,17.671-13.876
	C256.127,200.109,258.526,178.078,248.402,150.538z"/>
<path style="fill:#EE8700;" d="M276.889,49.029c0,6.809-3.265,12.868-8.311,16.673c-4.056,3.064-9.263,4.676-14.851,4.086
	c-10.294-1.081-18.055-9.333-18.586-19.677c-0.23-4.576,1.011-8.852,3.295-12.397h-0.03l15.091-26.657
	c1.102-1.943,3.905-1.943,5.007,0l5.137,9.073l9.954,17.584h-0.03C275.668,40.978,276.889,44.853,276.889,49.029z"/>
<path style="fill:#FF9811;" d="M276.889,49.029c0,6.809-3.265,12.868-8.311,16.673c-9.023-2.053-15.592-9.784-16.082-19.257
	c-0.23-4.586,1.011-8.862,3.305-12.397h-0.04l7.881-13.919l9.954,17.584h-0.03C275.668,40.978,276.889,44.853,276.889,49.029z"/>
<g>
	<path style="fill:#FF0C38;" d="M354.046,185.143c-2.974,11.165-11.496,21.4-24.003,25.916c-27.598,9.964-49.609,7.43-62.437,4.026
		c-6.359-1.682-11.216-6.569-13.008-12.648c3.144-24.033,14.881-44.341,14.881-44.341c11.806-21.88,41.297-27.158,56.078-10.034
		l11.296,13.088l11.296,13.078C350.992,177.522,352.935,181.227,354.046,185.143z"/>
	<path style="fill:#FF0C38;" d="M255.199,178.754v0.03c-0.531,5.257-1.422,9.824-2.403,13.599
		c-2.093,8.071-9.333,13.749-17.674,13.879c-28.87,0.451-56.518-15.321-56.518-15.321c-9.754-5.197-16.253-13.909-18.956-23.292
		c1.552-4.967,4.386-9.533,8.602-13.208l13.018-11.366l13.018-11.376c17.034-14.881,45.543-5.538,54.115,17.795
		C252.315,160.138,254.358,169.962,255.199,178.754z"/>
</g>
<path d="M299.941,164.389c-1.542-1.792-5.658-0.771-9.183,2.283c-3.525,3.044-5.137,6.96-3.595,8.742s5.648,0.761,9.173-2.283
	C299.871,170.087,301.474,166.171,299.941,164.389z"/>
<path d="M279.914,194.23c-3.525,3.054-5.137,6.97-3.595,8.752c1.542,1.782,5.648,0.761,9.183-2.283
	c3.525-3.044,5.137-6.96,3.595-8.752C287.554,190.165,283.449,191.186,279.914,194.23z"/>
<path d="M310.206,187.471c1.542,1.782,5.648,0.761,9.183-2.283c3.525-3.044,5.137-6.96,3.595-8.752
	c-1.542-1.782-5.648-0.761-9.183,2.283C310.276,181.773,308.664,185.689,310.206,187.471z"/>
<path d="M298.55,209.201c-3.525,3.044-5.137,6.97-3.595,8.752s5.648,0.761,9.173-2.283c3.525-3.044,5.137-6.96,3.595-8.752
	C306.19,205.135,302.074,206.157,298.55,209.201z"/>
<path d="M333.528,208.751c3.525-3.054,5.137-6.97,3.595-8.752c-1.542-1.782-5.648-0.761-9.173,2.283
	c-3.535,3.044-5.137,6.96-3.595,8.752C325.887,212.816,330.003,211.795,333.528,208.751z"/>
<path d="M194.776,193.73c1.772-1.552,0.731-5.648-2.333-9.163c-3.064-3.505-6.99-5.097-8.772-3.545
	c-1.772,1.552-0.731,5.658,2.343,9.163C189.078,193.7,193.003,195.282,194.776,193.73z"/>
<path d="M222.404,204.414c1.772-1.552,0.731-5.658-2.333-9.163c-3.064-3.515-6.99-5.097-8.772-3.545
	c-1.772,1.552-0.731,5.648,2.343,9.163C216.706,204.374,220.631,205.967,222.404,204.414z"/>
<path d="M206.692,170.618c1.782-1.552,0.731-5.658-2.333-9.163c-3.064-3.515-6.99-5.097-8.762-3.545
	c-1.782,1.552-0.731,5.648,2.333,9.163C200.994,170.578,204.92,172.17,206.692,170.618z"/>
<path d="M226.159,172.991c-1.772,1.542-0.731,5.648,2.343,9.163c1.969,2.285,6.516,5.511,8.762,3.545
	c1.782-1.552,0.731-5.658-2.333-9.163C232.818,174.113,228.416,171.026,226.159,172.991z"/>
<path d="M226.96,156.698c1.302,0.391,2.453,0.3,3.214-0.361c4.197-3.676-6.826-16.456-11.105-12.708
	C216.028,146.294,221.341,155.029,226.96,156.698z"/>
<path d="M379.181,102.133c-27.709-19.647-62.987-31.873-101.072-35.292c4.074-5.024,6.291-11.23,6.291-17.813
	c0-11.734-5.671-15.834-21.119-44.782C261.799,1.622,259.005,0,256.001,0s-5.798,1.622-7.28,4.246l-16.853,29.771
	c-0.06,0.1-0.11,0.21-0.17,0.31c-2.944,4.867-4.346,10.434-4.056,16.162c0.314,6.151,2.642,11.813,6.324,16.344
	c-38.112,3.41-73.417,15.639-101.145,35.299c-33.787,23.943-52.393,56.048-52.393,90.375v194.45c0,0.12,0,0.25,0.02,0.371
	c-0.01,0.01-0.01,0.03,0,0.04c0.711,33.557,19.247,64.88,52.373,88.353c33.006,23.402,76.746,36.28,123.181,36.28
	s90.175-12.878,123.181-36.28c33.126-23.473,51.662-54.796,52.373-88.353c0.01-0.01,0.01-0.03,0-0.04
	c0.02-0.12,0.02-0.25,0.02-0.371v-194.45C431.574,158.18,412.968,126.076,379.181,102.133z M254.555,24.538
	c0.627-1.143,2.269-1.146,2.899-0.004c9.023,16.353,11.584,18.969,11.892,23.469c0.263,3.852-1.125,7.704-3.848,10.439
	c-8.2,8.238-22.267,2.772-22.856-8.712C242.357,43.95,244.933,42.087,254.555,24.538z M342.821,180.601
	c7.203,8.778,6.051,21.432-0.751,30.693c-3.565,4.867-8.622,8.782-14.57,10.925c-12.127,4.386-24.254,6.609-36.03,6.609
	c-7.651,0-15.041-0.931-21.94-2.764c-4.777-1.262-8.141-5.608-8.191-10.575v-0.681c0-7.317,0.666-8.352,1.242-13.859
	c0.215-0.432,2.387-18.22,13.399-38.053c0.04-0.06,0.08-0.12,0.11-0.19c2.213-4.106,5.307-7.611,8.952-10.294
	c10.453-7.749,25.686-8.683,34.838,1.602C331.326,167.271,342.614,180.337,342.821,180.601z M339.967,131.934
	c2.286,6.817,1.818,13.454-2.624,19.327l-3.675-4.246C333.124,141.337,336.099,136.084,339.967,131.934z M270.02,145.743
	c-4.65,4.888-7.331,9.745-10.334,16.002c-3.395-13.787-7.526-24.501-17.705-33.146v-10.645c0-7.731,6.289-14.019,14.019-14.019
	c7.731,0,14.019,6.289,14.019,14.019V145.743z M186.204,149.769c0.02-0.01,0.03-0.02,0.04-0.04
	c12.581-10.979,16.854-16.663,27.538-16.663c11.416,0,23.356,7.558,28.199,21.84c7.31,20.804,7.595,40.669,3.545,56.168
	c-1.242,4.777-5.568,8.171-10.525,8.251c-26.427,0.411-52.423-14.2-52.673-14.34c-0.06-0.04-0.13-0.07-0.19-0.11
	c-9.974-5.307-16.413-15.742-16.413-26.597C165.725,163.178,176.685,159.317,186.204,149.769z M150.995,141.177
	c7.022-2.389,13.528-1.784,19.337,2.513l-4.246,3.705C160.415,147.946,155.167,145.027,150.995,141.177z M182.559,113.629
	c3.254,4.656,5.404,10.179,4.136,15.762l-4.256,3.715C178.947,126.671,179.307,120.189,182.559,113.629z M351.784,282.033
	c-11.863,6.199-25.747,11.398-38.334,14.709c-5.548,1.492-9.383,6.559-9.383,12.307v93.049c0,3.821,2.748,7.226,6.539,7.702
	c4.582,0.574,8.482-2.989,8.482-7.451v-91.547c7.45-2.063,14.7-4.486,21.7-7.27v34.308c0,15.171,11.876,27.999,27.038,28.449
	c15.752,0.461,28.7-12.207,28.7-27.859v-69.807c7.991-7.651,14.7-15.882,20.028-24.544v141.266
	c0,61.555-72.03,111.635-160.553,111.635S95.448,446.901,95.448,385.345V244.079c7.16,11.636,16.793,22.481,28.71,32.215v99.438
	c0,3.821,2.748,7.227,6.539,7.702c4.582,0.574,8.482-2.989,8.482-7.451V269.004c-5.448-4.016-10.475-8.312-15.021-12.858
	c-18.095-18.065-28.71-40.005-28.71-63.638c0-59.805,67.992-108.772,153.042-111.509v8.907c-12.387,3.315-21.53,14.63-21.53,28.049
	v2.193c-8.064-2.631-17.195-2.943-25.475-0.09c-1.833-9.373-7.55-16.783-11.216-20.709c-2.103-2.273-5.097-3.575-8.191-3.575
	c-3.685,0-7.12,1.802-9.213,4.827c-3.335,4.827-5.628,9.723-6.849,14.64l-0.681-0.781c-2.734-3.124-7.48-3.445-10.605-0.711
	c-3.124,2.724-3.445,7.47-0.711,10.595l0.581,0.661c-4.686,0.561-9.774,2.073-15.201,4.827c-3.034,1.542-5.177,4.336-5.878,7.671
	c-0.701,3.345,0.14,6.779,2.303,9.413c3.445,4.206,9.974,10.795,18.946,13.869c-2.664,5.257-4.066,11.196-4.066,17.494
	c0,16.303,9.523,31.914,24.284,39.815c15.856,8.912,38.722,16.253,60.254,16.253c5.568-0.09,10.815-1.963,15.081-5.117
	c3.415,5.468,8.832,9.623,15.351,11.356c8.161,2.163,16.843,3.265,25.796,3.265c13.519,0,27.358-2.524,41.127-7.5
	c22.469-8.115,35.284-32.758,28.199-53.795c9.393-1.782,16.823-7.46,20.769-11.095c5.303-4.866,4.665-13.361-1.142-17.414
	c-4.807-3.365-9.693-5.688-14.6-6.94l0.781-0.681c3.134-2.714,3.485-7.45,0.771-10.595c-2.704-3.134-7.45-3.485-10.585-0.771
	l-0.671,0.571c-0.531-4.697-2.013-9.774-4.737-15.221c-3.192-6.384-11.523-8.187-17.064-3.675
	c-4.216,3.415-10.855,9.904-13.989,18.866c-10.89-5.59-23.949-5.381-35.289-0.411v-17.234c0-13.419-9.143-24.734-21.53-28.049
	v-8.907c85.05,2.737,153.042,51.705,153.042,111.509c0,26.007-12.775,48.783-31.514,66.362c-2.243,2.093-3.535,5.007-3.535,8.081
	v71.109c0,6.92-5.307,12.868-12.217,13.198c-7.37,0.36-13.479-5.528-13.479-12.828v-53.955
	C355.809,282.417,353.626,281.071,351.784,282.033z M347.848,163.428c6.474-3.465,12.953-3.056,19.487,0.23
	c-4.703,3.239-10.185,5.334-15.792,4.046L347.848,163.428z"/>
<path d="M222.624,337.96c0,4.216,3.465,7.621,7.721,7.51c4.116-0.12,7.3-3.705,7.3-7.821v-28.86c0-3.024-2.283-5.558-5.297-5.868
	c-20.591-2.079-39.738-6.962-57.169-13.999c-0.721-0.29-1.432-0.581-2.143-0.881c-3.875-1.632-8.151,1.242-8.151,5.448v36.22
	c0,3.815,2.744,7.22,6.529,7.701c4.586,0.581,8.492-2.984,8.492-7.45v-23.202c13.529,4.686,27.859,8.091,42.719,10.134
	L222.624,337.96L222.624,337.96z"/>
<path d="M304.067,432.641c0,7.31-6.128,13.208-13.509,12.828c-6.9-0.35-12.197-6.299-12.197-13.208v-31.554
	c0-0.37-0.03-0.731-0.08-1.091c0.05-0.691,0.08-1.392,0.08-2.103v-86.41c0-4.276-3.595-7.691-7.851-7.42c-0.05,0-0.1,0.01-0.15,0.01
	c-3.935,0.25-7.02,3.475-7.02,7.42v86.029c0,6.91-5.307,12.868-12.217,13.198c-7.37,0.361-13.479-5.538-13.479-12.828v-29.511
	c0-4.236-3.495-7.641-7.751-7.51c-4.106,0.13-7.27,3.715-7.27,7.821v29.201c0,15.361,12.497,27.869,27.869,27.869
	c4.636,0,9.002-1.142,12.848-3.154v9.814c0,15.161,11.856,27.999,27.017,28.46c15.752,0.481,28.73-12.197,28.73-27.859v-0.25
	c0-4.727-4.376-8.442-9.303-7.3c-3.385,0.781-5.718,3.915-5.718,7.4L304.067,432.641L304.067,432.641z"/>
<path d="M172.395,352.49c-4.146,0-7.51,3.355-7.51,7.51v41.598c0,7.09-5.768,12.858-12.848,12.858
	c-5.978,0-11.256-4.246-12.557-10.094c-0.901-4.056-4.907-6.609-8.952-5.708c-4.056,0.891-6.609,4.907-5.708,8.952
	c2.804,12.668,14.25,21.87,27.208,21.87c15.371,0,27.879-12.507,27.879-27.879V360C179.905,355.844,176.54,352.49,172.395,352.49z"
	/>
<g>
</g>
<g>
</g>
<g>
</g>
<g>
</g>
<g>
</g>
<g>
</g>
<g>
</g>
<g>
</g>
<g>
</g>
<g>
</g>
<g>
</g>
<g>
</g>
<g>
</g>
<g>
</g>
<g>
</g>
</svg>
