<?xml version="1.0" encoding="iso-8859-1"?>
<!-- Generator: Adobe Illustrator 19.0.0, SVG Export Plug-In . SVG Version: 6.00 Build 0)  -->
<svg version="1.1" id="Capa_1" xmlns="http://www.w3.org/2000/svg" xmlns:xlink="http://www.w3.org/1999/xlink" x="0px" y="0px"
	 viewBox="0 0 512.002 512.002" style="enable-background:new 0 0 512.002 512.002;" xml:space="preserve">
<g>
	<path style="fill:#368B4C;" d="M411.999,46.203c-10.263-3.69-18.586-3.569-25.232-1.566l8.383-12.432
		c2.331-3.457,1.418-8.148-2.038-10.478c-3.456-2.332-8.147-1.419-10.479,2.037l-8.239,12.219
		c-0.699-6.828-3.728-14.472-10.878-22.474c-1.903-2.131-5.301-1.941-6.971,0.376c-6.233,8.644-17.324,29.305,2.507,47.094
		l10.386,7.052c24.057,11.945,39.129-6.175,44.825-15.222C415.785,50.391,414.687,47.171,411.999,46.203z"/>
	<path style="fill:#368B4C;" d="M145.491,40.36c-2.549-1.29-5.653,0.104-6.365,2.87c-2.716,10.558-1.826,18.835,0.786,25.265
		L126.76,61.31c-3.659-1.996-8.243-0.651-10.243,3.005c-1.999,3.659-0.652,8.244,3.005,10.243l12.931,7.064
		c-6.733,1.333-14.061,5.062-21.36,12.927c-1.943,2.094-1.439,5.459,1.025,6.906c9.19,5.401,30.801,14.521,46.665-6.898
		l6.046-10.995C174.47,58.502,155.029,45.188,145.491,40.36z"/>
</g>
<path style="fill:#C70024;" d="M379.991,141.898c-29.196,20.48-55.815,24.526-71.938,24.617
	c-10.135,0.06-19.061-6.673-21.809-16.425c-4.156-14.744-4.619-30.172-3.804-42.883c1.047-16.404,4.187-28.27,4.187-28.27
	c6.874-29.417,39.773-44.997,62.558-29.639l17.411,11.745l17.411,11.745c7.739,5.223,12.61,12.862,14.704,21.356
	C402.776,110.669,396.325,130.435,379.991,141.898z"/>
<path style="fill:#FF0C38;" d="M398.71,94.144c-2.466,10.557-8.756,20.641-18.719,27.626c-29.196,20.48-55.815,24.526-71.938,24.617
	c-10.135,0.06-19.061-6.673-21.809-16.425c-2.134-7.558-3.291-15.287-3.804-22.755c1.047-16.404,4.187-28.27,4.187-28.27
	c6.874-29.417,39.773-44.997,62.558-29.639l17.411,11.745l17.411,11.745C391.745,78.011,396.616,85.65,398.71,94.144z"/>
<path style="fill:#C70024;" d="M254.28,158.752c-32.728,12.64-70.881,6.26-70.881,6.26c-27.133-3.724-44.926-29.78-38.223-52.595
	c0.694-2.355,1.651-4.67,2.888-6.934l10.074-18.427l10.064-18.437c13.174-24.124,49.606-25.442,69.18-2.436
	c18.9,22.201,26.7,43.718,29.79,59.599c0.684,3.543,1.137,6.803,1.429,9.732C269.608,145.588,263.73,155.109,254.28,158.752z"/>
<path style="fill:#FF0C38;" d="M267.172,125.782c-2.244,5.767-6.834,10.507-12.892,12.842c-32.728,12.64-70.881,6.26-70.881,6.26
	c-19.222-2.637-33.775-16.495-38.223-32.467c0.694-2.355,1.651-4.67,2.888-6.934l10.074-18.427l10.064-18.437
	c13.174-24.124,49.606-25.442,69.18-2.436C256.283,88.384,264.083,109.901,267.172,125.782z"/>
<path style="fill:#FF728B;" d="M430.975,276.592v227.861H54.679c-8.887,0-16.092-7.206-16.092-16.103V245.283h361.089
	C416.966,245.283,430.975,259.302,430.975,276.592z"/>
<rect x="38.587" y="285.578" style="fill:#FFA5B5;" width="392.388" height="175.105"/>
<path style="fill:#FFB655;" d="M500.337,224.742v260.247c0,10.748-8.715,19.464-19.464,19.464h-49.898l0.01-221.309
	c0-20.913-16.948-37.861-37.861-37.861H46.346c-9.581,0-18.246-3.875-24.526-10.155c-6.27-6.27-10.155-14.935-10.155-24.516
	c0-0.302,0-0.604,0.01-0.906c0.483-18.729,15.811-33.765,34.661-33.765h405.2C478.488,175.941,500.337,197.791,500.337,224.742z"/>
<polyline style="fill:#FFDAAA;" points="38.587,328.16 430.979,328.16 430.979,420.636 38.587,420.636 "/>
<g>
	<path style="fill:#FF0C38;" d="M84.325,382.02l24.725-27.026c1.868-2.041,5.046-2.154,7.053-0.249l33.926,32.201
		c3.397,3.224,0.826,8.925-3.839,8.513l-58.651-5.175C83.458,389.924,81.56,385.043,84.325,382.02z"/>
	<path style="fill:#FF0C38;" d="M315.883,362.504l13.824,28.816c1.182,2.463,4.135,3.501,6.598,2.32l42.467-20.372
		c4.393-2.107,3.413-8.627-1.405-9.35l-56.29-8.446C317.151,354.886,314.167,358.927,315.883,362.504z"/>
	<path style="fill:#FF0C38;" d="M266.581,359.993l-6.524,31.408c-0.621,2.99-3.776,4.708-6.624,3.607l-50.367-19.46
		c-4.593-1.774-4.054-8.441,0.766-9.452l56.89-11.948C264.212,353.415,267.306,356.503,266.581,359.993z"/>
</g>
<path style="fill:#FFA733;" d="M467.347,262.04v242.413h-36.372l0.01-221.309c0-20.913-16.948-37.861-37.861-37.861H46.346
	c-9.581,0-18.246-3.875-24.526-10.155c-6.27-6.27-10.155-14.935-10.155-24.516c0-0.302,0-0.604,0.01-0.906h403.338
	C443.797,209.706,467.347,233.256,467.347,262.04z"/>
<path d="M313.971,76.509c-7.584,11.247,1.012,17.058,8.603,5.802C330.16,71.062,321.557,65.26,313.971,76.509z"/>
<path d="M310.039,112.288c-7.584,11.247,1.012,17.058,8.603,5.802C326.228,106.839,317.625,101.037,310.039,112.288z"/>
<path d="M353.437,89.105c7.585-11.248-1.013-17.056-8.603-5.802C337.25,94.55,345.847,100.361,353.437,89.105z"/>
<path d="M335.223,135.309c5.685,3.834,17.154-13.168,11.467-17.003C341.004,114.472,329.533,131.472,335.223,135.309z"/>
<path d="M378.958,100.825c-5.684-3.833-17.155,13.167-11.467,17.003C373.176,121.663,384.646,104.662,378.958,100.825z"/>
<path d="M187.864,128.877c-11.905-6.503-16.89,2.598-4.975,9.106C194.794,144.485,199.779,135.385,187.864,128.877z"/>
<path d="M230.365,138.925c3.287-6.017-14.709-15.852-17.998-9.832C209.079,135.111,227.076,144.945,230.365,138.925z"/>
<path d="M191.752,97.513c-11.905-6.502-16.889,2.598-4.975,9.106C198.683,113.123,203.664,104.021,191.752,97.513z"/>
<path d="M232.94,101.874c-11.908-6.504-16.883,2.601-4.975,9.106C239.876,117.486,244.848,108.379,232.94,101.874z"/>
<path d="M219.041,80.844c3.287-6.017-14.709-15.852-17.998-9.832C197.755,77.03,215.752,86.864,219.041,80.844z"/>
<path d="M76.906,396.922c88.284,7.779,82.779,7.33,83.408,7.33c6.793,0,10.137-8.333,5.193-13.022
	c-50.008-46.357-47.622-47.671-53.323-47.495c-5.592,0.195-4.148,2.325-40.185,40.574C67.788,388.913,70.685,396.373,76.906,396.922
	z M112.83,362.044l26.591,25.24l-45.972-4.056L112.83,362.044z"/>
<path d="M331.846,403.328c3.242,0,0.968,0.071,64.702-30.214c6.68-3.202,5.192-13.17-2.145-14.27l-81.435-12.219
	c-5.98-0.896-10.542,5.275-7.925,10.729C325.922,399.17,324.509,403.328,331.846,403.328z M367.869,370.127l-32.482,15.582
	l-10.573-22.042L367.869,370.127z"/>
<path d="M184.767,376.57c74.828,28.718,71.481,28.088,74.105,28.088c3.594,0,6.666-2.529,7.391-6.013
	c7.835-43.224,12.245-46.347,7.187-51.393c-5.438-5.428-8.428-0.508-87.514,14.891c-3.272,0.687-5.702,3.445-5.972,6.777
	C179.694,372.251,181.649,375.364,184.767,376.57z M258.382,362.352l-5.09,24.51l-39.304-15.186L258.382,362.352z"/>
<path d="M451.537,168.39H323.917c8.298-1.195,16.638-3.27,24.937-6.232c9.4-3.358,4.337-17.572-5.077-14.218
	c-14.937,5.335-27.697,6.51-35.859,6.559c-6.667,0-12.592-4.495-14.409-10.93c-4.648-16.468-5.778-40.999,0.463-67.389
	c3.974-16.998,19.192-29.817,35.399-29.817c13.51,0,18.366,7.816,39.281,20.7c5.187,4.82,23.691,10.039,23.691,32.533
	c0,12.487-6.24,24.319-16.691,31.651c-2.06,1.446-4.174,2.85-6.284,4.175c-8.447,5.305-0.437,18.099,8.029,12.784
	c2.327-1.461,4.657-3.009,6.925-4.601c24.745-17.359,29.721-50.595,14.464-71.39c9.717-4.13,23.716-17.314,23.716-26.262
	c0-5.064-3.195-9.616-7.95-11.324c-7.169-2.577-14.436-3.861-21.875-3.229l2.474-3.668c5.579-8.274-6.927-16.728-12.517-8.441
	l-2.361,3.501c-1.868-5.943-5.322-12.288-11.13-18.787c-5.142-5.754-14.248-5.212-18.722,0.991
	c-3.96,5.493-9.932,15.714-10.187,27.646c-25.672-6.636-54.119,11.062-60.941,39.999c-5.724,22.053-6.778,52.131-0.315,75.027
	c2.865,10.154,10.848,17.877,20.638,20.721h-48.927c2.152-0.68,4.259-1.41,6.31-2.202c12.253-4.73,20.482-17.341,19.115-31.032
	c-1.331-13.379-5.099-26.797-11.198-39.877c-4.22-9.055-17.902-2.671-13.682,6.379c6.7,14.369,9.059,26.962,9.859,34.996
	c0.674,6.713-3.331,13.057-9.531,15.45c-15.621,6.031-39.804,9.489-67.139,5.82c-24.929-3.418-40.244-29.097-29.76-48.38
	l13.722-25.123c4.18-5.155,8.253-26.781,33.589-26.781c15.959,0,25.558,8.149,34.411,19.701c6.066,7.92,18.063-1.249,11.982-9.181
	c-1.669-2.177-3.429-4.356-5.234-6.477c-19.654-23.095-53.236-24.8-72.429-7.755c-4.884-9.035-18.94-21.21-27.235-21.21
	c-5.494,0-10.286,3.711-11.653,9.022c-1.849,7.185-2.543,14.645-1.163,22.089l-3.894-2.128c-8.76-4.779-16.007,8.459-7.237,13.248
	l3.707,2.025c-5.743,2.413-11.739,6.443-17.667,12.832c-5.223,5.629-3.89,14.655,2.732,18.548
	c8.548,5.024,18.607,8.269,28.481,7.555c-3.486,21.793,9.923,43.095,30.29,52.48h-62.161c-4.169,0-7.548,3.379-7.548,7.548
	s3.38,7.548,7.548,7.548h346.635c22.746,0,41.252,18.506,41.252,41.251v36.852c0,9.978,15.096,9.995,15.096,0v-36.852
	C507.885,193.667,482.607,168.39,451.537,168.39z M405.598,47.625c-4.192,5.577-11.139,12.206-20.498,12.322l-7.698-5.192
	C384.568,47.117,393.942,44.502,405.598,47.625z M360.452,17.187c8.784,11.709,7.205,21.99,4.026,28.854l-7.744-5.222
	C353.606,32.895,356.08,24.464,360.452,17.187z M145.59,49.447c5.946,3.655,13.2,9.958,14.181,19.259l-4.445,8.137
	C146.497,69.963,143.711,60.484,145.59,49.447z M143.368,98.733c-7.576,3.843-16.186,2.191-23.874-1.5
	c10.839-9.839,21.222-9.225,28.353-6.699L143.368,98.733z"/>
<path d="M492.789,291.782v193.206c0,6.57-5.345,11.915-11.915,11.915h-42.346c0-11.758,0-209.307,0-220.307
	c0-21.425-17.431-38.855-38.856-38.855c-114.913,0-238.443,0-353.331,0c-14.958,0-27.128-12.169-27.128-27.128
	c0-14.956,12.167-27.125,27.125-27.125H74.71c4.169,0,7.548-3.379,7.548-7.548s-3.38-7.548-7.548-7.548H46.338
	c-23.28,0-42.221,18.94-42.221,42.221c0,17.885,11.182,33.196,26.917,39.34v190.134c0,4.17,3.38,7.548,7.548,7.548
	s7.548-3.379,7.548-7.548v-11.901h0.181c73.322,0,358.256,0,377.12,0c0,1.009-0.001,55.941-0.001,68.72H54.681
	c-4.715,0-8.55-3.836-8.55-8.55V470.28c0-4.17-3.38-7.548-7.548-7.548s-7.548,3.379-7.548,7.548v18.076
	c0,13.039,10.608,23.647,23.647,23.647c6.443,0,407.126-0.002,426.193-0.002c14.894,0,27.011-12.117,27.011-27.011V291.782
	C507.885,281.803,492.789,281.787,492.789,291.782z M423.431,413.088c-12.645,0-360.882,0-377.119,0h-0.177v-77.381
	c12.737,0,364.582,0,377.296,0C423.431,361.105,423.431,389.83,423.431,413.088z M423.432,320.612c-12.728,0-364.617,0-377.3,0
	v-67.777c59.952,0,306.233,0,346.997,0c16.691,0,30.272,13.564,30.304,30.248L423.432,320.612L423.432,320.612z"/>
<g>
</g>
<g>
</g>
<g>
</g>
<g>
</g>
<g>
</g>
<g>
</g>
<g>
</g>
<g>
</g>
<g>
</g>
<g>
</g>
<g>
</g>
<g>
</g>
<g>
</g>
<g>
</g>
<g>
</g>
</svg>
