<?xml version="1.0" encoding="iso-8859-1"?>
<!-- Generator: Adobe Illustrator 19.0.0, SVG Export Plug-In . SVG Version: 6.00 Build 0)  -->
<svg version="1.1" id="Capa_1" xmlns="http://www.w3.org/2000/svg" xmlns:xlink="http://www.w3.org/1999/xlink" x="0px" y="0px"
	 viewBox="0 0 512 512" style="enable-background:new 0 0 512 512;" xml:space="preserve">
<path style="fill:#96C8EF;" d="M356.371,473.561c0,15.46-36.694,28.281-84.672,30.603c-5.113,0.249-10.357,0.379-15.7,0.379
	c-55.435,0-100.373-13.876-100.373-30.982c0-17.116,44.938-30.982,100.373-30.982c5.343,0,10.587,0.129,15.7,0.379
	C319.677,445.279,356.371,458.089,356.371,473.561z"/>
<g>
	<path style="fill:#C2DFF6;" d="M356.371,473.561c0,15.46-36.694,28.281-84.672,30.603c-47.978-2.323-84.672-15.142-84.672-30.603
		c0-15.472,36.694-28.281,84.672-30.603C319.677,445.279,356.371,458.089,356.371,473.561z"/>
	<path style="fill:#C2DFF6;" d="M288.147,341.896v123.261c0,2.771-2.113,5.093-4.875,5.333c-3.768,0.329-7.636,0.588-11.573,0.777
		c-5.113,0.249-10.357,0.379-15.7,0.379c-9.45,0-18.601-0.398-27.273-1.156c-2.761-0.24-4.875-2.562-4.875-5.333V341.896H288.147z"
		/>
</g>
<path style="fill:#96C8EF;" d="M502.539,158.018v23.725c0,39.755-11.036,77.864-30.873,110.65
	c-19.827,32.786-48.477,60.24-83.685,78.692c-30.613,16.039-64.656,24.423-99.216,24.423h-65.533c-17.275,0-34.431-2.094-51.089-6.2
	c-16.657-4.097-32.816-10.198-48.128-18.222C53.588,334.191,9.458,261.251,9.458,181.742v-23.725H502.539z"/>
<path style="fill:#C2DFF6;" d="M502.539,158.018v23.725c0,39.755-11.036,77.864-30.873,110.65
	c-19.827,32.786-48.477,60.24-83.685,78.692c-30.613,16.039-64.656,24.423-99.216,24.423h-22.18c-17.275,0-34.431-2.094-51.079-6.2
	c-16.667-4.097-32.826-10.198-48.128-18.222C96.951,334.191,52.82,261.251,52.82,181.742v-23.725H502.539z"/>
<ellipse style="fill:#78B9EB;" cx="255.998" cy="158.012" rx="246.541" ry="45.99"/>
<path style="fill:#FFDA44;" d="M469.064,164.467c0,0.459,0,0.907-0.01,1.366c-0.059,5.313-0.479,10.557-1.236,15.731
	c-43.034,13.437-121.795,22.439-211.82,22.439s-168.787-9.002-211.82-22.439c-0.828-5.613-1.246-11.314-1.246-17.096
	c0-10.567,1.415-20.894,4.117-30.873c11.344-41.907,45.317-77.794,92.149-100.442c33.544-16.239,73.677-25.678,116.801-25.678
	c103.324,0,189.481,54.199,208.95,126.122C467.649,143.573,469.064,153.9,469.064,164.467z"/>
<path style="fill:#FFE477;" d="M469.064,164.467c0,0.459,0,0.907-0.01,1.366c-44.519,8.184-105.686,13.249-173.183,13.249
	c-79.997,0-151.103-7.108-196.15-18.123c-9.829-2.402-16.906-11.124-16.916-21.242v-0.169c0-10.567,1.415-20.894,4.117-30.873
	c7.795-28.789,26.277-54.756,52.275-75.521c33.544-16.239,73.677-25.678,116.801-25.678c103.324,0,189.481,54.199,208.95,126.122
	C467.649,143.573,469.064,153.9,469.064,164.467z"/>
<path d="M179.121,25.785c100.361-29.524,220.6,2.664,266.109,80.236c2.099,3.593,6.706,4.743,10.228,2.672
	c3.559-2.093,4.755-6.669,2.662-10.228C409.353,15.303,282.32-20.174,174.905,11.441c-3.967,1.166-6.231,5.323-5.064,9.28
	C171.007,24.688,175.164,26.952,179.121,25.785z"/>
<path d="M168.239,67.202c27.284,20.543,26.976,22.508,31.498,22.508c7.112,0,10.184-9.03,4.595-13.378L177.419,55.4
	c-3.258-2.534-7.957-1.95-10.491,1.312C164.393,59.97,164.98,64.667,168.239,67.202z"/>
<path d="M221.104,113.197l-31.003,14.19c-7.261,3.323-4.897,14.276,3.116,14.276c2.887,0,1.631-0.266,34.109-14.871
	c3.754-1.718,5.406-6.155,3.687-9.909C229.294,113.128,224.855,111.475,221.104,113.197z"/>
<path d="M386.472,58.722l-31.236,13.672c-7.396,3.237-5.062,14.327,3.001,14.327c2.776,0,1.534-0.23,34.229-14.3
	c3.783-1.655,5.507-6.065,3.852-9.847C394.661,58.79,390.255,57.069,386.472,58.722z"/>
<path d="M273.559,123.329c-3.258,2.536-3.843,7.234-1.307,10.492l20.945,26.905c2.545,3.269,7.244,3.834,10.492,1.307
	c3.258-2.536,3.843-7.234,1.307-10.492l-20.945-26.905C281.516,121.378,276.819,120.794,273.559,123.329z"/>
<path d="M264.838,44.158c2.92-2.92,2.92-7.653-0.001-10.573c-2.919-2.919-7.652-2.92-10.573,0.001l-25.417,25.418
	c-4.723,4.723-1.313,12.763,5.287,12.763C239.591,71.767,239.383,68.566,264.838,44.158z"/>
<path d="M336.417,98.876c1.533-3.833-0.332-8.184-4.166-9.718l-44.856-17.943c-3.832-1.532-8.185,0.33-9.718,4.166
	c-1.533,3.833,0.332,8.184,4.166,9.718l44.856,17.943C330.549,104.582,334.89,102.692,336.417,98.876z"/>
<path d="M148.137,72.827l-34.622,20.975c-6.449,3.908-3.671,13.873,3.882,13.873c3.724,0,2.54-0.724,38.489-22.058
	c3.531-2.139,4.659-6.738,2.52-10.269C156.266,71.817,151.669,70.69,148.137,72.827z"/>
<path d="M295.622,437.554v-34.681c7.197-0.22,14.405-0.797,21.512-1.715c4.097-0.528,6.988-4.277,6.459-8.373
	c-0.528-4.097-4.277-6.998-8.374-6.459c-17.664,2.283-26.706,1.805-98.708,1.585c-2.413,0.618-53.969-1.196-101.709-30.673
	c-3.519-2.173-8.124-1.077-10.298,2.433c-2.164,3.519-1.077,8.124,2.433,10.288c33.504,20.675,71.425,31.719,109.434,32.916v34.681
	c-35.199,4.526-68.225,15.721-68.225,36.006c0,8.373,6.011,20.206,34.67,29.048c61.979,19.149,181.027,8.793,181.027-29.048
	C363.847,449.913,319.163,440.594,295.622,437.554z M231.326,402.983h49.345v60.22c-15.882,1.286-33.389,1.293-49.345,0V402.983z
	 M324.771,488.324c-18.262,5.633-42.685,8.742-68.772,8.742s-50.51-3.11-68.772-8.742c-17.704-5.462-24.124-11.823-24.124-14.763
	c0-2.164,4.057-7.716,19.409-13.198c9.331-3.339,20.924-5.971,33.863-7.736v17.395c0,3.828,2.89,7.038,6.698,7.436
	c10.547,1.106,21.632,1.664,32.926,1.664s22.38-0.559,32.926-1.664c3.808-0.398,6.698-3.608,6.698-7.436v-17.395
	c12.739,1.744,24.193,4.326,33.465,7.596c15.67,5.523,19.807,11.144,19.807,13.338C348.895,476.501,342.475,482.86,324.771,488.324z
	"/>
<path d="M91.389,340.411c-47.311-39.306-74.454-97.143-74.454-158.669v-3.419c39.805,23.62,158.974,32.009,184.138,32.009
	c3.469-0.049,6.938-3.05,7.128-7.167c0.169-4.126-3.031-7.616-7.157-7.785c-42.625-1.741-107.661-7.38-150.056-19.578
	C44.57,112.33,92.171,61.216,151.838,35.595c3.788-1.625,5.543-6.021,3.918-9.819c-1.625-3.798-6.021-5.552-9.819-3.918
	C92.615,44.755,54.604,83.134,40.998,127.604c-26.188,8.344-39.017,18.392-39.017,30.414v23.725
	c0,65.982,29.108,128.015,79.858,170.172c1.395,1.156,3.09,1.725,4.775,1.725c2.143,0,4.277-0.917,5.752-2.701
	C95.007,347.768,94.568,343.052,91.389,340.411z M31.318,147.192c1.754-0.787,3.659-1.565,5.682-2.342
	c-1.409,8.911-1.812,17.784-1.386,25.809c-14.724-5.821-18.681-10.716-18.681-12.64C16.933,156.502,19.944,152.295,31.318,147.192z"
	/>
<path d="M494.405,240.626c-3.918-1.276-8.144,0.867-9.42,4.795c-22.187,68.358-76.611,117.35-141.493,135.223
	c-8.352,2.276-6.705,14.683,1.974,14.683c7.519,0,116.315-30.004,153.744-145.28C500.485,246.119,498.332,241.902,494.405,240.626z"
	/>
<path d="M509.975,157.249c-1.372-1.431,4.54-15.662-38.959-29.599c-2.053-6.252-8.751-7.067-12.368-3.585
	c-7.334,6.827,5.407,11.955,2.362,51.736c-59.753,17.403-170.011,22.778-231.568,20.595c0.389-0.08,0.777-0.11,1.187-0.11
	c-3.599-0.049-3.798,0.01-1.216,0.11c-3.499,0.559-6.19,3.569-6.26,7.227c-0.08,4.057,3.08,7.417,7.118,7.606
	c25.69,3.589,158.417-2.15,223.593-18.063c0.01,0,0.02-0.01,0.02-0.01c13.138-3.323,29.195-7.786,41.18-14.913
	c-0.09,2.272,0.598,18.093-3.11,39.206c-0.718,4.067,2.003,7.944,6.071,8.652c4.008,0.728,7.934-1.954,8.652-6.061
	c2.213-12.6,3.339-25.489,3.339-38.299C510.005,156.154,510.049,157.882,509.975,157.249z M476.382,170.608
	c0.422-7.89,0.034-16.763-1.386-25.739c15.511,5.931,20.067,11.045,20.067,13.149C495.062,159.981,490.856,164.866,476.382,170.608z
	"/>
<g>
</g>
<g>
</g>
<g>
</g>
<g>
</g>
<g>
</g>
<g>
</g>
<g>
</g>
<g>
</g>
<g>
</g>
<g>
</g>
<g>
</g>
<g>
</g>
<g>
</g>
<g>
</g>
<g>
</g>
</svg>
