<?xml version="1.0" encoding="iso-8859-1"?>
<!-- Generator: Adobe Illustrator 19.0.0, SVG Export Plug-In . SVG Version: 6.00 Build 0)  -->
<svg version="1.1" id="Capa_1" xmlns="http://www.w3.org/2000/svg" xmlns:xlink="http://www.w3.org/1999/xlink" x="0px" y="0px"
	 viewBox="0 0 512 512" style="enable-background:new 0 0 512 512;" xml:space="preserve">
<path style="fill:#FF9811;" d="M255.991,504.487L255.991,504.487c9.497,0,17.267-7.77,17.267-17.267V131.37
	c0-9.497-7.77-17.267-17.267-17.267l0,0c-9.497,0-17.267,7.77-17.267,17.267v355.85
	C238.724,496.717,246.494,504.487,255.991,504.487z"/>
<path style="fill:#5EAC24;" d="M306.323,388.646c-10.08,11.252-23.094,18.339-36.848,21.122
	c-20.211,4.104-42.023-1.061-58.561-15.876c-27.799-24.896-30.151-67.61-5.255-95.409c16.607-18.539,41.133-25.757,63.876-21.122
	c11.362,2.312,22.273,7.588,31.533,15.876C328.866,318.133,331.219,360.848,306.323,388.646z"/>
<path style="fill:#FF728B;" d="M306.323,120.175c-10.09,11.262-23.104,18.349-36.858,21.132
	c-20.201,4.104-42.013-1.061-58.551-15.876c-27.799-24.896-30.151-67.62-5.255-95.409c16.607-18.539,41.143-25.757,63.886-21.132
	c11.352,2.312,22.263,7.588,31.523,15.876C328.866,49.672,331.219,92.386,306.323,120.175z"/>
<path style="fill:#7ED63E;" d="M306.323,388.646c-10.08,11.252-23.094,18.339-36.848,21.122
	c-11.362-2.312-22.273-7.588-31.533-15.876c-27.799-24.896-30.151-67.61-5.255-95.409c10.08-11.252,23.094-18.339,36.848-21.122
	c11.362,2.312,22.273,7.588,31.533,15.876C328.866,318.133,331.219,360.848,306.323,388.646z"/>
<path style="fill:#FFA5B5;" d="M306.323,120.175c-10.09,11.262-23.104,18.349-36.858,21.132
	c-11.352-2.312-22.263-7.588-31.523-15.876c-27.799-24.896-30.151-67.62-5.255-95.409c10.09-11.262,23.104-18.349,36.858-21.132
	c11.352,2.312,22.263,7.588,31.523,15.876C328.866,49.672,331.219,92.386,306.323,120.175z"/>
<path style="fill:#C6C5CA;" d="M301.067,260.9c-9.26,8.289-20.171,13.564-31.523,15.876c-22.744,4.635-47.279-2.593-63.886-21.122
	c-24.896-27.799-22.543-70.513,5.255-95.409c16.537-14.815,38.35-19.981,58.561-15.876c13.754,2.783,26.768,9.87,36.848,21.122
	C331.219,193.29,328.866,236.004,301.067,260.9z"/>
<path style="fill:#E0E0E2;" d="M301.067,260.9c-9.26,8.289-20.171,13.564-31.523,15.876c-13.764-2.783-26.768-9.87-36.858-21.122
	c-24.896-27.799-22.543-70.513,5.255-95.409c9.26-8.289,20.171-13.564,31.533-15.876c13.754,2.783,26.768,9.87,36.848,21.122
	C331.219,193.29,328.866,236.004,301.067,260.9z"/>
<path d="M289.405,142.358c8.189-4.085,16.004-9.911,22.523-17.168c2.773-3.083,2.513-7.838-0.571-10.601
	c-3.083-2.773-7.838-2.523-10.601,0.571C267.103,152.554,206.173,134.487,197,86.43c-0.781-4.074-4.715-6.747-8.789-5.966
	c-4.074,0.771-6.747,4.705-5.966,8.779c4.311,22.505,19.044,42.568,40.312,53.115c-25.304,12.546-41.379,38.394-41.633,66.549
	c-0.04,4.144,3.293,7.538,7.438,7.578h0.07c4.114,0,7.468-3.323,7.508-7.448c0.263-29.564,22.213-55.494,53.355-59.161
	c7.417-0.786,11.425-0.42,16.457,0.45c49.698,8.124,67.749,70.464,30.311,103.978c-16.007,14.343-33.611,14.836-34.496,15.066
	h-11.071c-20.976-1.909-39.873-14.903-48.971-34.456c-1.752-3.754-6.216-5.386-9.98-3.634c-3.754,1.752-5.386,6.216-3.634,9.97
	c7.113,15.28,19.333,27.98,34.906,35.657c-59.575,29.297-54.302,116.368,8.399,138.193v29.851c0,4.144,3.363,7.508,7.508,7.508
	s7.508-3.363,7.508-7.508v-26.287c6.174,0.828,12.764,0.881,19.52,0v68.561c0,5.376-4.375,9.76-9.76,9.76
	c-5.386,0-9.76-4.385-9.76-9.76v-12.243c0-4.154-3.363-7.508-7.508-7.508s-7.508,3.353-7.508,7.508v12.243
	c0,13.654,11.112,24.776,24.776,24.776s24.776-11.121,24.776-24.776V415.08c25.455-8.879,43.733-30.55,48.841-56.048
	c0.811-4.064-1.832-8.018-5.896-8.829c-4.064-0.811-8.018,1.822-8.829,5.886c-9.064,45.108-64.216,63.995-98.962,32.874
	c-34.891-31.234-21.617-88.339,21.112-101.705h0.01c3.083-1.112,8.405-2.364,13.454-2.823c6.001-0.216,8.373-0.299,15.256,0.531
	c23.334,2.813,42.608,21.09,48.5,44.636c1.001,4.024,5.085,6.477,9.099,5.466c4.024-1.001,6.467-5.085,5.466-9.099
	c-5.526-22.103-20.554-39.69-39.611-49.061C344.882,249.436,344.842,169.847,289.405,142.358z"/>
<path d="M188.711,65.328c4.014,1.051,8.118-1.361,9.159-5.376c6.788-26.172,30.494-44.916,58.07-44.916
	c40.14,0,68.936,38.476,57.68,77c-1.418,4.824,2.212,9.62,7.207,9.62c3.243,0,6.236-2.122,7.197-5.396
	c6.458-21.994,2.909-47.245-12.953-67.48C289.441-3.925,242.3-9.561,209.673,16.017c-13.064,10.241-22.173,24.135-26.337,40.162
	C182.294,60.193,184.697,64.287,188.711,65.328z"/>
<g>
</g>
<g>
</g>
<g>
</g>
<g>
</g>
<g>
</g>
<g>
</g>
<g>
</g>
<g>
</g>
<g>
</g>
<g>
</g>
<g>
</g>
<g>
</g>
<g>
</g>
<g>
</g>
<g>
</g>
</svg>
