<?xml version="1.0" encoding="iso-8859-1"?>
<!-- Generator: Adobe Illustrator 19.0.0, SVG Export Plug-In . SVG Version: 6.00 Build 0)  -->
<svg version="1.1" id="Capa_1" xmlns="http://www.w3.org/2000/svg" xmlns:xlink="http://www.w3.org/1999/xlink" x="0px" y="0px"
	 viewBox="0 0 512 512" style="enable-background:new 0 0 512 512;" xml:space="preserve">
<path style="fill:#EE8700;" d="M462.765,393.793c-19.236,28.859-43.454,52.405-70.769,70.227
	c-32.137,20.99-68.543,34.081-106.113,38.642c-56.134,6.826-114.854-5.383-165.795-38.702c-0.601-0.391-1.203-0.792-1.804-1.193
	C4.121,386.686-26.762,232.458,49.319,118.286C103.147,37.503,196.099-1.58,286.314,9.426
	c37.279,4.541,74.097,17.642,107.486,39.895C507.963,125.393,538.846,279.621,462.765,393.793z"/>
<path style="fill:#FF9811;" d="M462.765,393.793c-19.236,28.859-43.454,52.405-70.769,70.227
	c-32.137,20.99-68.543,34.081-106.113,38.642c-36.607-4.471-72.754-17.181-105.652-38.702c-0.601-0.391-1.203-0.792-1.804-1.193
	C64.265,386.686,33.381,232.458,109.462,118.286c41.86-62.82,107.366-100.409,176.852-108.86
	c37.279,4.541,74.097,17.642,107.486,39.895C507.963,125.393,538.846,279.621,462.765,393.793z"/>
<path style="fill:#2C733F;" d="M391.996,273.005v191.016c-32.137,20.99-68.543,34.081-106.113,38.642
	c-56.134,6.826-114.854-5.383-165.795-38.702V273.005c0-21.451,17.391-38.843,38.843-38.843h194.223
	C374.605,234.162,391.996,251.554,391.996,273.005z"/>
<path style="fill:#368B4C;" d="M391.996,273.005v191.016c-32.137,20.99-68.543,34.081-106.113,38.642
	c-28.43-3.472-56.582-11.913-83.15-25.592c-13.781-7.095-22.502-21.236-22.502-36.736v-167.33c0-21.452,17.39-38.843,38.843-38.843
	h134.08C374.606,234.162,391.996,251.553,391.996,273.005z"/>
<g>
	<path style="fill:#CC7400;" d="M86.826,319.569c-0.109-2.427-2.384-4.217-4.61-3.618c-24.222,6.518-25.696,25.284-25.05,33.751
		c0.176,2.316,2.326,4.004,4.474,3.519C85.261,347.906,87.227,328.505,86.826,319.569z"/>
	<path style="fill:#CC7400;" d="M125.444,163.104c-1.835-1.591-4.699-1.174-5.798,0.853c-11.948,22.055,0.648,36.044,7.233,41.405
		c1.8,1.465,4.505,1.07,5.632-0.822C144.918,183.747,132.202,168.964,125.444,163.104z"/>
	<path style="fill:#CC7400;" d="M181.146,96.845c1.526,1.89,4.42,1.984,5.857,0.182c15.648-19.604,5.716-35.594,0.178-42.031
		c-1.515-1.76-4.245-1.847-5.69-0.184C165.615,73.092,175.527,89.885,181.146,96.845z"/>
	<path style="fill:#CC7400;" d="M235.276,193.074c1.526,1.889,4.42,1.984,5.857,0.182c15.648-19.604,5.716-35.594,0.178-42.031
		c-1.515-1.76-4.245-1.847-5.69-0.184C219.745,169.322,229.656,186.115,235.276,193.074z"/>
	<path style="fill:#CC7400;" d="M290.407,79.804c1.526,1.89,4.42,1.984,5.857,0.182c15.648-19.604,5.716-35.594,0.178-42.031
		c-1.515-1.76-4.245-1.847-5.69-0.184C274.876,56.052,284.788,72.845,290.407,79.804z"/>
	<path style="fill:#CC7400;" d="M346.541,190.067c1.526,1.889,4.42,1.984,5.857,0.182c15.648-19.604,5.716-35.594,0.178-42.031
		c-1.515-1.76-4.245-1.847-5.69-0.184C331.01,166.315,340.922,183.108,346.541,190.067z"/>
	<path style="fill:#CC7400;" d="M422.723,157.991c1.526,1.889,4.42,1.984,5.857,0.182c15.648-19.604,5.716-35.594,0.178-42.031
		c-1.515-1.76-4.245-1.847-5.69-0.184C407.192,134.238,417.103,151.031,422.723,157.991z"/>
	<path style="fill:#CC7400;" d="M420.479,287.279c0.503,2.376,3.04,3.771,5.138,2.818c22.833-10.382,21.228-29.137,19.209-37.385
		c-0.552-2.255-2.947-3.571-4.988-2.743C417.4,259.067,418.624,278.528,420.479,287.279z"/>
	<path style="fill:#CC7400;" d="M429.932,398.414c1.725,1.71,4.611,1.485,5.842-0.465c13.39-21.21,1.754-36.007-4.46-41.795
		c-1.699-1.583-4.424-1.367-5.675,0.445C411.875,376.52,423.579,392.117,429.932,398.414z"/>
	<path style="fill:#CC7400;" d="M46.016,255.072c1.725,1.71,4.611,1.485,5.842-0.465c13.39-21.21,1.754-36.007-4.46-41.795
		c-1.699-1.583-4.424-1.367-5.675,0.445C27.959,233.178,39.663,248.775,46.016,255.072z"/>
</g>
<path d="M503.746,276.847c-4.12-0.464-7.851,2.494-8.319,6.62c-4.344,38.21-17.439,73.926-38.918,106.157
	c-15.6,23.405-34.739,43.528-56.995,59.997V273.002c0-25.563-20.798-46.361-46.361-46.361h-88.977c-4.152,0-7.518,3.365-7.518,7.518
	s3.366,7.518,7.518,7.518h88.977c17.272,0,31.325,14.053,31.325,31.325v186.907c-80.648,50.383-179.384,48.564-256.873-0.056
	v-44.399c0-4.153-3.366-7.518-7.518-7.518c-4.152,0-7.518,3.365-7.518,7.518v34.081c-12.602-9.332-24.266-19.819-34.749-31.325
	c-2.796-3.069-7.551-3.288-10.62-0.493c-3.069,2.797-3.29,7.552-0.493,10.621c14,15.364,29.95,29.052,47.403,40.684
	c86.974,57.983,197.955,56.191,281.994,1.295c0.001,0,0.002-0.001,0.003-0.002l0,0l0,0c28.99-18.916,53.522-43.258,72.914-72.353
	c22.817-34.24,36.729-72.191,41.346-112.797C510.836,281.04,507.872,277.315,503.746,276.847z"/>
<path d="M196.059,22.729C347.505-16.148,495.722,97.318,496.96,254.367c0.033,4.132,3.392,7.458,7.517,7.458
	c4.195,0,7.552-3.419,7.519-7.578C510.68,87.479,353.285-33.155,192.32,8.165c-4.022,1.032-6.445,5.129-5.413,9.152
	C187.941,21.337,192.033,23.758,196.059,22.729z"/>
<path d="M168.315,31.662c3.868-1.509,5.782-5.867,4.273-9.735c-1.509-3.868-5.868-5.784-9.735-4.273
	C9.216,77.561-49.691,267.539,47.282,404.221c1.465,2.066,3.784,3.169,6.138,3.169c6.012,0,9.686-6.85,6.125-11.869
	C-32.056,266.409,24.152,87.877,168.315,31.662z"/>
<path d="M158.93,226.641c-25.563,0-46.361,20.798-46.361,46.361v112.38c0,4.153,3.366,7.518,7.518,7.518
	c4.152,0,7.518-3.365,7.518-7.518v-112.38c0-17.272,14.053-31.325,31.325-31.325h75.174c4.152,0,7.518-3.365,7.518-7.518
	s-3.366-7.518-7.518-7.518L158.93,226.641L158.93,226.641z"/>
<g>
</g>
<g>
</g>
<g>
</g>
<g>
</g>
<g>
</g>
<g>
</g>
<g>
</g>
<g>
</g>
<g>
</g>
<g>
</g>
<g>
</g>
<g>
</g>
<g>
</g>
<g>
</g>
<g>
</g>
</svg>
