<?xml version="1.0" encoding="iso-8859-1"?>
<!-- Generator: Adobe Illustrator 19.0.0, SVG Export Plug-In . SVG Version: 6.00 Build 0)  -->
<svg version="1.1" id="Capa_1" xmlns="http://www.w3.org/2000/svg" xmlns:xlink="http://www.w3.org/1999/xlink" x="0px" y="0px"
	 viewBox="0 0 511.999 511.999" style="enable-background:new 0 0 511.999 511.999;" xml:space="preserve">
<path style="fill:#D9CCBC;" d="M379.863,502.921c-6.777,1.031-13.754,1.572-20.901,1.572H153.035
	c-7.147,0-14.124-0.541-20.901-1.572C43.645,489.457-10.63,391.799,29.43,306.333l66.837-142.594l36.126-77.058
	c29.45-62.823,93.865-88.259,151.633-76.307c39.31,8.128,75.536,33.564,95.576,76.307l36.126,77.058l66.837,142.594
	C522.627,391.799,468.353,489.457,379.863,502.921z"/>
<path style="fill:#EBE5DD;" d="M379.863,502.921c-6.777,1.031-13.754,1.572-20.901,1.572H209.091
	c-7.147,0-14.124-0.541-20.901-1.572C99.701,489.457,45.426,391.799,85.487,306.333l66.837-142.594l36.126-77.058
	c20.04-42.743,56.267-68.179,95.576-76.307c39.31,8.128,75.536,33.564,95.576,76.307l36.126,77.058l66.837,142.594
	C522.627,391.799,468.353,489.457,379.863,502.921z"/>
<g>
	<path style="fill:#D9CCBC;" d="M304.263,245.371c1.524,1.887,4.413,1.981,5.849,0.182c15.627-19.577,5.708-35.545,0.178-41.973
		c-1.513-1.758-4.239-1.845-5.682-0.184C288.754,221.651,298.652,238.421,304.263,245.371z"/>
	<path style="fill:#D9CCBC;" d="M364.39,161.589c1.524,1.887,4.413,1.981,5.849,0.182c15.627-19.577,5.708-35.545,0.178-41.973
		c-1.513-1.758-4.239-1.845-5.682-0.184C348.88,137.869,358.778,154.639,364.39,161.589z"/>
	<path style="fill:#D9CCBC;" d="M97.411,379.064c1.524,1.887,4.413,1.981,5.849,0.182c15.627-19.577,5.708-35.545,0.178-41.973
		c-1.513-1.758-4.239-1.845-5.682-0.184C81.9,355.345,91.799,372.114,97.411,379.064z"/>
	<path style="fill:#D9CCBC;" d="M264.227,110.125c1.524,1.887,4.413,1.981,5.849,0.182c15.627-19.577,5.708-35.545,0.178-41.973
		c-1.513-1.758-4.239-1.845-5.682-0.184C248.717,86.405,258.615,103.175,264.227,110.125z"/>
	<path style="fill:#D9CCBC;" d="M205.206,213.141c1.201,2.107,4.037,2.664,5.744,1.119c18.568-16.813,11.342-34.166,6.917-41.4
		c-1.21-1.978-3.888-2.502-5.579-1.094C193.707,187.238,200.784,205.38,205.206,213.141z"/>
	<path style="fill:#D9CCBC;" d="M427.581,361.089c1.984,1.395,4.788,0.691,5.674-1.434c9.637-23.12-4.293-35.743-11.378-40.402
		c-1.937-1.273-4.584-0.607-5.513,1.386C406.143,342.553,420.273,355.952,427.581,361.089z"/>
	<path style="fill:#D9CCBC;" d="M405.375,462.72c1.444,1.949,4.327,2.162,5.837,0.424c16.426-18.911,7.178-35.278,1.92-41.93
		c-1.437-1.819-4.159-2.019-5.669-0.419C390.863,438.377,400.057,455.543,405.375,462.72z"/>
</g>
<path style="fill:#317F46;" d="M379.863,294.231v208.69c-6.777,1.031-13.754,1.572-20.901,1.572H153.035
	c-7.147,0-14.124-0.541-20.901-1.572v-208.69c0-16.997,13.774-30.781,30.771-30.781h186.188
	C366.09,263.449,379.863,277.233,379.863,294.231z"/>
<path style="fill:#368B4C;" d="M379.863,294.231v208.69c-6.777,1.031-13.754,1.572-20.901,1.572H209.091
	c-7.147,0-14.124-0.541-20.901-1.572v-208.69c0-16.997,13.774-30.781,30.771-30.781h130.131
	C366.09,263.449,379.863,277.233,379.863,294.231z"/>
<path style="fill:#2C733F;" d="M209.091,504.492h-56.056c-7.147,0-14.124-0.541-20.901-1.572v-22.282
	c16.256,11.261,35.205,19.109,56.057,22.282C194.967,503.952,201.944,504.492,209.091,504.492z"/>
<path d="M20.972,336.756c3.298,0,6.321-2.19,7.236-5.524c5.342-19.473,3.444-10.424,110.984-241.366
	C160.833,43.696,205.591,15.015,256,15.015c8.909,0,17.832,0.912,26.524,2.711c4.057,0.829,8.032-1.772,8.873-5.831
	c0.84-4.06-1.771-8.032-5.831-8.873C275.876,1.017,265.929,0,256,0c-26.644,0-52.57,7.224-74.973,20.892
	c-23.901,14.581-43.068,36.229-55.431,62.602L89.47,160.552C22.702,304.561,19.613,305.801,13.728,327.261
	C12.63,331.259,16.025,336.756,20.972,336.756z"/>
<path d="M477.919,434.773c-3.493-2.231-8.138-1.204-10.365,2.293c-18.545,29.08-47.429,49.422-80.183,56.793V294.231
	c0-21.112-17.171-38.289-38.279-38.289H162.905c-21.107,0-38.279,17.176-38.279,38.289v125.727c0,4.147,3.36,7.508,7.508,7.508
	s7.508-3.36,7.508-7.508V294.231c0-12.833,10.437-23.273,23.263-23.273h186.188c12.827,0,23.263,10.441,23.263,23.273v202.057
	c-4.744,0.483-9.185,0.699-13.393,0.699c-208.804-0.559-204.551,0.806-219.322-0.699v-46.3c0-4.147-3.36-7.508-7.508-7.508
	s-7.508,3.36-7.508,7.508v43.884C64.264,480.284,20.474,423.248,23.704,359.216c0.21-4.141-2.977-7.668-7.117-7.878
	c-4.167-0.212-7.668,2.978-7.878,7.117c-1.866,36.723,10.328,73.15,34.014,101.679c22.536,27.143,53.888,44.974,88.282,50.208
	c7.227,1.1,14.639,1.657,22.03,1.657h205.929c7.391,0,14.803-0.558,22.03-1.657c40.568-6.173,76.732-29.939,99.22-65.205
	C482.443,441.643,481.416,437.002,477.919,434.773z"/>
<path d="M489.365,303.148c-0.174-0.372-102.915-219.548-102.963-219.652c-15.058-32.128-39.529-56.578-70.765-70.708
	c-3.779-1.712-8.226-0.032-9.934,3.746c-1.71,3.777-0.032,8.225,3.746,9.934c27.93,12.635,49.839,34.558,63.358,63.401
	c0.048,0.102,102.779,219.258,102.963,219.652c8.422,17.966,12.693,36.908,12.693,56.301c0,15.629-2.782,31.05-8.269,45.833
	c-1.442,3.887,0.539,8.207,4.426,9.651c3.874,1.438,8.203-0.527,9.651-4.426c6.11-16.46,9.207-33.638,9.207-51.057
	C503.477,344.209,498.728,323.123,489.365,303.148z"/>
<g>
</g>
<g>
</g>
<g>
</g>
<g>
</g>
<g>
</g>
<g>
</g>
<g>
</g>
<g>
</g>
<g>
</g>
<g>
</g>
<g>
</g>
<g>
</g>
<g>
</g>
<g>
</g>
<g>
</g>
</svg>
