<?xml version="1.0" encoding="iso-8859-1"?>
<!-- Generator: Adobe Illustrator 19.0.0, SVG Export Plug-In . SVG Version: 6.00 Build 0)  -->
<svg version="1.1" id="Capa_1" xmlns="http://www.w3.org/2000/svg" xmlns:xlink="http://www.w3.org/1999/xlink" x="0px" y="0px"
	 viewBox="0 0 512 512" style="enable-background:new 0 0 512 512;" xml:space="preserve">
<path style="fill:#D9CCBC;" d="M386.161,273.845H205.474c-36.951,0-67.183-30.233-67.183-67.183v-17.155
	c0-36.951,30.233-67.183,67.183-67.183h180.687c36.951,0,67.183,30.233,67.183,67.183v17.155
	C453.345,243.612,423.112,273.845,386.161,273.845z"/>
<path style="fill:#EBE5DD;" d="M386.161,243.094H205.474c-36.951,0-67.183-30.233-67.183-67.183v-17.155
	c0-36.951,30.233-67.183,67.183-67.183h180.687c36.951,0,67.183,30.233,67.183,67.183v17.155
	C453.345,212.861,423.112,243.094,386.161,243.094z"/>
<path style="fill:#FF5023;" d="M503.134,151.585c-15.222-47.159-59.543-81.352-111.695-81.352H200.197
	c-52.162,0-96.473,34.193-111.695,81.352c-5.254,16.264,5.595,32.87,21.8,35.587v-5.274c0-44.943,36.78-81.723,81.723-81.723h208.91
	c44.943,0,81.723,36.78,81.723,81.723v5.014C498.12,183.542,508.248,167.408,503.134,151.585z"/>
<path style="fill:#FF3501;" d="M400.935,100.174h-208.91c-44.943,0-81.723,36.78-81.723,81.723v5.274
	c1.514,0.261,3.068,0.391,4.673,0.391c5.976,0,11.632-1.905,16.264-5.244c4.613-3.329,8.202-8.092,10.057-13.778
	c8.072-24.808,31.476-42.877,58.901-42.877h191.242c27.425,0,50.829,18.069,58.901,42.877c3.7,11.381,14.359,19.022,26.322,19.022
	c2.066,0,4.071-0.221,5.996-0.652v-5.014C482.658,136.955,445.877,100.174,400.935,100.174z"/>
<rect x="261.173" y="70.232" style="fill:#2C733F;" width="69.289" height="203.616"/>
<path style="fill:#368B4C;" d="M330.462,70.233v119.386h-7.816c-10.138,0-18.355-8.217-18.355-18.355V70.233H330.462z"/>
<path style="fill:#EBE5DD;" d="M306.521,437.064H125.834c-36.951,0-67.183-30.233-67.183-67.183v-17.155
	c0-36.951,30.233-67.183,67.183-67.183h180.687c36.951,0,67.183,30.233,67.183,67.183v17.155
	C373.704,406.832,343.472,437.064,306.521,437.064z"/>
<path style="fill:#D9CCBC;" d="M306.521,437.064H125.834c-36.951,0-67.183-30.233-67.183-67.183v-17.155
	c0-36.951,30.233-67.183,67.183-67.183h180.687c36.951,0,67.183,30.233,67.183,67.183v17.155
	C373.704,406.832,343.472,437.064,306.521,437.064z"/>
<path style="fill:#EBE5DD;" d="M306.521,406.313H125.834c-36.951,0-67.183-30.233-67.183-67.183v-17.155
	c0-36.951,30.233-67.183,67.183-67.183h180.687c36.951,0,67.183,30.233,67.183,67.183v17.155
	C373.704,376.081,343.472,406.313,306.521,406.313z"/>
<path style="fill:#FF5023;" d="M402.439,351.631c-1.745,0.351-3.56,0.531-5.425,0.531c-11.953,0-22.622-7.651-26.322-19.022
	c-8.072-24.818-31.476-42.887-58.891-42.887H120.549c-27.415,0-50.819,18.069-58.891,42.887
	c-1.855,5.686-5.445,10.439-10.057,13.778c-4.633,3.329-10.288,5.244-16.264,5.244c-1.805,0-3.56-0.17-5.254-0.501
	c-15.873-3.008-26.422-19.403-21.228-35.487c15.232-47.149,59.543-81.352,111.695-81.352h191.252
	c52.152,0,96.463,34.203,111.695,81.352C428.671,332.198,418.222,348.543,402.439,351.631z"/>
<path style="fill:#FF3501;" d="M402.439,347.018v4.613c-1.745,0.351-3.56,0.531-5.425,0.531c-11.953,0-22.622-7.651-26.322-19.022
	c-8.072-24.818-31.476-42.887-58.891-42.887H120.549c-27.415,0-50.819,18.069-58.891,42.887
	c-1.855,5.686-5.445,10.439-10.057,13.778c-4.633,3.329-10.288,5.244-16.264,5.244c-1.805,0-3.56-0.17-5.254-0.501v-4.643
	c0-44.953,36.78-81.723,81.723-81.723h208.91C365.658,265.295,402.439,302.066,402.439,347.018z"/>
<rect x="181.536" y="234.821" style="fill:#2C733F;" width="69.289" height="202.242"/>
<path style="fill:#368B4C;" d="M250.825,234.822v159.125h-10.729c-8.528,0-15.442-6.914-15.442-15.442V234.822L250.825,234.822
	L250.825,234.822z"/>
<g>
	<path style="fill:#D9CCBC;" d="M189.116,182.807c1.102,1.246,3.085,1.222,4.014-0.054c10.109-13.896,2.821-24.535-1.166-28.771
		c-1.09-1.158-2.962-1.134-3.9,0.048C177.758,167.028,185.057,178.217,189.116,182.807z"/>
	<path style="fill:#D9CCBC;" d="M215.188,215.563c1.102,1.246,3.085,1.222,4.014-0.054c10.109-13.896,2.821-24.535-1.166-28.771
		c-1.09-1.158-2.962-1.134-3.9,0.048C203.83,199.783,211.128,210.972,215.188,215.563z"/>
	<path style="fill:#D9CCBC;" d="M354.902,177.458c1.102,1.246,3.085,1.222,4.014-0.054c10.109-13.896,2.821-24.535-1.166-28.771
		c-1.09-1.158-2.962-1.134-3.9,0.048C343.545,161.679,350.843,172.868,354.902,177.458z"/>
	<path style="fill:#D9CCBC;" d="M397.017,184.813c1.102,1.246,3.085,1.222,4.014-0.054c10.109-13.896,2.821-24.535-1.166-28.771
		c-1.09-1.158-2.962-1.134-3.9,0.048C385.66,169.033,392.958,180.222,397.017,184.813z"/>
	<path style="fill:#D9CCBC;" d="M379.376,227.325c1.102,1.246,3.085,1.222,4.014-0.054c10.109-13.896,2.821-24.535-1.166-28.771
		c-1.09-1.158-2.962-1.134-3.9,0.048C368.019,211.546,375.317,222.734,379.376,227.325z"/>
	<path style="fill:#D9CCBC;" d="M110.903,347.924c1.102,1.246,3.085,1.222,4.014-0.055c10.109-13.896,2.821-24.535-1.166-28.771
		c-1.09-1.158-2.962-1.134-3.9,0.048C99.545,332.145,106.844,343.333,110.903,347.924z"/>
	<path style="fill:#D9CCBC;" d="M136.974,380.68c1.102,1.246,3.085,1.222,4.014-0.054c10.109-13.896,2.821-24.535-1.166-28.771
		c-1.09-1.158-2.962-1.134-3.9,0.048C125.616,364.901,132.915,376.09,136.974,380.68z"/>
	<path style="fill:#D9CCBC;" d="M276.689,342.576c1.102,1.246,3.085,1.222,4.014-0.054c10.109-13.896,2.821-24.535-1.166-28.771
		c-1.09-1.158-2.962-1.134-3.9,0.048C265.331,326.797,272.629,337.986,276.689,342.576z"/>
	<path style="fill:#D9CCBC;" d="M318.804,349.929c1.102,1.246,3.085,1.222,4.014-0.055c10.109-13.896,2.821-24.535-1.166-28.771
		c-1.09-1.158-2.962-1.134-3.9,0.048C307.446,334.15,314.744,345.339,318.804,349.929z"/>
	<path style="fill:#D9CCBC;" d="M301.162,392.443c1.102,1.246,3.085,1.222,4.014-0.054c10.109-13.896,2.821-24.535-1.166-28.771
		c-1.09-1.158-2.962-1.134-3.9,0.048C289.805,376.663,297.103,387.852,301.162,392.443z"/>
</g>
<path d="M510.293,149.269c-8.052-24.928-23.504-46.397-44.682-62.09c-21.609-16.004-47.259-24.467-74.173-24.467h-60.786
	c-0.06-0.01-0.13-0.01-0.191-0.01h-69.289c-0.06,0-0.13,0-0.191,0.01h-60.786c-9.656,0-19.273,1.113-28.598,3.299
	c-4.041,0.953-6.548,5.004-5.595,9.045c0.953,4.041,5.004,6.548,9.045,5.595c8.192-1.925,16.655-2.898,25.149-2.898h53.456v40.39
	h-53.456c-30.152,0-56.695,19.323-66.05,48.071c-2.687,8.273-10.398,13.828-19.172,13.828c-11.191,0-20.295-8.995-20.295-20.055
	c0-2.046,0.331-4.101,0.973-6.097c8.694-26.913,28.057-50.007,53.135-63.343c3.66-1.955,5.054-6.508,3.108-10.178
	c-1.955-3.67-6.508-5.054-10.178-3.108c-28.488,15.161-50.498,41.413-60.375,72.007c-1.133,3.49-1.705,7.099-1.705,10.719
	c0,19.353,15.853,35.096,35.336,35.096c5.645,0,11.03-1.314,15.813-3.71c-0.02,0.491-0.02,0.983-0.02,1.474v17.157
	c0,5.956,0.702,11.742,2.026,17.297c-8.392,0.297-21.708-1.184-40.831,3.299c-9.689,2.284-6.23,16.929,3.439,14.65
	c8.202-1.935,16.666-2.908,25.149-2.908c10.488,0,35.112,0,53.466,0c0,10.125,0,30.326,0,40.39h-53.466
	c-30.142,0-56.685,19.323-66.04,48.081c-2.697,8.263-10.398,13.828-19.172,13.828c-13.563,0-23.524-13.034-19.323-26.161
	c8.694-26.913,28.057-50.007,53.125-63.343c3.67-1.955,5.064-6.508,3.108-10.178c-1.945-3.66-6.508-5.054-10.168-3.098
	C22.042,263.155,0,305.415,0,324.577c0,26.198,27.905,42.994,51.15,31.396c-0.035,0.835-0.02,2.131-0.02,18.621
	c0,41.192,33.512,74.704,74.704,74.704h180.683c41.193,0,74.704-33.512,74.704-74.704c0-17.666,0.011-17.886-0.02-18.621
	c27.475,13.681,59.075-12.137,49.455-42.115c-4.001-12.384-9.827-23.915-17.267-34.294c27.766-10.9,47.48-37.974,47.48-69.56
	c0-18.735,0.009-17.918-0.02-18.631c4.783,2.397,10.168,3.71,15.813,3.71C500.456,195.084,517.612,172.074,510.293,149.269z
	 M243.304,434.257h-54.248v-54.639c0-4.151-3.369-7.521-7.521-7.521c-4.161,0-7.521,3.369-7.521,7.521v54.639h-48.182
	c-32.9,0-59.663-26.763-59.663-59.663v-17.157c0-32.9,26.763-59.663,59.663-59.663h48.182v51.761c0,4.151,3.359,7.521,7.521,7.521
	c4.151,0,7.521-3.369,7.521-7.521c0-8.444,0-92.657,0-107.193h54.248C243.304,249.502,243.304,427.67,243.304,434.257z
	 M253.653,227.302H148.365c-3.819-12.564-2.143-21.018-2.557-34.454c0-32.9,26.763-59.663,59.663-59.663h48.182V227.302z
	 M366.18,374.594c0,32.9-26.763,59.663-59.663,59.663h-48.172V297.774h48.172c32.9,0,59.663,26.763,59.663,59.663V374.594z
	 M417.309,324.577c0,11.06-9.105,20.065-20.295,20.065c-8.774,0-16.475-5.565-19.162-13.828
	c-9.118-28.021-34.964-47.22-64.015-48.051l-55.492-0.03v-40.39h33.542c40.587,0.152,64.175-3.068,105.909,41.453
	C406.339,292.909,417.309,314.102,417.309,324.577z M445.827,210.004c0,26.964-17.979,49.816-42.586,57.166
	c-5.224-5.605-11-10.749-17.267-15.402c-14.47-10.709-30.744-18.049-47.991-21.719v-39.087c0-4.161-3.369-7.521-7.521-7.521
	c-4.151,0-7.521,3.359-7.521,7.521v36.831c-3.68-0.331-7.4-0.491-11.14-0.491h-43.108V77.753h54.248v83.127
	c0,4.151,3.369,7.521,7.521,7.521c4.151,0,7.521-3.369,7.521-7.521v-27.696h48.182c32.9,0,59.663,26.763,59.663,59.663
	L445.827,210.004L445.827,210.004z M476.662,180.043c-8.774,0-16.485-5.555-19.172-13.828
	c-9.075-27.876-34.795-47.189-64.005-48.041l-55.502-0.03v-40.39h53.456c47.821,0,89.835,30.594,104.545,76.138
	C500.193,166.975,490.241,180.043,476.662,180.043z"/>
<g>
</g>
<g>
</g>
<g>
</g>
<g>
</g>
<g>
</g>
<g>
</g>
<g>
</g>
<g>
</g>
<g>
</g>
<g>
</g>
<g>
</g>
<g>
</g>
<g>
</g>
<g>
</g>
<g>
</g>
</svg>
