<?xml version="1.0" encoding="iso-8859-1"?>
<!-- Generator: Adobe Illustrator 19.0.0, SVG Export Plug-In . SVG Version: 6.00 Build 0)  -->
<svg version="1.1" id="Capa_1" xmlns="http://www.w3.org/2000/svg" xmlns:xlink="http://www.w3.org/1999/xlink" x="0px" y="0px"
	 viewBox="0 0 511.999 511.999" style="enable-background:new 0 0 511.999 511.999;" xml:space="preserve">
<g>
	<path style="fill:#1D1D1F;" d="M20.673,255.24L8.493,285.188c-3.523,8.662,2.851,18.133,12.2,18.133h76.918l11.684-56.29H32.872
		C27.515,247.03,22.691,250.277,20.673,255.24z"/>
	<path style="fill:#1D1D1F;" d="M503.506,285.188l-12.178-29.947c-2.019-4.964-6.842-8.209-12.201-8.209h-73.098l11.684,56.29
		h73.594C500.656,303.32,507.028,293.849,503.506,285.188z"/>
	<path style="fill:#1D1D1F;" d="M428.549,303.937l-12.076,65.799c-8.361,39.563-36.099,72.437-73.95,86.667
		c-16.062,6.038-34.807,10.935-55.775,12.797c0,0-3.545,0.18-9.192,0.34c-12.727,0.36-36.169,0.641-53.852-1.452
		c-19.937-2.353-37.861-7.13-53.352-12.797c-38.532-14.119-67.05-47.113-75.532-87.267l-11.716-64.086L428.549,303.937
		L428.549,303.937z"/>
</g>
<path style="fill:#2D2D30;" d="M428.549,303.937l-12.076,65.799c-8.361,39.563-36.099,72.437-73.95,86.667
	c-16.062,6.038-34.807,10.935-55.775,12.797c0,0-3.545,0.18-9.192,0.34c-7.17-0.24-14.369-0.691-20.808-1.452
	c-19.937-2.353-37.861-7.13-53.352-12.797c-38.532-14.119-67.05-47.113-75.532-87.267l-11.716-64.086L428.549,303.937
	L428.549,303.937z"/>
<ellipse style="fill:#3E3D42;" cx="254.492" cy="278.576" rx="197.025" ry="68.886"/>
<ellipse style="fill:#1D1D1F;" cx="254.492" cy="279.407" rx="162.549" ry="53.906"/>
<path style="fill:#FFB655;" d="M401.052,278.573c0,21.259-56.796,38.742-129.705,40.945c-5.097,0.15-10.274,0.23-15.521,0.23
	c-80.208,0-145.225-18.435-145.225-41.175c0-22.741,65.017-41.175,145.225-41.175c5.247,0,10.424,0.08,15.521,0.23
	C344.255,239.831,401.052,257.314,401.052,278.573z"/>
<path style="fill:#FFC477;" d="M401.052,278.573c0,21.259-56.796,38.742-129.705,40.945
	c-72.908-2.203-129.705-19.686-129.705-40.945c0-21.259,56.796-38.742,129.705-40.945
	C344.255,239.831,401.052,257.314,401.052,278.573z"/>
<path style="fill:#CD2A00;" d="M350.944,286.544c-8.211,2.654-17.143,4.937-26.676,6.809c-3.314,0.651-6.709,1.252-10.164,1.802
	c-4.716,0.751-9.062-2.894-8.942-7.67v-0.27c0.471-13.478,11.225-24.653,24.673-25.645c8.001-0.581,15.321,2.363,20.568,7.45
	c1.963,1.883,3.625,4.085,4.937,6.499C357.633,279.764,355.541,285.062,350.944,286.544z"/>
<path style="fill:#FF3501;" d="M350.944,286.544c-8.211,2.654-17.143,4.937-26.676,6.809c1.132-12.857,11.606-23.311,24.593-24.273
	c0.521-0.04,1.031-0.06,1.542-0.06c1.963,1.883,3.625,4.085,4.937,6.499C357.633,279.764,355.541,285.062,350.944,286.544z"/>
<path style="fill:#6DC82A;" d="M193.212,288.106c-0.03,0.35-0.08,0.701-0.13,1.041c-0.471,3.144-3.515,5.237-6.659,4.706
	c-11.646-1.973-22.54-4.536-32.464-7.6c-3.034-0.941-4.746-4.196-3.775-7.23c3.044-9.373,12.176-16.012,22.731-15.22
	c2.754,0.21,5.387,0.931,7.78,2.083c6.949,3.324,11.956,10.194,12.567,18.194C193.372,285.452,193.352,286.794,193.212,288.106z"/>
<path style="fill:#7ED63E;" d="M193.212,288.106c-5.658-1.312-11.065-2.764-16.222-4.356c-3.034-0.941-4.746-4.196-3.775-7.23
	c1.382-4.256,4.025-7.951,7.48-10.634c6.949,3.324,11.956,10.194,12.567,18.194C193.372,285.452,193.352,286.794,193.212,288.106z"
	/>
<path style="fill:#AA6100;" d="M273.46,290.239c-8.882,0.721-18.004,1.162-27.337,1.272c-1.732,0.03-3.475,0.04-5.227,0.04
	c-3.735,0-7.43-0.05-11.095-0.16c-0.771-0.02-1.492-0.34-2.033-0.881l-3.204-3.264c-0.1-0.1-0.19-0.2-0.27-0.31
	c-3.975-5.177-3.064-12.657,2.053-16.723l12.927-10.274c5.177-4.106,12.777-3.234,16.883,1.943l4.706,5.718l14.65,17.794
	C277.035,287.245,275.843,290.038,273.46,290.239z"/>
<path style="fill:#CC7400;" d="M273.46,290.239c-8.882,0.721-18.004,1.162-27.337,1.272c-2.493-4.967-1.252-11.205,3.254-14.79
	l11.485-9.122l14.65,17.794C277.035,287.245,275.843,290.038,273.46,290.239z"/>
<path d="M395.259,266.185c2.257-3.481,1.267-8.131-2.213-10.388c-64.133-41.605-289.951-32.335-289.951,22.776
	c0,45.548,155.954,60.493,247.208,38.993c19.421-4.575,44.581-12.92,54.161-26.691c2.369-3.405,1.529-8.085-1.876-10.453
	c-3.406-2.368-8.085-1.527-10.453,1.876c-19.194,27.587-155.296,41.318-236.946,18.165c-25.609-7.261-37.073-16.226-37.073-21.889
	c0-5.664,11.463-14.629,37.073-21.889c73.736-20.909,192.854-12.177,229.682,11.715C388.351,270.655,393,269.665,395.259,266.185z"
	/>
<path d="M498.284,252.411c-3.184-7.831-10.703-12.89-19.158-12.89h-45.943c-76.676-49.683-278.108-49.636-354.712,0H32.873
	c-8.453,0-15.973,5.06-19.158,12.89C2.231,281.784,0,283.389,0,290.159c0,11.398,9.283,20.672,20.695,20.672h47.546
	c0.304,0,0.603-0.023,0.897-0.059c2.159,1.814,4.503,3.592,7.036,5.328l6.667,31.557c0.747,3.534,3.866,5.959,7.34,5.959
	c0.515,0,1.036-0.054,1.56-0.164c4.058-0.857,6.654-4.843,5.796-8.901l-3.911-18.519c6.175,2.955,12.981,5.744,20.405,8.339
	c37.989,13.283,88.347,20.597,141.795,20.597c7.84,0,15.731-0.16,23.453-0.477c4.145-0.17,7.366-3.667,7.198-7.811
	c-0.171-4.145-3.679-7.365-7.812-7.198c-7.519,0.308-15.202,0.465-22.839,0.465c-51.805,0-100.402-7.016-136.838-19.756
	c-32.983-11.533-52.675-27.091-52.675-41.62c0-14.529,19.691-30.089,52.675-41.62c75.407-26.363,198.276-26.361,273.677,0
	c32.983,11.533,52.675,27.091,52.675,41.62c0,25.932-58.95,51.244-137.123,58.878c-4.129,0.404-7.149,4.077-6.745,8.204
	s4.07,7.138,8.204,6.745c34.907-3.409,76.956-11.38,108.346-26.345l-8.901,42.13c-7.927,37.521-33.81,67.87-69.238,81.185
	c-17.448,6.558-35.496,10.706-53.649,12.333c-56.997,2.728-85.532-3.298-113.298-13.468c-33.611-12.31-59.431-40.278-69.065-74.814
	c-1.115-3.993-5.256-6.324-9.252-5.216c-3.994,1.115-6.33,5.257-5.216,9.252c10.931,39.181,40.227,70.912,78.368,84.882
	c33.961,12.437,61.078,14.959,92.547,14.959c27.972,0,51.393-1.295,84.851-13.87c40.255-15.129,69.657-49.575,78.649-92.141
	l11.645-55.118c2.596-1.77,5.002-3.581,7.201-5.43c1.164,0.171-1.895,0.051,48.641,0.089c11.411,0,20.695-9.273,20.695-20.672
	C512,283.389,509.767,281.779,498.284,252.411z M15.451,288.017l12.178-29.947c0.872-2.144,2.93-3.528,5.244-3.528h28.038
	c-10.524,12.604-12.866,27.204-4.775,41.27H20.695C16.644,295.81,13.944,291.723,15.451,288.017z M491.305,295.81h-35.718
	c7.401-12.98,6.525-27.654-4.845-41.27h28.384c2.315,0,4.372,1.385,5.244,3.528l12.178,29.948c0.285,0.701,0.431,1.422,0.431,2.142
	C496.98,292.876,494.81,295.81,491.305,295.81z"/>
<path d="M183.819,192.785c0,4.149,3.362,7.51,7.51,7.51s7.51-3.362,7.51-7.51c0-14.907,14.019-16.349,14.019-37.672
	c0-21.087-14.019-23.01-14.019-37.677c0-14.908,14.019-16.351,14.019-37.676c0-4.149-3.362-7.51-7.51-7.51
	c-4.149,0-7.51,3.362-7.51,7.51c0,14.908-14.019,16.351-14.019,37.676c0,21.094,14.019,22.999,14.019,37.677
	c0,6.93-2.316,10.043-5.524,14.352C188.53,174.551,183.819,180.88,183.819,192.785z"/>
<path d="M303.975,192.785c0,4.149,3.362,7.51,7.51,7.51c4.149,0,7.51-3.362,7.51-7.51c0-14.907,14.019-16.349,14.019-37.672
	c0-21.087-14.019-23.01-14.019-37.677c0-14.908,14.019-16.351,14.019-37.676c0-4.149-3.362-7.51-7.51-7.51s-7.51,3.362-7.51,7.51
	c0,14.908-14.019,16.351-14.019,37.676c0,21.094,14.019,22.999,14.019,37.677c0,6.93-2.316,10.043-5.524,14.352
	C308.686,174.551,303.975,180.88,303.975,192.785z"/>
<path d="M243.897,191.405c0,4.149,3.362,7.51,7.51,7.51c4.149,0,7.51-3.362,7.51-7.51c0-21.94,14.019-22.723,14.019-49.726
	c0-26.756-14.019-28.053-14.019-49.734c0-21.943,14.019-22.727,14.019-49.733c0-4.149-3.362-7.51-7.51-7.51
	c-4.149,0-7.51,3.362-7.51,7.51c0,21.943-14.019,22.727-14.019,49.733c0,26.547,14.019,28.239,14.019,49.734
	C257.916,163.444,243.897,164.549,243.897,191.405z"/>
<path d="M331.843,253.99c-23.119,0-39.613,22.592-32.597,44.57c1.005,3.144,3.922,5.224,7.15,5.224
	c2.517,0,30.269-3.79,54.418-12.704c3.357-1.239,5.372-4.672,4.819-8.206C363.015,266.137,348.804,253.99,331.843,253.99z
	 M312.664,287.778c0.41-19.585,26.861-26.112,36.18-8.449C337.928,282.858,325.637,285.729,312.664,287.778z"/>
<path d="M141.646,284.31c-0.172,3.362,1.913,6.428,5.103,7.502c13.146,4.429,27.82,7.887,43.62,10.279
	c0.379,0.058,0.755,0.085,1.128,0.085c2.943,0,5.663-1.732,6.873-4.491c8.501-19.362-5.718-41.458-27.147-41.458
	C155.445,256.226,142.455,268.561,141.646,284.31z M185.819,286.128c-9.846-1.73-19.158-3.905-27.813-6.497
	C164.695,265.388,186.134,270.517,185.819,286.128z"/>
<path d="M234.606,254.062l-12.919,10.268c-9.517,7.541-9.2,21.353-2.62,28.038c7.43,6.483,2.073,6.691,21.83,6.691
	c13.093,0,26.181-0.622,38.902-1.848c5.973-0.577,8.896-7.608,5.078-12.247l-22.88-27.805
	C255.232,248.695,242.934,247.456,234.606,254.062z M231.841,283.934l-1.726-1.753c-1.284-1.855-1.002-4.572,0.907-6.085
	c20.869-15.637,12.429-16.655,33.085,7.266C253.303,283.994,242.374,284.178,231.841,283.934z"/>
<g>
</g>
<g>
</g>
<g>
</g>
<g>
</g>
<g>
</g>
<g>
</g>
<g>
</g>
<g>
</g>
<g>
</g>
<g>
</g>
<g>
</g>
<g>
</g>
<g>
</g>
<g>
</g>
<g>
</g>
</svg>
