<?xml version="1.0" encoding="iso-8859-1"?>
<!-- Generator: Adobe Illustrator 19.0.0, SVG Export Plug-In . SVG Version: 6.00 Build 0)  -->
<svg version="1.1" id="Capa_1" xmlns="http://www.w3.org/2000/svg" xmlns:xlink="http://www.w3.org/1999/xlink" x="0px" y="0px"
	 viewBox="0 0 512.001 512.001" style="enable-background:new 0 0 512.001 512.001;" xml:space="preserve">
<g>
	<path style="fill:#3E3D42;" d="M504.52,209.106v93.699c0,10.048-8.223,18.271-18.272,18.271h-33.891V190.835h33.891
		C496.297,190.835,504.52,199.058,504.52,209.106z"/>
	<path style="fill:#3E3D42;" d="M63.606,190.835v130.242H25.747c-10.048,0-18.272-8.223-18.272-18.271v-93.699
		c0-10.048,8.223-18.271,18.272-18.271L63.606,190.835L63.606,190.835z"/>
</g>
<path style="fill:#1D1D1F;" d="M464.658,255.956c0,115.788-93.879,209.667-209.667,209.667c-37.18,0-72.098-9.679-102.372-26.644
	C88.596,403.074,45.325,334.564,45.325,255.956c0-115.788,93.879-209.667,209.667-209.667c48.773,0,93.659,16.656,129.285,44.587
	C433.21,129.273,464.658,188.941,464.658,255.956z"/>
<path style="fill:#2D2D30;" d="M464.658,255.956c0,115.788-93.879,209.667-209.667,209.667c-37.18,0-72.098-9.679-102.372-26.644
	c-48.933-38.397-80.382-98.065-80.382-165.08c0-115.788,93.879-209.667,209.667-209.667c37.18,0,72.098,9.679,102.372,26.644
	C433.21,129.273,464.658,188.941,464.658,255.956z"/>
<path style="fill:#FF5023;" d="M418.377,255.956c0,90.23-73.155,163.385-163.385,163.385c-24.791,0-48.294-5.522-69.348-15.411
	c-55.562-26.086-94.038-82.535-94.038-147.975c0-90.23,73.155-163.385,163.385-163.385c35.995,0,69.267,11.643,96.261,31.36
	C391.942,153.644,418.377,201.719,418.377,255.956z"/>
<path style="fill:#FF6243;" d="M418.377,255.956c0,90.23-73.155,163.385-163.385,163.385c-24.791,0-48.294-5.522-69.348-15.411
	c-40.689-29.714-67.124-77.79-67.124-132.026c0-90.23,73.155-163.385,163.385-163.385c24.791,0,48.294,5.522,69.348,15.411
	C391.942,153.644,418.377,201.719,418.377,255.956z"/>
<path style="fill:#891C00;" d="M380,256.923c0,38.098-19.128,71.719-48.305,91.785c-25.329,17.434-59.838-0.848-59.838-31.598
	V196.735c0-30.751,34.509-49.042,59.838-31.608c24.342,16.746,41.686,42.923,46.769,73.255C379.472,244.413,380,250.603,380,256.923
	z"/>
<path style="fill:#AB2300;" d="M378.465,238.383c-0.937,36.902-19.827,69.338-48.265,88.895
	c-22.208,15.281-51.475,3.12-58.343-20.843V196.735c0-30.751,34.509-49.042,59.838-31.608
	C356.037,181.874,373.381,208.05,378.465,238.383z"/>
<path style="fill:#4E901E;" d="M206.766,161.041c0,2.263-0.488,4.555-1.525,6.718l-30.393,63.586l-0.469,0.967
	c-3.728,7.795-13.148,11.124-20.933,7.396c-7.795-3.728-11.114-13.147-7.396-20.933l30.861-64.553
	c3.718-7.786,13.138-11.114,20.933-7.396c0.648,0.309,1.266,0.657,1.854,1.057C204.185,150.834,206.766,155.858,206.766,161.041z"/>
<path style="fill:#5EAC24;" d="M206.766,161.041c0,2.263-0.488,4.555-1.525,6.718l-30.393,63.586
	c-6.439-4.226-8.951-12.739-5.532-19.876l30.383-63.586C204.185,150.834,206.766,155.858,206.766,161.041z"/>
<path style="fill:#4E901E;" d="M234.437,383.506c-0.917,0.159-1.825,0.24-2.721,0.24c-7.466,0-14.124-5.383-15.47-12.968
	l-12.44-70.454c-1.505-8.503,4.226-16.686,12.729-18.191c0.717-0.129,1.445-0.199,2.153-0.219
	c7.695-0.28,14.663,5.173,16.039,12.949l12.171,68.929l0.27,1.525C248.672,373.817,242.94,382.012,234.437,383.506z"/>
<path style="fill:#5EAC24;" d="M246.897,363.789c-0.189,0.02-0.369,0.02-0.558,0.02c-7.466,0-14.124-5.383-15.47-12.968
	l-12.181-68.929c7.695-0.28,14.663,5.173,16.039,12.949L246.897,363.789z"/>
<g>
	<path style="fill:#A5001E;" d="M169.366,311.966c-1.445,1.844-3.209,3.509-5.264,4.884c-10.506,7.067-24.75,4.267-31.808-6.249
		c-7.067-10.506-4.267-24.75,6.249-31.808c4.685-3.15,10.117-4.346,15.321-3.747c6.459,0.717,12.58,4.176,16.487,9.998
		C176.035,293.496,175.337,304.37,169.366,311.966z"/>
	<path style="fill:#A5001E;" d="M246.16,240.067c-0.798,1.874-1.825,3.588-3.03,5.113c-6.249,7.994-17.305,11.114-27.073,6.928
		c-11.642-4.984-17.025-18.461-12.041-30.103c4.077-9.519,13.836-14.863,23.624-13.755c2.173,0.239,4.356,0.808,6.479,1.714
		C245.761,214.948,251.144,228.424,246.16,240.067z"/>
	<path style="fill:#A5001E;" d="M271.549,145.55c-0.697,3.747-2.283,7.107-4.486,9.918c-5.103,6.509-13.576,10.028-22.279,8.393
		c-12.44-2.333-20.644-14.314-18.312-26.763c2.232-11.882,13.257-19.906,25.099-18.56c0.548,0.06,1.106,0.139,1.664,0.249
		C265.677,121.118,273.881,133.1,271.549,145.55z"/>
</g>
<g>
	<path style="fill:#C70024;" d="M169.366,311.966c-6.459-0.727-12.57-4.176-16.477-9.998c-5.671-8.453-4.974-19.318,0.977-26.924
		c6.459,0.717,12.58,4.176,16.487,9.998C176.035,293.496,175.337,304.37,169.366,311.966z"/>
	<path style="fill:#C70024;" d="M246.16,240.067c-0.798,1.874-1.825,3.588-3.03,5.113c-2.183-0.239-4.356-0.808-6.469-1.714
		c-11.642-4.984-17.035-18.461-12.041-30.103c0.808-1.874,1.824-3.588,3.02-5.113c2.173,0.239,4.356,0.808,6.479,1.714
		C245.761,214.948,251.144,228.424,246.16,240.067z"/>
	<path style="fill:#C70024;" d="M271.549,145.55c-0.697,3.747-2.283,7.107-4.486,9.918c-0.558-0.06-1.116-0.139-1.674-0.249
		c-12.45-2.333-20.643-14.314-18.312-26.764c0.697-3.747,2.283-7.117,4.496-9.918c0.548,0.06,1.106,0.139,1.664,0.249
		C265.677,121.118,273.881,133.1,271.549,145.55z"/>
</g>
<path d="M123.138,409.237c-44.697-38.486-70.333-94.355-70.333-153.281c0-88.542,59.157-168.173,143.859-193.648
	c3.954-1.189,6.195-5.359,5.006-9.313c-1.188-3.953-5.36-6.193-9.313-5.006c-43.756,13.161-83.095,40.597-110.77,77.256
	c-13.522,17.911-24.027,37.455-31.351,58.111H25.75C11.552,183.356,0,194.908,0,209.106v93.699c0,14.198,11.552,25.75,25.75,25.75
	h24.605c12.497,35.224,34.014,67.032,63.026,92.012c3.115,2.683,7.839,2.354,10.543-0.788
	C126.62,416.652,126.267,411.931,123.138,409.237z M25.75,313.604c-5.955,0-10.799-4.844-10.799-10.799v-93.699
	c0-5.955,4.845-10.799,10.799-10.799h19.8c-5.087,18.569-7.696,37.9-7.696,57.648c0,19.688,2.667,39.058,7.785,57.648H25.75z"/>
<path d="M393.079,168.277c3.379-2.373,4.194-7.036,1.821-10.415c-32.001-45.563-84.303-72.763-139.909-72.763
	c-94.211,0-170.856,76.646-170.856,170.856c0,12.241,1.303,24.464,3.872,36.326c0.759,3.501,3.856,5.895,7.3,5.895
	c0.524,0,1.057-0.055,1.589-0.171c4.035-0.874,6.598-4.854,5.724-8.89c-2.344-10.823-3.533-21.98-3.533-33.16
	c0-85.966,69.939-155.905,155.905-155.905c50.74,0,98.469,24.825,127.674,66.405C385.038,169.836,389.702,170.65,393.079,168.277z"
	/>
<path d="M425.848,255.956c0-24.769-5.185-48.661-15.414-71.013c-1.718-3.755-6.155-5.404-9.909-3.688
	c-3.755,1.718-5.406,6.154-3.687,9.909c47.184,103.124-28.743,220.698-141.847,220.698c-62.976,0-119.424-37.52-143.809-95.587
	c-1.598-3.806-5.979-5.597-9.788-3.998c-3.808,1.598-5.597,5.981-3.998,9.788c26.722,63.632,88.582,104.748,157.595,104.748
	C349.202,426.813,425.848,350.166,425.848,255.956z"/>
<path d="M328.407,359.093c2.602-1.155,5.135-2.577,7.528-4.222c68.674-47.248,68.651-148.673,0-195.901
	c-7.685-5.288-16.566-8.082-25.681-8.082c-25.293,0-45.87,20.566-45.87,45.845v120.376c0,18.956,11.439,35.699,29.142,42.657
	c0.898,0.353,1.823,0.52,2.732,0.52c2.984,0,5.803-1.799,6.96-4.743c1.51-3.843-0.381-8.181-4.223-9.692
	c-11.942-4.693-19.659-15.975-19.659-28.74V196.731c0-19.081,16.049-30.893,30.918-30.893c6.076,0,12.026,1.885,17.207,5.448
	c28.219,19.413,45.066,51.426,45.066,85.632s-16.847,66.219-45.066,85.633c-1.635,1.125-3.358,2.093-5.121,2.876
	c-3.774,1.675-5.474,6.093-3.799,9.867C320.217,359.068,324.636,360.769,328.407,359.093z"/>
<path d="M486.249,183.356h-26.504c-10.649-30.102-27.968-57.693-51.214-80.94c-49.971-49.971-118.773-71.259-185.979-61.19
	c-4.083,0.611-6.898,4.418-6.286,8.501c0.612,4.083,4.416,6.899,8.502,6.286c9.931-1.487,20.1-2.241,30.224-2.241
	c111.486,0,202.186,90.7,202.186,202.186c0,160.265-177.857,255.541-310.923,170.488c-3.479-2.225-8.101-1.207-10.326,2.273
	c-2.223,3.479-1.206,8.102,2.273,10.326c118.444,75.707,275.454,19.799,321.544-110.486h26.504c14.199,0,25.75-11.552,25.75-25.75
	v-93.699C512,194.908,500.448,183.356,486.249,183.356z M497.048,302.805c0,5.955-4.845,10.799-10.799,10.799h-21.82
	c10.022-36.635,10.512-76.869,0-115.296h21.82c5.955,0,10.799,4.844,10.799,10.799V302.805z"/>
<path d="M297.091,217.264H340c4.129,0,7.476-3.347,7.476-7.476s-3.347-7.476-7.476-7.476h-42.91c-4.129,0-7.476,3.347-7.476,7.476
	S292.961,217.264,297.091,217.264z"/>
<path d="M297.091,311.525H340c4.129,0,7.476-3.347,7.476-7.476s-3.347-7.476-7.476-7.476h-42.91c-4.129,0-7.476,3.347-7.476,7.476
	S292.961,311.525,297.091,311.525z"/>
<path d="M297.091,264.044h57.681c4.129,0,7.476-3.347,7.476-7.476c0-4.129-3.347-7.476-7.476-7.476h-57.681
	c-4.129,0-7.476,3.347-7.476,7.476C289.615,260.697,292.961,264.044,297.091,264.044z"/>
<path d="M182.569,197.85c-1.781,3.725-0.204,8.188,3.521,9.969c3.723,1.781,8.188,0.204,9.969-3.521
	c14.803-32.399,18.18-34.535,18.18-43.257c0-12.535-10.126-23.211-23.12-23.211c-8.905,0-17.13,5.17-20.955,13.17l-30.856,64.552
	c-5.602,11.717-0.351,25.518,10.913,30.903c11.723,5.603,25.519,0.351,30.905-10.914l2.037-4.261
	c1.781-3.724,0.204-8.187-3.52-9.969c-3.725-1.782-8.189-0.204-9.97,3.521l-2.037,4.261c-1.912,3.998-6.836,5.847-10.965,3.873
	c-4.004-1.915-5.843-6.843-3.873-10.965l30.856-64.551c3.719-7.78,15.633-5.272,15.633,3.592c0,1.217-0.268,2.396-0.796,3.5
	L182.569,197.85z"/>
<path d="M231.717,376.272c-3.938,0-7.423-2.92-8.106-6.793l-6.421-36.35c-0.718-4.066-4.596-6.782-8.662-6.061
	c-4.066,0.718-6.78,4.596-6.061,8.662l6.421,36.35c2.239,12.678,14.309,21.011,26.853,18.791
	c12.658-2.236,21.011-14.283,18.791-26.853l-12.447-70.457c-1.959-11.092-11.56-19.143-22.831-19.143
	c-12.721,0-23.166,10.286-23.166,23.184c0,3.072,0.563,4.858,1.176,8.68c0.717,4.065,4.594,6.786,8.662,6.061
	c4.066-0.718,6.78-4.596,6.062-8.662c-0.769-4.544-0.948-4.902-0.948-6.079c0-4.394,3.633-8.232,8.213-8.232
	c3.938,0,7.423,2.92,8.106,6.793l12.446,70.459c0.083,0.469,0.125,0.947,0.125,1.419
	C239.93,372.433,236.297,376.272,231.717,376.272z"/>
<path d="M136.882,278.5c-3.376-2.378-8.039-1.567-10.417,1.808c-14.199,20.166,0.297,47.92,24.88,47.92
	c6.043,0,11.897-1.788,16.93-5.167c20.691-13.896,16.706-45.415-6.613-53.833c-3.883-1.401-8.168,0.61-9.57,4.494
	c-1.402,3.883,0.61,8.168,4.494,9.57c11.849,4.277,13.858,20.301,3.353,27.355c-14.054,9.444-31.115-7.718-21.248-21.73
	C141.068,285.541,140.257,280.876,136.882,278.5z"/>
<path d="M254.706,224.172c-0.935-4.021-4.955-6.527-8.974-5.589c-4.022,0.936-6.524,4.953-5.589,8.975
	c0.266,1.143,0.401,2.317,0.401,3.488c0,10.962-11.26,18.595-21.542,14.191c-7.821-3.352-11.49-12.404-8.114-20.289
	c2.517-5.874,8.391-9.615,14.809-9.358c4.115,0.157,7.601-3.051,7.764-7.177c0.162-4.125-3.051-7.601-7.176-7.764
	c-12.641-0.484-24.184,6.849-29.139,18.411c-6.598,15.41,0.493,33.288,15.97,39.919c3.816,1.635,7.841,2.464,11.964,2.464
	c12.183,0,23.156-7.234,27.956-18.434c1.634-3.817,2.463-7.842,2.463-11.965C255.496,228.737,255.23,226.425,254.706,224.172z"/>
<path d="M279.417,141.299c0-22.348-23.487-37.037-43.565-27.383c-3.721,1.79-5.287,6.257-3.498,9.977
	c1.79,3.721,6.257,5.287,9.978,3.498c11.239-5.404,24.216,4.223,21.865,16.782c-1.564,8.344-9.571,13.917-18.032,12.34
	c-6.249-1.173-11.216-6.161-12.359-12.413c-0.742-4.061-4.637-6.745-8.698-6.01c-4.062,0.742-6.753,4.636-6.01,8.698
	c2.583,14.136,15.063,24.945,29.939,24.945C265.8,171.73,279.417,158.104,279.417,141.299z"/>
<g>
</g>
<g>
</g>
<g>
</g>
<g>
</g>
<g>
</g>
<g>
</g>
<g>
</g>
<g>
</g>
<g>
</g>
<g>
</g>
<g>
</g>
<g>
</g>
<g>
</g>
<g>
</g>
<g>
</g>
</svg>
