<?xml version="1.0" encoding="iso-8859-1"?>
<!-- Generator: Adobe Illustrator 19.0.0, SVG Export Plug-In . SVG Version: 6.00 Build 0)  -->
<svg version="1.1" id="Capa_1" xmlns="http://www.w3.org/2000/svg" xmlns:xlink="http://www.w3.org/1999/xlink" x="0px" y="0px"
	 viewBox="0 0 512.001 512.001" style="enable-background:new 0 0 512.001 512.001;" xml:space="preserve">
<path style="fill:#B39A7C;" d="M503.885,255.8c0,137.054-111.102,248.156-248.156,248.156c-47.114,0-91.155-13.127-128.678-35.926
	c-0.01,0-0.02,0-0.03-0.02C55.411,424.481,7.574,345.73,7.574,255.8c0-137.054,111.102-248.156,248.156-248.156
	c61.828,0,118.373,22.618,161.821,60.03c0.01,0.01,0.02,0.02,0.03,0.02C470.43,113.192,503.885,180.584,503.885,255.8z"/>
<path style="fill:#D9CCBC;" d="M486.308,255.8c0,127.342-103.237,230.579-230.579,230.579c-43.78,0-84.697-12.193-119.568-33.385
	c0,0-0.01,0-0.02-0.02c-11.781-7.161-22.859-15.346-33.124-24.426C55.26,386.306,25.15,324.578,25.15,255.8
	c0-127.342,103.237-230.579,230.579-230.579c57.449,0,109.987,21.011,150.362,55.782c0.01,0.01,0.02,0.02,0.03,0.02
	c7.954,6.85,15.427,14.222,22.377,22.086c0,0,0,0,0.01,0.01C464.484,143.774,486.308,197.236,486.308,255.8z"/>
<path style="fill:#EBE5DD;" d="M486.308,255.8c0,127.342-103.237,230.579-230.579,230.579c-43.78,0-84.697-12.193-119.568-33.385
	c0,0-0.01,0-0.02-0.02c-11.781-7.161-22.859-15.346-33.124-24.426c-35.956-40.656-57.78-94.108-57.78-152.662
	c0-127.342,103.237-230.579,230.579-230.579c57.449,0,109.987,21.011,150.362,55.782c0.01,0.01,0.02,0.02,0.03,0.02
	c0.763,0.663,1.527,1.326,2.29,1.999c0,0,0,0,0.01,0.01C464.484,143.774,486.308,197.236,486.308,255.8z"/>
<path style="fill:#5EAC24;" d="M446.844,255.8c0,19.534-22.689,35.243-28.412,52.868c-5.932,18.267,2.986,44.273-8.08,59.479
	c-11.176,15.358-38.74,14.859-54.096,26.036c-15.205,11.066-23.188,37.496-41.455,43.427c-17.625,5.723-39.538-10.781-59.071-10.781
	c-19.534,0-41.446,16.504-59.071,10.781c-18.267-5.932-26.25-32.361-41.456-43.427c-15.358-11.176-42.92-10.678-54.096-26.036
	c-11.066-15.205-2.149-41.211-8.08-59.479c-5.723-17.625-28.412-33.334-28.412-52.868s22.689-35.243,28.412-52.868
	c5.932-18.267-2.986-44.273,8.08-59.479c11.176-15.358,38.74-14.859,54.096-26.036c15.205-11.066,23.188-37.496,41.455-43.427
	c17.625-5.723,39.538,10.78,59.071,10.78c19.534,0,41.446-16.504,59.071-10.781c18.267,5.932,26.25,32.361,41.456,43.427
	c15.358,11.176,42.92,10.678,54.096,26.036c11.066,15.205,2.149,41.211,8.08,59.479C424.155,220.558,446.844,236.267,446.844,255.8z
	"/>
<path style="fill:#7ED63E;" d="M305.558,408.588c-3.32-0.472-9.392-2.57-13.969-4.152c-10.496-3.627-22.391-7.739-35.86-7.739
	c-13.468,0-25.365,4.112-35.86,7.739c-4.578,1.582-10.648,3.68-13.969,4.151c-2.482-2.312-6.476-8.077-9.229-12.05
	c-6.185-8.927-13.195-19.044-23.738-26.717c-10.645-7.748-22.514-11.339-32.985-14.509c-4.596-1.391-11.27-3.411-14.207-5.038
	c-0.618-3.278-0.49-10.156-0.402-14.897c0.203-10.977,0.434-23.417-3.658-36.015c-3.978-12.254-11.367-21.949-17.888-30.502
	c-2.91-3.82-7.624-10.002-8.87-13.06c1.246-3.057,5.961-9.24,8.87-13.06c6.519-8.554,13.909-18.248,17.889-30.504
	c4.09-12.597,3.86-25.038,3.657-36.012c-0.088-4.742-0.216-11.619,0.402-14.898c2.937-1.626,9.61-3.647,14.207-5.038
	c10.471-3.17,22.34-6.761,32.984-14.508c10.544-7.674,17.554-17.791,23.739-26.718c2.752-3.972,6.745-9.734,9.227-12.048
	c3.342,0.476,9.401,2.57,13.972,4.149c10.495,3.627,22.391,7.739,35.86,7.739c13.468,0,25.365-4.112,35.859-7.739
	c4.579-1.582,10.65-3.68,13.97-4.152c2.482,2.312,6.476,8.078,9.229,12.051c6.185,8.927,13.195,19.044,23.738,26.717
	c10.645,7.748,22.514,11.339,32.985,14.509c4.596,1.391,11.27,3.411,14.207,5.038c0.618,3.278,0.49,10.156,0.402,14.897
	c-0.203,10.977-0.434,23.416,3.658,36.015c3.978,12.254,11.367,21.949,17.888,30.502c2.91,3.82,7.624,10.002,8.87,13.06
	c-1.246,3.057-5.961,9.24-8.87,13.06c-6.519,8.554-13.909,18.248-17.889,30.504c-4.09,12.597-3.86,25.038-3.657,36.012
	c0.088,4.742,0.216,11.619-0.402,14.898c-2.937,1.626-9.61,3.647-14.207,5.038c-10.471,3.17-22.34,6.761-32.984,14.508
	c-10.544,7.674-17.554,17.791-23.739,26.718C312.034,400.51,308.04,406.277,305.558,408.588z"/>
<g>
	<circle style="fill:#4E901E;" cx="227.527" cy="323.573" r="62.943"/>
	<circle style="fill:#4E901E;" cx="417.108" cy="223.298" r="62.943"/>
</g>
<path style="fill:#91DC5A;" d="M469.084,223.3c0,28.704-23.271,51.975-51.975,51.975c-8.477,0-16.481-2.029-23.552-5.624
	c-16.873-8.597-28.423-26.123-28.423-46.351c0-28.714,23.271-51.975,51.975-51.975c15.889,0,30.1,7.121,39.632,18.35
	C464.444,198.743,469.084,210.474,469.084,223.3z"/>
<path style="fill:#A5001E;" d="M283.891,76.784c0,14.573-9.853,26.897-23.411,30.954c-3.073,0.934-6.348,1.426-9.732,1.426
	c-18.309,0-33.144-14.493-33.144-32.38s14.834-32.39,33.144-32.39c6.799,0,13.117,1.999,18.38,5.434
	C278.026,55.632,283.891,65.545,283.891,76.784z"/>
<path style="fill:#C70024;" d="M283.891,76.784c0,14.573-9.853,26.897-23.411,30.954c-8.899-5.795-14.754-15.698-14.754-26.937
	c0-14.573,9.853-26.907,23.401-30.974C278.026,55.632,283.891,65.545,283.891,76.784z"/>
<path style="fill:#A5001E;" d="M387.329,322.83c0,20.388-14.834,36.91-33.144,36.91c-18.299,0-33.144-16.522-33.144-36.91
	c0-4.399,0.693-8.627,1.969-12.544c4.61-14.202,16.833-24.356,31.175-24.356c14.352,0,26.565,10.154,31.175,24.356
	C386.636,314.203,387.329,318.431,387.329,322.83z"/>
<path style="fill:#C70024;" d="M385.361,310.286c-4.61,14.202-16.823,24.345-31.175,24.345c-14.342,0-26.555-10.144-31.175-24.345
	c4.61-14.202,16.833-24.356,31.175-24.356C368.538,285.93,380.751,296.084,385.361,310.286z"/>
<path style="fill:#A5001E;" d="M339.623,433.058c0,18.299-14.834,33.144-33.144,33.144c-18.299,0-33.134-14.844-33.134-33.144
	c0-2.662,0.311-5.243,0.904-7.723c3.485-14.583,16.592-25.42,32.23-25.42c11.932,0,22.387,6.297,28.222,15.748
	C337.825,420.725,339.623,426.681,339.623,433.058z"/>
<path style="fill:#C70024;" d="M334.701,415.663c-3.475,14.583-16.592,25.43-32.24,25.43c-11.922,0-22.377-6.307-28.212-15.758
	c3.485-14.583,16.592-25.42,32.23-25.42C318.411,399.914,328.866,406.212,334.701,415.663z"/>
<path style="fill:#A5001E;" d="M120.392,315.75c-2.561,5.725-6.639,11.018-12.112,15.246c-16.14,12.454-38.286,10.797-49.464-3.696
	c-11.188-14.493-7.161-36.327,8.979-48.781c1.908-1.476,3.907-2.762,5.966-3.837c15.266-8.045,33.646-5.243,43.499,7.533
	C124.651,291.796,125.394,304.581,120.392,315.75z"/>
<path style="fill:#C70024;" d="M120.392,315.75c-15.276,8.045-33.646,5.243-43.499-7.533c-7.392-9.582-8.145-22.367-3.134-33.535
	c15.266-8.045,33.646-5.243,43.499,7.533C124.651,291.796,125.394,304.581,120.392,315.75z"/>
<circle style="fill:#4E901E;" cx="183.918" cy="220.687" r="62.943"/>
<path style="fill:#91DC5A;" d="M235.893,220.688c0,28.704-23.271,51.975-51.975,51.975c-8.477,0-16.491-2.029-23.562-5.634
	c-16.863-8.587-28.413-26.113-28.413-46.341c0-28.704,23.271-51.975,51.975-51.975c15.879,0,30.1,7.121,39.632,18.36
	C231.253,196.131,235.893,207.862,235.893,220.688z"/>
<circle style="fill:#4E901E;" cx="294.065" cy="186.097" r="62.943"/>
<g>
	<path style="fill:#91DC5A;" d="M346.04,186.098c0,28.704-23.271,51.975-51.975,51.975c-8.487,0-16.501-2.039-23.582-5.644
		c-16.853-8.597-28.393-26.113-28.393-46.331c0-28.704,23.261-51.975,51.975-51.975c15.879,0,30.1,7.121,39.632,18.36
		C341.4,161.541,346.04,173.272,346.04,186.098z"/>
	<path style="fill:#91DC5A;" d="M279.502,323.574c0,28.704-23.271,51.975-51.975,51.975c-8.477,0-16.481-2.029-23.552-5.624
		c-16.873-8.597-28.423-26.123-28.423-46.351c0-28.704,23.271-51.975,51.975-51.975c15.879,0,30.09,7.121,39.622,18.34
		C274.852,298.997,279.502,310.748,279.502,323.574z"/>
</g>
<g>
	<path style="fill:#B6E892;" d="M469.084,223.3c0,28.704-23.271,51.975-51.975,51.975c-8.477,0-16.481-2.029-23.552-5.624
		c-7.703-9.059-12.354-20.81-12.354-33.636c0-28.704,23.271-51.975,51.975-51.975c8.477,0,16.491,2.029,23.562,5.634
		C464.444,198.743,469.084,210.474,469.084,223.3z"/>
	<path style="fill:#B6E892;" d="M235.893,220.688c0,28.704-23.271,51.975-51.975,51.975c-8.477,0-16.491-2.029-23.562-5.634
		c-7.703-9.059-12.343-20.79-12.343-33.616c0-28.704,23.271-51.975,51.975-51.975c8.477,0,16.491,2.029,23.562,5.634
		C231.253,196.131,235.893,207.862,235.893,220.688z"/>
	<path style="fill:#B6E892;" d="M346.04,186.098c0,28.704-23.271,51.975-51.975,51.975c-8.487,0-16.501-2.039-23.582-5.644
		c-7.683-9.059-12.323-20.79-12.323-33.606c0-28.704,23.261-51.975,51.975-51.975c8.477,0,16.491,2.029,23.562,5.634
		C341.4,161.541,346.04,173.272,346.04,186.098z"/>
	<path style="fill:#B6E892;" d="M279.502,323.574c0,28.704-23.271,51.975-51.975,51.975c-8.477,0-16.481-2.029-23.552-5.624
		c-7.703-9.059-12.354-20.81-12.354-33.636c0-28.704,23.271-51.975,51.975-51.975c8.477,0,16.481,2.029,23.552,5.624
		C274.852,298.997,279.502,310.748,279.502,323.574z"/>
</g>
<path d="M485.18,142.848c-1.84-3.731-6.356-5.265-10.088-3.424c-3.731,1.84-5.264,6.357-3.424,10.088
	c89.601,181.682-74.809,390.501-275.423,339.508c-4.028-1.025-8.132,1.411-9.156,5.445c-1.025,4.032,1.412,8.131,5.445,9.156
	C404.379,557.479,581.211,337.564,485.18,142.848z"/>
<path d="M168.44,480.107C19.545,422.12-29.856,241.2,59.996,115.806c2.422-3.382,1.646-8.087-1.737-10.511
	c-3.381-2.424-8.087-1.646-10.511,1.737c-63.125,88.096-63.527,206.34-1.999,294.708c29.222,41.967,69.755,73.92,117.222,92.405
	c3.875,1.511,8.243-0.408,9.752-4.286C174.235,485.983,172.315,481.617,168.44,480.107z"/>
<path d="M78.404,93.142C183.775-21.664,370.538-8.192,457.198,124.179c1.445,2.208,3.853,3.408,6.308,3.408
	c5.904,0,9.6-6.613,6.296-11.66C378.149-24.069,179.837-39.656,67.305,82.956c-2.813,3.065-2.609,7.83,0.456,10.643
	C70.826,96.411,75.59,96.207,78.404,93.142z"/>
<path d="M232.167,440.038c15.811-5.471,21.924-7.166,33.746-4.218c1.416,21.142,19.073,37.914,40.576,37.914
	c28.243,0,47.718-28.131,38.296-54.366c4.572-6.569,9.936-14.754,15.899-19.093c14.083-10.247,42.592-9.624,55.762-27.7
	c7.829-10.761,7.558-24.638,7.332-37.894c-0.407-22.856,0.366-25.641,15.176-44.734c28.122-9.26,48.47-35.775,48.47-66.96
	c0-37.041-28.714-67.482-65.052-70.254c-4.528-20.568-20.059-26.467-39.953-32.491c-21.588-6.546-23.946-8.257-36.669-26.625
	c-15.913-22.956-27.265-33.752-55.33-25.681c-4.118-17.767-20.338-31.075-39.672-31.075c-18.55,0-34.238,12.253-39.109,28.945
	c-35.754-5.443-43.355,32.778-60.864,45.517c-14.107,10.264-42.589,9.618-55.762,27.7c-12.978,17.837-3.743,44.906-9.15,61.577
	c-6.602,20.335-41.023,39.575-24.084,73.087c-32.471,26.981-14.909,76.067,25.912,73.077c0.947,26.041,12.092,35.454,36.498,43.117
	c9.722,2.981,13.849-11.451,4.51-14.382c-21.153-6.632-25.863-11.923-26.023-32.481c26.794-11.707,36.862-44.259,20.549-65.403
	c-11.49-14.88-31.539-18.497-48.5-11.681c-1.607-3.385-2.581-6.749-2.581-10.134c0-16.032,21.909-31.588,28.042-50.539
	c6.266-19.285-1.897-45.129,7.01-57.379c9.074-12.467,36.05-12.456,52.437-24.376c16.23-11.79,24.456-37.506,39.351-42.354
	c3.589-1.161,7.567-0.956,11.299-0.311c2.079,20.107,19.434,35.855,40.465,35.855c20.077,0,36.8-14.352,40.094-33.134
	c22.384-7.251,27.655-2.819,42.524,18.631c14.559,21.014,19.626,24.9,44.694,32.461c12.674,3.841,25.125,7.155,28.855,18.581
	c-17.827,2.551-33.525,11.801-44.443,25.109c-3.746-35.353-33.746-62.983-70.084-62.983c-31.205,0-57.74,20.388-66.98,48.54
	c-45.898-34.148-112.427-1.579-112.427,56.575c0,32.641,22.307,60.171,52.477,68.145c-25.59,46.611,8.239,104.292,61.818,104.292
	c38.858,0,70.475-31.617,70.475-70.475c0-32.641-22.307-60.171-52.477-68.145c2.069-3.766,3.807-7.734,5.162-11.882
	c29.978,22.304,72.422,17.337,96.438-11.942c3.951,37.282,36.932,64.289,70.857,62.983c-10.966,16.736-8.939,28.248-8.939,48.229
	c0,24.334-6.047,27.782-30.733,35.263c-22.075,6.658-29.041,10.221-41.851,28.393c-21.284-22.872-59.13-14.061-68.497,15.427
	c-14.895-3.357-24.267-0.561-40.465,5.032c-8.797,3.04-20.137,7.28-28.262,4.65c-15.175-4.94-23.726-31.978-40.315-43.037
	c-3.435-2.35-8.115-1.486-10.475,1.948c-2.35,3.435-1.476,8.115,1.958,10.475c14.545,10.187,22.488,37.893,44.181,44.945
	C197.547,445.813,219.786,444.318,232.167,440.038z M72.394,284.484c13.297-10.288,30.614-8.398,38.899,2.33
	c8.627,11.178,5.213,28.323-7.613,38.216c-12.091,9.502-29.935,9.305-38.899-2.33C55.764,311.025,60.167,293.834,72.394,284.484z
	 M272.693,89.559c-11.025,17.837-38.41,15.379-45.919-4.058l-0.532-15.949c3.204-10.194,12.976-17.626,24.506-17.626
	C270.681,51.926,282.912,73.173,272.693,89.559z M128.046,220.477c0-48.947,59.153-73.679,94.048-39.662
	c13.53,13.161,19.163,31.875,15.859,49.715c-5.351,29.061-33.117,49.37-62.963,44.704
	C148.444,271.156,128.046,248.147,128.046,220.477z M282.686,322.439c0,30.552-24.858,55.41-55.41,55.41
	c-44.785,0-70.821-50.538-45.547-86.917c21.98,0.386,40.929-8.782,54.014-23.251C262.287,271.76,282.686,294.769,282.686,322.439z
	 M253.75,225.499c1.274-17.517-4.052-35.387-15.859-49.725c4.741-25.772,27.379-45.347,54.496-45.347
	c30.552,0,55.41,24.848,55.41,55.4C347.798,234.642,288.714,259.583,253.75,225.499z M361.548,222.988
	c0-33.17,29.156-59.1,62.3-54.978c47.266,5.894,65.73,65.441,29.267,96.93C417.472,295.677,361.548,270.436,361.548,222.988z
	 M282.154,425.084c6.486-19.769,32.714-24.016,45.045-7.061c12.148,16.673,0.332,40.646-20.71,40.646
	C288.964,458.669,276.731,441.413,282.154,425.084z"/>
<circle cx="199.827" cy="323.111" r="8.705"/>
<circle cx="226.643" cy="326.435" r="8.705"/>
<circle cx="224.765" cy="356.415" r="8.705"/>
<circle cx="263.262" cy="324.115" r="8.705"/>
<circle cx="232.8" cy="296.325" r="8.705"/>
<circle cx="155.997" cy="221.149" r="8.705"/>
<circle cx="182.823" cy="224.473" r="8.705"/>
<circle cx="180.945" cy="254.463" r="8.705"/>
<circle cx="219.442" cy="222.153" r="8.705"/>
<circle cx="188.98" cy="194.363" r="8.705"/>
<circle cx="264.939" cy="186.499" r="8.705"/>
<circle cx="291.755" cy="189.823" r="8.705"/>
<circle cx="289.877" cy="219.813" r="8.705"/>
<circle cx="328.374" cy="187.503" r="8.705"/>
<circle cx="297.912" cy="159.722" r="8.705"/>
<circle cx="389.499" cy="223.66" r="8.705"/>
<circle cx="416.325" cy="226.984" r="8.705"/>
<circle cx="414.447" cy="256.974" r="8.705"/>
<circle cx="452.944" cy="224.664" r="8.705"/>
<circle cx="422.482" cy="196.884" r="8.705"/>
<path d="M394.862,322.83c0-24.496-18.249-44.433-40.676-44.433s-40.676,19.936-40.676,44.433c0,24.506,18.249,44.443,40.676,44.443
	C376.613,367.273,394.862,347.338,394.862,322.83z M328.575,322.83c0-16.19,11.49-29.367,25.611-29.367
	c14.121,0,25.611,13.177,25.611,29.367c0,16.2-11.49,29.377-25.611,29.377C340.065,352.208,328.575,339.031,328.575,322.83z"/>
<g>
</g>
<g>
</g>
<g>
</g>
<g>
</g>
<g>
</g>
<g>
</g>
<g>
</g>
<g>
</g>
<g>
</g>
<g>
</g>
<g>
</g>
<g>
</g>
<g>
</g>
<g>
</g>
<g>
</g>
</svg>
