<?xml version="1.0" encoding="iso-8859-1"?>
<!-- Generator: Adobe Illustrator 19.0.0, SVG Export Plug-In . SVG Version: 6.00 Build 0)  -->
<svg version="1.1" id="Capa_1" xmlns="http://www.w3.org/2000/svg" xmlns:xlink="http://www.w3.org/1999/xlink" x="0px" y="0px"
	 viewBox="0 0 512 512" style="enable-background:new 0 0 512 512;" xml:space="preserve">
<path style="fill:#FF9811;" d="M445.608,460.513c-47.769,43.734-106.73,57.084-131.684,29.822L56.468,212.232l26.58-24.211
	L229.829,54.27l257.104,277.711c6.605,7.217,10.168,16.552,10.941,27.192C500.042,388.734,480.739,428.363,445.608,460.513z"/>
<path style="fill:#FFA733;" d="M497.874,359.173c-8.743,19.684-23.488,40.11-43.232,58.178
	c-47.769,43.734-106.73,57.084-131.684,29.822L83.048,188.021L229.829,54.27l13.3,14.364l243.804,263.348
	c3.152,3.443,5.611,7.368,7.398,11.694C496.298,348.403,497.472,353.612,497.874,359.173z"/>
<path style="fill:#EE8700;" d="M481.914,344.669l-38.173,3.051c-3.543,0.301-7.147,0.442-10.77,0.442
	c-50.078,0-106.831-27.774-139.995-64.01c-26.63-29.089-42.309-66.529-44.356-105.917l-4.447-88.703
	c-0.351-7.097,8.351-10.75,13.169-5.541l14.755,15.94L476.825,321.06l10.108,10.921c0.03,0.03,0.06,0.07,0.09,0.1
	C491.229,336.709,488.137,344.167,481.914,344.669z"/>
<g>
	<path style="fill:#CC7400;" d="M238.451,102.32c-1.114,5.119-2.7,10.379-4.748,15.719c-1.034,2.71-2.188,5.44-3.463,8.181
		c-3.182,6.856-7.087,13.792-11.664,20.678c-4.467,6.715-9.576,13.37-15.297,19.864c-0.642,0.733-1.295,1.465-1.967,2.198
		c-3.132,3.453-6.444,6.866-9.927,10.188c-1.144,1.104-2.299,2.188-3.483,3.272c-13.812,12.637-28.557,22.745-43.142,30.053
		c-35.885,17.997-70.806,19.142-88.542-0.241c-16.923-18.489-13.862-50.921,4.778-83.513c8.833-15.458,21.179-30.956,36.547-45.019
		c3.272-3.001,6.605-5.852,9.967-8.552c0.141-0.12,0.281-0.231,0.412-0.341c4.989-3.985,10.048-7.659,15.147-10.991
		c9.837-6.444,19.814-11.664,29.571-15.568c5.651-2.258,11.232-4.075,16.673-5.45c24.913-6.263,46.976-3.041,59.915,11.092
		C239.946,65.602,242.647,82.917,238.451,102.32z"/>
	<path style="fill:#CC7400;" d="M188.152,182.42c-47.779,43.724-106.73,57.074-131.684,29.812
		c-4.095-4.467-7.016-9.757-8.833-15.669c4.547-5.832,7.779-17.837,15.006-20.848c7.277-3.021,21.942,7.859,30.163,3.523
		c7.167-3.774,6.535-21.942,14.173-26.871c6.906-4.447,23.207,3.714,30.324-1.777c6.555-5.059,2.831-22.856,9.425-28.888
		c6.133-5.601,23.548-0.241,29.611-6.755c5.681-6.093-0.853-23.077,4.678-30.033c5.199-6.524,23.227-3.905,28.226-11.232
		c4.708-6.906-4.256-22.745,0.211-30.394c0.231-0.391,0.502-0.773,0.813-1.124c7.568,2.258,14.103,6.143,19.212,11.724
		C254.431,81.141,235.931,138.696,188.152,182.42z"/>
</g>
<path style="fill:#AA6100;" d="M237.036,66.606c-12.627-5.832-29.069-6.233-46.976-1.726c-5.44,1.375-11.021,3.192-16.673,5.45
	c-9.757,3.905-19.734,9.124-29.571,15.568c-5.099,3.332-10.158,7.006-15.147,10.991c-0.13,0.11-0.271,0.221-0.412,0.341
	c-3.363,2.7-6.695,5.551-9.967,8.552c-15.368,14.063-27.714,29.561-36.547,45.019c-14.896,26.048-19.844,51.985-12.597,70.795
	c-4.939-2.279-9.295-5.39-12.928-9.365c-16.923-18.489-13.862-50.921,4.778-83.513c8.833-15.458,21.179-30.956,36.547-45.019
	c3.272-3.001,6.605-5.852,9.967-8.552c0.141-0.12,0.281-0.231,0.412-0.341c4.989-3.985,10.048-7.659,15.147-10.991
	c9.837-6.444,19.814-11.664,29.571-15.568c5.651-2.258,11.232-4.075,16.673-5.45c24.913-6.263,46.976-3.041,59.915,11.092
	C232.629,57.602,235.219,61.878,237.036,66.606z"/>
<path style="fill:#CC7400;" d="M230.672,94.29c-1.114,5.119-2.7,10.379-4.748,15.719c-1.034,2.71-2.188,5.44-3.463,8.181
	c-3.182,6.856-7.087,13.792-11.664,20.678c-4.467,6.715-9.576,13.37-15.297,19.864c-0.642,0.733-1.295,1.465-1.967,2.198
	c-3.132,3.453-6.444,6.866-9.927,10.188c-1.144,1.104-2.299,2.188-3.483,3.272c-13.812,12.637-28.557,22.745-43.142,30.053
	l-75.734-75.724c8.833-15.458,21.179-30.956,36.547-45.019c0.642-0.582,1.285-1.164,1.927-1.737c2.65-2.369,5.33-4.637,8.03-6.816
	c1.696-1.365,3.393-2.69,5.099-3.965c4.557-3.433,9.174-6.605,13.802-9.496c5.501-3.443,11.021-6.484,16.512-9.144
	c3.553-1.716,7.107-3.272,10.62-4.647c5.701-2.228,11.312-4.025,16.793-5.34L230.672,94.29z"/>
<path style="fill:#781900;" d="M193.532,160.93c-3.132,3.453-6.444,6.866-9.927,10.188c-1.144,1.104-2.299,2.188-3.483,3.272
	c-6.344,5.812-12.888,11.082-19.523,15.789c-7.809,5.551-15.739,10.319-23.619,14.264l-75.734-75.724l-8.03-8.03L24.278,91.75
	c-13.752-13.762-13.752-36.276,0-50.038c6.123-6.123,13.962-9.516,22.003-10.188c1.004-0.09,2.008-0.13,3.011-0.13
	c9.074,0,18.148,3.433,25.024,10.319l25.415,25.405l0.341,0.341l7.679,7.689l5.029,5.029l10.489,10.489l52.146,52.146l15.839,15.839
	L193.532,160.93z"/>
<path style="fill:#891C00;" d="M193.532,160.93c-3.132,3.453-6.444,6.866-9.927,10.188c-1.144,1.104-2.299,2.188-3.483,3.272
	c-6.344,5.812-12.888,11.082-19.523,15.789l-74.67-74.66L48.96,78.551c-12.788-12.798-13.681-33.164-2.68-47.026
	c1.004-0.09,2.008-0.13,3.011-0.13c9.074,0,18.148,3.433,25.024,10.319l25.415,25.405l0.341,0.341l7.679,7.689l5.029,5.029
	l10.489,10.489l52.146,52.146l15.839,15.839L193.532,160.93z"/>
<path style="fill:#C70024;" d="M230.672,94.29c-1.114,5.119-2.7,10.379-4.748,15.719c-1.034,2.71-2.188,5.44-3.463,8.181
	c-3.182,6.856-7.087,13.792-11.664,20.678c-4.467,6.715-9.576,13.37-15.297,19.864c-0.642,0.733-1.295,1.465-1.967,2.198
	c-3.132,3.453-6.444,6.866-9.927,10.188c-17.857-1.987-35.332-9.034-50.088-21.41c-21.039-17.646-32.472-42.409-33.797-67.744
	c-0.251-4.828-0.141-9.676,0.351-14.504c0.02-0.231,0.05-0.452,0.07-0.683c1.977-18.469,9.395-36.527,22.424-51.654
	c1.325-1.536,2.7-3.031,4.105-4.467c1.767-1.807,4.647-1.897,6.575-0.251l28.286,24.361l9.044,7.789L230.672,94.29z"/>
<path style="fill:#FF3F62;" d="M225.924,110.009c-1.034,2.71-2.188,5.44-3.463,8.181c-3.182,6.856-7.087,13.792-11.664,20.678
	c-4.467,6.715-9.576,13.37-15.297,19.865c-0.512,0.01-1.034,0.01-1.546,0c-0.903-0.01-1.807-0.04-2.7-0.08
	c-42.248-1.957-76.507-36.226-78.474-78.474c-0.04-0.893-0.07-1.787-0.08-2.69c-0.03-2.118,0.02-4.226,0.151-6.304
	c0.331-5.29,1.154-10.429,2.439-15.398c1.957-7.639,4.989-14.846,8.913-21.46c2.429-4.095,7.94-5.049,11.553-1.947l9.104,7.839
	l8.923,7.679L225.924,110.009z"/>
<path style="fill:#A5001E;" d="M222.461,118.189c-3.182,6.856-7.087,13.792-11.664,20.678c-7.849,3.202-16.512,4.928-25.606,4.808
	c-3.322-0.04-6.585-0.331-9.777-0.863c-27.132-4.467-48.552-25.737-52.146-52.146c-0.321-2.309-0.502-4.647-0.532-7.026
	c-0.11-7.729,1.285-15.127,3.915-21.952c1.325-3.473,2.981-6.806,4.928-9.947c1.867-3.031,6.103-3.734,8.873-1.435l2.71,2.238
	L222.461,118.189z"/>
<g>
	<circle style="fill:#FF3F62;" cx="149.42" cy="78.28" r="4.768"/>
	<circle style="fill:#FF3F62;" cx="142.143" cy="96.853" r="4.768"/>
	<circle style="fill:#FF3F62;" cx="160.712" cy="100.869" r="4.768"/>
</g>
<path style="fill:#4E901E;" d="M188.152,182.42c-39.498,36.146-86.625,51.533-115.875,40.381
	c-6.133-2.339-11.483-5.842-15.809-10.57c-1.365-1.486-2.6-3.072-3.704-4.738c-3.614-5.43-3.824-12.437-0.833-18.228
	c2.841-5.521,5.882-11.543,10.71-13.551c7.277-3.021,21.942,7.859,30.163,3.523c7.167-3.774,6.535-21.942,14.173-26.871
	c6.906-4.447,23.207,3.714,30.324-1.777c6.555-5.059,2.831-22.856,9.425-28.888c6.133-5.601,23.548-0.241,29.611-6.755
	c5.681-6.093-0.853-23.077,4.678-30.033c5.199-6.524,23.227-3.905,28.226-11.232c4.708-6.906-4.256-22.745,0.211-30.394
	c0,0,0-0.01,0.01-0.01c0.402-0.693,1.265-0.984,2.028-0.733c7.046,2.309,13.159,6.063,17.987,11.343
	c3.252,3.553,5.772,7.619,7.578,12.105C249.111,95.916,229.698,144.398,188.152,182.42z"/>
<path style="fill:#5EAC24;" d="M188.152,182.42c-39.498,36.146-86.625,51.533-115.875,40.381c-0.602-3.804,0.03-7.799,1.857-11.332
	c2.841-5.521,5.882-11.533,10.71-13.551c7.277-3.021,21.942,7.859,30.163,3.523c7.167-3.774,6.535-21.942,14.173-26.871
	c6.906-4.447,23.207,3.714,30.324-1.777c6.555-5.059,2.831-22.856,9.425-28.888c6.133-5.601,23.548-0.241,29.611-6.755
	c5.681-6.093-0.853-23.077,4.678-30.033c5.199-6.524,23.227-3.905,28.226-11.232c4.708-6.906-4.256-22.745,0.211-30.394l0.01-0.01
	c0.401-0.693,1.275-0.974,2.028-0.733c1.144,0.371,2.269,0.793,3.363,1.245C249.111,95.916,229.698,144.398,188.152,182.42z"/>
<path style="fill:#FF9811;" d="M476.825,321.06l-6.986,0.562c-3.543,0.301-7.147,0.442-10.77,0.442
	c-50.078,0-106.831-27.774-139.995-64.01c-26.63-29.089-42.309-66.529-44.356-105.917l-2.62-52.206L476.825,321.06z"/>
<path d="M238.409,126.918c2.559,49.127,0.994,76.751,17.708,114.433c19.824,44.689,55.756,76.697,100.758,96.783
	c0.994,0.442,2.038,0.652,3.061,0.652c2.881,0,5.631-1.656,6.886-4.457c1.686-3.794-0.01-8.251-3.804-9.947
	c-66.755-29.788-103.67-84.632-106.881-146.54c-0.548-10.539-3.815-73.322-4.634-89.08
	C404.876,253.024,396.74,248.889,403.038,248.889c6.514,0,9.985-7.821,5.523-12.642c-0.526-0.568-172.856-186.708-173.533-187.447
	c-15.436-16.902-39.816-19.103-62.394-14.404L134.802,1.823c-2.901-2.499-7.217-2.419-10.028,0.181
	c-14.002,12.987-24.599,30.184-29.591,49.917L79.645,36.383C53.114,9.884,6.431,28.02,6.431,66.726
	c0,11.493,4.447,22.263,12.527,30.344l32.994,32.994c-14.73,28-22.101,64.184-1.034,87.257c0.006,0.007,0.013,0.013,0.019,0.019
	c0.001,0.002,0.003,0.003,0.004,0.005c140.286,150.134,133.076,146.985,139.368,146.985c6.514,0,9.985-7.821,5.523-12.642
	L86.508,233.601C143.868,238.654,213.76,182.778,238.409,126.918z M200.679,47.806c-0.262,3.577,0.597,8.335,1.255,11.814
	l-14.163-12.186C191.957,47.15,196.408,47.221,200.679,47.806z M29.738,86.552c-0.037-0.037-0.065-0.065-0.082-0.082
	c-0.019-0.019-0.028-0.028-0.03-0.03c-0.006-0.006-0.011-0.011-0.018-0.018c-5.24-5.23-8.12-12.226-8.12-19.694
	c0-24.881,30.151-37.051,47.508-19.694l23.287,23.287c-0.952,13.934,1.023,28.669,6.344,42.801c1.465,3.895,5.802,5.852,9.696,4.396
	c3.895-1.465,5.862-5.802,4.396-9.696c-11.944-31.834-4.162-66.711,17.556-90.028c69.286,59.663,31.708,27.3,63.247,54.454
	c-6.855,1.249-14.104,2.591-18.399,7.98c-7.426,9.335-1.943,24.822-4.346,29.631c-3.489,2.769-20.913-1.238-29.129,6.284
	c-6.527,5.907-6.479,16.232-7.719,23.819c-2.68-2.57-5.199-5.32-7.518-8.191c-2.61-3.232-7.348-3.734-10.59-1.124
	c-3.232,2.61-3.744,7.348-1.124,10.58c0.652,0.813,1.325,1.616,2.008,2.409c-9.268-0.841-15.695,1.279-20.186,9.706
	C38.996,95.811,30.7,87.512,29.738,86.552z M63.083,141.196l26.95,26.95c0.553,0.553,0.713,1.384,0.423,2.111
	c-0.006,0.015-0.012,0.029-0.018,0.044c-0.676,1.678-2.445,2.627-4.228,2.32c-5.139-0.888-13.731-4.965-20.517-4.965
	c-4.44,0-8.496,1.6-12.407,5.661C54.391,163.118,57.753,152.227,63.083,141.196z M61.989,207.118
	c-0.701-0.918-3.681-3.841-6.003-9.551c2.977-5.013,6.432-13.413,9.435-14.846c1.458-0.292,7.101,1.595,8.522,2.058
	c25.751,8.308,28.11-1.998,34.088-19.935c2.236-6.758,2.812-6.334,5.059-6.334c8.563,0,27.024,6.916,33.616-8.381
	c3.035-7.04,2.904-20.831,5.039-22.826c1.245-0.853,6.314-1.004,9.345-1.094c22.089-0.604,25.838-7.73,25.164-26.339
	c-0.102-2.346-0.434-8.147,0.602-10.218c4.362-4.165,31.317-0.19,31.317-21.651c0-5.098-1.403-10.273-2.158-15.277
	c12.309,6.915,17.57,20.306,17.034,33.696c-0.609,57.331-78.657,132.427-139.674,132.427
	C70.625,218.847,62.523,207.403,61.989,207.118z"/>
<path d="M492.457,326.868l-63.439-68.524c-2.826-3.051-7.59-3.237-10.639-0.411c-3.051,2.825-3.235,7.588-0.411,10.639L481.321,337
	c-26.371,0.524-48.596,9.343-91.05-2.679c-3.995-1.144-8.161,1.194-9.295,5.189c-1.134,4.005,1.194,8.161,5.189,9.295
	c46.831,13.244,71.774,3.337,102.862,2.648c0.983,3.752,1.486,7.852,1.486,12.298c0,36.859-30.825,76.564-60.372,100.089
	c-5.584,4.447-2.387,13.417,4.695,13.417c1.644,0,3.298-0.535,4.685-1.639c3.793-3.021,7.553-6.233,11.173-9.548
	c33.85-30.98,54.878-70.188,54.878-102.321C505.569,348.994,501.045,336.25,492.457,326.868z"/>
<path d="M406.217,480.047c-26.321,14.876-67.118,26.636-86.765,5.171L216.288,373.785c-2.826-3.051-7.589-3.236-10.639-0.411
	c-3.051,2.825-3.235,7.588-0.411,10.639l103.135,111.403C318.304,506.267,332.987,512,350.839,512
	c19.261,0,40.973-6.516,62.786-18.845c3.619-2.046,4.895-6.638,2.85-10.258C414.429,479.277,409.837,478,406.217,480.047z"/>
<g>
</g>
<g>
</g>
<g>
</g>
<g>
</g>
<g>
</g>
<g>
</g>
<g>
</g>
<g>
</g>
<g>
</g>
<g>
</g>
<g>
</g>
<g>
</g>
<g>
</g>
<g>
</g>
<g>
</g>
</svg>
