<?xml version="1.0" encoding="iso-8859-1"?>
<!-- Generator: Adobe Illustrator 19.0.0, SVG Export Plug-In . SVG Version: 6.00 Build 0)  -->
<svg version="1.1" id="Capa_1" xmlns="http://www.w3.org/2000/svg" xmlns:xlink="http://www.w3.org/1999/xlink" x="0px" y="0px"
	 viewBox="0 0 512 512" style="enable-background:new 0 0 512 512;" xml:space="preserve">
<g>
	<path style="fill:#781900;" d="M472.317,354.305l-1.179,1.008c-2.369,1.898-5.243,3.292-8.535,3.957
		c-25.426,5.126-50.196,9.008-74.131,11.87c-135.436,16.149-244.193-0.644-294.517-11.313
		c-14.369-3.045-20.621-20.042-11.678-31.688l168.689-219.818c13.962-18.198,41.392-18.198,55.364,0l153.29,199.754l14.927,19.441
		C481.165,336.139,479.438,347.635,472.317,354.305z"/>
	<path style="fill:#781900;" d="M382.145,257.002H74.764L175.54,111.223c15.192-19.283,40.19-25.47,61.608-18.13
		c8.563,2.948,16.555,8.042,23.123,15.342L382.145,257.002z"/>
</g>
<path style="fill:#891C00;" d="M382.145,257.002H110.863l100.776-145.779c6.899-8.754,15.823-14.821,25.51-18.13
	c8.563,2.948,16.555,8.042,23.123,15.342L382.145,257.002z"/>
<path style="fill:#4E901E;" d="M201.06,197.098L71.816,370.061c-7.641-0.892-28.317-10.699-44.171-21.178
	c-11.171-7.38-19.945-15.091-20.115-20.255c-0.411-12.464,22.181-15.783,25.66-26.954c3.459-11.09-11.06-34.885-5.545-44.181
	c6.057-10.218,30.844-3.068,37.142-10.479c12.304-14.47-6.147-30.774,6.418-40.942c9.717-7.892,30.513-1.454,39.398-7.23
	c10.769-6.999,10.93-26.653,20.456-30.985c6.016-2.727,20.466,4.713,34.845,12.785C180.905,189.056,195.835,198.151,201.06,197.098z
	"/>
<path style="fill:#5EAC24;" d="M201.06,197.098L71.816,370.061c-7.641-0.892-28.317-10.699-44.171-21.178
	C29.079,337,51.41,333.32,54.98,322.019c3.69-11.692-11.812-36.781-5.926-46.587c6.468-10.769,32.93-3.229,39.648-11.04
	c13.136-15.262-6.568-32.449,6.849-43.168c10.378-8.323,32.569-1.544,42.045-7.631c11.501-7.38,11.662-28.107,21.84-32.669
	c1.624-0.732,3.83-0.772,6.468-0.281C180.905,189.056,195.835,198.151,201.06,197.098z"/>
<path style="fill:#FF9811;" d="M500.338,306.189l-14.927-19.441L332.12,86.993c-13.972-18.198-36.727-14.605-55.364,0
	l-14.673,11.852c14.466-7.796,33.406-4.643,44.248,9.477l147.132,191.729c3.469,4.521,2.853,10.955-1.412,14.735L400,360.923
	c-4.714,4.177-11.981,3.482-15.816-1.515L237.166,167.832c-13.967-18.201-41.397-18.201-55.364,0L13.11,387.654
	c-8.934,11.642-2.685,28.637,11.67,31.683c59.212,12.561,199.36,33.586,368.658-0.56c0,0,12.137-2.041,29.295-16.517l47.719-43.966
	l26.476-24.309l1.179-1.008C505.227,326.306,506.954,314.811,500.338,306.189z"/>
<path style="fill:#EE8700;" d="M416.96,406.821c-14.048,10.368-23.524,11.953-23.524,11.953
	C224.143,452.917,83.99,431.9,24.778,419.336c-14.349-3.048-20.606-20.035-11.672-31.687l168.701-219.821
	c10.088-13.146,27.204-16.796,41.203-10.94L58.229,371.605c-8.934,11.652-2.677,28.638,11.672,31.687
	C126.576,415.315,257.404,435.089,416.96,406.821z"/>
<path style="fill:#C70024;" d="M435.491,276.635c-4.492,34.354-22.732,64.637-49.225,84.842c-0.772-0.572-1.474-1.263-2.086-2.066
	l-10.388-13.537l-12.685-16.535L255.328,191.503l-12.685-16.535l-5.475-7.14c-2.346-3.058-5.084-5.605-8.062-7.641
	c20.396-16.355,45.986-26.613,74.113-27.856c7.561-0.331,14.991-0.01,22.251,0.943c23.213,2.998,44.572,12.284,62.23,26.152
	c16.766,13.156,30.203,30.453,38.696,50.428c5.836,13.687,9.356,28.628,10.057,44.371
	C436.794,261.845,436.453,269.335,435.491,276.635z"/>
<path style="fill:#FF3F62;" d="M373.792,345.875l-12.685-16.535L255.328,191.503l-12.685-16.535
	c17.037-13.316,38.225-21.639,61.468-22.672c14.209-0.632,27.896,1.514,40.541,5.966c39.177,13.798,68.287,49.706,71.626,93.345
	c0.1,1.163,0.17,2.336,0.221,3.51C418.133,291.907,401.107,325.218,373.792,345.875z"/>
<path style="fill:#A5001E;" d="M361.107,329.339L255.328,191.503c4.071-3.199,8.453-6.047,13.076-8.483
	c3.078-1.624,6.869-0.02,7.781,3.339l12.043,44.492c0.943,3.49,4.302,4.923,7.521,3.289c3.59-1.815,7.521-2.938,11.572-3.259
	c3.52-0.291,5.645-3.269,4.723-6.678l-11.983-44.281c-0.13-0.471-0.191-0.953-0.191-1.414c0-2.808,2.206-5.254,5.164-5.395
	c47.931-2.126,88.512,34.996,90.638,82.927C396.995,285.78,383.208,312.684,361.107,329.339z"/>
<g>
	<circle style="fill:#FF3F62;" cx="336.35" cy="213.373" r="8.356"/>
	<circle style="fill:#FF3F62;" cx="336.711" cy="251.999" r="8.356"/>
	<circle style="fill:#FF3F62;" cx="370.032" cy="271.893" r="8.356"/>
</g>
<path d="M432.975,206.072c0.001,0.001,0.002,0.002,0.002,0.003C432.977,206.074,432.976,206.073,432.975,206.072z"/>
<path d="M503.247,338.463c-0.001,0-0.001,0.001-0.001,0.001C503.242,338.468,503.249,338.461,503.247,338.463z"/>
<path d="M512,318.269c0-6.047-1.965-11.802-5.696-16.656c-64.729-84.337-72.58-94.566-73.327-95.538
	c0.01,0.014,0.01,0.013-0.013-0.017c0.004,0.005,0.008,0.01,0.011,0.014c-0.032-0.041-0.051-0.067-0.061-0.079v0.001l-0.001-0.002
	c-0.01-0.013-0.008-0.01,0,0c-8.754-20.195-22.492-38.094-39.809-51.872l-55.02-71.706c-7.671-9.997-18.16-15.282-30.313-15.282
	c-24.5,0-42.751,20.694-49.806,25.369c-0.892,0.491-1.765,1.023-2.617,1.584c-24.181-17.035-56.648-14.769-78.124,4.402
	c-3.098,2.768-3.369,7.521-0.602,10.619c2.768,3.098,7.521,3.369,10.619,0.602c8.734-7.791,20.045-12.083,31.847-12.083h0.01
	c14.155,0,26.647,5.943,35.477,15.723c10.262,12.51,13.262,16.167,14.016,17.086c0.008,0.01,0.019,0.023,0.027,0.032
	c0.009,0.011,0.021,0.026,0.035,0.043c-0.011-0.013-0.017-0.021-0.026-0.031c0.107,0.13,0.16,0.196,0.179,0.22
	c0.003,0.003,0.004,0.005,0.007,0.009c-14.409,4.442-27.987,11.321-40.29,20.436c-4.58-2.496-11.785-4.482-19.042-4.482
	c-27.018,0-37.034,22.543-41.343,26.633c-7.45-4.141-13.928-7.521-19.553-9.857l21.599-31.245c2.366-3.419,1.504-8.102-1.905-10.459
	c-3.419-2.366-8.102-1.514-10.469,1.905l-25.018,36.189c-1.735,0.12-3.349,0.511-4.833,1.183
	c-8.644,3.917-10.503,14.55-12.564,23.996c-3.255,14.724-5.157,14.251-9.656,13.968c-11.804-0.81-28.769-7.272-39.257,1.253
	c-16.766,13.557,1.29,31.466-7.33,41.814c-5.307,3.571-29.733-2.272-37.974,11.612c-7.84,13.193,7.41,37.543,4.833,45.785
	c-2.135,6.888-26.572,11.87-26.001,29.44c0.1,3.299,0.381,11.832,26.873,28.468l-19.744,25.73
	c-3.72,4.853-5.696,10.629-5.696,16.676c0,13.146,8.954,24.226,21.79,26.944c18.631,3.951,38.586,7.35,59.332,10.108
	c0.331,0.05,0.662,0.07,0.993,0.07c3.72,0,6.949-2.758,7.45-6.538c0.541-4.111-2.346-7.892-6.468-8.443
	c-20.356-2.707-39.939-6.036-58.189-9.907c-6.779-1.444-9.867-7.35-9.867-12.233c0-2.707,0.892-5.315,2.587-7.521
	c8.236-10.731,159.087-207.308,168.701-219.821c2.968-3.871,6.809-6.799,11.14-8.604c10.6-4.46,24.062-1.983,32.288,8.593
	c22.778,29.693,44.197,57.6,154.111,200.829c2.668,3.467,7.7,3.947,10.95,1.053c0.149-0.132,22.705-20.124,68.347-60.576
	c2.958-2.617,3.379-7.079,0.973-10.208l-22.261-29.009c1.093-10.064,1.035-20.32-0.15-30.423c-0.002-0.003-0.005-0.006-0.007-0.009
	c0.002,0.003,0.003,0.005,0.007,0.009l0,0c0.002,0.002,0.003,0.003,0.004,0.005c0.017,0.022,0.048,0.063,0.095,0.123
	c-0.002-0.003-0.005-0.006-0.007-0.009c0.006,0.008,0.01,0.013,0.014,0.018c0.913,1.189,7.951,10.357,51.095,66.565
	c4.039,5.257,3.146,12.339-1.294,16.615c-1.553,1.328,4.966-4.661-75.316,69.229c-14.981,12.604-25.55,14.74-25.57,14.75
	c-0.08,0.01-0.16,0.02-0.241,0.04c-93.23,18.806-188.225,22.766-277.78,13.918c-4.121-0.401-7.811,2.607-8.222,6.748
	c-0.401,4.131,2.617,7.811,6.748,8.223c93.741,9.239,190.019,4.455,282.141-14.129c2.076-0.381,15.071-3.249,32.74-18.16
	c0.09-0.07,0.17-0.14,0.251-0.211c73.275-67.433,75.389-69.31,75.418-69.332C508.811,333.249,512,325.89,512,318.269z
	 M36.089,345.353c-13.657-8.463-20.045-14.841-21.038-17.227c0.654-5.767,21.124-10.769,25.319-24.206
	c2.326-7.45-0.321-16.385-3.129-25.851c-1.494-5.044-4.282-14.45-3.129-16.746c2.839-4.77,27.821,0.643,36.41-9.436
	c2.667-3.139,4.292-6.347,5.204-9.496l0.01-0.01v-0.01c3.964-13.649-5.16-26.109,0.211-30.453c4.92-4.006,27.042,4.75,38.325,1.153
	h0.01c16.857-5.369,15.088-33.22,19.854-38.285c4.797-0.378,20.526,8.26,24.738,10.569
	C158.787,185.469,36.558,344.743,36.089,345.353z M432.942,206.028c-0.005-0.006-0.01-0.013-0.015-0.02
	C432.931,206.015,432.936,206.022,432.942,206.028z M267,104.785c11.137-5.203,25.156-2.587,33.361,8.112l9.055,11.792
	c-8.006-0.037-16.319,0.665-24.377,2.086L267,104.785z M266.037,193.107c1.173-0.762,2.376-1.494,3.59-2.186l2.868,10.589
	L266.037,193.107z M387.229,351.009c-6.118-7.968-13.019-16.954-15.723-20.476c13.495-11.991,23.557-27.893,28.458-45.735
	c1.837-6.739-5.74-12.1-11.471-8.202c-1.434,0.963-2.547,2.437-3.038,4.242c-3.951,14.45-12.053,27.605-23.133,37.733
	l-19.854-25.871l-40.661-52.995c1.975-0.712,4.021-1.163,6.137-1.334c8.397-0.688,13.495-8.333,11.361-16.134l-11.281-41.684
	c38.514-1.243,76.563,29.753,79.969,73.05c0.29,3.653,3.173,6.528,6.738,6.889c4.549,0.517,8.631-3.339,8.253-8.072
	c-3.982-50.656-47.677-89.264-98.309-86.817c-8.247,0.388-14.036,8.303-11.872,16.285l11.311,41.794
	c-3.199,0.471-6.317,1.354-9.325,2.617l-11.341-41.915c-2.139-7.865-11.092-11.931-18.551-8.022
	c-2.747,1.454-5.445,3.048-8.042,4.773l-15.833-20.436c26.782-18.398,59.046-24.514,89.234-19.082
	c3.349,0.612,6.578-1.113,8.032-4.001c2.271-4.404-0.352-9.901-5.375-10.8c-1.103-0.201-2.216-0.391-3.339-0.562
	c-17.086-21.418-21.737-33.369-41.333-38.024c13.51-7.948,28.238-9.277,37.914,3.339l33.682,43.9
	c-7.843,0.461-9.767,11.222-2.577,14.389c26.894,11.842,49.868,33.885,62.22,62.942c0.12,0.281,0.231,0.552,0.351,0.832
	C439.97,261.864,426.364,317.257,387.229,351.009z M449.389,307.099l-23.956,21.228c6.247-10.599,11.04-22.03,14.209-33.933
	L449.389,307.099z M443.161,244.052C443.155,244.045,443.155,244.044,443.161,244.052L443.161,244.052z M443.286,244.216
	c0.003,0.004,0.004,0.006,0.006,0.008C443.29,244.222,443.288,244.219,443.286,244.216z"/>
<path d="M443.172,244.066L443.172,244.066c0.022,0.029,0.062,0.08,0.091,0.119c-0.019-0.025-0.048-0.063-0.087-0.114
	C443.175,244.07,443.173,244.068,443.172,244.066z"/>
<polygon points="432.915,205.993 432.914,205.992 432.914,205.992 "/>
<path d="M268.809,130.7l-0.002-0.002c-0.026-0.031-0.045-0.055-0.066-0.081C268.772,130.654,268.797,130.685,268.809,130.7z"/>
<g>
</g>
<g>
</g>
<g>
</g>
<g>
</g>
<g>
</g>
<g>
</g>
<g>
</g>
<g>
</g>
<g>
</g>
<g>
</g>
<g>
</g>
<g>
</g>
<g>
</g>
<g>
</g>
<g>
</g>
</svg>
