<?xml version="1.0" encoding="iso-8859-1"?>
<!-- Generator: Adobe Illustrator 19.0.0, SVG Export Plug-In . SVG Version: 6.00 Build 0)  -->
<svg version="1.1" id="Capa_1" xmlns="http://www.w3.org/2000/svg" xmlns:xlink="http://www.w3.org/1999/xlink" x="0px" y="0px"
	 viewBox="0 0 511.998 511.998" style="enable-background:new 0 0 511.998 511.998;" xml:space="preserve">
<path style="fill:#EE8700;" d="M445.769,337.703v22.392c0,79.736-64.638,144.384-144.384,144.384h-92.698
	c-79.746,0-144.384-64.648-144.384-144.384v-22.392H445.769z"/>
<path style="fill:#FF9811;" d="M445.769,337.703v22.392c0,79.736-64.638,144.384-144.384,144.384h-56.582
	c-79.746,0-144.384-64.648-144.384-144.384v-22.392H445.769z"/>
<path style="fill:#781900;" d="M64.046,298.249v53.031c0,35.646,85.509,64.542,190.99,64.542s190.99-28.897,190.99-64.542v-52.67
	L64.046,298.249z"/>
<path style="fill:#891C00;" d="M446.029,297.885c0,33.588-75.924,61.177-172.936,64.247c-5.949,0.191-11.968,0.291-18.058,0.291
	c-105.479,0-190.984-28.893-190.984-64.538s85.505-64.548,190.984-64.548c6.09,0,12.109,0.1,18.058,0.291
	C370.105,236.698,446.029,264.297,446.029,297.885z"/>
<path style="fill:#AB2300;" d="M446.029,297.885c0,33.588-75.924,61.177-172.936,64.247c-97.012-3.07-172.926-30.659-172.926-64.247
	s75.914-61.187,172.926-64.257C370.105,236.698,446.029,264.297,446.029,297.885z"/>
<path style="fill:#EEBF00;" d="M383.609,307.385l-104.188,91.762c-6.806,5.994-15.73,9.217-24.768,8.457
	c-0.486-0.041-0.97-0.091-1.453-0.151c-5.936-0.74-11.513-3.25-16.217-6.945l-124.817-98.018
	c14.336,5.468,31.381,10.092,50.422,13.664c27.398,5.137,58.909,8.056,92.447,8.056c32.504,0,63.123-2.749,89.909-7.594
	C358.97,314.087,371.951,310.977,383.609,307.385z"/>
<path style="fill:#FFCD00;" d="M344.944,316.615l-70.015,61.668c-10.353,5.438-23.104,5.377-33.407-0.15l-78.934-61.979
	c27.398,5.137,58.909,8.056,92.447,8.056C287.54,324.209,318.158,321.46,344.944,316.615z"/>
<path style="fill:#830018;" d="M64.046,237.773v25.401c0,35.646,85.509,64.542,190.99,64.542s190.99-28.897,190.99-64.542v-25.817
	L64.046,237.773z"/>
<path style="fill:#A5001E;" d="M446.029,236.527c0,33.588-75.924,61.177-172.936,64.247c-5.949,0.191-11.968,0.291-18.058,0.291
	c-71.761,0-134.272-13.373-166.907-33.147c-15.339-9.29-24.077-19.994-24.077-31.391c0-11.397,8.738-22.101,24.077-31.391
	c32.635-19.784,95.146-33.157,166.907-33.157c6.09,0,12.109,0.1,18.058,0.291C370.105,175.341,446.029,202.939,446.029,236.527z"/>
<path style="fill:#C70024;" d="M446.029,236.527c0,33.588-75.924,61.177-172.936,64.247c-97.012-3.07-172.926-30.659-172.926-64.247
	s75.914-61.187,172.926-64.257C370.105,175.341,446.029,202.939,446.029,236.527z"/>
<path style="fill:#4E901E;" d="M453.664,225.05c-11.336,10.825-40.009-2.338-54.505,4.635c-14.396,6.932-20.476,37.3-35.504,41.253
	c-16.503,4.344-37.771-19.202-51.897-17.396c-27.589,3.531-22.131,30.348-45.958,30.057c-18.449-0.201-33.979-27.91-49.479-29.304
	c-18.79-1.695-39.447,22.382-54.315,19.302c-19.152-3.973-27.448-34.571-40.962-40.059c-19.402-7.885-47.332,5.779-57.555-3.03
	c-14.637-12.601-8.467-19.001-1.234-27.177c4.254-4.815,8.869-10.243,9.832-17.918c0.14,0.01,0.291,0.01,0.441,0.01
	c0,0,189.89,76.877,365.013,0c2.669-1.174,5.317-2.348,7.484-3.852c3.521,5.126,6.722,11.106,8.989,17.045
	C458.088,209.27,459.162,219.804,453.664,225.05z"/>
<path style="fill:#5EAC24;" d="M454.015,198.616c-0.11,0.12-0.231,0.241-0.351,0.351c-11.336,10.825-40.009-2.338-54.505,4.635
	c-14.396,6.932-20.476,37.3-35.504,41.253c-16.503,4.344-37.771-19.202-51.897-17.396c-27.589,3.531-22.131,30.348-45.958,30.057
	c-18.449-0.201-33.979-27.91-49.479-29.304c-18.79-1.695-39.447,22.382-54.315,19.302c-19.152-3.973-27.448-34.571-40.962-40.059
	c-19.402-7.885-47.332,5.779-57.555-3.03c-0.431-0.371-0.843-0.732-1.234-1.094c4.254-4.815,8.869-10.243,9.832-17.918
	c0.14,0.01,0.291,0.01,0.441,0.01c0,0,189.89,76.877,365.013,0c2.669-1.174,5.317-2.348,7.484-3.852
	C448.547,186.697,451.748,192.676,454.015,198.616z"/>
<path style="fill:#FF9811;" d="M450.133,186.878c0,0.451-0.03,0.893-0.08,1.314c-0.742,5.999-6.591,8.678-12.51,11.276
	c-175.123,76.877-365.013,0-365.013,0c-3.192-1.028-6.601-1.415-8.889-3.692c-2.277-2.287-3.692-5.427-3.692-8.899
	c0-74.289,45.777-138.415,110.515-165.532c21.228-8.909,44.493-13.824,68.841-13.824h31.461c49.319,0,94.163,20.175,126.677,52.689
	C429.958,92.715,450.133,137.559,450.133,186.878z"/>
<path style="fill:#FFA733;" d="M450.133,186.878c0,0.451-0.03,0.893-0.08,1.314c-167.84,60.073-340.404-9.791-340.404-9.791
	c-3.632-1.154-6.14-1.906-8.889-3.692c-2.707-1.759-3.692-5.427-3.692-8.899c0-59.09,28.963-111.749,73.396-144.464
	c21.228-8.909,44.493-13.824,68.841-13.824h31.461c49.319,0,94.163,20.175,126.677,52.689
	C429.958,92.715,450.133,137.559,450.133,186.878z"/>
<path d="M464.96,214.366c0-11.858-6.006-22.998-7.345-26.316c0.023-0.382,0.036-0.77,0.036-1.168
	c0-49.721-19.494-96.596-54.89-131.991C367.366,19.494,320.49,0,270.77,0h-31.468c-36.537,0-71.994,10.665-102.539,30.843
	c-3.467,2.29-4.421,6.958-2.131,10.426c2.29,3.467,6.959,4.422,10.426,2.131c28.076-18.548,60.665-28.351,94.244-28.351h31.468
	c88.003,0,160.755,66.504,170.67,151.891c0.286,2.454,1.985,19.739,0.571,21.401c-0.276,0.323-0.624,0.615-0.968,0.865
	c0,0.001,0.001,0.002,0.002,0.003c-3.828,2.821-35.974,16.912-74.617,25.812c-8.674,1.997-7.231,14.859,1.682,14.859
	c8.641,0,65.69-18.693,79.485-27.01l0,0c1.546,4.401,3.857,13.893,0.873,16.734c-3.965,3.775-16.333,2.115-22.322,1.495
	c-4.123-0.441-7.835,2.548-8.277,6.681c-0.441,4.133,2.558,7.835,6.692,8.277c4.334,0.461,9.26,0.983,13.935,0.983
	c-1.137,32.239-103.963,63.796-223.418,55.067c-4.133-0.301-7.755,2.809-8.056,6.962c-0.301,4.143,2.809,7.745,6.962,8.046
	c63.982,4.693,179.259-2.215,224.326-41.654c-1.572,10.141-13.098,18.535-22.016,23.716c-3.592,2.077-4.826,6.681-2.749,10.273
	c2.096,3.608,6.675,4.828,10.283,2.749c24.569-14.206,29.726-29.063,29.726-39.025c-0.099-28.048,0.197-27.262-0.271-28.883
	C461.261,230.544,464.96,223.322,464.96,214.366z"/>
<path d="M316.407,356.535c-3.982,3.508-13.931,12.272-14.364,12.655C302.301,368.962,306.055,365.655,316.407,356.535z"/>
<path d="M446.029,290.07h-0.08c-4.153,0.04-7.494,3.441-7.444,7.594v0.221c0,17.928-33.297,37.21-87.381,48.125l30.123-26.547
	c4.788-1.389,9.416-2.863,13.859-4.422c3.923-1.374,5.989-5.668,4.605-9.591c-1.374-3.923-5.668-5.979-9.591-4.605
	C274.92,341.281,78.957,313.038,71.756,265.396c25.922,22.619,77.465,33.957,111.468,38.548c4.444,0.522,7.932-2.573,8.457-6.451
	c0.562-4.123-2.327-7.905-6.451-8.467c-33.367-4.504-61.839-12.049-82.515-21.85h-0.01c-10.983-5.1-26.878-14.603-30.418-26.124
	c15.848,0.879,39.999-7.79,49.951,2.518c9.662,10.012,21.102,37.822,42.517,37.822c17.376,0,36.622-21.032,50.894-19.603
	c11.551,1.043,28.524,29.095,50.041,29.334h0.492c15.389,0,21.91-9.159,27.157-16.523c4.856-6.832,8.698-12.229,19.372-13.594
	c10.057-1.511,32.63,22.452,52.86,17.215c18.018-4.753,24.353-32.532,35.113-40.671c3.311-2.518,3.953-7.233,1.445-10.544
	c-2.518-3.311-7.233-3.963-10.544-1.445c-14.627,11.116-20.42,38.393-32.224,38.393c-13.456,0-32.111-20.056-48.556-17.877
	c-17.205,2.197-24.439,12.37-29.726,19.784c-5.046,7.083-7.584,10.213-14.898,10.213h-0.301
	c-15.216-0.174-30.654-29.395-51.486-29.395c-19.283,0-38.816,19.663-49.64,19.663c-14.589,0-24.273-33.033-40.881-39.778
	c-20.136-8.186-49.657,3.219-55.478-1.756c-3.752-3.23-5.287-5.417-5.909-6.742c-0.341-0.742-0.401-1.204-0.401-1.435
	c0-2.264,4.679-6.964,7.489-10.251c40.38,17.353,156.92,46.88,270.175,29.105c4.105-0.645,6.911-4.494,6.266-8.6
	c-0.644-4.104-4.478-6.903-8.6-6.266c-23.213,3.643-47.55,5.491-72.338,5.491c-95.317,0-172.834-27.264-187.294-32.684
	c0.001-0.003,0.002-0.005,0.003-0.008c-2.267-0.836-9.824-4.142-10.282-6.241c-0.136-2.168,0.17-9.354,0.471-13.252
	c-0.001,0-0.001,0.001-0.002,0.002c3.293-42.662,22.722-83.165,54.447-112.706c3.041-2.832,3.21-7.593,0.379-10.635
	c-2.831-3.039-7.591-3.208-10.635-0.379c-37.968,35.355-59.743,85.17-59.743,136.674c0,4.888,1.826,8.49,4.374,11.257
	c-4.892,5.548-9.757,10.914-9.757,18.493c0,5.999,3.06,11.708,9.561,17.797c-0.114,1.595-0.05,0.552-0.07,28.742
	c0,6.059,1.756,11.878,5.197,17.426c-3.638,5.851-5.202,11.571-5.202,17.649c0.039,20.914-0.097,46.744,0.254,61.845
	c0.001,36.879,13.379,72.439,37.672,100.133c24.064,27.433,57.123,45.302,93.086,50.313c0.353,0.05,0.701,0.073,1.048,0.073
	c3.695,0,6.918-2.724,7.442-6.487c0.574-4.116-2.297-7.917-6.414-8.49c-59.896-8.348-106.652-55.612-116.055-113.922
	c16.733,13.784,45.331,25.116,83.788,32.711c0.492,0.098,0.982,0.144,1.466,0.144c3.52,0,6.666-2.483,7.374-6.068
	c0.806-4.076-1.847-8.035-5.923-8.839c-50.588-9.992-85.32-28.136-88.436-45.807c-0.049-9.191,0.083-5.439-0.254-27.264
	c22.154,19.476,65.5,32.055,107.601,38.139l55.04,43.17c-15.312-0.568-30.3-1.75-44.746-3.563c-4.115-0.52-7.885,2.404-8.403,6.528
	c-0.519,4.123,2.405,7.885,6.528,8.403c54.332,6.822,118.174,5.289,171.278-6.107c4.063-0.872,6.649-4.872,5.778-8.936
	c-0.872-4.063-4.877-6.651-8.936-5.778c-22.679,4.868-48.088,7.999-74.599,9.242l48.525-42.759
	c33.471-4.707,83.234-15.917,108.624-38.077c-0.068,5.634,0.049,15.564-0.012,27.127c-2.422,13.133-22.276,26.78-54.153,36.99
	c-9.357,2.998-5.032,17.407,4.591,14.331c20.771-6.652,36.902-14.733,47.885-23.808C426.268,446.826,369.576,496.95,301.39,496.95
	h-82.791c-4.156,0-7.524,3.368-7.524,7.524s3.368,7.524,7.524,7.524h82.791c83.761,0,151.907-68.145,151.907-151.907
	c0.197-74.747,0.23-60.843,0.258-62.579C453.503,293.38,450.143,290.07,446.029,290.07z M101.04,327.741
	c-14.375-7.044-33.791-19.822-28.572-35.033c10.063,8.587,24.845,16.271,44.028,22.86l37.495,29.408
	C133.164,340.502,115.186,334.673,101.04,327.741z M316.407,356.535c5.091-4.484,0.421-0.368-46.394,40.878
	c-7.883,3.816-17.378,3.69-25.061-0.221c-0.637-0.5-85.287-66.891-91.313-71.616c60.38,12.557,136.127,12.789,196.461,1.275
	C334.69,340.428,323.848,349.981,316.407,356.535z"/>
<g>
</g>
<g>
</g>
<g>
</g>
<g>
</g>
<g>
</g>
<g>
</g>
<g>
</g>
<g>
</g>
<g>
</g>
<g>
</g>
<g>
</g>
<g>
</g>
<g>
</g>
<g>
</g>
<g>
</g>
</svg>
