<?xml version="1.0" encoding="iso-8859-1"?>
<!-- Generator: Adobe Illustrator 19.0.0, SVG Export Plug-In . SVG Version: 6.00 Build 0)  -->
<svg version="1.1" id="Capa_1" xmlns="http://www.w3.org/2000/svg" xmlns:xlink="http://www.w3.org/1999/xlink" x="0px" y="0px"
	 viewBox="0 0 512 512" style="enable-background:new 0 0 512 512;" xml:space="preserve">
<path style="fill:#CC7400;" d="M389.998,125.287c25.07-3.137,58.903-12.629,81.016,5.212c45.85,36.991,6.017,99.715-35.412,111.725
	c-62.757,18.193-134.093,27.826-198.878,24.929c-53.389-2.389-116.824-8.313-166.333-28.186
	c-40.466-16.243-72.098-74.316-29.768-108.468c22.114-17.841,62.932-5.989,88.183-5.127
	C128.806,125.372,278.622,139.223,389.998,125.287z"/>
<path style="fill:#EE8700;" d="M488.334,189.7c1.082-15.704-4.557-31.458-20.321-44.177c-22.114-17.847-55.945-8.353-81.023-5.218
	c-111.37,13.941-261.188,0.09-261.188,0.09c-25.248-0.861-66.071-12.719-88.184,5.128c-8.453,6.82-13.961,14.602-17.036,22.805
	c0.571-13.621,6.55-26.941,20.041-37.828c22.114-17.837,62.936-5.989,88.184-5.128c0,0,149.818,13.851,261.188-0.09
	c25.078-3.135,58.91-12.619,81.023,5.218C491.849,147.306,494.994,169.429,488.334,189.7z"/>
<path style="fill:#C70024;" d="M500.863,212.615c0,11.948-4.276,22.955-11.377,31.548c-1.022,1.232-2.093,2.414-3.215,3.535
	c-9.004,9.004-21.433,14.592-35.093,14.592H60.823c-19.249,0-36.035-11.097-44.277-27.201c-3.455-6.76-5.408-14.402-5.408-22.474
	c0-13.671,5.589-26.09,14.592-35.093s21.433-14.592,35.093-14.592c0,0,190.781,15.544,387.24,0.2
	C476.626,160.906,500.863,183.962,500.863,212.615z"/>
<path style="fill:#A5001E;" d="M489.486,244.163c-1.022,1.232-2.093,2.414-3.215,3.535c-9.004,9.004-21.433,14.592-35.093,14.592
	H60.823c-19.249,0-36.035-11.097-44.277-27.201c1.012-1.212,2.063-2.374,3.175-3.485c9.004-9.004,21.433-14.592,35.093-14.592
	c0,0,190.781,15.544,387.24,0.2C462.535,215.62,480.792,227.027,489.486,244.163z"/>
<path style="fill:#FF9811;" d="M501.744,312.337c-7.902,25.028-31.798,47.552-56.216,54.253
	c-66.221,18.198-141.506,27.832-209.87,24.928c-56.346-2.384-123.288-8.313-175.527-28.183
	c-41.874-15.924-74.784-72.07-33.942-106.442c0.811-0.681,1.653-1.362,2.524-2.023c23.336-17.847,58.85-6.079,85.5-5.218
	c31.748,1.032,63.507,1.643,95.265,1.903c9.014,0.07,18.027,0.12,27.031,0.14h25.779c13.28,0.02,26.56-0.03,39.851-0.14
	c31.758-0.26,63.517-0.871,95.265-1.903c26.651-0.861,62.165-12.629,85.5,5.218C504.268,271.204,508.004,292.547,501.744,312.337z"
	/>
<path style="fill:#FFA733;" d="M501.744,312.337c-10.686,11.528-24.357,20.411-38.188,24.207
	c-66.221,18.198-141.506,27.832-209.87,24.928c-56.346-2.384-123.288-8.313-175.527-28.183
	c-31.017-11.798-57.117-45.66-51.969-76.396c0.811-0.681,1.653-1.362,2.524-2.023c23.336-17.847,58.85-6.079,85.5-5.218
	c31.748,1.032,63.507,1.643,95.265,1.903c9.014,0.07,18.027,0.12,27.031,0.14h25.779c13.28,0.02,26.56-0.03,39.851-0.14
	c31.758-0.26,63.517-0.871,95.265-1.903c26.651-0.861,62.165-12.629,85.5,5.218C504.268,271.204,508.004,292.547,501.744,312.337z"
	/>
<path d="M491.98,252.636c19.454-19.819,21.635-50.102,6.33-72.47c0.441-3.035,0.671-6.109,0.671-9.194
	c0-18.027-8.042-34.052-23.245-46.321c-20.616-16.626-48.453-12.703-74.013-8.683c-37.818,5.936-83.104,7.781-121.225,8.002
	c-4.146,0.02-7.491,3.405-7.461,7.551c0.02,4.136,3.375,7.471,7.511,7.471h0.04c112.704-0.645,125.353-11.538,155.096-11.538
	c13.37,0,23.105,2.824,30.617,8.894c10.055,8.112,15.864,17.857,17.296,29.024c-9.334-6.47-20.241-9.905-31.638-9.905
	c-1.482,0-2.975,0.06-4.477,0.18c-188.589,14.724-386.558-0.23-386.659-0.23c-12.068,0-23.275,3.756-32.51,10.176
	c1.262-11.317,6.981-21.142,17.026-29.245c19.015-15.358,58.132-4.387,82.996-3.475c3.866,0.351,57.227,5.058,122.056,5.979h0.1
	c4.106,0,7.451-3.285,7.511-7.401c0.06-4.146-3.255-7.562-7.401-7.612c-114.334-1.639-149.98-10.636-174.476-10.636
	c-17.517,0-30.677,3.746-40.221,11.447c-17.619,14.213-25.462,33.673-22.134,55.475c-15.481,22.372-13.09,52.635,6.069,72.33
	C6.83,264.034,0,278.586,0,294.871c0,30.577,24.708,63.026,57.458,75.485c57.828,21.995,145.417,29.184,202.629,29.184
	c42.915,0,89.356-4.597,134.295-13.31c4.076-0.791,6.73-4.727,5.949-8.803c-0.791-4.076-4.737-6.73-8.803-5.949
	c-49.926,9.679-104.292,14.696-155.547,12.539c-48.484-2.053-119.182-7.161-173.184-27.702
	c-26.781-10.186-47.773-37.177-47.773-61.444c0-12.81,5.669-23.876,16.866-32.95c0.451-0.361,0.921-0.731,1.392-1.092
	c16.178-12.379,41.368-7.941,62.756-5.268c12.861,1.594,15.907,1.926,71.249,2.944c3.003,0.043,5.644-1.753,6.63-3.726
	c2.852-4.845-0.55-11.185-6.35-11.297c-59.464-1.066-58.153-1.394-74.483-3.435c-13.182-1.675-27.17-3.447-40.341-1.923
	c-7.642,0.881-14.372,2.754-20.291,5.659c-8.473-7.722-13.801-18.829-13.801-31.167c0-4.056,0.571-7.982,1.653-11.688
	c1.853-6.43,5.198-12.219,9.625-16.996c7.652-8.233,18.538-13.41,30.607-13.491c5.979,0.471,90.268,6.921,201.928,6.921
	c57.167,0,121.515-1.683,186.194-6.74c11.487-0.911,22.544,2.965,31.097,10.887c18.109,16.841,18.254,45.618-0.33,62.395
	c-5.619-2.794-11.978-4.647-19.149-5.599c-30.22-4.066-17.47,8.687-262.72,5.619c-5.652-0.055-9.303,5.919-6.81,10.857
	c1.212,2.444,3.726,4.136,6.64,4.166c263.617,2.665,233.763-10.764,263.682-5.338c8.185,1.459,13.757,4.286,18.829,8.443
	c39.873,32.475,2.095,86.735-36.345,97.298c-7.511,2.063-15.233,4.036-22.965,5.879c-4.036,0.951-6.53,5.008-5.568,9.034
	c0.811,3.455,3.896,5.779,7.301,5.779c0.571,0,1.152-0.06,1.743-0.2c7.892-1.873,15.794-3.896,23.466-6.009
	c31.137-8.553,64.478-42.134,64.478-78.49C512,279.006,505.109,264.354,491.98,252.636z"/>
<path d="M445.991,207.565c3.416-4.41,6.072-6.049,9.803-6.049c4.149,0,7.511-3.362,7.511-7.511c0-4.149-3.362-7.511-7.511-7.511
	c-11.188,0-17.731,6.775-21.679,11.871c-2.541,3.28-1.942,7.998,1.337,10.538C438.725,211.434,443.446,210.852,445.991,207.565z"/>
<path d="M216.032,201.515c2.637,0,4.674,0.82,6.812,2.743c3.084,2.775,7.833,2.524,10.608-0.562
	c2.774-3.084,2.524-7.833-0.562-10.608c-4.865-4.378-10.538-6.597-16.859-6.597c-24.367,0-26.178,30.046-39.954,30.046
	c-13.742,0-15.601-30.046-39.957-30.046c-24.352,0-26.19,30.046-39.958,30.046c-13.763,0-15.591-30.046-39.958-30.046
	c-4.149,0-7.511,3.362-7.511,7.511c0,4.149,3.362,7.511,7.511,7.511c13.743,0,15.601,30.046,39.958,30.046
	c24.35,0,26.191-30.046,39.958-30.046c5.687,0,8.767,4.217,13.723,11.67c5.443,8.187,12.218,18.376,26.233,18.376
	C200.445,231.561,202.256,201.515,216.032,201.515z"/>
<path d="M255.989,231.561c14.014,0,20.79-10.189,26.233-18.375c4.957-7.453,8.037-11.671,13.725-11.671
	c13.743,0,15.602,30.046,39.959,30.046c24.352,0,26.191-30.046,39.959-30.046c13.744,0,15.605,30.046,39.964,30.046
	c1.747,0,3.463-0.169,5.101-0.504c4.064-0.831,6.686-4.799,5.855-8.865c-0.83-4.065-4.798-6.686-8.863-5.856
	c-7.526,1.541-11.542-5.038-15.82-11.47c-5.445-8.186-12.22-18.375-26.236-18.375c-14.015,0-20.791,10.189-26.234,18.375
	c-4.957,7.453-8.037,11.671-13.725,11.671s-8.768-4.217-13.725-11.671c-5.444-8.186-12.219-18.375-26.234-18.375
	c-14.015,0-20.791,10.189-26.234,18.376c-4.957,7.452-8.037,11.67-13.724,11.67c-1.899,0-3.486-0.434-4.994-1.363
	c-3.53-2.177-8.158-1.084-10.337,2.448c-2.178,3.53-1.083,8.158,2.448,10.337C246.979,230.349,251.313,231.561,255.989,231.561z"/>
<g>
</g>
<g>
</g>
<g>
</g>
<g>
</g>
<g>
</g>
<g>
</g>
<g>
</g>
<g>
</g>
<g>
</g>
<g>
</g>
<g>
</g>
<g>
</g>
<g>
</g>
<g>
</g>
<g>
</g>
</svg>
