<?xml version="1.0" encoding="iso-8859-1"?>
<!-- Generator: Adobe Illustrator 19.0.0, SVG Export Plug-In . SVG Version: 6.00 Build 0)  -->
<svg version="1.1" id="Capa_1" xmlns="http://www.w3.org/2000/svg" xmlns:xlink="http://www.w3.org/1999/xlink" x="0px" y="0px"
	 viewBox="0 0 512 512" style="enable-background:new 0 0 512 512;" xml:space="preserve">
<g>
	<path style="fill:#D9CCBC;" d="M504.379,282.591c-1.052,15.035-13.24,27.203-28.275,28.245
		c-17.841,1.233-32.705-12.88-32.705-30.46v-0.04c0.01-2.105-1.714-3.829-3.829-3.829H283.582v-41.014H439.57
		c2.115,0,3.839-1.724,3.829-3.829v-0.04c0-17.58,14.864-31.693,32.705-30.46c15.035,1.042,27.223,13.21,28.275,28.245
		c0.611,8.69-2.406,16.668-7.708,22.572c-2.045,2.295-2.045,5.743,0,8.038c1.263,1.403,2.396,2.927,3.378,4.55
		C503.207,269.761,504.84,275.966,504.379,282.591z"/>
	<path style="fill:#D9CCBC;" d="M228.415,235.493v41.014H72.416c-2.105,0-3.829,1.724-3.829,3.829v0.04
		c0,17.58-14.854,31.693-32.695,30.46c-15.045-1.042-27.233-13.21-28.285-28.245c-0.461-6.615,1.183-12.829,4.34-18.011
		c0.972-1.624,2.105-3.157,3.368-4.56c2.045-2.295,2.045-5.743,0-8.038c-5.292-5.904-8.319-13.882-7.708-22.572
		c1.052-15.035,13.24-27.203,28.285-28.245c17.841-1.233,32.695,12.88,32.695,30.46v0.04c0,2.105,1.724,3.829,3.829,3.829
		L228.415,235.493L228.415,235.493z"/>
</g>
<g>
	<path style="fill:#EBE5DD;" d="M496.672,260.019c1.263,1.403,2.396,2.927,3.378,4.55c-5.001,8.259-13.832,13.992-23.945,14.694
		c-17.841,1.233-32.705-12.88-32.705-30.46v-0.04c0.01-2.105-1.714-3.829-3.829-3.829H283.582v-9.442H439.57
		c2.115,0,3.839-1.724,3.829-3.829v-0.04c0-17.58,14.864-31.693,32.705-30.46c15.035,1.042,27.223,13.21,28.275,28.245
		c0.611,8.69-2.406,16.668-7.708,22.572C494.627,254.276,494.627,257.724,496.672,260.019z"/>
	<path style="fill:#EBE5DD;" d="M228.415,235.493v9.442H72.416c-2.105,0-3.829,1.724-3.829,3.829v0.04
		c0,17.58-14.854,31.693-32.695,30.46c-10.113-0.702-18.944-6.435-23.945-14.684c0.972-1.624,2.105-3.157,3.368-4.56
		c2.045-2.295,2.045-5.743,0-8.038c-5.292-5.904-8.319-13.882-7.708-22.572c1.052-15.035,13.24-27.203,28.285-28.245
		c17.841-1.233,32.695,12.88,32.695,30.46v0.04c0,2.105,1.724,3.829,3.829,3.829L228.415,235.493L228.415,235.493z"/>
</g>
<path style="fill:#AB2300;" d="M398.215,216.91v78.18c0,1.995-0.16,3.959-0.471,5.873c-2.827,17.631-18.212,31.212-36.614,31.212
	H150.646c-20.397,0-37.085-16.688-37.085-37.085v-78.18c0-18.402,13.581-33.788,31.212-36.614c1.914-0.311,3.879-0.471,5.874-0.471
	H361.13C381.527,179.825,398.215,196.513,398.215,216.91z"/>
<path style="fill:#CD2A00;" d="M398.215,216.91v78.18c0,1.995-0.16,3.959-0.471,5.873c-1.914,0.311-3.879,0.471-5.874,0.471H181.387
	c-20.397,0-37.085-16.688-37.085-37.085v-78.18c0-1.995,0.16-3.959,0.471-5.874c1.914-0.311,3.879-0.471,5.874-0.471H361.13
	C381.527,179.825,398.215,196.513,398.215,216.91z"/>
<path d="M503.136,256c20.566-24.608,3.076-62.423-29.207-62.423c-19.735,0-36.013,15.105-37.867,34.399h-30.33V216.91
	c0-24.597-20.006-44.603-44.603-44.603H150.646c-24.597,0-44.603,20.006-44.603,44.603v11.065H75.934
	c-2.085-21.783-22.323-37.451-43.921-33.918c-9.784,1.556-7.485,16.389,2.385,14.844c13.812-2.304,26.671,8.497,26.671,22.762
	c0,6.254,5.092,11.346,11.346,11.346h33.627v25.98H72.416c-6.254,0-11.346,5.092-11.346,11.386
	c0,13.295-11.306,23.908-24.667,22.953c-19.005-1.31-28.213-24.12-15.496-38.288c4.588-5.102,4.634-12.918,0-18.072
	c-6.212-6.937-7.501-16.767-3.809-24.837c1.724-3.769,0.06-8.229-3.709-9.963c-3.779-1.724-8.239-0.06-9.963,3.719
	C-2.459,228.725-0.799,244.454,8.85,256c-20.505,24.534-3.15,62.423,29.207,62.423c19.735,0,36.013-15.105,37.867-34.399h30.119
	c0,11.343-0.17,13.763,0.601,18.392c1.661,9.83,16.463,7.32,14.834-2.476c-0.679-3.997-0.266,1.347-0.401-83.031
	c0-16.307,13.26-29.568,29.568-29.568H361.13c16.307,0,29.568,13.26,29.568,29.568c-0.025,80.714,0.058,78.773-0.07,80.094
	c0.031,0.061-0.159,1.799-0.281,2.606c-1.487,9.654,13.05,12.294,14.864,2.305c0.835-5.214,0.408-10.065,0.521-17.891h30.33
	c2.073,21.784,22.314,37.451,43.911,33.918c9.812-1.56,7.451-16.41-2.375-14.844c-13.854,2.308-26.681-8.524-26.681-22.762
	c0-6.254-5.092-11.346-11.346-11.346h-33.838v-25.98h33.838c6.254,0,11.346-5.092,11.346-11.386
	c0-12.689,10.324-23.013,23.013-23.013c19.994,0,30.293,23.705,17.149,38.348c-2.225,2.486-3.458,5.703-3.458,9.041
	c0,9.859,10.32,11.228,9.261,26.06c-0.19,2.706-0.862,5.332-1.985,7.808c-1.734,3.769-0.07,8.229,3.699,9.963
	c3.779,1.724,8.239,0.06,9.973-3.709C514.601,282.936,512.547,267.26,503.136,256z"/>
<path d="M377.588,319.606c-4.931,3.346-10.638,5.052-16.458,5.052H150.646c-3.715,0-7.429-0.736-10.474-1.924
	c0-0.01-0.01-0.01-0.02-0.01c-2.649-0.97-5.94-3.023-6.164-3.247c-8.29-5.356-16.452,6.994-8.319,12.519
	c3.876,2.64,12.539,7.698,24.977,7.698H361.13c16.527,0,25.143-8.289,25.819-8.289C393.707,325.954,387.332,313.926,377.588,319.606
	z"/>
<g>
</g>
<g>
</g>
<g>
</g>
<g>
</g>
<g>
</g>
<g>
</g>
<g>
</g>
<g>
</g>
<g>
</g>
<g>
</g>
<g>
</g>
<g>
</g>
<g>
</g>
<g>
</g>
<g>
</g>
</svg>
