<?xml version="1.0" encoding="iso-8859-1"?>
<!-- Generator: Adobe Illustrator 19.0.0, SVG Export Plug-In . SVG Version: 6.00 Build 0)  -->
<svg version="1.1" id="Capa_1" xmlns="http://www.w3.org/2000/svg" xmlns:xlink="http://www.w3.org/1999/xlink" x="0px" y="0px"
	 viewBox="0 0 512 512" style="enable-background:new 0 0 512 512;" xml:space="preserve">
<path style="fill:#EBE5DD;" d="M316.361,473.209c-0.823,11.858-7.925,22.11-17.987,27.397c-3.973,2.097-8.417,3.411-13.112,3.742
	c-4.835,0.341-9.47-0.341-13.713-1.866c-4.143-1.475-7.915-3.742-11.125-6.621c-2.518-2.257-6.33-2.257-8.848,0
	c-2.067,1.856-4.374,3.451-6.852,4.745c-5.317,2.799-11.466,4.203-17.987,3.742c-16.552-1.164-29.955-14.586-31.099-31.139
	c-1.354-19.632,14.175-35.984,33.526-35.984h0.04c2.327,0,4.223-1.906,4.223-4.223V261.288h45.143v171.714
	c0,2.317,1.896,4.223,4.223,4.223h0.04C302.186,437.225,317.716,453.577,316.361,473.209z"/>
<path style="fill:#D9CCBC;" d="M264.527,261.288v171.714c0,2.317-1.896,4.223-4.223,4.223h-0.04
	c-19.351,0-34.881,16.352-33.526,35.984c0.823,11.858,7.925,22.11,17.987,27.397c-5.317,2.799-11.466,4.203-17.987,3.742
	c-16.552-1.164-29.955-14.586-31.099-31.139c-1.354-19.632,14.175-35.984,33.526-35.984h0.04c2.327,0,4.223-1.906,4.223-4.223
	V261.288H264.527z"/>
<path style="fill:#781900;" d="M384.427,135.951c0,30.386-10.543,58.305-28.189,80.294c-25.22,31.44-41.582,68.748-48.544,108.082
	c-2.819,15.961-16.292,27.718-32.262,28.821c-0.823,0.07-1.655,0.1-2.498,0.1h-34.148c-17.034,0-31.44-12.279-34.489-29.032
	c-7.213-39.626-24.307-77.044-49.467-109.156c-17.445-22.261-27.688-50.44-27.246-81.017
	C128.586,64.906,185.025,8.497,254.164,7.534c7.303-0.1,14.456,0.401,21.438,1.485C337.227,18.438,384.427,71.677,384.427,135.951z"
	/>
<path style="fill:#891C00;" d="M384.427,135.951c0,30.386-10.543,58.305-28.189,80.294c-25.22,31.44-41.582,68.748-48.544,108.082
	c-2.819,15.961-16.292,27.718-32.262,28.821c-15.94-1.113-29.112-13.001-32.011-28.932c-7.213-39.626-24.307-77.044-49.467-109.156
	c-17.445-22.261-27.688-50.44-27.246-81.017c0.913-63.14,48.062-115.656,108.895-125.026
	C337.227,18.438,384.427,71.677,384.427,135.951z"/>
<path d="M177.461,234.342c-5.096-8.216-10.714-16.272-16.703-23.926c-16.793-21.418-25.661-47.169-25.661-74.476
	c0-0.592,0-1.184,0.01-1.786C136.05,69.39,189.499,15.961,254.275,15.058c28.159-0.371,54.743,8.647,76.723,26.053
	c3.26,2.578,7.995,2.026,10.574-1.224c2.578-3.26,2.026-7.995-1.234-10.573C316.12,10.132,286.958,0,256,0
	c-0.642,0-1.294,0-1.936,0.01c-35.412,0.492-68.818,14.656-94.058,39.896c-25.24,25.23-39.435,58.626-39.947,94.018
	c-0.01,0.672-0.01,1.344-0.01,2.016c0,30.707,9.982,59.669,28.861,83.755c5.658,7.223,10.955,14.817,15.75,22.572
	c1.425,2.297,3.892,3.561,6.41,3.561c1.354,0,2.719-0.361,3.953-1.124C178.555,242.518,179.648,237.874,177.461,234.342z"/>
<path d="M315.107,325.642c6.842-38.693,23.103-74.897,46.999-104.692c19.251-23.976,29.845-54.172,29.845-84.999
	c0-30.868-10.082-59.97-29.162-84.157c-2.578-3.26-7.303-3.822-10.573-1.244c-3.26,2.578-3.812,7.303-1.244,10.563
	c16.964,21.508,25.932,47.38,25.932,74.837c0,27.818-9.169,53.951-26.534,75.589c-25.481,31.751-42.796,70.303-50.079,111.483
	c-1.515,8.547-6.902,15.569-14.195,19.442c-7.417,3.935-14.081,3.158-15.048,3.26c-29.424-0.83-35.338,2.016-45.143-3.23
	c-7.243-3.892-12.63-10.985-14.205-19.632c-3.832-21.017-10.393-41.632-19.522-61.264c-1.756-3.772-6.23-5.397-10.002-3.652
	c-3.762,1.756-5.397,6.23-3.652,10.002c8.597,18.458,14.767,37.85,18.368,57.612c2.909,15.971,14.325,28.51,29.012,33.205v71.055
	c-5.608,0.451-11.095,2.047-16.041,4.675c-3.672,1.956-5.056,6.511-3.11,10.182c1.956,3.662,6.511,5.056,10.182,3.1
	c3.782-2.016,7.905-3.03,12.269-3.03c6.481,0,11.747-5.277,11.747-11.747v-72.229h30.095v72.229c0,6.47,5.267,11.747,11.787,11.747
	c14.68,0,27.032,12.32,26.022,27.949c-1.496,21.551-27.3,31.99-43.418,17.566c-5.389-4.848-13.536-4.808-18.88,0
	c-18.362,16.434-47.669,0.3-43.026-24.307c0.772-4.083-1.916-8.015-5.999-8.788s-8.015,1.926-8.788,6.009
	c-7.18,38.187,38.071,63.995,67.253,38.813c26.643,22.955,67.965,3.807,67.965-31.159c0-21.568-16.693-39.315-37.87-41v-71.105
	C300.872,354.012,312.288,341.522,315.107,325.642z"/>
<g>
</g>
<g>
</g>
<g>
</g>
<g>
</g>
<g>
</g>
<g>
</g>
<g>
</g>
<g>
</g>
<g>
</g>
<g>
</g>
<g>
</g>
<g>
</g>
<g>
</g>
<g>
</g>
<g>
</g>
</svg>
