<?xml version="1.0" encoding="iso-8859-1"?>
<!-- Generator: Adobe Illustrator 19.0.0, SVG Export Plug-In . SVG Version: 6.00 Build 0)  -->
<svg version="1.1" id="Capa_1" xmlns="http://www.w3.org/2000/svg" xmlns:xlink="http://www.w3.org/1999/xlink" x="0px" y="0px"
	 viewBox="0 0 512 512" style="enable-background:new 0 0 512 512;" xml:space="preserve">
<path style="fill:#FF5023;" d="M504.117,268.058c-0.111,2.293-0.261,4.566-0.453,6.829
	C503.846,272.624,503.997,270.351,504.117,268.058z"/>
<path style="fill:#FF3501;" d="M231.36,360.646l-20.114,74.925c-18.787,2.947-36.457,3.399-52.96,2.032
	c-75.197-6.205-126.226-50.255-147.929-69.897c-5.32-4.817-2.615-13.647,4.485-14.724c76.162-11.566,100.812-1.981,100.812-1.981
	l-75.87-69.545c-6.074-5.572-1.539-14.824,6.698-14.744c83.433,0.774,132.19,32.052,158.479,58.311
	C224.139,344.172,231.36,360.646,231.36,360.646z"/>
<path style="fill:#CD2A00;" d="M231.36,360.646l-20.114,74.925c-18.787,2.947-36.457,3.399-52.96,2.032
	c-3.45-9.574-5.33-19.893-5.33-30.654c0-36.216,21.271-67.463,52.005-81.925C224.139,344.172,231.36,360.646,231.36,360.646z"/>
<path style="fill:#FF7956;" d="M243.349,480.138c-34.395-5.26-53.574-42.722-38.358-74.02c1.659-3.411-6.619,13.603,19.581-40.248
	c9.882-20.318,30.231-34.857,56.501-35.763c31.271-1.343,58.382-22.612,67.523-52.297c17.477-56.11-36.103-110.409-93.279-92.032
	c-25.461,8.189-53.676,2.147-73.859-15.94c-43.913-39.325-28.581-111.581,27.476-129.475
	C349.498-4.482,496.328,95.671,504.088,244.159C512.197,388.241,385.302,501.819,243.349,480.138z"/>
<path id="SVGCleanerId_0" style="fill:#FF6243;" d="M413.926,263.593c0,81.643-66.186,147.829-147.829,147.829
	c-20.567,0-40.158-4.204-57.949-11.787c2.695-5.551,7.603-15.639,16.423-33.762c9.886-20.325,30.232-34.858,56.501-35.763
	c31.267-1.348,58.381-22.618,67.523-52.297c17.479-56.118-36.105-110.416-93.279-92.032c-25.464,8.186-53.675,2.142-73.859-15.94
	c-5.592-5.008-10.218-10.55-13.919-16.443c26.158-23.403,60.684-37.634,98.559-37.634
	C347.74,115.764,413.926,181.95,413.926,263.593z"/>
<g>
	<path id="SVGCleanerId_0_1_" style="fill:#FF6243;" d="M413.926,263.593c0,81.643-66.186,147.829-147.829,147.829
		c-20.567,0-40.158-4.204-57.949-11.787c2.695-5.551,7.603-15.639,16.423-33.762c9.886-20.325,30.232-34.858,56.501-35.763
		c31.267-1.348,58.381-22.618,67.523-52.297c17.479-56.118-36.105-110.416-93.279-92.032c-25.464,8.186-53.675,2.142-73.859-15.94
		c-5.592-5.008-10.218-10.55-13.919-16.443c26.158-23.403,60.684-37.634,98.559-37.634
		C347.74,115.764,413.926,181.95,413.926,263.593z"/>
</g>
<path id="SVGCleanerId_1" style="fill:#FF5023;" d="M400.963,446.541l-1.82-1.136c-89.598-51.412-95.24-112.539-95.602-119.86
	c21.241-7.945,38.197-25.475,45.056-47.731c0.805-2.585,1.458-5.159,1.961-7.724c1.307,0.734,74.111,41.174,153.833-18.596
	C506.43,333.922,464.291,405.629,400.963,446.541z"/>
<path style="fill:#FF5023;" d="M428.287,86.931l-0.312,0.111c-82.81-8.277-119.89,83.624-125.593,99.313
	c-14.301-5.129-30.533-5.893-47.067-0.573c-2.414,0.774-4.858,1.428-7.311,1.951c-7.02-11.837-48.033-88.985,29.769-158.157h0.01
	C334.072,29.575,387.475,50.856,428.287,86.931z"/>
<g>
	<path id="SVGCleanerId_1_1_" style="fill:#FF5023;" d="M400.963,446.541l-1.82-1.136c-89.598-51.412-95.24-112.539-95.602-119.86
		c21.241-7.945,38.197-25.475,45.056-47.731c0.805-2.585,1.458-5.159,1.961-7.724c1.307,0.734,74.111,41.174,153.833-18.596
		C506.43,333.922,464.291,405.629,400.963,446.541z"/>
</g>
<path id="SVGCleanerId_2" style="fill:#FF3501;" d="M332.976,131.725c-18.213,22.819-27.898,47.218-30.594,54.63
	c-14.301-5.129-30.533-5.893-47.067-0.573c-2.414,0.774-4.858,1.428-7.311,1.951c-3.902-6.587-18.334-33.389-16.966-67.795
	c11.234-2.725,22.98-4.174,35.059-4.174C290.163,115.764,312.892,121.517,332.976,131.725z"/>
<g>
	<path id="SVGCleanerId_2_1_" style="fill:#FF3501;" d="M332.976,131.725c-18.213,22.819-27.898,47.218-30.594,54.63
		c-14.301-5.129-30.533-5.893-47.067-0.573c-2.414,0.774-4.858,1.428-7.311,1.951c-3.902-6.587-18.334-33.389-16.966-67.795
		c11.234-2.725,22.98-4.174,35.059-4.174C290.163,115.764,312.892,121.517,332.976,131.725z"/>
</g>
<path style="fill:#FF5023;" d="M504.117,268.111c-0.111,2.293-0.261,4.566-0.453,6.829
	C503.846,272.676,503.997,270.404,504.117,268.111z"/>
<path id="SVGCleanerId_3" style="fill:#FF3501;" d="M412.507,284.129c-6.638,47.771-36.105,88.231-77.017,110.024
	c-29.065-34.335-31.71-63.681-31.951-68.609c21.241-7.945,38.197-25.475,45.056-47.731c0.805-2.585,1.458-5.159,1.961-7.724
	C351.31,270.512,376.181,284.331,412.507,284.129z"/>
<g>
	<path id="SVGCleanerId_3_1_" style="fill:#FF3501;" d="M412.507,284.129c-6.638,47.771-36.105,88.231-77.017,110.024
		c-29.065-34.335-31.71-63.681-31.951-68.609c21.241-7.945,38.197-25.475,45.056-47.731c0.805-2.585,1.458-5.159,1.961-7.724
		C351.31,270.512,376.181,284.331,412.507,284.129z"/>
</g>
<path d="M176.424,175.458c22.49,20.145,53.468,26.381,81.198,17.498c32.318-10.354,68.419,5.263,81.828,38.321
	c1.19,2.932,4.012,4.71,6.993,4.71c5.31,0,9.007-5.399,6.987-10.38c-7.984-19.685-22.916-34.922-41.317-43.403
	c3.492-8.688,11.021-25.279,23.18-41.657c22.446-30.238,52.046-49.11,90.187-45.936c29.584,26.942,51.974,62.019,63.278,102.311
	c1.126,4.016,5.295,6.349,9.3,5.224c4.01-1.124,6.349-5.289,5.224-9.3C475.881,95.185,386.048,22.137,277.883,22.137
	c-16.615,0-33.202,1.75-49.301,5.202c-4.073,0.873-6.667,4.883-5.794,8.956c0.872,4.074,4.882,6.671,8.956,5.794
	c8.827-1.892,17.816-3.221,26.873-4.011c-23.429,25.758-35.283,54.576-35.283,85.893c0,25.439,8.013,46.167,13.701,57.676
	c-18.727,1.292-36.84-5.148-50.547-17.425C148.8,130.459,159.529,69.739,204.292,50.16c3.818-1.668,5.558-6.116,3.888-9.933
	c-1.667-3.816-6.116-5.555-9.932-3.887c-30.24,13.225-49.779,43.39-49.779,76.848C148.47,137.194,158.398,159.308,176.424,175.458z
	 M280.756,37.253c46.56,0.613,90.487,16.095,126.431,42.403c-32.217,3.085-61.182,20.992-84.271,52.256
	c-13.337,18.058-21.372,35.958-25.059,45.275c-14.746-3.692-29.809-3.288-45.326,1.55c-4.658-8.526-14.108-28.996-14.108-54.766
	C238.421,92.132,252.666,62.972,280.756,37.253z"/>
<path d="M509.669,223.334c-0.579-4.126-4.403-7.002-8.519-6.419c-4.126,0.579-7,4.394-6.419,8.519
	c1.044,7.42,1.706,14.967,1.987,22.526c-46.223,33.181-97.669,35.85-137.937,17.972c0.365-3.04,0.516-5.371,0.576-7.837
	c0.101-4.227-3.295-7.723-7.545-7.723c-4.082,0-7.438,3.259-7.537,7.363c-0.828,35.496-29.658,63.815-64.308,64.861
	c-18.965,0.58-36.45,8.45-49.158,21.466c-5.577-8.985-16.289-23.447-34.322-37.938c-41.371-33.245-97.702-46.793-150.127-46.793
	c-15.047,0-22.79,17.679-11.696,27.851l27.451,25.164c3.072,2.817,7.844,2.608,10.657-0.463c2.815-3.071,2.608-7.842-0.463-10.658
	c-28.236-25.948-27.804-25.34-27.804-25.644c0-1.074,2.04-1.237,1.887-1.164c71.846,0.668,115.742,23.688,139.914,42.881
	c21.21,16.842,31.4,33.783,34.533,39.671c-1.092,1.812-2.118,3.678-3.055,5.605c-15.76,35.226-25.596,44.958-25.611,66.27
	c-17.795,1.32-35.66,0.898-53.859-1.951c-4.119-0.645-7.975,2.169-8.619,6.286s2.17,7.975,6.286,8.619
	c19.565,3.061,38.854,3.51,58.056,2.036c5.732,22.626,24.234,40.099,48.168,43.761c6.321,0.966,12.766,1.684,19.161,2.128
	c0.179,0.013,0.356,0.019,0.532,0.019c3.926,0,7.239-3.04,7.517-7.019c0.29-4.156-2.844-7.759-7-8.049
	c-5.982-0.417-12.014-1.087-17.927-1.992c-29.757-4.552-45.633-36.695-32.71-63.26l19.574-40.249
	c8.556-17.593,25.818-30.472,50.039-31.534c5.717-0.241,11.283-1.102,16.647-2.483c6.869,46.972,47.683,86.508,88.063,111.48
	c-28.145,16.056-60.226,26.056-94.522,28.156c-4.159,0.255-7.323,3.833-7.068,7.989c0.245,4.002,3.567,7.082,7.522,7.082
	c0.155,0,0.312-0.005,0.469-0.014C429.059,481.485,528.69,358.616,509.669,223.334z M400.466,437.674
	c-78.461-45.945-86.977-96.55-87.889-107.794c20.243-9.626,35.98-27.369,42.918-48.921c41.902,17.39,93.959,15.338,141.148-14.735
	C493.425,337.222,456.156,399.911,400.466,437.674z"/>
<path d="M94.549,321.612c-3.072-2.816-7.843-2.608-10.657,0.463c-2.815,3.071-2.608,7.842,0.463,10.657l8.142,7.463
	c-24.925-1.288-54.206,1.76-78.807,5.495C5.758,346.895,0,353.601,0,361.637c0,8.555,6.308,12.536,6.931,13.325
	c18.538,16.809,49.565,44.943,98.642,59.883c0.733,0.223,1.472,0.329,2.2,0.329c8.609,0,10.471-12.24,2.194-14.761
	c-40.532-12.339-67.372-33.478-94.564-58.132c-0.619-0.562-0.286-1.55,0.55-1.677c24.572-3.73,46.237-5.622,64.393-5.622
	c23.376,0,32.546,3.215,32.549,3.215c3.384,1.318,7.223,0.036,9.139-3.046c1.917-3.081,1.368-7.091-1.307-9.543L94.549,321.612z"/>
<g>
</g>
<g>
</g>
<g>
</g>
<g>
</g>
<g>
</g>
<g>
</g>
<g>
</g>
<g>
</g>
<g>
</g>
<g>
</g>
<g>
</g>
<g>
</g>
<g>
</g>
<g>
</g>
<g>
</g>
</svg>
