<?xml version="1.0" encoding="iso-8859-1"?>
<!-- Generator: Adobe Illustrator 19.0.0, SVG Export Plug-In . SVG Version: 6.00 Build 0)  -->
<svg version="1.1" id="Capa_1" xmlns="http://www.w3.org/2000/svg" xmlns:xlink="http://www.w3.org/1999/xlink" x="0px" y="0px"
	 viewBox="0 0 512.001 512.001" style="enable-background:new 0 0 512.001 512.001;" xml:space="preserve">
<path style="fill:#EE8700;" d="M47.625,384.418v34.935c0,47.017,97.501,85.132,217.774,85.132s217.773-38.115,217.773-85.132
	v-35.485L47.625,384.418z"/>
<path style="fill:#FF9811;" d="M483.172,384.199c0,44.85-88.699,81.592-201.259,84.895c-5.445,0.16-10.96,0.24-16.515,0.24
	c-120.277,0-217.774-38.114-217.774-85.136c0-47.012,97.497-85.126,217.774-85.126c5.555,0,11.07,0.08,16.515,0.24
	C394.473,302.616,483.172,339.359,483.172,384.199z"/>
<path style="fill:#FFA733;" d="M483.172,384.199c0,44.85-88.699,81.592-201.259,84.895c-112.56-3.303-201.259-40.046-201.259-84.895
	c0-44.84,88.699-81.582,201.259-84.885C394.473,302.616,483.172,339.359,483.172,384.199z"/>
<path style="fill:#EE8700;" d="M25.178,301.325v35.157c0,47.017,97.501,85.132,217.774,85.132s217.774-38.115,217.774-85.132
	v-35.707L25.178,301.325z"/>
<path style="fill:#FF9811;" d="M460.722,301.335c0,44.84-88.699,81.583-201.259,84.885c-5.455,0.16-10.96,0.24-16.515,0.24
	c-120.267,0-217.774-38.114-217.774-85.126c0-47.022,97.507-85.136,217.774-85.136c5.555,0,11.06,0.08,16.515,0.24
	C372.023,219.743,460.722,256.486,460.722,301.335z"/>
<path style="fill:#FFA733;" d="M460.722,301.335c0,44.84-88.699,81.583-201.259,84.885c-112.55-3.303-201.259-40.046-201.259-84.885
	c0-44.85,88.709-81.592,201.259-84.895C372.023,219.743,460.722,256.486,460.722,301.335z"/>
<path style="fill:#EE8700;" d="M36.092,204.48v35.281c0,47.017,97.501,85.132,217.774,85.132s217.774-38.115,217.774-85.132V204.48
	H36.092z"/>
<path style="fill:#FF9811;" d="M471.642,204.608c0,44.85-88.709,81.592-201.259,84.895c-5.455,0.16-10.96,0.24-16.515,0.24
	c-120.277,0-217.774-38.114-217.774-85.136c0-47.012,97.497-85.136,217.774-85.136c5.555,0,11.06,0.08,16.515,0.24
	C382.933,123.017,471.642,159.77,471.642,204.608z"/>
<path style="fill:#FFA733;" d="M471.642,204.608c0,44.85-88.709,81.592-201.259,84.895c-112.56-3.303-201.259-40.046-201.259-84.895
	c0-44.84,88.699-81.593,201.259-84.895C382.933,123.017,471.642,159.77,471.642,204.608z"/>
<path style="fill:#EE8700;" d="M51.296,111.549l-0.021,34.297c0,47.017,97.501,85.132,217.774,85.132s217.774-38.115,217.774-85.132
	l-0.003-34.831L51.296,111.549z"/>
<path style="fill:#FF9811;" d="M486.825,110.695c0,44.84-88.709,81.592-201.259,84.895c-5.455,0.16-10.96,0.24-16.515,0.24
	c-120.277,0-217.774-38.124-217.774-85.136c0-47.022,97.497-85.136,217.774-85.136c5.555,0,11.06,0.08,16.515,0.24
	C398.117,29.103,486.825,65.846,486.825,110.695z"/>
<path style="fill:#FFA733;" d="M486.825,110.695c0,44.84-88.709,81.592-201.259,84.895c-112.56-3.303-201.259-40.056-201.259-84.895
	c0-44.85,88.699-81.593,201.259-84.895C398.117,29.103,486.825,65.846,486.825,110.695z"/>
<g>
	<path style="fill:#CC7400;" d="M341.194,91.474l79.059,72.185c5.968,5.449,9.368,13.158,9.368,21.239V303.48
		c0,11.177-9.145,20.322-20.322,20.322l0,0c-11.177,0-20.322-9.145-20.322-20.322V192.809c0-7.566-2.982-14.827-8.298-20.21
		L300.55,91.475"/>
	<path style="fill:#CC7400;" d="M216.517,91.474l-69.294,63.268c-12.19,11.13-19.134,26.874-19.134,43.38v215.206
		c0,11.177,9.145,20.322,20.322,20.322l0,0c11.177,0,20.322-9.145,20.322-20.322V205.12c0-15.454,6.089-30.285,16.949-41.279
		l71.479-72.366"/>
</g>
<path style="fill:#C70024;" d="M373.495,122.647c-4.184,4.184-9.959,6.776-16.294,6.776H180.894c-12.681,0-23.05-10.379-23.05-23.06
	c0-6.346,2.592-12.101,6.766-16.284c4.184-4.184,9.949-6.776,16.284-6.776h0.571c4.244,0,7.877-3.113,8.478-7.316
	c5.555-38.724,38.855-68.481,79.11-68.481c7.547,0,14.843,1.041,21.769,3.003c29.987,8.468,52.817,34.01,57.331,65.478
	c0.611,4.204,4.234,7.316,8.488,7.316c12.181,0,22.68,9.228,23.561,21.379C380.701,111.677,378.039,118.103,373.495,122.647z"/>
<path style="fill:#FF0C38;" d="M373.495,122.647c-4.184,4.184-9.959,6.776-16.294,6.776H224.432
	c-12.691,0-23.061-10.379-23.061-23.06c0-6.346,2.592-12.101,6.766-16.284c4.194-4.184,9.959-6.776,16.294-6.776h0.561
	c4.254,0,7.887-3.113,8.488-7.316c4.514-31.468,27.344-57.011,57.341-65.478c29.987,8.468,52.817,34.01,57.331,65.478
	c0.611,4.204,4.234,7.316,8.488,7.316c12.181,0,22.68,9.228,23.561,21.379C380.701,111.677,378.039,118.103,373.495,122.647z"/>
<path d="M389.81,481.447c-74.159,20.704-174.219,20.702-248.317,0.141c-3.997-1.11-8.133,1.23-9.24,5.226
	c-1.109,3.995,1.23,8.132,5.226,9.24c76.046,21.104,178.955,21.468,256.369-0.146c3.994-1.115,6.327-5.256,5.212-9.248
	C397.944,482.667,393.805,480.333,389.81,481.447z"/>
<path d="M494.332,145.846c0-1.303,0-36.332,0-35.562c-0.04-4.124-3.393-7.437-7.507-7.437c-4.134,0-7.507,3.363-7.507,7.487
	c-0.392,0.929,3.521,21.297-36.302,43.088c-6.208,3.4-13.904,6.878-14.903,7.246l-43.889-40.066
	c2.652-5.004,3.883-10.7,3.463-16.465c-1.151-15.894-14.783-28.345-31.048-28.345c-0.53,0-0.981-0.38-1.051-0.871
	c-1.912-13.342-6.906-25.983-14.463-36.973c61.585,8.588,111.199,27.865,130.406,52.577c1.481,1.902,3.693,2.903,5.935,2.903
	c6.23,0,9.807-7.175,5.675-12.431c-23.751-30.197-83.714-52.437-157.33-60.063c-32.651-27.916-80.883-27.915-113.541,0.01
	c-41.737,4.334-79.671,13.432-108.947,26.293c-64.528,28.337-59.067,62.554-59.553,63.627v1.481
	c0.241,34.713-1.589,40.388,4.814,53.197c-13.112,11.971-19.998,25.212-19.998,39.065v1.651v33.5c0,8.317,2.492,16.425,7.337,24.161
	c-20.852,20.05-17.965,37.777-18.256,39.055v33.51c0,14.67,7.766,28.671,22.45,41.184v8.18v33.5
	c0,25.833,24.001,49.554,67.57,66.809c0.911,0.35,1.842,0.52,2.762,0.52c8.268,0,10.422-11.466,2.762-14.483
	c-36.913-14.613-58.082-33.87-58.082-52.847v-1.041c57.452,61.922,253.158,77.59,366.986,33.079
	c23.891-9.338,41.967-20.598,53.548-33.079c-0.355,0.662,5.32,28.623-57.591,53.688c-3.853,1.541-5.725,5.905-4.194,9.759
	c1.171,2.933,3.994,4.724,6.976,4.724c0.921,0,1.862-0.17,2.772-0.53c43.238-17.225,67.05-40.876,67.05-66.599
	c0-9.38,0-26.968,0-35.151c0-14.843-7.907-28.976-22.9-41.587c0.778-5.266,0.316-6.039,0.45-40.186
	c-0.099-0.696,0.989-11.964-7.327-25.272c11.961-11.52,18.246-24.191,18.246-37.393v-34.05c-0.091-0.808,0.76-9.676-4.814-20.788
	C485.834,174.47,494.332,161.329,494.332,145.846z M437.131,303.476v-9.018c4.314-2.462,8.317-5.004,11.991-7.617
	c7.948,14.159,3.669,27.149-7.447,38.885c-3.433,3.613-7.587,7.166-12.441,10.609c-58.865,41.811-175.838,48.313-252.995,38.584
	v-48.003c105.148,15.48,200.635-6.8,207.965-11.43c4.484,9.348,14.052,15.824,25.092,15.824
	C424.65,331.312,437.131,318.821,437.131,303.476z M176.239,311.744v-19.968c65.014,9.526,142.652,6.972,205.232-10.359v19.517
	C380.597,301.059,293.017,329.489,176.239,311.744z M58.785,110.866c0.415-0.822-4.263-25.806,50.575-49.884
	c23.951-10.519,54.138-18.406,87.628-23.06c-7.567,11-12.561,23.651-14.473,37.003c-0.156,1.093-1.516,0.845-1.621,0.871
	c-29.18,0-41.72,37.231-18.466,54.909l-38.714,35.341c-20.213-7.439-43.326-18.859-57.241-35.301
	C65.256,128.769,58.785,124.116,58.785,110.866z M120.58,180.958v19.167c-10.412-3.924-17.023-7.11-24.041-10.78
	c-1.958,0-37.724-20.679-37.724-42.268c-0.044-0.903-0.026-1.449-0.03-2.232c2.352,2.532,4.964,5.004,7.827,7.407
	c3.974,3.343,8.427,6.566,13.312,9.649C91.284,169.048,104.996,175.454,120.58,180.958z M57.174,178.166
	c15.305,17.593,41.312,30.233,63.406,37.924v48.123c-28.597-8.964-76.978-29.892-76.978-59.603
	C43.602,195.762,48.316,186.754,57.174,178.166z M45.393,275.743c11.45,11.57,28.565,22.03,50.765,30.817
	c0.911,0.36,1.842,0.53,2.762,0.53c8.261,0,10.424-11.458,2.762-14.483c-19.028-7.53-44.149-20.534-54.028-38.334
	c-4.631-8.324-3.995-15.094-4.054-15.554c18.724,20.177,50.621,33.279,76.978,41.066c0,15.424,0,38.756,0,61.634
	c0,4.117,3.18,7.702,7.294,7.815c4.251,0.117,7.719-3.29,7.719-7.504c0-20.468,0-140.923,0-160.164c0-3.849,1.62-7.522,4.464-10.117
	c4.377-3.996,40.244-36.741,44.345-40.485c3.51-3.204,1.243-9.049-3.509-9.049c-13.762,0-20.791-16.689-10.98-26.534
	c5.133-5.133,11.285-4.524,11.55-4.574c7.947,0,14.783-5.915,15.904-13.762c2.352-16.345,10.179-30.817,21.469-41.677
	c43.376-41.728,113.737-15.126,121.888,41.687c1.105,7.822,7.98,13.752,15.914,13.752c14.725,0,21.701,17.588,10.812,27.218
	c-2.273,2.011-2.184,5.601,0.058,7.647c13.758,12.561,49.623,45.305,51.84,47.326c1.764,1.611,2.767,3.889,2.767,6.278
	c0,17.642,0,104.872,0,123.825c0,6.897-5.289,12.84-12.177,13.181c-7.359,0.363-13.456-5.526-13.456-12.805
	c0-14.668,0-27.677,0-42.368c-0.032-4.442-3.94-7.974-8.509-7.382c-3.776,0.489-6.505,3.886-6.505,7.694v4.502
	c-62.185,18.151-142.071,20.279-205.232,10.78v-7.132c0-4.075-3.124-7.619-7.195-7.784c-4.281-0.174-7.818,3.263-7.818,7.501
	c0,9.604,0,94.119,0,103.502c0,28.676,0,11.436,0,40.536c0,13.493-18.856,18.004-24.542,5.175v-0.01
	c-0.701-1.581-1.091-3.323-1.091-5.165c0-45.314,0.366-43.32-1.261-45.741c-23.307-5.358-49.397-13.826-69.882-26.163
	c-20.478-12.331-31.768-26.383-31.768-40.086C32.682,292.768,37.086,284.07,45.393,275.743z M462.414,358.066
	c8.648,8.498,13.252,17.385,13.252,26.133c0,37.493-84.495,77.629-210.267,77.629c-120.717,0-203.401-36.973-209.856-73.095
	c8.548,5.235,18.476,10.109,29.706,14.553c0.901,0.36,1.842,0.53,2.752,0.53c8.221,0,10.467-11.435,2.772-14.493
	c-15.439-6.108-32.976-15.007-44.88-26.664c-8.628-8.458-13.212-17.345-13.212-26.173v-1.051
	c20.947,22.522,58.023,36.304,87.898,44.109v19.597c-0.51-0.14-1.021-0.28-1.531-0.42c-3.994-1.111-8.137,1.231-9.238,5.225
	c-1.111,3.994,1.231,8.127,5.225,9.238c1.842,0.51,3.703,1.011,5.585,1.501c0.701,14.723,12.911,26.474,27.795,26.474
	c11.25,0,20.969-6.716,25.343-16.355c62.437,8.048,136.718,5.254,197.646-11.77c3.994-1.111,6.326-5.255,5.205-9.248
	c-1.111-3.994-5.245-6.326-9.248-5.215c-59.172,16.539-131.153,19.05-191.12,11.42v-20.028
	c69.637,8.631,158.157,4.07,223.429-21.439c18.768-7.332,39.747-18.181,53.548-33.089c-0.484,0.713,5.607,28.53-57.591,53.688
	c-3.843,1.541-5.725,5.905-4.194,9.759c1.171,2.943,3.994,4.724,6.976,4.724c0.931,0,1.862-0.17,2.772-0.53
	C431.977,390.804,452.915,375.28,462.414,358.066z M464.135,239.761c0,15.458-14.002,28.634-27.004,37.113v-17.566
	c9.756-5.557,19.339-12.334,27.004-20.598V239.761z M437.131,241.681v-33.42c8.441-3.807,17.439-8.659,24.992-13.792
	C469.669,213.644,454.386,230.244,437.131,241.681z M474.545,161.58c-8.097,13.159-23.569,23.178-37.413,30.057V173.1
	c14.971-6.746,30.976-16.271,42.188-28.365c-0.117,0.761,0.887,7.444-4.774,16.835C474.545,161.57,474.545,161.57,474.545,161.58z"
	/>
<path d="M167.753,246.704c4.58,0.581,8.487-2.979,8.487-7.445v-8.748c63.879,11.601,141.573,10.795,205.232-3.954
	c0.114,3.88-0.308,5.236,0.53,7.357c3.011,7.581,14.483,5.635,14.483-3.022c0-27.167,0-26.392,0-49.895
	c0-1.972-0.781-3.863-2.162-5.275c-11.588-11.73-26.781-27.109-38.324-38.794l-13.295-13.465c-0.978-0.991-2.312-1.548-3.703-1.548
	c-12.71,0-101.657,0-120.29,0c-1.392,0-2.725,0.557-3.703,1.548l-13.295,13.465c-40.68,41.304-40.486,39.552-40.486,44.069
	c0,14.349,0,44.094,0,58.009C161.226,242.822,163.968,246.224,167.753,246.704z M176.239,195.37
	c28.445,5.155,59.923,7.967,92.812,7.967h0.06c2.983,0,5.775-1.712,6.886-4.474c2.172-5.415-1.822-10.539-6.946-10.539
	c-31.868,0-62.205-2.672-89.51-7.587l43.278-43.809h112.07l40.006,40.496c-24.262,5.395-51.206,8.918-79.391,10.269
	c-4.144,0.2-7.336,3.713-7.136,7.857c0.19,4.014,3.503,7.146,7.487,7.146c0.12,0,0.24,0,0.37-0.01
	c30.287-1.451,59.253-5.355,85.246-11.37v19.708c-62.866,15.117-140.08,16.412-205.232,4.194V195.37z"/>
<g>
</g>
<g>
</g>
<g>
</g>
<g>
</g>
<g>
</g>
<g>
</g>
<g>
</g>
<g>
</g>
<g>
</g>
<g>
</g>
<g>
</g>
<g>
</g>
<g>
</g>
<g>
</g>
<g>
</g>
</svg>
