<?xml version="1.0" encoding="iso-8859-1"?>
<!-- Generator: Adobe Illustrator 19.0.0, SVG Export Plug-In . SVG Version: 6.00 Build 0)  -->
<svg version="1.1" id="Capa_1" xmlns="http://www.w3.org/2000/svg" xmlns:xlink="http://www.w3.org/1999/xlink" x="0px" y="0px"
	 viewBox="0 0 512 512" style="enable-background:new 0 0 512 512;" xml:space="preserve">
<path style="fill:#3E3D42;" d="M288.022,281.333v191.139c0,17.613-14.41,32.023-32.023,32.023s-32.023-14.41-32.023-32.023V281.333
	c0-6.605,5.404-12.009,12.009-12.009h40.029C282.618,269.324,288.022,274.728,288.022,281.333z"/>
<path style="fill:#2D2D30;" d="M288.022,281.333v96.97c-10.247,2.612-20.975,3.993-32.023,3.993
	c-11.048,0-21.776-1.381-32.023-3.993v-96.97c0-6.605,5.404-12.009,12.009-12.009h40.029
	C282.618,269.324,288.022,274.728,288.022,281.333z"/>
<circle style="fill:#1D1D1F;" cx="255.996" cy="182.633" r="175.127"/>
<g>
	<path style="fill:#2D2D30;" d="M413.443,182.651c0,82.9-63.986,150.84-145.266,157.134c-4.073,0.32-8.196,0.48-12.349,0.48
		c-87.043,0-157.615-70.561-157.615-157.615c0-87.043,70.571-157.615,157.615-157.615c4.153,0,8.276,0.16,12.349,0.48
		C349.457,31.811,413.443,99.761,413.443,182.651z"/>
	<path style="fill:#2D2D30;" d="M413.443,182.651c0,82.9-63.986,150.84-145.266,157.134
		c-81.279-6.285-145.276-74.234-145.276-157.134c0-82.89,63.996-150.85,145.276-157.134
		C349.457,31.811,413.443,99.761,413.443,182.651z"/>
</g>
<path style="fill:#FFEB99;" d="M398.983,189.906c0,49.056-39.759,88.815-88.815,88.815h-0.27
	c-16.032-0.05-31.643,4.633-45.043,13.45c-10.137,6.675-21.736,11.328-34.205,13.38c-4.894,0.811-9.927,1.221-15.061,1.191
	c-48.225-0.27-87.794-39.649-88.294-87.864c-0.34-32.003,16.252-60.154,41.37-76.045c8.696-5.504,13.47-15.351,13.18-25.639
	c-0.03-1.221-0.03-2.452,0.02-3.693c1.091-29.561,25.669-53.309,55.25-53.439c5.134-0.02,10.097,0.65,14.821,1.931
	c13.88,3.763,25.599,12.789,32.904,24.788c5.344,8.796,14.751,14.34,25.048,14.31h0.821
	C359.664,101.382,398.983,140.951,398.983,189.906z"/>
<path style="fill:#FFF5CC;" d="M398.983,189.906c0,49.056-39.759,88.815-88.815,88.815h-0.27
	c-16.032-0.05-31.643,4.633-45.043,13.45c-10.137,6.675-21.736,11.328-34.205,13.38c-41.68-6.915-73.884-43.201-74.334-86.673
	c-0.34-32.003,16.252-60.154,41.37-76.045c8.696-5.504,13.47-15.351,13.18-25.639c-0.03-1.221-0.03-2.452,0.02-3.693
	c0.911-24.668,18.173-45.283,41.05-51.507c13.88,3.763,25.599,12.789,32.904,24.788c5.344,8.796,14.751,14.34,25.048,14.31h0.821
	C359.664,101.382,398.983,140.951,398.983,189.906z"/>
<path style="fill:#EE8700;" d="M312.21,187.324c0,26.029-17.693,47.925-41.7,54.319c-4.633,1.231-9.497,1.891-14.511,1.891
	c-31.043,0-56.211-25.168-56.211-56.211s25.168-56.211,56.211-56.211c5.014,0,9.877,0.66,14.511,1.891
	C294.517,139.4,312.21,161.295,312.21,187.324z"/>
<path style="fill:#FF9811;" d="M312.21,187.324c0,26.029-17.693,47.925-41.7,54.319c-24.007-6.395-41.7-28.291-41.7-54.319
	s17.693-47.925,41.7-54.319C294.517,139.4,312.21,161.295,312.21,187.324z"/>
<path d="M88.377,182.631c0-95.285,79.472-170.496,172.415-167.552c4.133,0.13,7.596-3.152,7.716-7.295
	c0.11-4.143-3.152-7.596-7.295-7.706C158.56-2.909,73.366,79.886,73.366,182.631c0,42.071,14.651,83.13,41.24,115.614
	c1.491,1.811,3.643,2.752,5.814,2.752c6.273,0,9.832-7.358,5.804-12.259C101.817,258.926,88.377,221.239,88.377,182.631z"/>
<path d="M396.761,66.256c-26.649-32.193-63.756-54.44-104.496-62.656c-4.063-0.821-8.016,1.811-8.836,5.874
	c-0.821,4.063,1.811,8.026,5.874,8.846c77.827,15.681,134.318,84.782,134.318,164.309c0,78.817-54.68,145.095-128.093,162.908
	c-50.847,12.402-107.078,0.392-149.298-36.216c-3.132-2.722-7.866-2.382-10.588,0.751c-2.712,3.132-2.382,7.866,0.751,10.588
	c23.067,20.005,50.637,33.755,80.078,40.269v111.541c0,21.796,17.733,39.529,39.529,39.529s39.529-17.733,39.529-39.529v-50.987
	c0-4.143-3.362-7.505-7.505-7.505s-7.505,3.362-7.505,7.505v50.987c0,13.52-10.998,24.518-24.518,24.518
	s-24.518-10.998-24.518-24.518V363.612c16.366,2.208,32.851,2.193,49.036,0.01v27.84c0,4.153,3.362,7.505,7.505,7.505
	s7.505-3.352,7.505-7.505v-30.502C428.143,331.58,483.711,171.32,396.761,66.256z"/>
<path d="M319.711,187.324c0-54.861-65.188-83.899-106.004-47.655c-3.099,2.753-3.38,7.496-0.628,10.597
	c2.752,3.098,7.495,3.378,10.596,0.628c31.224-27.728,81.026-5.446,81.026,36.429c0,26.855-21.848,48.702-48.701,48.702
	c-32.984,0-56.453-32.257-46.379-63.613c1.268-3.946-0.904-8.174-4.851-9.442c-3.947-1.268-8.173,0.904-9.442,4.851
	c-13.196,41.086,17.592,83.215,60.67,83.215C291.131,251.038,319.711,222.457,319.711,187.324z"/>
<path d="M143.908,165.639c-3.543-2.142-8.156-1.001-10.297,2.542c-9.047,14.971-13.83,32.173-13.83,49.746c0,0.34,0,0.68,0.01,1.031
	c0.673,65.165,66.108,112.147,128.754,89.685c3.903-1.391,5.934-5.694,4.533-9.597c-1.391-3.903-5.694-5.934-9.597-4.533
	c-52.816,18.912-108.117-20.632-108.679-75.715l-0.01-0.871c0-14.841,4.033-29.351,11.658-41.98
	C148.601,172.394,147.46,167.78,143.908,165.639z"/>
<path d="M310.168,271.215c-1.123,0.127-19.965-0.972-41.05,9.797c-6.989,3.571-4.413,14.18,3.432,14.18
	c2.615,0,3.356-1.017,7.966-2.962c15.321-6.58,29.2-5.958,29.652-6.004c70.908,0,117.271-74.309,86.993-137.8
	c-1.781-3.743-6.265-5.334-9.997-3.553c-3.743,1.781-5.334,6.265-3.553,10.007C409.161,208.477,370.025,271.215,310.168,271.215z"/>
<path d="M310.739,93.586h-0.951c-7.535,0-14.461-4.003-18.543-10.698c-21.126-34.777-68.634-40.595-97.651-12.539
	c-13.306,12.865-19.816,30.13-19.244,47.054c0,8.902-3.86,15.391-9.697,19.084c-3.422,2.172-6.755,4.583-9.887,7.175
	c-5.414,4.48-2.214,13.29,4.783,13.29c4.188,0,4.399-2.248,13.13-7.776c10.448-6.615,16.692-18.243,16.692-31.093
	c0-1.046-0.083-2.047-0.01-4.313c0.941-25.358,22.376-46.083,47.755-46.204c0.152,0.04,26.454-1.294,41.31,23.117
	c6.815,11.218,18.543,17.913,31.463,17.913c0.814,0.164,32.118-2.062,57.972,23.927c2.922,2.942,7.676,2.952,10.608,0.03
	c2.942-2.922,2.952-7.676,0.03-10.618C360.475,103.814,336.407,93.746,310.739,93.586z"/>
<g>
</g>
<g>
</g>
<g>
</g>
<g>
</g>
<g>
</g>
<g>
</g>
<g>
</g>
<g>
</g>
<g>
</g>
<g>
</g>
<g>
</g>
<g>
</g>
<g>
</g>
<g>
</g>
<g>
</g>
</svg>
