<?xml version="1.0" encoding="iso-8859-1"?>
<!-- Generator: Adobe Illustrator 19.0.0, SVG Export Plug-In . SVG Version: 6.00 Build 0)  -->
<svg version="1.1" id="Capa_1" xmlns="http://www.w3.org/2000/svg" xmlns:xlink="http://www.w3.org/1999/xlink" x="0px" y="0px"
	 viewBox="0 0 512.002 512.002" style="enable-background:new 0 0 512.002 512.002;" xml:space="preserve">
<path style="fill:#FFD422;" d="M504.473,248.509v153.92c0,21.476-17.409,38.885-38.885,38.885h-56.173
	c-4.451,0-7.884-3.863-7.419-8.289c0.982-9.342-0.871-19.07-5.929-27.83c-12.736-22.05-40.934-29.612-62.985-16.875
	c-16.078,9.276-24.442,26.764-22.878,44.102c0.432,4.785-3.38,8.892-8.185,8.892H46.411c-21.476,0-38.884-17.409-38.884-38.884
	V234.338h482.776C498.129,234.338,504.473,240.683,504.473,248.509z"/>
<g>
	<path style="fill:#FFDE55;" d="M114.634,330.305c0,11.361-6.363,21.226-15.726,26.224c-4.165,2.228-8.922,3.493-13.98,3.493
		c-16.409,0-29.716-13.298-29.716-29.716c0-16.409,13.308-29.706,29.716-29.706c5.058,0,9.815,1.265,13.98,3.493
		C108.271,309.089,114.634,318.954,114.634,330.305z"/>
	<path style="fill:#FFDE55;" d="M210.758,374.694c-0.492,7.437-4.336,13.86-9.956,17.894c-4.356,3.131-9.795,4.827-15.566,4.446
		c-13.217-0.883-23.213-12.304-22.34-25.521c0.873-13.217,12.304-23.213,25.521-22.34c4.637,0.301,8.882,1.917,12.394,4.446
		C207.316,358.295,211.32,366.113,210.758,374.694z"/>
	<path style="fill:#FFDE55;" d="M464.447,328.368c-0.492,7.447-4.336,13.87-9.956,17.904c-4.366,3.131-9.795,4.817-15.566,4.436
		c-13.217-0.873-23.213-12.304-22.34-25.521c0.873-13.217,12.304-23.213,25.521-22.34c4.637,0.311,8.872,1.917,12.384,4.446
		C460.994,311.959,465.009,319.787,464.447,328.368z"/>
	<path style="fill:#FFDE55;" d="M318.534,326.632c-2.489,2.128-5.199,3.834-8.039,5.118c-13.378,6.072-29.686,2.88-39.712-8.852
		c-12.164-14.221-10.488-35.598,3.723-47.761c10.317-8.822,24.407-10.357,36.009-5.118c4.386,1.987,8.42,4.948,11.752,8.852
		C334.431,293.092,332.755,314.478,318.534,326.632z"/>
</g>
<g>
	<path style="fill:#FFEB99;" d="M114.634,330.305c0,11.361-6.363,21.226-15.726,26.224c-9.374-4.988-15.746-14.863-15.746-26.224
		c0-11.361,6.373-21.226,15.746-26.214C108.271,309.089,114.634,318.954,114.634,330.305z"/>
	<path style="fill:#FFEB99;" d="M210.758,374.694c-0.492,7.437-4.336,13.86-9.956,17.894c-6.503-4.677-10.518-12.495-9.956-21.076
		c0.492-7.447,4.336-13.87,9.966-17.894C207.316,358.295,211.32,366.113,210.758,374.694z"/>
	<path style="fill:#FFEB99;" d="M464.447,328.368c-0.492,7.447-4.336,13.87-9.956,17.904c-6.503-4.677-10.518-12.505-9.946-21.086
		c0.492-7.437,4.326-13.86,9.946-17.894C460.994,311.959,465.009,319.787,464.447,328.368z"/>
	<path style="fill:#FFEB99;" d="M318.534,326.632c-2.489,2.128-5.199,3.834-8.039,5.118c-4.386-1.987-8.42-4.948-11.762-8.852
		c-12.154-14.221-10.488-35.598,3.733-47.761c2.489-2.128,5.209-3.834,8.049-5.118c4.386,1.987,8.42,4.948,11.752,8.852
		C334.431,293.092,332.755,314.478,318.534,326.632z"/>
</g>
<path style="fill:#FFCD00;" d="M504.139,407.542c-2.499,19.058-18.797,33.771-38.548,33.771h-56.179
	c-4.451,0-7.884-3.863-7.419-8.29c0.983-9.34-0.868-19.065-5.921-27.83c-12.746-22.049-40.937-29.606-62.986-16.87
	c-16.082,9.274-24.448,26.76-22.885,44.099c0.432,4.785-3.381,8.891-8.185,8.891H46.409c-21.473,0-38.879-17.406-38.879-38.879
	V241.507l30.69-0.361v154.353c0,6.624,5.419,12.043,12.043,12.043h232.786c3.764,0,7.094-2.367,8.405-5.897
	c9.822-26.445,35.288-45.286,65.156-45.286c29.868,0,55.334,18.842,65.156,45.286c1.311,3.529,4.641,5.897,8.405,5.897H504.139z"/>
<path style="fill:#FFDA44;" d="M7.527,241.511c0-90.688,70.55-164.899,159.759-170.743c6.944-0.455,13.889,0.904,20.105,4.031
	l309.91,160.904L7.527,241.511z"/>
<path style="fill:#FFD422;" d="M187.394,74.8l25.18,13.077C125.804,93.938,54.96,157.757,38.22,241.146l-30.69,0.361
	c0-90.685,70.543-164.891,159.752-170.742C174.227,70.314,181.172,71.669,187.394,74.8z"/>
<path d="M503.26,231.117l-83.732-44.273c-3.69-1.915-8.234-0.479-10.148,3.212c-1.916,3.689-0.478,8.233,3.212,10.148l51.248,26.608
	H133.037c-4.158,0-7.527,3.369-7.527,7.527s3.369,7.527,7.527,7.527h357.266c3.663,0,6.644,2.981,6.644,6.644v153.919
	c0,17.291-14.067,31.358-31.357,31.358h-56.104c0.194-1.856,0.291-3.72,0.291-5.589c0-9.364-2.487-18.62-7.191-26.767
	c-9.556-16.546-27.372-26.825-46.495-26.825c-9.365,0-18.623,2.488-26.769,7.194c-16.549,9.548-26.829,27.363-26.829,46.491
	c0,1.84,0.094,3.673,0.282,5.497h-45.04c-4.158,0-7.527,3.369-7.527,7.527s3.369,7.527,7.527,7.527h54.171
	c2.375,0,4.611-1.12,6.032-3.024c1.42-1.903,1.861-4.365,1.186-6.641c-1.046-3.531-1.576-7.193-1.576-10.886
	c0-13.765,7.395-26.583,19.301-33.454c5.864-3.386,12.518-5.177,19.243-5.177c13.762,0,26.582,7.395,33.459,19.298
	c3.384,5.861,5.173,12.514,5.173,19.239c0,3.714-0.535,7.411-1.591,10.985c-0.671,2.276-0.23,4.736,1.19,6.637
	c1.421,1.902,3.656,3.021,6.03,3.021h65.239c25.592,0,46.411-20.821,46.411-46.412V248.51
	C512,241.399,508.561,235.076,503.26,231.117z"/>
<path d="M227.626,433.788H46.411c-17.29,0-31.357-14.067-31.357-31.358V241.866h87.875c4.158,0,7.527-3.369,7.527-7.527
	s-3.369-7.527-7.527-7.527H15.723c7.134-79.263,71.35-143.245,152.052-148.532c5.632-0.365,11.318,0.772,16.147,3.199
	L385.87,186.331c3.687,1.914,8.232,0.479,10.148-3.212c1.916-3.689,0.478-8.233-3.212-10.148L190.772,68.076
	c-7.306-3.674-15.668-5.352-23.979-4.818c-45.188,2.961-87.209,22.816-118.325,55.91c-29.2,31.056-46.138,71.019-48.242,113.365
	C0.084,233.112,0,233.715,0,234.339v168.09c0,25.592,20.82,46.412,46.411,46.412h181.214c4.158,0,7.527-3.369,7.527-7.527
	S231.783,433.788,227.626,433.788z"/>
<path d="M78.582,309.039c3.984-1.186,6.252-5.377,5.067-9.362c-1.185-3.984-5.373-6.25-9.362-5.067
	c-15.664,4.663-26.605,19.342-26.605,35.698c0,20.536,16.706,37.241,37.241,37.241c20.535,0,37.24-16.706,37.24-37.24
	c0.001-10.673-4.588-20.849-12.594-27.919c-3.115-2.752-7.872-2.458-10.624,0.658c-2.752,3.115-2.457,7.872,0.658,10.624
	c4.77,4.214,7.506,10.277,7.506,16.636c0,12.234-9.953,22.187-22.186,22.187s-22.187-9.954-22.187-22.187
	C62.737,320.563,69.253,311.816,78.582,309.039z"/>
<path d="M186.851,389.558c-0.372,0-0.748-0.013-1.116-0.036c-7.833-0.52-14.239-6.536-15.233-14.306
	c-0.527-4.124-4.3-7.031-8.421-6.511c-4.123,0.527-7.039,4.297-6.511,8.421c1.904,14.892,14.172,26.424,29.178,27.418
	c0.702,0.045,1.409,0.068,2.104,0.068c16.522,0,30.321-12.923,31.417-29.43c0.045-0.702,0.068-1.409,0.068-2.104
	c0-16.521-12.923-30.321-29.415-31.417c-0.7-0.047-1.412-0.07-2.119-0.07c-4.721,0.001-9.27,1.03-13.523,3.058
	c-3.751,1.788-5.343,6.281-3.554,10.034c1.789,3.75,6.281,5.343,10.034,3.554c2.543-1.213,5.26-1.75,8.158-1.555
	c8.616,0.572,15.365,7.774,15.365,16.396c0,0.372-0.013,0.748-0.036,1.116C202.674,382.809,195.472,389.558,186.851,389.558z"/>
<path d="M440.539,343.236c-0.367,0-0.738-0.012-1.114-0.037c-7.834-0.521-14.239-6.536-15.232-14.306
	c-0.526-4.123-4.289-7.035-8.42-6.512c-4.123,0.526-7.039,4.295-6.512,8.42c1.902,14.892,14.168,26.424,29.161,27.419
	c0.701,0.047,1.413,0.07,2.117,0.07c16.522,0,30.322-12.924,31.418-29.432c0.045-0.702,0.068-1.409,0.068-2.104
	c0-16.522-12.923-30.321-29.43-31.417c-5.476-0.353-10.75,0.661-15.624,2.988c-3.752,1.789-5.343,6.283-3.554,10.034
	c1.789,3.753,6.285,5.343,10.034,3.554c2.547-1.214,5.356-1.73,8.157-1.554c8.615,0.571,15.364,7.773,15.364,16.395
	c0,0.372-0.013,0.748-0.036,1.116C456.364,336.487,449.161,343.236,440.539,343.236z"/>
<path d="M313.647,320.91c-4.984,4.261-11.412,6.506-17.96,6.309c-4.141-0.109-7.625,3.143-7.75,7.298
	c-0.124,4.155,3.143,7.624,7.298,7.75c0.436,0.013,0.869,0.02,1.305,0.02c9.848,0,19.397-3.529,26.891-9.936
	c9.212-7.878,14.494-19.352,14.494-31.481c0-9.847-3.529-19.396-9.935-26.889c-7.876-9.212-19.35-14.495-31.482-14.495
	c-9.848,0-19.397,3.529-26.891,9.935c-9.212,7.879-14.494,19.353-14.494,31.482c0,9.14,2.926,17.809,8.463,25.069
	c2.522,3.305,7.243,3.941,10.55,1.421c3.306-2.521,3.942-7.245,1.421-10.55c-3.52-4.616-5.379-10.127-5.379-15.94
	c0-7.722,3.363-15.027,9.224-20.041c4.768-4.078,10.844-6.323,17.107-6.323c7.724,0,15.029,3.363,20.041,9.224
	c4.078,4.768,6.323,10.844,6.323,17.106C322.872,308.592,319.509,315.896,313.647,320.91z"/>
<g>
</g>
<g>
</g>
<g>
</g>
<g>
</g>
<g>
</g>
<g>
</g>
<g>
</g>
<g>
</g>
<g>
</g>
<g>
</g>
<g>
</g>
<g>
</g>
<g>
</g>
<g>
</g>
<g>
</g>
</svg>
