<?xml version="1.0" encoding="iso-8859-1"?>
<!-- Generator: Adobe Illustrator 19.0.0, SVG Export Plug-In . SVG Version: 6.00 Build 0)  -->
<svg version="1.1" id="Capa_1" xmlns="http://www.w3.org/2000/svg" xmlns:xlink="http://www.w3.org/1999/xlink" x="0px" y="0px"
	 viewBox="0 0 511.998 511.998" style="enable-background:new 0 0 511.998 511.998;" xml:space="preserve">
<path style="fill:#FF9811;" d="M323.126,74.689v362.688c0,32.111-22.853,59.142-53.101,65.634
	c-4.529,0.982-9.217,1.493-14.027,1.493c-18.455,0-35.247-7.554-47.41-19.717c-12.163-12.163-19.717-28.955-19.717-47.41V74.689
	c0-36.92,30.207-67.127,67.127-67.127c4.809,0,9.498,0.511,14.027,1.493c12.864,2.755,24.386,9.228,33.383,18.225
	C315.572,39.442,323.126,56.234,323.126,74.689z"/>
<path style="fill:#FFA733;" d="M323.126,74.689v362.688c0,32.111-22.853,59.142-53.101,65.634
	c-12.864-2.755-24.386-9.227-33.383-18.225c-12.163-12.163-19.717-28.955-19.717-47.41V74.689c0-32.111,22.853-59.142,53.101-65.634
	c12.864,2.755,24.386,9.227,33.383,18.225C315.572,39.442,323.126,56.234,323.126,74.689z"/>
<g>
	<path style="fill:#FFC477;" d="M288.234,114.109l-2.833,2.833c-4.676,4.676-12.327,4.676-17.003,0l-44.633-44.633
		c-4.676-4.676-4.676-12.327,0-17.003l2.833-2.833c4.676-4.676,12.327-4.676,17.003,0l44.633,44.633
		C292.91,101.782,292.91,109.433,288.234,114.109z"/>
	<path style="fill:#FFC477;" d="M288.234,228.325l-2.833,2.833c-4.676,4.676-12.327,4.676-17.003,0l-44.633-44.633
		c-4.676-4.676-4.676-12.327,0-17.003l2.833-2.833c4.676-4.676,12.327-4.676,17.003,0l44.633,44.633
		C292.91,215.999,292.91,223.649,288.234,228.325z"/>
	<path style="fill:#FFC477;" d="M288.234,342.542l-2.833,2.833c-4.676,4.676-12.327,4.676-17.003,0l-44.633-44.633
		c-4.676-4.676-4.676-12.327,0-17.003l2.833-2.833c4.676-4.676,12.327-4.676,17.003,0l44.633,44.633
		C292.91,330.216,292.91,337.866,288.234,342.542z"/>
	<path style="fill:#FFC477;" d="M223.765,397.958l2.833-2.833c4.676-4.676,12.327-4.676,17.003,0l44.633,44.633
		c4.676,4.676,4.676,12.327,0,17.003l-2.833,2.833c-4.676,4.676-12.327,4.676-17.003,0l-44.633-44.633
		C219.089,410.284,219.089,402.633,223.765,397.958z"/>
</g>
<path d="M231.556,491.713c-21.365-9.694-35.171-31.023-35.171-54.335V74.69c0-46.593,51.299-75.052,90.673-50.815
	c3.532,2.175,8.161,1.075,10.338-2.46c2.176-3.534,1.074-8.162-2.46-10.338c-49.329-30.366-113.579,5.257-113.579,63.613v362.688
	c0,29.196,17.267,55.896,43.989,68.022c1.007,0.457,2.062,0.673,3.1,0.673c2.858,0,5.59-1.64,6.848-4.411
	C237.009,497.882,235.335,493.428,231.556,491.713z"/>
<path d="M318.63,34.198c-2.262-3.48-6.913-4.468-10.396-2.206c-3.48,2.261-4.467,6.915-2.206,10.396
	c6.27,9.648,9.583,20.817,9.583,32.301v362.688c0,32.076-26.082,58.81-58.143,59.595c-4.149,0.102-7.43,3.548-7.328,7.697
	c0.101,4.087,3.445,7.33,7.508,7.33c37.805,0,72.992-32.835,72.992-74.622V74.689C330.64,60.292,326.487,46.291,318.63,34.198z"/>
<path d="M293.548,91.792l-20.919-20.919c-2.936-2.934-7.693-2.934-10.627,0c-2.935,2.936-2.935,7.693,0,10.627
	c20.955,21.585,22.225,20.796,22.225,24.108c0,2.831-2.181,3.746-4.141,6.021c-1.739,1.741-4.634,1.745-6.375,0l-44.633-44.633
	c-1.741-1.739-1.745-4.634,0-6.375c2.276-1.961,3.188-4.141,6.023-4.141c2.793,0,3.747,2.152,5.647,3.766
	c2.936,2.934,7.693,2.934,10.627,0c2.935-2.936,2.935-7.693,0-10.627c-1.343-0.993-6.095-8.166-16.274-8.166
	c-10.346,0-15.064,7.355-16.648,8.539c-7.619,7.611-7.618,20.015-0.003,27.632l44.631,44.63c3.679,3.683,8.585,5.71,13.816,5.71
	c10.346,0,15.064-7.355,16.648-8.539c3.683-3.679,5.71-8.585,5.71-13.816C299.255,100.38,297.228,95.473,293.548,91.792z"/>
<path d="M293.548,206.009l-18.794-18.794c-2.936-2.934-7.693-2.934-10.627,0c-2.935,2.936-2.935,7.693,0,10.627
	c18.68,19.302,20.1,18.681,20.1,21.982c0,2.831-2.181,3.746-4.141,6.021c-1.739,1.741-4.634,1.745-6.375,0l-20.656-20.656
	c-2.936-2.934-7.693-2.934-10.627,0c-2.935,2.936-2.935,7.693,0,10.627l20.654,20.653c7.611,7.619,20.015,7.618,27.632,0.003
	c1.189-1.589,8.541-6.307,8.541-16.649C299.255,214.596,297.228,209.69,293.548,206.009z"/>
<path d="M235.101,170.698c2.981,0,3.818,2.339,7.773,5.892c2.936,2.934,7.693,2.934,10.627,0c2.935-2.936,2.935-7.693,0-10.627
	c-2.95-2.305-7.517-10.293-18.4-10.293c-10.346,0-15.064,7.355-16.648,8.539c-7.619,7.611-7.618,20.015-0.003,27.632
	c1.914,1.541,3.619,4.923,8.036,4.923c6.637,0,10.06-8.08,5.314-12.828l-2.723-2.723c-1.741-1.739-1.745-4.634,0-6.375
	C231.355,172.878,232.266,170.698,235.101,170.698z"/>
<path d="M218.45,306.058l44.631,44.63c3.679,3.683,8.585,5.71,13.816,5.71c10.346,0,15.064-7.355,16.648-8.539
	c7.619-7.611,7.618-20.015,0.003-27.632l-3.915-3.915c-2.936-2.934-7.693-2.934-10.627,0c-2.935,2.936-2.935,7.693,0,10.627
	c2.859,3.226,5.222,4.158,5.222,7.104c0,2.831-2.181,3.746-4.141,6.021c-1.739,1.741-4.634,1.745-6.375,0
	c-45.767-46.433-45.939-44.268-45.939-47.821c0-1.214,0.463-2.345,1.306-3.187c2.276-1.961,3.188-4.141,6.023-4.141
	c3.301,0,2.594,1.337,22.649,20.768c2.936,2.934,7.693,2.934,10.627,0c2.935-2.936,2.935-7.693,0-10.627l-19.461-19.46
	c-7.611-7.619-20.015-7.618-27.632-0.003c-1.189,1.589-8.541,6.307-8.541,16.649C212.744,297.47,214.77,302.377,218.45,306.058z"/>
<path d="M276.897,470.614c10.346,0,15.064-7.355,16.648-8.539c7.619-7.611,7.618-20.015,0.003-27.632l-44.631-44.63
	c-7.611-7.619-20.015-7.618-27.632-0.003c-1.189,1.589-8.541,6.307-8.541,16.649c0,10.458,7.539,15.204,8.914,17.023
	c2.936,2.934,7.693,2.934,10.627,0c2.935-2.936,2.935-7.693,0-10.627l-3.207-3.207c-1.741-1.739-1.745-4.634,0-6.375l2.834-2.834
	c1.739-1.741,4.634-1.745,6.375,0c45.767,46.433,45.939,44.268,45.939,47.821c0,2.831-2.181,3.746-4.141,6.021
	c-1.739,1.741-4.634,1.745-6.375,0l-20.171-20.171c-2.936-2.934-7.693-2.934-10.627,0c-2.935,2.936-2.935,7.693,0,10.627
	l20.169,20.168C266.76,468.587,271.666,470.614,276.897,470.614z"/>
<g>
</g>
<g>
</g>
<g>
</g>
<g>
</g>
<g>
</g>
<g>
</g>
<g>
</g>
<g>
</g>
<g>
</g>
<g>
</g>
<g>
</g>
<g>
</g>
<g>
</g>
<g>
</g>
<g>
</g>
</svg>
