<?xml version="1.0" encoding="iso-8859-1"?>
<!-- Generator: Adobe Illustrator 19.0.0, SVG Export Plug-In . SVG Version: 6.00 Build 0)  -->
<svg version="1.1" id="Capa_1" xmlns="http://www.w3.org/2000/svg" xmlns:xlink="http://www.w3.org/1999/xlink" x="0px" y="0px"
	 viewBox="0 0 512 512" style="enable-background:new 0 0 512 512;" xml:space="preserve">
<path style="fill:#FF9811;" d="M360.105,71.454c-13.998-1.031-28.076-0.441-41.964,1.602L168.619,95.084l0.01,0.05
	c-0.007,0.001-0.028,0.002-0.037,0.004c-1.081,0.026-2.158,0.06-3.234,0.096c-16.212,0.425-88.689,3.361-133.288,40.541
	c-0.013,0.011-0.027,0.022-0.04,0.033c-0.479,0.4-0.956,0.801-1.429,1.209c-0.602,0.515-1.193,1.033-1.773,1.555
	c-0.029,0.026-0.059,0.051-0.088,0.077c-0.024,0.022-0.047,0.044-0.071,0.065c-0.386,0.348-0.77,0.698-1.146,1.05
	c-0.306,0.284-0.606,0.571-0.905,0.858c-0.215,0.206-0.435,0.411-0.646,0.618c-0.532,0.52-1.048,1.042-1.557,1.567
	c-0.142,0.146-0.281,0.294-0.423,0.441c-0.429,0.449-0.85,0.899-1.263,1.352c-0.11,0.121-0.222,0.241-0.332,0.363
	c-0.505,0.561-0.999,1.124-1.479,1.69c-0.092,0.108-0.18,0.218-0.271,0.326c-0.375,0.449-0.744,0.899-1.104,1.352
	c-0.158,0.198-0.315,0.398-0.471,0.597c-0.31,0.399-0.614,0.798-0.912,1.199c-0.232,0.311-0.461,0.624-0.686,0.937
	c-0.262,0.365-0.522,0.731-0.774,1.098c-0.213,0.31-0.42,0.621-0.626,0.933c-0.153,0.232-0.304,0.466-0.454,0.698
	c-0.752,1.172-1.453,2.353-2.104,3.547c-0.09,0.164-0.179,0.329-0.267,0.495c-0.205,0.385-0.408,0.771-0.602,1.158
	c-0.067,0.133-0.13,0.267-0.196,0.402c-0.327,0.665-0.639,1.333-0.934,2.004c-0.109,0.247-0.219,0.496-0.323,0.744
	c-0.129,0.307-0.256,0.616-0.378,0.924c-0.155,0.389-0.303,0.779-0.448,1.169c-0.068,0.185-0.142,0.369-0.207,0.555
	c-0.222,0.622-0.426,1.246-0.62,1.87c-0.029,0.093-0.056,0.185-0.084,0.278c-6.281,20.64,2.489,42.768,29.064,61.537
	c0.708,0.501,1.424,0.998,2.154,1.491c4.539,3.067,7.226,8.22,7.226,13.698v132.191c0,36.084,29.523,65.607,65.607,65.607h126.636
	l0.005-0.005l11.567-1.03c0.01,0,0.02,0,0.03-0.01l163.625-25.38c17.082-2.473,48.768-31.133,48.768-48.395V219.172
	c0-5.477,2.693-10.634,7.229-13.698c20.817-14.058,33.122-31.46,33.122-50.295C504.49,112.667,441.79,77.471,360.105,71.454z"/>
<path style="fill:#FFB655;" d="M331.078,179.673c0,16.481-14.409,29.678-26.504,37.849c-8.671,5.858-13.838,15.63-13.838,26.144
	v132.19c0,27.896-22.699,50.585-50.595,50.585H113.509c-27.896,0-50.585-22.689-50.585-50.585v-132.19
	c0-10.513-5.177-20.286-13.838-26.144c-12.096-8.17-26.514-21.367-26.514-37.849c0-16.381,15.039-33.293,41.273-46.41
	c29.928-14.969,70.05-23.21,112.985-23.21c6.839,0,13.607,0.21,20.276,0.631c35.175,2.163,67.537,9.993,92.699,22.579
	C316.039,146.38,331.078,163.292,331.078,179.673z"/>
<path style="fill:#FFC477;" d="M331.078,179.673c0,16.481-14.409,29.678-26.504,37.849c-8.671,5.858-13.838,15.63-13.838,26.144
	v132.19c0,27.896-22.699,50.585-50.595,50.585h-86.08c-27.896,0-50.595-22.689-50.595-50.585v-132.19
	c0-10.513-5.167-20.286-13.828-26.144c-12.106-8.17-26.524-21.367-26.524-37.849c0-16.381,15.049-33.293,41.283-46.41
	c25.162-12.586,57.534-20.416,92.709-22.579c35.175,2.163,67.537,9.993,92.699,22.579
	C316.039,146.38,331.078,163.292,331.078,179.673z"/>
<path style="fill:#CC7400;" d="M504.49,155.181c0,18.834-12.306,36.236-33.122,50.295c-4.536,3.064-7.229,8.221-7.229,13.698
	v147.469c0,17.262-31.686,45.922-48.768,48.395l-163.625,25.38c30.599-5.507,54.009-32.432,54.009-64.563v-132.19
	c0-2.423,0.521-4.776,1.502-6.919c1.232-2.703,3.184-5.066,5.717-6.779c20.817-14.058,33.123-31.46,33.123-50.295
	c0-46.74-75.787-84.639-169.267-84.639c-2.754,0-5.487,0.03-8.201,0.1l-0.01-0.05l149.522-22.028
	c13.888-2.043,27.966-2.633,41.964-1.602C441.79,77.471,504.49,112.667,504.49,155.181z"/>
<path style="fill:#EE8700;" d="M471.368,205.476c-4.536,3.064-7.229,8.221-7.229,13.698v147.469
	c0,17.262-31.686,45.922-48.768,48.395l-163.625,25.38c30.599-5.507,54.009-32.432,54.009-64.563v-132.19
	c0-2.423,0.521-4.776,1.502-6.919l0.471-0.06L471.368,205.476z"/>
<path d="M437.314,79.654c-3.895-1.412-8.211,0.591-9.622,4.486c-1.422,3.895,0.591,8.211,4.486,9.632
	c62.35,22.691,90.054,67.235,36.232,104.62l-136.448,26.021c34.163-32.422,30.936-79.806-32.084-111.308
	c-17.533-8.761-38.089-15.44-60.458-19.765c49.718-17.862,113.578-19.562,164.831-7.76c4.035,0.931,8.07-1.592,9.002-5.637
	c0.931-4.045-1.592-8.07-5.637-9.002c-22.799-5.247-47.151-7.91-72.403-7.91c-22.381,0-44.141,2.124-64.381,6.172L145.105,88.976
	C8.479,101.59-40.533,184.159,36.47,236.185c2.453,1.662,3.925,4.456,3.925,7.48v16.721c0,4.145,3.354,7.51,7.51,7.51
	c4.145,0,7.51-3.364,7.51-7.51v-16.721c0-8.02-3.945-15.46-10.534-19.916C-42.485,164.733,74.548,88.62,213.948,104.626
	c29.838,3.384,57.153,10.884,79.212,21.918c51.696,25.848,62.491,65.536,15.61,97.205c-6.588,4.456-10.524,11.895-10.524,19.916
	v15.64c0,4.145,3.354,7.51,7.51,7.51c4.145,0,7.51-3.364,7.51-7.51v-15.64c0-0.134,0.018-0.265,0.024-0.399l143.57-27.38
	c-0.438,3.205-0.145-1.569-0.23,97.028c0,4.155,3.364,7.51,7.51,7.51c4.155,0,7.51-3.354,7.51-7.51v-93.74
	c0-3.006,1.456-5.781,3.883-7.447C495.486,198.424,512,179.07,512,155.181C512,124.462,484.775,96.936,437.314,79.654z"/>
<path d="M464.139,335.442c-4.145,0-7.51,3.364-7.51,7.51v8.411c0,28.887-21.197,52.928-48.863,57.354
	c-130.868,20.145-113.216,17.427-114.869,17.682c4.705-4.909,8.771-10.382,12.178-16.941c5.237-10.063,8.191-21.488,8.191-33.603
	v-86.511c0-4.155-3.364-7.51-7.51-7.51c-4.155,0-7.51,3.354-7.51,7.51v86.511c0,19.937-10.157,38.033-26.334,48.622h-0.01
	c-9.758,6.408-20.764,9.472-31.761,9.472H113.509c-32.041,0-58.095-26.053-58.095-58.095v-85.43c0-4.145-3.364-7.51-7.51-7.51
	c-4.155,0-7.51,3.364-7.51,7.51v85.43c0,40.322,32.792,73.114,73.114,73.114h126.632c8.325,0,169.017-25.243,169.117-25.272
	c35.255-5.207,62.39-35.666,62.39-72.333v-8.411C471.648,338.807,468.294,335.442,464.139,335.442z"/>
<g>
</g>
<g>
</g>
<g>
</g>
<g>
</g>
<g>
</g>
<g>
</g>
<g>
</g>
<g>
</g>
<g>
</g>
<g>
</g>
<g>
</g>
<g>
</g>
<g>
</g>
<g>
</g>
<g>
</g>
</svg>
