<?xml version="1.0" encoding="iso-8859-1"?>
<!-- Generator: Adobe Illustrator 19.0.0, SVG Export Plug-In . SVG Version: 6.00 Build 0)  -->
<svg version="1.1" id="Capa_1" xmlns="http://www.w3.org/2000/svg" xmlns:xlink="http://www.w3.org/1999/xlink" x="0px" y="0px"
	 viewBox="0 0 511.998 511.998" style="enable-background:new 0 0 511.998 511.998;" xml:space="preserve">
<path style="fill:#EE8700;" d="M482.95,270.671c-17.551-8.011-36.265-13.914-55.824-17.362c-13.198-2.336-26.784-3.558-40.658-3.558
	c-115.067,0-210.646,83.454-229.519,193.124c-2.226,12.93-3.389,26.218-3.389,39.784v0.327c0.01,12.771-14.788,19.976-24.519,11.707
	c-27.738-23.584-49.891-53.548-64.173-87.627c-11.091-26.486-17.432-55.456-17.939-85.869
	C44.773,192.495,149.186,85.348,277.919,84.335c64.888-0.517,123.674,25.512,166.201,67.87
	c27.699,27.599,48.49,62.135,59.552,100.776C507.21,265.344,494.648,276.018,482.95,270.671z"/>
<path style="fill:#CC7400;" d="M444.12,152.205l-16.995,101.104c-13.198-2.336-26.784-3.558-40.658-3.558
	c-115.067,0-210.646,83.454-229.519,193.124c-31.475-11.588-67.383-25.84-92.08-35.808c-11.091-26.486-17.432-55.456-17.939-85.869
	C44.773,192.495,149.186,85.348,277.919,84.335C342.807,83.818,401.594,109.847,444.12,152.205z"/>
<path style="fill:#FFA733;" d="M413.669,107.959l-16.577,172.055c-0.517,5.417-5.088,9.491-10.534,9.491h-0.099
	c-84.388,0-156.312,54.393-182.54,129.975c-1.987,5.734-8.448,8.557-14.033,6.162L37.746,360.455l-6.759-2.902
	c-14.222-6.092-23.534-19.956-23.803-35.421l-0.01-0.268c-0.617-36.862,6.132-72.829,20.046-106.899
	c13.397-32.807,32.817-62.384,57.723-87.905c24.886-25.502,53.936-45.628,86.365-59.82c33.681-14.748,69.45-22.372,106.292-22.66
	c0.735-0.01,1.461-0.01,2.206-0.01c38.66,0,76.039,7.931,110.476,23.256c11.906,5.297,20.214,15.971,22.749,28.295
	C413.828,99.948,414.056,103.924,413.669,107.959z"/>
<g>
	<path style="fill:#FF9811;" d="M209.801,404.602c0.696-1.6,1.421-3.19,2.186-4.76C211.232,401.422,210.497,403.001,209.801,404.602
		z"/>
	<path style="fill:#FF9811;" d="M328.529,298.374L328.529,298.374L328.529,298.374L275.656,77.988
		c10.475-1.312,21.079-2.007,31.763-2.097c0.735-0.01,1.461-0.01,2.206-0.01c36.027,0,70.941,6.887,103.41,20.245
		c-2.535-12.324-10.843-22.997-22.749-28.295C355.849,52.506,318.47,44.575,279.81,44.575c-0.745,0-1.471,0-2.206,0.01
		c-36.842,0.288-72.611,7.911-106.292,22.66c-32.429,14.192-61.48,34.318-86.365,59.82c-24.906,25.522-44.325,55.099-57.723,87.905
		C13.31,249.04,6.562,285.007,7.178,321.869l0.01,0.268c0.268,15.464,9.58,29.329,23.803,35.421l6.759,2.902l152.138,65.186
		c5.586,2.395,12.046-0.428,14.033-6.162c2.663-7.682,5.805-15.146,9.392-22.351L61.601,332.135l-6.759-2.902
		c-6.499-2.773-11.966-7.175-16.011-12.612c2.842-24.091,8.935-47.635,18.207-70.344c13.397-32.807,32.817-62.384,57.723-87.905
		c24.886-25.502,53.936-45.628,86.365-59.82c2.833-1.242,5.675-2.425,8.537-3.558l68.724,227.651v0.01
		c1.869-1.272,3.767-2.505,5.685-3.717c0.04-0.02,0.079-0.05,0.119-0.069c0.492-0.308,0.987-0.607,1.481-0.909
		c0.493-0.302,0.984-0.612,1.481-0.909c0.984-0.597,1.977-1.193,2.982-1.759c0.089-0.05,0.179-0.109,0.268-0.159
		c0.914-0.527,1.839-1.053,2.773-1.561c0.507-0.283,1.021-0.554,1.53-0.829c0.509-0.275,1.013-0.556,1.53-0.829
		c1.094-0.586,2.206-1.163,3.319-1.719c0.944-0.487,1.888-0.954,2.842-1.421c1.153-0.556,2.306-1.103,3.469-1.64
		c0.666-0.308,1.342-0.617,2.018-0.915c0.239-0.109,0.467-0.209,0.706-0.308c0.556-0.248,1.113-0.497,1.68-0.735
		c1.143-0.497,2.306-0.984,3.469-1.451c0.954-0.398,1.908-0.775,2.872-1.143c1.5-0.597,3.021-1.163,4.552-1.709
		c0.437-0.169,0.875-0.318,1.312-0.467c0.646-0.238,1.292-0.457,1.948-0.676c0.527-0.189,1.063-0.368,1.59-0.536
		c0.686-0.229,1.372-0.457,2.067-0.666c0.001,0,0.002,0,0.002,0c0.507-0.159,1.022-0.318,1.528-0.477
		C329.254,298.145,328.886,298.265,328.529,298.374z"/>
</g>
<path style="fill:#FFB655;" d="M292.111,340.837c-9.938,13.666-28.613,17.611-48.331,6.331c-2.584-1.481-5.188-3.22-7.792-5.237
	l-88.93-64.044L28.146,185.836c-0.079-0.069-0.169-0.13-0.248-0.189c-12.92-10.078-15.732-29.14-6.55-43.024
	c12.712-19.221,27.43-37.03,44.037-53.23c37.051-36.137,80.789-61.817,127.968-75.741c11.429-3.379,23.356,0.566,30.868,9.322
	c2.306,2.693,4.204,5.854,5.535,9.392c0.895,2.395,1.689,4.861,2.365,7.374l39.863,148.66l25.124,109.751
	c1.212,4.522,1.948,8.845,2.257,12.94C300.301,323.255,297.479,333.463,292.111,340.837z"/>
<path style="fill:#FFC477;" d="M292.111,340.837l-87.409-62.95L85.789,185.836c-0.079-0.069-0.169-0.13-0.248-0.189
	c-12.92-10.078-15.732-29.14-6.55-43.024c12.712-19.221,27.43-37.03,44.037-53.23c29.934-29.199,64.242-51.571,101.193-66.419
	c2.306,2.693,4.204,5.854,5.535,9.392c0.895,2.395,1.689,4.861,2.365,7.374l39.863,148.66l25.124,109.751
	c1.212,4.522,1.948,8.845,2.257,12.94C300.301,323.255,297.479,333.463,292.111,340.837z"/>
<g>
	<path style="fill:#020202;" d="M28.215,195.763c-1.292,2.653-2.544,5.317-3.757,8.011c-1.689,3.757-0.01,8.17,3.747,9.849
		c3.755,1.69,8.181,0.005,9.849-3.737c0.725-1.6,1.461-3.201,2.216-4.79c14.787,10.87,15.996,13.814,20.384,13.814
		c7.092,0,10.176-9.007,4.571-13.357c-18.132-14.033-20.204-15.637-32.479-25.134c-10.093-7.879-11.797-22.646-4.92-33.026
		c19.688-29.778,44.545-56.299,73.157-77.927c3.28-2.474,3.936-7.155,1.451-10.435C99.96,55.74,95.28,55.095,92,57.569
		c-30.013,22.693-56.012,50.451-76.606,81.595c-4.333,6.55-6.619,14.192-6.619,22.113C8.776,184.845,26.688,194.019,28.215,195.763z
		"/>
	<path style="fill:#020202;" d="M278.585,344.015c-9.684,5.332-21.319,2.773-30.839-2.673
		c-5.277-2.975-88.07-61.685-158.945-117.533c-3.26-2.525-7.941-1.928-10.455,1.332c-2.525,3.25-1.928,7.93,1.332,10.455
		c106.67,82.572,76.532,58.181,152.128,112.97c1.292,0.994,2.604,1.938,3.916,2.823c-16.975,19.4-30.113,41.92-38.571,66.299
		c-0.487,1.392-1.779,2.007-2.852,2.007c-0.911,0,3.97,1.968-73.774-31.346c-3.787-1.62-8.17,0.13-9.789,3.916
		c-1.62,3.787,0.13,8.17,3.916,9.789l40.39,17.303c-9.43,34.104-8.342,59.512-8.667,64.282c0,5.883-6.1,9.43-10.784,7.017
		c-3.647-1.908-8.149-0.487-10.057,3.16c-1.898,3.657-0.477,8.159,3.17,10.057c14.631,7.616,32.579-3.235,32.579-20.275
		c0.205-3.123-0.779-26.902,7.593-58.309c17.383,7.045,19.424,9.312,25.422,9.312c7.632,0,14.441-4.83,16.936-12.026
		c8.219-23.693,21.209-45.488,38.084-64.034c12.186,4.603,25.3,4.669,36.444-1.461c3.607-1.977,4.93-6.509,2.951-10.118
		C286.724,343.358,282.202,342.037,278.585,344.015z"/>
	<path style="fill:#020202;" d="M63.338,380.061c24.78,10.4,24.172,10.853,26.843,10.853c8.054,0,10.374-11.128,2.931-14.311
		c-27.958-11.98-32.088-13.748-58.925-25.244c-11.499-4.93-19.072-16.199-19.29-28.712c-0.36-29.472,3.54-57.41,12.721-85.719
		c1.272-3.916-0.875-8.119-4.79-9.392c-3.905-1.272-8.119,0.875-9.382,4.79C-2.079,280.178,0.342,317.515,0,322.915
		c0.318,18.367,11.429,34.903,28.315,42.139l17.691,7.583c9.511,40.767,29.617,78.574,58.766,109.631
		c1.471,1.561,3.459,2.355,5.436,2.355c6.52,0,9.891-7.825,5.436-12.562C90.907,445.705,73.107,414.16,63.338,380.061z"/>
	<path style="fill:#020202;" d="M420.079,122.516l1.272-13.189c1.965-19.917-9.045-39.327-27.768-47.655
		c-49.802-22.159-103.423-28.225-153.42-21.06c-0.409-1.429-1.27-5.188-3.16-10.217c-6.804-18.057-26.293-28.892-45.488-23.246
		c-25.96,7.662-50.964,18.834-74.32,33.204c-3.508,2.157-4.601,6.749-2.444,10.256c2.157,3.508,6.749,4.601,10.256,2.444
		c22.232-13.685,46.025-24.31,70.722-31.605c11.397-3.368,23.147,3.11,27.32,14.192c1.703,4.514,0.657,1.189,19.311,70.712
		c1.02,3.798,4.918,6.354,9.134,5.267c3.976-1.063,6.331-5.158,5.267-9.134c-2.538-9.455-7.247-26.991-12.702-47.367
		c46.633-6.378,96.708-0.622,143.462,20.165c12.583,5.604,20.332,18.678,18.992,32.608l-6.381,66.23
		c-0.388,4.094,2.614,7.742,6.708,8.129c3.771,0.472,7.719-2.389,8.129-6.698l3.439-35.669
		c37.607,29.299,65.276,70.106,78.365,115.793c1.465,5.235-2.609,9.601-7.205,9.601c-2.458,0-2.83-0.733-11.141-4.165
		c-3.796-1.581-8.159,0.238-9.74,4.035c-1.571,3.806,0.239,8.17,4.045,9.74c7.857,3.245,10.588,5.297,16.836,5.297
		c12.373,0,22.431-10.008,22.431-22.302C512,246.351,489.551,172.417,420.079,122.516z"/>
	<path style="fill:#020202;" d="M449.318,251.209c-13.378-3.607-27.072-6.043-40.927-7.275l3.727-38.701
		c0.398-4.094-2.604-7.742-6.708-8.139c-4.094-0.388-7.742,2.614-8.129,6.708c-7.149,74.225,1.201-12.383-7.335,76.149
		c-0.149,1.571-1.49,2.753-3.22,2.753c-28.185,0-55.874,5.913-81.376,17.263c-5.948-25.606-25.873-112.723-25.899-112.842
		l-14.967-55.834c-1.074-3.976-5.158-6.331-9.134-5.267c-3.976,1.063-6.331,5.148-5.267,9.124l14.937,55.705
		c24.756,108.122,26.222,114.375,26.486,115.932c0.039,17.662,0.524,15.839-0.069,18.535c-0.996,4.639,2.548,9.014,7.295,9.014
		c3.439,0,6.53-2.385,7.285-5.884c0.948-4.443,1.363-9.692,1.232-12.94c24.736-11.758,51.869-17.9,79.577-17.9
		c9.342,0,17.064-6.976,17.959-16.23l2.176-22.62c13.019,1.163,25.899,3.449,38.472,6.838c3.976,1.074,8.06-1.282,9.134-5.247
		C455.639,256.378,453.283,252.283,449.318,251.209z"/>
</g>
<g>
</g>
<g>
</g>
<g>
</g>
<g>
</g>
<g>
</g>
<g>
</g>
<g>
</g>
<g>
</g>
<g>
</g>
<g>
</g>
<g>
</g>
<g>
</g>
<g>
</g>
<g>
</g>
<g>
</g>
</svg>
