<?xml version="1.0" encoding="iso-8859-1"?>
<!-- Generator: Adobe Illustrator 19.0.0, SVG Export Plug-In . SVG Version: 6.00 Build 0)  -->
<svg version="1.1" id="Capa_1" xmlns="http://www.w3.org/2000/svg" xmlns:xlink="http://www.w3.org/1999/xlink" x="0px" y="0px"
	 viewBox="0 0 512 512" style="enable-background:new 0 0 512 512;" xml:space="preserve">
<path style="fill:#CC7400;" d="M430.185,166.975v222.86c0,63.065-51.59,114.655-114.655,114.655H196.47
	c-63.065,0-114.655-51.59-114.655-114.655v-222.86c0-63.065,51.59-114.655,114.655-114.655h119.06
	C378.595,52.321,430.185,103.91,430.185,166.975z"/>
<path style="fill:#EE8700;" d="M430.185,166.975v222.86c0,63.06-51.595,114.655-114.655,114.655h-79.006
	c-63.06,0-114.655-51.595-114.655-114.655v-222.86c0-0.095,0-0.191,0-0.286c0.034-13.684,11.312-24.687,24.997-24.687H427.41
	C429.233,150.042,430.185,158.403,430.185,166.975z"/>
<g>
	<path style="fill:#FFCD00;" d="M294.174,317.061l-14.36-24.874c-2.086-3.613-5.941-5.839-10.114-5.839H240.98
		c-4.172,0-8.027,2.226-10.114,5.839l-14.36,24.874c-2.086,3.613-2.086,8.065,0,11.678l14.36,24.874
		c2.086,3.613,5.941,5.839,10.114,5.839H269.7c4.172,0,8.027-2.226,10.114-5.839l14.36-24.874
		C296.26,325.126,296.26,320.675,294.174,317.061z"/>
	<path style="fill:#FFCD00;" d="M210.258,365.596l-14.36-24.874c-2.086-3.613-5.941-5.839-10.114-5.839h-28.721
		c-4.172,0-8.027,2.226-10.114,5.839l-14.36,24.874c-2.086,3.613-2.086,8.065,0,11.678l14.36,24.874
		c2.086,3.613,5.941,5.839,10.114,5.839h28.721c4.172,0,8.027-2.226,10.114-5.839l14.36-24.874
		C212.344,373.66,212.344,369.209,210.258,365.596z"/>
	<path style="fill:#FFCD00;" d="M294.174,415.04l-14.36-24.874c-2.086-3.613-5.941-5.839-10.114-5.839H240.98
		c-4.172,0-8.027,2.226-10.114,5.839l-14.36,24.874c-2.086,3.613-2.086,8.065,0,11.678l14.36,24.874
		c2.086,3.613,5.941,5.839,10.114,5.839H269.7c4.172,0,8.027-2.226,10.114-5.839l14.36-24.874
		C296.26,423.104,296.26,418.653,294.174,415.04z"/>
</g>
<path style="fill:#FF9811;" d="M435.071,51.019v19.186c0,23.922-19.576,43.509-43.509,43.509H120.437
	c-23.932,0-43.509-19.586-43.509-43.509V51.019c0-23.932,19.576-43.509,43.509-43.509h271.125
	C415.495,7.51,435.071,27.087,435.071,51.019z"/>
<path style="fill:#FFA733;" d="M435.071,51.019v19.186c0,23.922-19.576,43.509-43.509,43.509H160.491
	c-23.932,0-43.509-19.586-43.509-43.509V51.019c0-23.932,19.576-43.509,43.509-43.509h231.071
	C415.495,7.51,435.071,27.087,435.071,51.019z"/>
<path style="fill:#EEBF00;" d="M386.236,7.51v308.726c0,17.694-14.339,32.043-32.043,32.043c-17.694,0-32.043-14.349-32.043-32.043
	V165.253c-3.895,13.368-16.342,23.141-31.102,23.141c-17.874,0-32.374-14.339-32.374-32.043v66.76
	c0,17.694-14.5,32.043-32.384,32.043c-17.874,0-32.374-14.349-32.374-32.043V7.51H386.236z"/>
<path style="fill:#FFD422;" d="M386.236,7.51v274.68c0,17.694-14.339,32.043-32.043,32.043c-17.694,0-32.043-14.349-32.043-32.043
	V131.207c-3.895,13.368-16.342,23.141-31.102,23.141c-17.874,0-32.374-14.339-32.374-32.043v66.76
	c0,17.694-14.5,32.043-32.384,32.043c-17.874,0-32.374-14.349-32.374-32.043V7.51H386.236z"/>
<path d="M442.581,70.205V51.019C442.581,22.881,419.701,0,391.563,0c-12.219,0-204.241,0-216.442,0c-4.146,0-7.51,3.355-7.51,7.51
	c0,4.146,3.365,7.51,7.51,7.51h11.285v91.183h-65.969c-3.825,0-7.51-0.601-10.965-1.712c-14.44-4.606-25.034-18.206-25.034-34.286
	V51.019c0-19.857,16.152-35.999,35.999-35.999h24.643c4.146,0,7.51-3.365,7.51-7.51c0-4.156-3.365-7.51-7.51-7.51h-24.643
	C92.299,0,69.419,22.881,69.419,51.019v19.186c0,16.032,7.44,30.371,19.046,39.724c-9.042,17.043-14.159,36.459-14.159,57.047
	v105.422c0,4.146,3.355,7.51,7.51,7.51c4.146,0,7.51-3.365,7.51-7.51V166.975c0-17.814,4.376-34.637,12.096-49.427
	c5.878,2.373,12.297,3.675,19.016,3.675h65.969v44.69c0,4.146,3.365,7.51,7.51,7.51s7.51-3.365,7.51-7.51
	c0-46.282,0-102.493,0-150.893h49.066c0,69.577,0,139.07,0,208.09c0,13.528-11.005,24.533-24.533,24.533
	s-24.533-11.005-24.533-24.533v-27.157c0-4.146-3.365-7.51-7.51-7.51s-7.51,3.365-7.51,7.51v27.157
	c0,21.809,17.744,39.553,39.553,39.553s39.553-17.744,39.553-39.553v-35.758c14.342,11.384,34.693,11.442,49.126-0.04v128.924
	c0,21.809,17.744,39.553,39.553,39.553s39.553-17.744,39.553-39.553v-18.335c0-4.146-3.365-7.51-7.51-7.51s-7.51,3.365-7.51,7.51
	v18.335c0,13.528-11.005,24.533-24.533,24.533s-24.533-11.005-24.533-24.533c0-7.577,0-285.143,0-301.216h49.066
	c0,19.886,0,224.539,0,252.841c0,4.146,3.365,7.51,7.51,7.51s7.51-3.365,7.51-7.51V121.173c5.958-0.25,11.656-1.522,16.913-3.655
	c7.7,14.83,12.016,31.663,12.016,49.457v218.474c0,4.156,3.365,7.51,7.51,7.51c4.156,0,7.51-3.355,7.51-7.51V166.975
	c0-20.037-4.937-39.563-14.209-57.007C435.121,100.616,442.581,86.266,442.581,70.205z M314.579,156.351
	c0,13.528-11.005,24.533-24.533,24.533c-13.528,0-24.533-11.005-24.533-24.533c0-71.381,0-65.078,0-141.33
	c9.214,0,36.193,0,49.066,0C314.579,64.581,314.579,106.63,314.579,156.351z M427.561,70.205c0,19.136-15.022,34.83-33.816,35.928
	V15.09c18.835,1.132,33.816,16.803,33.816,35.928V70.205z"/>
<path d="M429.003,407.95c-4.045-0.931-8.071,1.602-9.002,5.648c-11.045,48.315-54.984,83.382-104.471,83.382H196.47
	c-59.08,0-107.144-48.065-107.144-107.144v-87.398c0-4.146-3.365-7.51-7.51-7.51c-4.156,0-7.51,3.365-7.51,7.51v87.398
	C74.305,457.196,129.109,512,196.47,512h119.06c58.065,0,106.743-40.991,119.121-95.058
	C435.572,412.896,433.039,408.871,429.003,407.95z"/>
<path d="M286.318,288.433c-3.418-5.918-9.784-9.594-16.617-9.594H240.98c-6.833,0-13.2,3.676-16.617,9.594
	c-12.41,22.798-16.931,25.978-16.931,34.467c0,8.506,4.56,11.741,16.931,34.467c3.417,5.917,9.784,9.594,16.617,9.594H269.7
	c6.834,0,13.202-3.677,16.617-9.594c12.396-22.773,16.932-25.979,16.932-34.467C303.25,314.394,298.69,311.159,286.318,288.433z
	 M273.309,349.857c-0.742,1.286-2.125,2.084-3.609,2.084H240.98c-1.484,0-2.867-0.798-3.609-2.084
	c-14.234-25.023-16.177-25.895-14.36-29.041l14.36-24.874c0.742-1.285,2.126-2.084,3.609-2.084H269.7
	c1.484,0,2.867,0.799,3.609,2.084c14.884,26.166,14.919,24.903,14.919,26.957C288.229,323.631,288.295,323.516,273.309,349.857z"/>
<path d="M185.784,327.373h-28.721c-6.834,0-13.202,3.677-16.617,9.594l-14.361,24.875c-3.49,6.05-3.363,13.364,0.001,19.187
	l14.36,24.872c3.417,5.917,9.784,9.594,16.617,9.594h28.721c6.834,0,13.202-3.677,16.617-9.594l14.361-24.874
	c3.422-5.93,3.429-13.248-0.001-19.187l-14.36-24.874C198.985,331.05,192.619,327.373,185.784,327.373z M203.755,373.518
	l-14.361,24.873c-0.742,1.286-2.125,2.084-3.609,2.084h-28.721c-1.484,0-2.867-0.798-3.609-2.084
	c-14.964-26.304-14.919-24.971-14.919-26.956c0-1.992-0.065-0.616,14.919-26.957c0.742-1.286,2.125-2.084,3.609-2.084h28.721
	c1.484,0,2.867,0.798,3.609,2.084l14.36,24.874C204.506,370.653,204.491,372.244,203.755,373.518z"/>
<path d="M286.318,386.412c-3.417-5.917-9.784-9.594-16.617-9.594H240.98c-6.834,0-13.202,3.677-16.617,9.594
	c-12.408,22.795-16.931,25.982-16.931,34.468c0,8.506,4.559,11.739,16.931,34.465c3.417,5.917,9.784,9.594,16.617,9.594H269.7
	c6.834,0,13.202-3.677,16.617-9.594l14.36-24.873c3.404-5.893,3.451-13.216,0-19.188L286.318,386.412z M273.309,447.836
	c-0.742,1.286-2.125,2.084-3.609,2.084H240.98c-1.484,0-2.867-0.798-3.609-2.084c-14.351-25.228-16.152-25.937-14.36-29.04
	l14.361-24.874c0.742-1.286,2.125-2.084,3.609-2.084h28.721c1.484,0,2.867,0.798,3.609,2.084
	c15.723,27.16,14.919,25.42,14.919,26.956C288.229,421.609,288.208,421.645,273.309,447.836z"/>
<g>
</g>
<g>
</g>
<g>
</g>
<g>
</g>
<g>
</g>
<g>
</g>
<g>
</g>
<g>
</g>
<g>
</g>
<g>
</g>
<g>
</g>
<g>
</g>
<g>
</g>
<g>
</g>
<g>
</g>
</svg>
