<?xml version="1.0" encoding="iso-8859-1"?>
<!-- Generator: Adobe Illustrator 19.0.0, SVG Export Plug-In . SVG Version: 6.00 Build 0)  -->
<svg version="1.1" id="Capa_1" xmlns="http://www.w3.org/2000/svg" xmlns:xlink="http://www.w3.org/1999/xlink" x="0px" y="0px"
	 viewBox="0 0 512.001 512.001" style="enable-background:new 0 0 512.001 512.001;" xml:space="preserve">
<path style="fill:#AA6100;" d="M384.683,375.754v0.456c-0.02,5.237-0.355,10.392-0.983,15.467
	c-2.431,19.762-9.359,38.126-19.711,54.069c-3.069,4.72-6.432,9.228-10.078,13.492c-17.503,20.501-41.326,35.441-68.462,41.792
	c-4.447,1.033-8.995,1.854-13.624,2.411c-4.761,0.587-9.602,0.901-14.515,0.952c-4.599,0.04-9.157-0.152-13.644-0.587
	c-34.246-3.322-64.765-20.258-85.945-45.327c-3.606-4.274-6.938-8.782-9.977-13.502c-10.311-16.024-17.169-34.459-19.488-54.241
	c-0.517-4.406-0.81-8.873-0.861-13.401c-0.01-0.699-0.01-1.408,0-2.107c0.081-22.8,6.108-44.203,16.601-62.749
	c3.616-6.402,7.769-12.459,12.398-18.111c0.365-0.466,0.75-0.912,1.124-1.367c14.211-16.895,17.452-40.07,9.116-59.488
	c-2.107-4.933-4.973-9.612-8.589-13.897c-0.03-0.041-0.071-0.081-0.101-0.122c-12.752-15.011-22.122-32.99-26.913-52.762
	c-1.215-4.933-2.127-9.977-2.725-15.113c-0.608-5.044-0.922-10.17-0.922-15.376c0-15.862,2.877-31.066,8.134-45.094
	c2.269-6.067,4.973-11.912,8.093-17.493c20.359-36.495,57.979-62.05,101.807-65.626c3.089-0.253,6.199-0.395,9.349-0.425
	c5.733-0.051,11.385,0.273,16.936,0.952c3.849,0.466,7.647,1.114,11.385,1.925c36.819,7.982,67.996,31.886,85.752,64.117
	c3.089,5.622,5.774,11.486,8.012,17.564c4.892,13.289,7.637,27.602,7.82,42.501c0.071,6.088-0.273,12.074-1.033,17.949
	c-0.628,5.085-1.57,10.089-2.796,14.971c-4.811,19.215-13.938,36.718-26.295,51.415c-0.355,0.425-0.709,0.851-1.043,1.286
	c-3.444,4.335-6.189,9.045-8.225,13.978c-7.921,19.195-5.156,41.752,8.843,58.242c0.78,0.922,1.55,1.844,2.289,2.785
	c4.588,5.703,8.691,11.8,12.246,18.242C378.869,331.967,384.683,353.187,384.683,375.754z"/>
<path style="fill:#CC7400;" d="M384.683,375.754v0.456c-0.02,5.237-0.355,10.392-0.983,15.467
	c-2.431,19.762-9.359,38.126-19.711,54.069c-3.069,4.72-6.432,9.228-10.078,13.492c-17.503,20.501-41.326,35.441-68.462,41.792
	c-4.447,1.033-8.995,1.854-13.624,2.411c-32.929-4.041-62.192-20.683-82.703-44.963c-3.606-4.274-6.938-8.782-9.977-13.502
	c-10.311-16.024-17.169-34.459-19.488-54.241c-0.517-4.406-0.81-8.873-0.861-13.401c-0.01-0.699-0.01-1.408,0-2.107
	c0.081-22.8,6.108-44.203,16.601-62.749c3.616-6.402,7.769-12.459,12.398-18.111c0.365-0.466,0.75-0.912,1.124-1.367
	c14.211-16.895,17.452-40.07,9.116-59.488c-2.107-4.933-4.973-9.612-8.589-13.897c-0.03-0.041-0.071-0.081-0.101-0.122
	c-12.752-15.011-22.122-32.99-26.913-52.762c-1.215-4.933-2.127-9.977-2.725-15.113c-0.608-5.044-0.922-10.17-0.922-15.376
	c0-15.862,2.877-31.066,8.134-45.094c2.269-6.067,4.973-11.912,8.093-17.493c19.559-35.067,55.061-60.035,96.692-65.099
	c3.849,0.466,7.647,1.114,11.385,1.925c36.819,7.982,67.996,31.886,85.752,64.117c3.089,5.622,5.774,11.486,8.012,17.564
	c4.892,13.289,7.637,27.602,7.82,42.501c0.071,6.088-0.273,12.074-1.033,17.949c-0.628,5.085-1.57,10.089-2.796,14.971
	c-4.811,19.215-13.938,36.718-26.295,51.415c-0.355,0.425-0.709,0.851-1.043,1.286c-3.444,4.335-6.189,9.045-8.225,13.978
	c-7.921,19.195-5.156,41.752,8.843,58.242c0.78,0.922,1.55,1.844,2.289,2.785c4.588,5.703,8.691,11.8,12.246,18.242
	C378.869,331.967,384.683,353.187,384.683,375.754z"/>
<path d="M360.36,223.886c20.972-24.941,32.307-56.66,31.913-89.317C391.365,59.299,329.281-0.743,254.69,0.007
	C139.462,1.121,77.764,136.845,152.154,224.41c15.468,18.21,15.282,45-0.444,63.702c-20.973,24.942-32.307,56.661-31.911,89.316
	c1.447,120.155,148.165,179.848,233.019,94.221c50.312-50.772,52.344-130.8,7.1-184.062
	C344.448,269.377,344.635,242.587,360.36,223.886z M348.732,214.107L348.732,214.107c-1.269,1.51-2.459,3.061-3.573,4.646
	c-4.326-0.768-8.656-1.5-12.995-2.157c-4.759-0.722-7.534-5.814-5.464-10.159c5.923-12.432,10.203-26.014,12.738-40.417
	c0.694-3.943,4.516-6.528,8.449-5.785c8.544,1.614,17.063,3.45,25.546,5.502C368.996,183.412,360.606,199.985,348.732,214.107z
	 M345.021,293.155c-7.396-1.312-14.812-2.48-22.241-3.467c-3.917-0.521-7.309-2.988-9.05-6.535
	c-6.505-13.255-7.814-29.581-3.9-43.835c1.572-5.724,7.138-9.425,13.019-8.623c4.865,0.663,9.786,1.414,14.753,2.24
	C329.93,252.833,332.387,275.451,345.021,293.155z M376.209,150.788c-10.34-2.483-20.731-4.669-31.157-6.518
	c-1.763-0.313-3.031-1.866-2.964-3.657c0.051-1.34,0.086-2.684,0.104-4.035c0.217-16.448-1.925-32.445-6.257-47.576
	c-0.733-2.561,1.439-4.999,4.065-4.549c9.142,1.566,18.455,3.418,27.91,5.581C375.907,109.305,378.699,130.217,376.209,150.788z
	 M358.863,72.457c-29.683-6.086-30.275-3.884-32.249-7.995c-7.086-14.756-16.496-28.316-28.058-40.175
	c-0.713-0.732-1.446-1.438-2.174-2.154C322.427,31.383,344.44,49.313,358.863,72.457z M270.015,31.672
	c0.193-4.986,6.077-7.487,9.832-4.202c9.36,8.189,17.524,17.595,24.324,28.028c2.438,3.742-0.503,8.653-4.952,8.27l-0.106-0.009
	c-8.278-0.717-16.577-1.235-24.88-1.554c-2.955-0.113-5.267-2.582-5.16-5.537C269.419,47.237,269.737,38.839,270.015,31.672z
	 M265.844,158.826c0.107-4.006,3.462-7.161,7.467-7.012c2.134,0.079,4.263,0.172,6.384,0.282c4.163,0.213,7.759-3.018,7.972-7.202
	c0.213-4.193-3.018-7.759-7.202-7.972c-3.457-0.173-6.924-0.313-10.399-0.419c-1.986-0.061-3.552-1.713-3.495-3.7
	c0.544-18.713,1.109-36.206,1.646-51.892c0.068-1.983,1.726-3.544,3.709-3.473c13.795,0.492,28.215,1.564,43.161,3.374
	c1.334,0.162,2.485,1.053,2.95,2.313c6.131,16.606,9.213,34.6,8.961,53.249c-0.004,0.324-0.009,0.647-0.016,0.97
	c-0.045,2.147-1.962,3.762-4.09,3.475c-3.893-0.525-7.791-1.007-11.695-1.438c-4.163-0.456-7.931,2.553-8.387,6.726
	c-0.456,4.163,2.553,7.921,6.726,8.377c2.865,0.316,5.726,0.658,8.587,1.025c4.11,0.528,6.935,4.403,6.188,8.48
	c-3.033,16.562-8.58,32.014-16.33,45.303c-1.409,2.416-4.105,3.783-6.89,3.521c-7.748-0.73-18.508-1.447-29.384-1.811
	c-3.941-0.132-7.036-3.42-6.949-7.362C265.088,188.342,265.454,173.323,265.844,158.826z M254.868,30.301
	c-0.293,7.493-0.632,16.374-0.999,26.408c-0.104,2.857-2.441,5.114-5.301,5.145c-9.087,0.097-18.17,0.437-27.24,1.011
	c-4.606,0.292-7.415-4.977-4.574-8.615c8.755-11.212,18.9-20.892,29.67-28.498C250.052,23.191,255.041,25.863,254.868,30.301z
	 M248.037,352.32c0.02,4.023-3.166,7.34-7.189,7.441c-15.071,0.382-30.123,1.42-45.103,3.107c-4.752,0.535-8.77-3.507-8.181-8.252
	c2.377-19.173,9.408-35.809,16.8-48.68c1.2-2.09,3.351-3.457,5.751-3.663c9.598-0.821,19.74-1.414,30.366-1.683
	c4.17-0.105,7.606,3.27,7.583,7.441C247.984,322.636,247.963,337.593,248.037,352.32z M248.355,385.164
	c0.215,13.819,0.519,26.668,0.912,38.535c0.188,5.666-4.269,10.379-9.937,10.539c-9.065,0.256-18.123,0.744-27.16,1.472
	c-4.199,0.338-8.14-1.991-9.985-5.779c-6.259-12.841-10.907-26.398-13.407-40.039c-1.069-5.83,3.081-11.313,8.973-11.964
	c12.363-1.366,25.767-2.381,40.07-2.821C243.52,374.932,248.266,379.464,248.355,385.164z M174.34,232.22
	c5.079-0.81,10.039-1.551,16.673-2.376c5.815-0.723,11.296,2.884,12.945,8.507c4.146,14.136,3.083,30.455-3.17,43.84
	c-1.724,3.69-5.244,6.235-9.287,6.723c-8.779,1.056-16.373,2.179-24.008,3.464C179.791,274.266,182.087,251.715,174.34,232.22z
	 M205.798,208.819c-7.899-13.596-13.45-29.118-16.358-45.529c-0.724-4.085,2.129-7.954,6.25-8.435
	c14.883-1.736,30.791-2.915,47.582-3.28c4.115-0.089,7.473,3.285,7.365,7.399c-0.384,14.507-0.748,29.519-1.079,44.818
	c-0.083,3.848-3.175,6.962-7.023,7.046c-9.979,0.22-19.951,0.728-29.903,1.523C209.86,212.584,207.195,211.222,205.798,208.819z
	 M247.808,136.303c-20.215,0.239-39.181,1.623-56.693,3.74c-2.13,0.257-4.038-1.38-4.04-3.526c0-0.013,0-0.027,0-0.041
	c0-19.364,4.773-38.001,12.735-54.802c0.538-1.133,1.632-1.899,2.88-2.025c14.326-1.445,29.959-2.391,46.708-2.531
	c2.043-0.017,3.69,1.681,3.62,3.722c-0.537,15.723-1.102,33.241-1.646,51.97C251.317,134.742,249.741,136.28,247.808,136.303z
	 M231.614,17.691c-7.03,5.57-13.791,11.969-20.138,19.156c-18.602,21.064-17.823,28.464-22.159,29.006
	c-4.651,0.582-9.294,1.228-13.93,1.938c-7.492,1.147-14.671,2.412-21.53,3.754C171.18,44.344,199.052,24.427,231.614,17.691z
	 M134.98,136.248c0-16.725,3.447-32.692,9.659-47.229c18.208-4.072,31.343-5.902,33.702-6.305c2.131-0.324,3.813,1.768,3.048,3.783
	c-10.15,26.736-9.109,45.99-9.507,50.04c0.001,3.554-2.569,6.589-6.073,7.189c-10.742,1.838-20.775,3.91-30.063,6.09
	C135.239,145.329,134.98,140.799,134.98,136.248z M138.431,164.919c8.541-2.025,17.742-3.962,27.563-5.703
	c3.889-0.689,7.676,1.946,8.343,5.838c2.446,14.28,6.706,27.995,12.635,40.583c2.063,4.38-0.783,9.477-5.578,10.15
	c-4.896,0.687-9.913,1.466-14.893,2.315C161.928,211.884,145.903,195.566,138.431,164.919z M154.196,310.304
	c13.016-2.637,22.084-3.933,24.189-4.282c3.921-0.597,6.969,3.369,5.353,6.991c-6.229,13.966-11.154,30.569-12.06,49.089
	c-0.115,2.355-1.851,4.323-4.175,4.714c-11.672,1.965-22.52,4.204-32.493,6.557C135.458,350.894,142.141,329.06,154.196,310.304z
	 M155.712,443.389c-10.762-15.896-17.851-34.475-20.021-54.524c9.583-2.334,20.023-4.567,31.261-6.536
	c2.831-0.496,5.499,1.454,5.901,4.299c2.135,15.127,6.731,30.481,13.442,45.292c1.389,3.066-0.606,6.598-3.94,7.057
	C173.954,440.135,164.988,441.608,155.712,443.389z M166.309,456.885c8.936-1.579,17.759-2.91,27.686-4.088
	c5.628-0.668,4.208,4.683,21.331,24.582c5.351,6.212,10.956,11.898,16.731,17.03C206.262,489.19,183.376,475.727,166.309,456.885z
	 M250.274,489.97c-11.779-9.039-22.769-20.531-32.191-33.541c-1.772-2.446-0.192-5.892,2.821-6.085
	c8.244-0.529,16.845-0.876,25.764-0.997c2.043-0.027,3.746,1.573,3.858,3.613c0.75,13.566,1.653,25.359,2.722,35.336
	C253.422,489.92,251.569,490.964,250.274,489.97z M256.054,265.875c-4.234-0.061-7.627,3.312-7.678,7.506
	c-0.091,7.091-5.435,11.856-11.448,12.054c-1.557,0.052-3.113,0.109-4.668,0.174c-7.642,0.318-13.602-6.625-12.109-14.127
	c2.022-10.156,2.035-20.756,0.032-30.834c-1.417-7.13,3.843-13.863,11.105-14.181c1.772-0.077,3.558-0.146,5.358-0.206
	c6.779-0.223,12.353,5.306,12.236,12.088c-0.026,1.526-0.053,3.054-0.08,4.583c-0.061,4.193,3.282,7.647,7.475,7.718h0.132
	c4.133,0,7.516-3.322,7.587-7.475c0.026-1.666,0.054-3.332,0.083-4.998c0.114-6.689,5.719-11.98,12.403-11.68
	c2.092,0.094,4.198,0.202,6.317,0.322c7.188,0.411,12.422,7.021,11.044,14.087c-1.963,10.065-1.923,20.64,0.118,30.767
	c1.537,7.626-4.558,14.599-12.326,14.193c-2.238-0.116-4.475-0.22-6.714-0.308c-6.265-0.247-11.444-5.344-11.36-11.998
	C263.611,269.369,260.258,265.925,256.054,265.875z M263.259,308.086c0.023-4.171,3.475-7.511,7.643-7.369
	c10.754,0.366,21.893,1.082,33.365,2.219c2.45,0.243,4.614,1.706,5.789,3.869c7.873,14.503,13.152,30.997,15.512,48.331
	c0.653,4.795-3.469,8.872-8.272,8.283c-15.632-1.921-31.011-3.091-46.895-3.579c-3.977-0.122-7.148-3.37-7.168-7.349
	C263.157,337.808,263.176,322.819,263.259,308.086z M263.555,385.658c-0.092-5.868,4.76-10.619,10.622-10.383
	c13.786,0.557,28.182,1.697,43.099,3.569c5.559,0.698,9.552,5.7,8.934,11.268c-1.477,13.301-5.019,26.911-10.278,40.041
	c-1.699,4.243-5.989,6.852-10.537,6.395c-9.897-0.995-20.402-1.726-31.066-2.134c-5.358-0.205-9.656-4.485-9.838-9.844
	C264.085,412.631,263.774,399.657,263.555,385.658z M271.614,490.489c-1.14,0.612-2.538-0.122-2.699-1.405
	c-1.259-10.021-2.297-20.756-3.142-35.486c-0.128-2.233,1.683-4.112,3.92-4.042c9.577,0.3,19.457,0.881,29.613,1.796
	c2.829,0.255,4.438,3.4,2.933,5.809c-6.615,10.596-14.369,20.399-23.029,28.868C276.719,488.473,274.178,489.11,271.614,490.489z
	 M296.686,489.734c23.795-26.304,21.329-36.412,28.555-35.39c6.513,0.921,13.122,1.993,19.811,3.21
	C331.882,471.872,315.328,483.035,296.686,489.734z M355.818,444.053c-6.94-1.384-13.899-2.628-20.874-3.725
	c-3.169-0.498-5.028-3.81-3.878-6.806c5.691-14.842,9.347-30.237,10.616-45.399c0.25-2.987,3.003-5.1,5.949-4.549
	c9.386,1.754,18.94,3.825,28.633,6.219C373.931,409.727,366.704,428.23,355.818,444.053z M345.83,367.734
	c-2.254-0.403-3.968-2.26-4.141-4.543c-1.307-17.215-5.213-33.921-11.466-49.217c-1.494-3.654,1.536-7.556,5.432-6.924
	c7.505,1.219,15.131,2.643,22.854,4.26c11.811,18.79,18.298,40.608,18.563,63.011C366.708,371.808,356.29,369.604,345.83,367.734z"
	/>
<g>
</g>
<g>
</g>
<g>
</g>
<g>
</g>
<g>
</g>
<g>
</g>
<g>
</g>
<g>
</g>
<g>
</g>
<g>
</g>
<g>
</g>
<g>
</g>
<g>
</g>
<g>
</g>
<g>
</g>
</svg>
