<?xml version="1.0" encoding="iso-8859-1"?>
<!-- Generator: Adobe Illustrator 19.0.0, SVG Export Plug-In . SVG Version: 6.00 Build 0)  -->
<svg version="1.1" id="Capa_1" xmlns="http://www.w3.org/2000/svg" xmlns:xlink="http://www.w3.org/1999/xlink" x="0px" y="0px"
	 viewBox="0 0 512 512" style="enable-background:new 0 0 512 512;" xml:space="preserve">
<path style="fill:#CC7400;" d="M486.854,242.972v56.91c0,101.584-83.608,185.854-193.201,201.763
	c-12.245,1.787-24.821,2.71-37.639,2.71c-127.489,0-230.84-91.537-230.84-204.473v-56.91L486.854,242.972L486.854,242.972z"/>
<path style="fill:#EE8700;" d="M486.854,242.972v56.91c0,101.584-83.608,185.854-193.201,201.763
	c-109.593-15.909-193.201-100.179-193.201-201.763v-56.91L486.854,242.972L486.854,242.972z"/>
<path style="fill:#884D00;" d="M486.854,232.785c0,27.08-5.942,52.935-16.742,76.582c-0.13,0.291-0.271,0.582-0.401,0.873
	c-2.69,5.831-5.671,11.522-8.943,17.063c-1.044,1.777-2.118,3.533-3.232,5.269c-20.014,31.687-49.291,58.144-84.571,76.552
	c-0.01,0-0.02,0-0.03,0.01c-4.517,2.359-9.134,4.587-13.841,6.665c-0.622,0.281-1.245,0.552-1.877,0.813
	c-25.996,11.251-54.732,18.307-85.073,20.164c-2.59,0.161-5.189,0.281-7.799,0.361c-2.76,0.09-5.54,0.13-8.331,0.13
	c-2.248,0-4.487-0.03-6.725-0.09c-34.045-0.853-66.224-8.24-95.04-20.797c-0.251-0.1-0.502-0.211-0.753-0.321
	c-4.958-2.188-9.816-4.527-14.564-7.006c-0.141-0.07-0.271-0.141-0.412-0.221c-34.738-18.227-63.604-44.293-83.507-75.438
	c-0.923-1.425-1.817-2.871-2.69-4.316c-3.704-6.123-7.066-12.446-10.047-18.93c-0.09-0.181-0.171-0.351-0.251-0.532
	c-10.87-23.717-16.852-49.653-16.852-76.833c0-104.987,147.082-207.815,217.16-223.272c5.3-1.174,10.157-1.847,14.483-1.977
	c4.356-0.13,9.615,0.542,15.567,1.967c2.7,0.642,5.55,1.445,8.521,2.399C349.548,33.732,486.854,133.64,486.854,232.785z"/>
<path style="fill:#AA6100;" d="M486.854,232.785c0,27.08-5.942,52.935-16.742,76.582c-0.13,0.291-0.271,0.582-0.401,0.873
	c-2.69,5.831-5.671,11.522-8.943,17.063c-1.044,1.777-2.118,3.533-3.232,5.269c-20.014,31.687-49.291,58.144-84.571,76.552
	c-0.01,0-0.02,0-0.03,0.01c-4.517,2.359-9.134,4.587-13.841,6.665c-0.622,0.281-1.245,0.552-1.877,0.813
	c-25.996,11.251-54.732,18.307-85.073,20.164c-26.176-2.8-50.998-9.485-73.731-19.391c-0.251-0.1-0.502-0.211-0.753-0.321
	c-4.958-2.188-9.816-4.527-14.564-7.006c-0.141-0.07-0.271-0.141-0.412-0.221c-34.738-18.227-63.604-44.293-83.507-75.438
	c-0.923-1.425-1.817-2.871-2.69-4.316c-3.704-6.123-7.066-12.446-10.047-18.93c-0.09-0.181-0.171-0.351-0.251-0.532
	c-10.87-23.717-16.852-49.653-16.852-76.833c0-102.267,139.564-202.496,211.569-221.887
	C349.548,33.732,486.854,133.64,486.854,232.785z"/>
<path d="M256.586,0.018C189.717,2.074,18.31,116.388,17.657,232.093c-0.082-10.686-0.008,50.987-0.009,67.789
	c0,40.359,12.797,79.623,37.006,113.528c23.456,32.851,56.538,59.318,95.682,76.562c9.285,4.033,15.048-9.826,6.072-13.781
	C82.767,443.761,36.045,379.695,32.884,307.71c11.844,27.953,30.392,53.577,54.912,75.297
	C210.919,492.09,418.759,450.29,479.157,307.69c-5.818,130.902-153.765,221.26-295.388,178.608c-3.975-1.204-8.18,1.054-9.375,5.029
	c-1.204,3.985,1.054,8.18,5.029,9.385c152.773,46.045,314.96-54.269,314.96-200.829c0-9.768,0-56.869,0-67.097
	C494.382,115.891,313.364-1.656,256.586,0.018z M468.149,294.338c-6.901-40.817-26.915-85.706-59.74-133.84
	c-2.343-3.435-7.025-4.322-10.461-1.978c-3.435,2.342-4.321,7.026-1.978,10.461c38.209,56.028,58.318,106.991,59.768,151.473
	c0.004,0.116,0.019,0.229,0.028,0.344c-18.547,32.61-47.068,60.071-82.004,79.27c3.369-42.96-0.778-86.988-8.946-129.128
	c-0.792-4.081-4.731-6.752-8.823-5.958c-4.081,0.791-6.749,4.741-5.958,8.822c8.436,43.512,12.581,89.603,7.881,134.201
	c-28.245,12.829-59.974,20.493-93.575,21.585V247.419c0-4.157-3.369-7.528-7.528-7.528c-4.158,0-7.528,3.37-7.528,7.528V429.64
	c-34.259-0.899-66.603-8.634-95.338-21.713c-2.587-25.48-2.322-51.399,0.025-77.315c0.374-4.14-2.678-7.801-6.819-8.176
	c-4.133-0.372-7.801,2.678-8.176,6.818c-2.185,24.135-2.575,47.568-0.838,70.741c-34.854-19.182-63.313-46.592-81.838-79.132
	c1.272-28.587,10.431-60.264,27.282-94.203c1.849-3.724,0.328-8.241-3.396-10.09c-3.724-1.848-8.24-0.328-10.09,3.395
	c-13.046,26.276-21.718,51.404-25.968,75.05c-7.685-20.3-11.428-41.205-11.428-62.232c0-91.982,121.95-186.307,196.826-211.743
	c-33.941,31.197-100.88,97.487-144.779,171.976c-2.112,3.582-0.918,8.197,2.663,10.308c3.568,2.104,8.19,0.93,10.307-2.663
	c38.915-66.031,96.518-125.628,131.736-158.974c-39.434,77.527-74.035,170.837-86.84,257.233c-0.672,4.534,2.836,8.633,7.456,8.633
	c3.669,0,6.882-2.687,7.436-6.425c16.789-113.271,68.833-221.381,91.777-264.931v181.113c0,4.157,3.369,7.528,7.528,7.528
	c4.158,0,7.528-3.37,7.528-7.528V37.315c19.736,37.934,57.798,117.868,79.357,207.377c0.83,3.45,3.913,5.767,7.312,5.767
	c4.859,0,8.468-4.544,7.324-9.292c-20.481-85.038-55.59-161.554-76.517-202.77c24.659,23.1,62.703,61.328,96.765,106.404
	c2.494,3.301,7.211,3.986,10.544,1.467c3.317-2.507,3.974-7.228,1.467-10.544c-37.759-49.969-80.307-91.663-104.905-114.265
	c34.313,12.8,84.083,43.633,123.952,82.298c31.787,30.823,69.687,78.238,69.687,129.025
	C479.326,253.806,475.584,274.455,468.149,294.338z"/>
<g>
</g>
<g>
</g>
<g>
</g>
<g>
</g>
<g>
</g>
<g>
</g>
<g>
</g>
<g>
</g>
<g>
</g>
<g>
</g>
<g>
</g>
<g>
</g>
<g>
</g>
<g>
</g>
<g>
</g>
</svg>
