<?xml version="1.0" encoding="iso-8859-1"?>
<!-- Generator: Adobe Illustrator 19.0.0, SVG Export Plug-In . SVG Version: 6.00 Build 0)  -->
<svg version="1.1" id="Capa_1" xmlns="http://www.w3.org/2000/svg" xmlns:xlink="http://www.w3.org/1999/xlink" x="0px" y="0px"
	 viewBox="0 0 512 512" style="enable-background:new 0 0 512 512;" xml:space="preserve">
<path style="fill:#A5001E;" d="M499.652,448.746c-109.81,66.273-187.442,51.977-187.442,51.977
	C47.126,476.561,54.921,256.145,54.921,256.145S40.473,189.528,81.01,148.475c11.157-11.308,26.483-20.678,47.433-26.18
	c0,0,79.096-22.434,103.792,62.124c9.188,31.481,16.942,62.144,23.182,88.96c23.606,101.389,118.472,169.026,220.71,159.525
	c4.675-0.424,9.37-1.02,14.075-1.787c0.919-0.151,1.838-0.303,2.736-0.454C503.62,428.845,508.93,443.152,499.652,448.746z"/>
<path style="fill:#C70024;" d="M476.127,432.904c-84.457,37.791-140.695,27.432-140.695,27.432
	C70.348,436.175,78.143,215.759,78.143,215.759s-7.219-33.278,2.867-67.283c11.157-11.308,26.483-20.678,47.433-26.18
	c0,0,79.096-22.434,103.792,62.124c9.188,31.481,16.942,62.144,23.182,88.96C279.023,374.768,373.89,442.405,476.127,432.904z"/>
<path style="fill:#47821C;" d="M255.235,237.486c-0.798,5.775-7.35,8.754-12.227,5.553L169.96,195.02
	c0,0-10.288,85.709-13.539,91.272c-3.241,5.563-57.823-73.068-57.823-73.068l-29.239,74.129l-5.503,13.953
	c-1.646,4.16-6.411,6.159-10.51,4.382c-5.654-2.453-10.914-6.179-15.185-9.945C-8.425,254.782-1.933,159.047,58.616,120.67
	c11.722-7.431,23.525-14.993,36.973-19.416c19.456-6.381,43.365-8.744,65.93-5.826c16.942,2.191,33.127,7.36,46.121,16.033
	C238.829,132.281,263.313,178.351,255.235,237.486z"/>
<path style="fill:#4E901E;" d="M255.235,237.486c-0.798,5.775-7.35,8.754-12.227,5.553L169.96,195.02
	c0,0-10.288,85.709-13.539,91.272c-3.241,5.563-57.823-73.068-57.823-73.068l-29.239,74.129
	C31.991,242.918,41.27,156.623,97.992,120.67c11.722-7.431,23.525-14.993,36.973-19.416c8.198-2.686,17.204-4.665,26.554-5.826
	c16.942,2.191,33.127,7.36,46.121,16.033C238.829,132.281,263.313,178.351,255.235,237.486z"/>
<path d="M174.201,188.753c0.009,0.006,0.02,0.013,0.031,0.02c0.008,0.005,0.014,0.009,0.02,0.013
	C174.237,188.778,174.219,188.766,174.201,188.753z"/>
<path d="M174.252,188.787C174.302,188.82,174.288,188.811,174.252,188.787L174.252,188.787z"/>
<path d="M69.106,308.616l31.38-79.54c10.403,14.667,26.531,37.041,38.013,50.957c9.299,11.258,13.095,14.276,17.75,14.105
	c2.797-0.111,5.311-1.615,6.714-4.028c3.785-6.47,10.917-65.106,13.024-82.064l66.465,43.688c1.898,7.694,3.766,15.488,5.593,23.363
	c13.58,58.348,51.29,108.78,103.469,138.373c1.181,0.666,2.464,0.979,3.726,0.979c2.635,0,5.2-1.373,6.593-3.837
	c2.06-3.635,0.788-8.259-2.847-10.319c-48.514-27.503-83.569-74.391-96.189-128.63c-1.323-5.684-2.665-11.328-4.018-16.922
	c0.868-0.979,1.494-2.191,1.767-3.514c13.786-66.518-11.672-121.331-48.695-146.066c-33.197-22.152-81.741-21.96-114.696-12.308
	c-3.372-19.769-5.442-54.39,14.488-77.996c2.706-3.19,2.302-7.976-0.899-10.672c-3.191-2.696-7.966-2.292-10.672,0.899
	c-24.959,29.563-21.536,71.271-17.396,93.12c-9.954,4.521-18.945,10.248-28.119,16.064C23.793,133.775,3.56,169.325,0.42,209.368
	c-2.898,37.074,9.339,71.493,32.743,92.07c5.18,4.554,12.883,10.157,21.808,12.924c6.028,23.999,16.77,52.694,35.903,80.621
	c1.474,2.14,3.847,3.291,6.26,3.291c1.474,0,2.958-0.434,4.271-1.323c3.453-2.373,4.331-7.078,1.969-10.531
	C84.826,359.341,74.659,331.545,69.106,308.616z M56.677,298.873c-22.089-9.295-44.768-42.14-41.163-88.314
	c4.683-59.779,47.522-83.617,47.777-83.892c12.196-7.749,23.594-14.96,37.175-19.002v-0.01
	c31.643-9.532,75.435-8.253,102.974,10.107c30.145,20.129,51.798,64.816,44.203,119.26c-62.857-41.312-72.313-47.527-73.411-48.248
	c-0.014-0.009-0.031-0.02-0.051-0.033c0.007,0.004,0.013,0.009,0.02,0.013c-0.038-0.025-0.065-0.042-0.079-0.051
	c-0.001,0-0.001-0.001-0.002-0.001l0,0c-0.023-0.015-0.019-0.013,0,0c-2.191-1.444-4.978-1.646-7.35-0.545
	c-2.383,1.111-4.018,3.362-4.331,5.967c-3.554,29.613-7.865,61.75-10.642,78.258c-10.652-12.671-30.027-39.053-46.979-63.477
	c-1.595-2.292-4.311-3.524-7.088-3.201c-2.777,0.323-5.149,2.14-6.179,4.735l-27.584,69.949L56.677,298.873z"/>
<path d="M354.908,493.18c-7.501,0.806-15.194,1.272-22.798,1.272c-12.295,0-18.516-1.201-19.214-1.262
	c-83.599-7.623-148.005-35.822-191.42-83.821c-2.807-3.1-7.593-3.342-10.692-0.535c-3.11,2.807-3.342,7.593-0.535,10.702
	c45.99,50.846,113.606,80.691,200.981,88.708c13.169,2.156,31.998,1.418,45.283,0c4.16-0.444,7.169-4.17,6.724-8.33
	C362.793,495.755,359.058,492.746,354.908,493.18z"/>
<path d="M491.675,423.201c-10.98,1.746-20.825,3.019-34.661,3.019c-24.585,0-48.706-4.513-71.695-13.438
	c-3.897-1.514-8.289,0.424-9.794,4.321c-1.514,3.907,0.414,8.289,4.321,9.804c24.736,9.592,50.695,14.458,77.168,14.458
	c21.87,0,36.443-3.291,37.761-3.291c1.794,0,3.13,2.883,0.959,4.19c-37.397,22.576-75.007,38.104-111.768,46.151
	c-9.748,2.142-6.586,16.985,3.241,14.801c38.387-8.41,77.531-24.555,116.352-47.989c5.371-3.231,8.441-8.602,8.441-14.721
	C512,429.816,502.592,421.275,491.675,423.201z"/>
<g>
</g>
<g>
</g>
<g>
</g>
<g>
</g>
<g>
</g>
<g>
</g>
<g>
</g>
<g>
</g>
<g>
</g>
<g>
</g>
<g>
</g>
<g>
</g>
<g>
</g>
<g>
</g>
<g>
</g>
</svg>
