<?xml version="1.0" encoding="iso-8859-1"?>
<!-- Generator: Adobe Illustrator 19.0.0, SVG Export Plug-In . SVG Version: 6.00 Build 0)  -->
<svg version="1.1" id="Capa_1" xmlns="http://www.w3.org/2000/svg" xmlns:xlink="http://www.w3.org/1999/xlink" x="0px" y="0px"
	 viewBox="0 0 512 512" style="enable-background:new 0 0 512 512;" xml:space="preserve">
<path style="fill:#4E901E;" d="M290.866,412.806v57.088c-0.12,19.043-15.725,34.588-34.798,34.588h-0.661
	c-19.073,0-34.678-15.545-34.798-34.588v-57.088c0-19.133,15.655-34.788,34.798-34.788h0.661
	C275.211,378.018,290.866,393.673,290.866,412.806z"/>
<path style="fill:#47821C;" d="M290.866,412.806v57.088c-10.905,4.199-22.751,6.485-35.129,6.485
	c-12.378,0-24.225-2.285-35.129-6.485v-57.088c0-19.133,15.655-34.788,34.798-34.788h0.661
	C275.211,378.018,290.866,393.673,290.866,412.806z"/>
<path style="fill:#EEBF00;" d="M269.769,384.352c-63.767,9.23-118.793-44.51-111.461-108.274
	c5.655-42.85,17.956-136.029,23.302-176.587c1.777-15.415,7.842-31.841,15.264-45.542c33.488-61.598,84.6-62.5,118.376,1.233
	c15.472,28.984,12.809,30.573,37.915,220.897C359.272,329.099,321.848,376.928,269.769,384.352z"/>
<path style="fill:#FFD422;" d="M269.769,384.352c-51.636-7.357-89.551-54.793-83.398-108.274
	c25.184-190.876,22.307-192.117,38.567-222.13c9.827-18.077,25.504-37.43,44.831-44.189c23.786,8.319,42.389,35.714,51.837,59.003
	c8.293,20.402,5.523,9.936,31.561,207.316C359.272,329.099,321.848,376.928,269.769,384.352z"/>
<path style="fill:#79AB03;" d="M460.628,135.763c-23.353,7.216-71.26,15.294-90.594,62.23c-9.02,21.879-6.956,57.409-1.804,80.511
	c8.98,40.221,22.881,149.196-84.741,165.833c-9.491,1.463-19.935,2.215-31.401,2.135c0,0-13.24-36.983-2.185-99.344
	c0,0,21.178-242.816,164.49-249.09c0,0,7.908-1.373,18.903,1.283c9.391,2.265,21.037,7.467,31.942,18.963
	C470.671,124.007,468.165,133.428,460.628,135.763z"/>
<path style="fill:#85BB04;" d="M460.628,135.763c-23.353,7.216-71.26,15.294-90.594,62.23c-9.02,21.879-6.956,57.409-1.804,80.511
	c8.559,38.316,21.579,139.023-70.248,162.856c1.964-17.048,2.566-42.055-3.007-73.515c0,0-0.628-7.213-2.404-19.184
	c-4.13-27.85-2.469-56.264,4.934-83.428c18.386-67.461,57.09-153.915,135.791-165.913c9.391,2.265,21.037,7.467,31.942,18.963
	C470.671,124.007,468.165,133.428,460.628,135.763z"/>
<path style="fill:#91CC04;" d="M263.715,427.079c-1.904,12.628-4.33,19.394-4.33,19.394
	c-141.508,0.992-125.913-124.199-116.141-167.968c5.152-23.102,7.216-58.632-1.804-80.511
	c-19.334-46.936-67.241-55.014-90.594-62.23c-7.537-2.335-10.043-11.756-4.61-17.479c10.403-10.975,21.488-16.206,30.639-18.632
	c11.666-3.097,20.205-1.614,20.205-1.614c143.312,6.274,164.49,249.09,164.49,249.09
	C267.894,382.819,266.271,410.191,263.715,427.079z"/>
<path style="fill:#9CDD05;" d="M263.715,427.079c-113.756-13.651-99.534-125.703-90.403-166.615
	c5.152-23.102,7.216-58.632-1.804-80.511c-19.334-46.936-67.241-55.014-90.594-62.23c-7.537-2.335-10.043-11.756-4.61-17.479
	c0.19-0.2,0.381-0.391,0.571-0.591c11.666-3.097,20.205-1.614,20.205-1.614c143.312,6.274,164.49,249.09,164.49,249.09
	C267.894,382.819,266.271,410.191,263.715,427.079z"/>
<path d="M171.543,118.35c0.005-0.035,0.01-0.079,0.017-0.129C171.563,118.203,171.554,118.272,171.543,118.35z"/>
<path d="M171.524,118.494c0.001-0.008,0.002-0.015,0.003-0.023C171.526,118.481,171.525,118.488,171.524,118.494z"/>
<path d="M470.691,113.102c0,0-23.112-23.366-57.018-22.561c-27.161,1.273-51.867,10.664-73.716,28.003l-1.604-12.127l-1.032-7.848
	c-1.213-10.413-4.28-21.729-8.82-32.844c-1.874-4.59-3.989-9.141-6.344-13.591c-1.594-3.037-3.297-6.014-5.091-8.92
	c-2.185-3.528-6.815-4.63-10.353-2.445c-3.528,2.185-4.62,6.815-2.445,10.343c1.373,2.235,2.696,4.52,3.949,6.855
	c-5.673,2.105-11.336,3.859-16.988,5.272c-1.443-12.358-2.987-23.794-4.48-33.976l0.01,0.01c2.07,2.07,5.211,2.734,7.887,1.548
	c5.475-2.425,6.172-8.988,2.366-12.543c-57.663-53.854-116.241,22.905-122.856,80.291c-1.917,14.531-2.462,18.652-2.593,19.651
	c-0.001,0.01-0.006,0.049-0.017,0.13v-0.001c0,0.001,0,0.004-0.001,0.005c-0.002,0.013-0.003,0.025-0.005,0.041
	c-0.004,0.03-0.007,0.055-0.009,0.071c0,0.001,0,0.003-0.001,0.004c0,0,0-0.001,0-0.002c-0.005,0.036-0.005,0.041-0.003,0.025
	c-0.002,0.018-0.004,0.03-0.007,0.05c-21.849-17.339-46.555-26.73-73.716-28.003c-21.385-0.614-45.189,6.74-57.018,22.561
	c-7.956,10.64-5.209,25.815,7.848,29.837c23.255,7.214,68.004,14.576,85.863,57.91c8.369,20.354,6.196,54.533,1.413,76.021
	c-6.317,28.228-8.653,60.143-2.886,88.369c0.832,4.069,4.801,6.695,8.87,5.863c4.069-0.832,6.685-4.801,5.853-8.87
	c-5.3-25.935-2.986-56.888,2.836-82.095c5.485-24.64,7.474-61.566-2.185-85.011c-20.133-48.881-67.241-57.849-95.324-66.55
	c-2.25-0.696-2.967-3.453-1.383-5.122c0,0,13.861-18.913,45.061-17.91c71.792,2.306,113.213,70.976,135.535,139.895
	c15.946,48.941,26.169,117.567,26.169,149.907c0,17.592-1.999,32.554-4.721,43.578c-41.059-0.73-78.7-13.224-97.058-50.123
	c-1.854-3.718-6.364-5.232-10.083-3.378c-3.708,1.844-5.222,6.354-3.378,10.073c13.731,27.582,37.144,45.492,69.877,53.55v20.636
	c0,23.37,18.946,42.315,42.315,42.315h0.661c11.566,0,22.38-4.61,30.459-12.989c2.876-2.997,2.786-7.747-0.2-10.634
	c-2.997-2.876-7.757-2.786-10.634,0.2c-5.212,5.412-12.177,8.389-19.624,8.389h-0.661c-15.067,0-27.281-12.214-27.281-27.281v-17.72
	c18.482,2.703,36.85,2.673,55.224-0.01v14.079c0,3.822,2.745,7.228,6.536,7.708c4.586,0.581,8.498-2.983,8.498-7.455v-17.269
	c78.318-19.424,94.61-94.279,77.184-172.147c-4.788-21.507-6.952-55.677,1.413-76.021c4.51-10.955,11.135-20.446,19.684-28.224
	c3.067-2.786,3.297-7.547,0.501-10.614c-2.786-3.077-7.547-3.297-10.614-0.501c-22.982,20.904-30.248,45.341-30.248,75.871
	c0,39.498,10.413,51.56,10.413,93.19c0,66.818-32.844,103.039-97.429,107.823c5.031-23.271,6.235-55.301-0.261-92.258
	c-0.241-2.626-1.684-17.349-5.613-38.577c7.802-40.96,20.975-85.409,41.263-122.215c24.288-44.076,59.119-77.218,109.184-79.758
	c5.449-0.277,29.117,3.889,45.925,17.869c1.584,1.669,0.867,4.426-1.383,5.122c-10.856,3.364-27.715,7.048-44.754,15.112
	c-3.472,1.644-5.377,5.619-4.16,9.262c1.459,4.372,6.347,6.359,10.377,4.43c15.796-7.531,32.049-11.053,42.977-14.443
	c7.677-2.365,12.829-9.361,12.829-17.399C475.672,120.91,473.908,116.49,470.691,113.102z M241.726,17.808
	c4.56-1.944,9.251-3.007,14.012-3.007c4.971,0,9.682,1.183,14.012,3.027c2.105,13.28,4.46,29.757,6.605,48.339
	c-13.841,2.015-27.592,1.934-41.203-0.22C237.286,47.434,239.631,31.038,241.726,17.808z M233.537,80.88
	c14.021,2.094,28.946,2.285,44.42,0.08c1.513,14.803,2.826,30.659,3.738,47.096c-17.469,3.197-34.798,3.097-51.887-0.301
	C230.721,111.398,232.034,95.613,233.537,80.88z M213.302,166.923c-7.97-12.86-17.401-25.409-28.223-36.232l0.381-2.907
	c7.447,3.969,17.068,8.249,28.604,11.606C213.652,148.792,213.402,157.963,213.302,166.923z M217.17,93.067
	c-0.942,10.514-1.714,20.797-2.315,30.839c-11.606-3.718-20.857-8.399-27.271-12.207c1.686-9.579,1.147-20.561,9.692-41.042
	c6.244,2.646,13.39,5.172,21.368,7.216C218.122,82.834,217.631,87.895,217.17,93.067z M220.307,62.759
	c-6.074-1.664-11.596-3.628-16.497-5.683c5.773-10.524,12.909-20.286,20.907-27.783C223.254,39.336,221.731,50.602,220.307,62.759z
	 M255.737,272.471c-5.563-21.997-12.975-45.009-21.769-65.417c6.735,0.982,14.072,1.594,21.939,1.594
	c6.795,0,13.991-0.451,21.548-1.493C268.521,228.017,261.314,250.469,255.737,272.471z M282.878,191.188
	c-18.281,3.498-36.412,3.398-54.282-0.331c-0.361-16.116-0.14-32.233,0.491-47.958c17.225,3.122,35.27,3.19,53.32,0.14
	C283.029,158.825,283.239,175.011,282.878,191.188z M292.861,78.164c6.996-1.644,14.262-3.819,21.739-6.615
	c4.029,9.862,6.765,19.865,7.798,28.805c0,0.04,0.01,0.08,0.01,0.13l1.774,13.45c-9.201,4.43-18.381,7.958-27.532,10.594
	C295.707,108.487,294.293,91.784,292.861,78.164z M326.396,130.702c-8.504,8.367-18.692,20.847-28.234,36.221
	c-0.09-8.83-0.331-17.88-0.742-27.141c9.211-2.435,19.003-7.374,28.975-11.854V130.702z"/>
<g>
</g>
<g>
</g>
<g>
</g>
<g>
</g>
<g>
</g>
<g>
</g>
<g>
</g>
<g>
</g>
<g>
</g>
<g>
</g>
<g>
</g>
<g>
</g>
<g>
</g>
<g>
</g>
<g>
</g>
</svg>
