<?xml version="1.0" encoding="iso-8859-1"?>
<!-- Generator: Adobe Illustrator 19.0.0, SVG Export Plug-In . SVG Version: 6.00 Build 0)  -->
<svg version="1.1" id="Capa_1" xmlns="http://www.w3.org/2000/svg" xmlns:xlink="http://www.w3.org/1999/xlink" x="0px" y="0px"
	 viewBox="0 0 512 512" style="enable-background:new 0 0 512 512;" xml:space="preserve">
<path style="fill:#5EAC24;" d="M502.041,66.315c-13.247,5.872-46.852,21.394-66.661,35.931c-2.286,1.676-0.965,5.303,1.859,5.13
	c14.649-0.914,42.026,1.117,52.591,26.9c0.863,2.103-1.026,4.297-3.241,3.82c-17.087-3.718-73.68-14.689-99.372-3.291
	c-2.58,1.148-2.062,4.968,0.731,5.415c12.211,1.95,34.803,8.066,39.385,26.717c0.528,2.154-1.534,4.063-3.637,3.383
	c-12.851-4.114-50.813-14.547-71.953-1.503c-0.823,0.508-1.615,1.046-2.377,1.625c-0.173,0.142-0.335,0.295-0.477,0.467
	l-22.308,26.392c-1.016,1.199-2.814,1.351-4.013,0.335l-18.539-15.665c-1.199-1.016-1.351-2.814-0.335-4.013l22.41-26.524
	c0.081-0.081,0.142-0.173,0.203-0.264c0.63-0.955,1.321-2.022,2.042-3.2c7.914-12.952,19.555-38.725,4.622-61.185
	c-1.341-2.022,0.325-4.673,2.733-4.378c5.709,0.691,14.293,3.088,21.038,10.758c1.808,2.052,5.191,0.65,4.978-2.083
	c-1.29-16.396-5.323-47.39-17.646-63.715c-1.503-2.001,0.061-4.835,2.55-4.561c10.86,1.209,31.461,6.308,41.061,27.317
	c0.894,1.971,3.616,2.204,4.876,0.437l29.978-41.742c1.778-2.479,5.679-0.803,5.11,2.194l-10.727,55.964
	c-0.437,2.265,1.869,4.084,3.972,3.129c13.572-6.207,51.839-21.242,81.056-9.041C504.265,62.039,504.326,65.289,502.041,66.315z"/>
<path style="fill:#47821C;" d="M351.744,168.816c-0.823,0.508-1.615,1.046-2.377,1.625c-0.173,0.142-0.335,0.295-0.477,0.467
	l-22.308,26.392c-1.016,1.199-2.814,1.351-4.013,0.335l-18.539-15.665c-1.199-1.016-1.351-2.814-0.335-4.013l22.41-26.524
	c0.081-0.081,0.142-0.173,0.203-0.264c0.63-0.955,1.321-2.022,2.042-3.2C337.583,153.151,345.568,160.283,351.744,168.816z"/>
<path style="fill:#FF9811;" d="M311.11,289.703l-24.584,19.21l-12.14,9.488c-245.719,192-231.087,180.856-234.583,182.774
	c-20.896,11.418-41.356-10.291-26.27-31.928c210.061-301.386,194.696-279.628,198.428-284.116
	c29.084-35.21,78.739-43.357,107.448-16.173l3.972,3.759c3.127,3.016,5.19,4.728,7.781,7.741
	C356.925,209.978,348.178,260.741,311.11,289.703z"/>
<path style="fill:#FFA733;" d="M311.11,289.703L158.984,408.569L44.192,498.27c-1.453,1.138-2.926,2.103-4.389,2.905
	c0.823-2.804,2.194-5.689,4.206-8.564l83.301-119.516l110.394-158.383c22.989-32.985,63.024-46.181,93.459-34.255
	C356.925,209.978,348.178,260.741,311.11,289.703z"/>
<path d="M160.488,397.73l-15.055,11.764l-16.711-15.868c-3.048-2.895-7.873-2.773-10.768,0.284
	c-2.895,3.048-2.773,7.873,0.274,10.768l15.065,14.303c-96.677,74.08-95.221,77.724-105.142,77.724
	c-10.161,0-16.736-11.088-8.371-23.111l22.928-32.894c9.163,7.966,10.633,11.977,15.665,11.977c6.821,0,10.245-8.392,5.242-13.145
	l-12.089-11.479l8.808-12.637c2.408-3.454,1.554-8.198-1.89-10.606c-3.454-2.408-8.208-1.554-10.616,1.889
	c-2.025,2.905,2.425-3.477-40.543,58.189c-21.141,30.338,12.491,62.129,41.589,39.385c18.373-14.355,26.877-21,30.483-23.818
	c-1.153,0.901,8.071-6.304,90.515-70.718c3.312-2.59,3.901-7.385,1.31-10.697C168.594,395.718,163.8,395.139,160.488,397.73z
	 M80.474,479.584c0.048-0.038,0.097-0.075,0.141-0.111C80.568,479.511,80.521,479.547,80.474,479.584z M81.554,478.741
	c0.041-0.031,0.075-0.059,0.1-0.078C81.628,478.683,81.594,478.709,81.554,478.741z"/>
<path d="M151.365,284.817l57.132-81.97l20.226,19.2c3.087,2.918,7.893,2.747,10.768-0.284c2.895-3.048,2.773-7.873-0.284-10.768
	l-21.709-20.612c8.838-10.849,20.002-19.23,32.599-24.442c3.891-1.605,5.74-6.065,4.135-9.945c-1.605-3.891-6.065-5.74-9.955-4.135
	c-31.607,13.044-44.573,37.702-46.953,40.38C68.137,377.564,130.796,287.682,65.261,381.7c-3.539,5.077,0.155,11.977,6.248,11.977
	c2.408,0,4.775-1.138,6.258-3.261l64.781-92.951c16.552,14.829,17.432,18.621,22.664,18.621c6.826,0,10.259-8.372,5.252-13.145
	L151.365,284.817z"/>
<path d="M504.885,54.034c-24.193-10.098-54.486-4.063-78.79,5.577c9.377-49.324,9.224-47.285,9.224-49.188
	c0-5.75-4.714-10.423-10.514-10.423c-3.373,0-6.461,1.595-8.462,4.368l-25.549,35.596c-11.977-18.479-31.817-23.446-43.347-24.736
	c-9.246-0.948-14.9,9.487-9.447,16.731c6.928,9.183,12.231,26.443,14.964,48.304c-6.215-3.651-14.076-5.496-17.625-5.496
	c-5.77,0-10.463,4.693-10.463,10.463c0,7.155,8.488,10.446,7.619,28.241c-0.254,4.196,2.956,7.802,7.162,8.046
	c4.185,0.254,7.802-2.956,8.046-7.162c0.4-7.39-0.482-14.378-3.017-21.252c6.839,3.782,7.212,8.665,14.181,8.665
	c6.059,0,10.927-5.137,10.453-11.286c-1.168-14.781-4.409-39.812-13.308-57.995c8.94,2.743,19.149,8.564,24.746,20.805
	c3.31,7.238,13.329,8.243,18.001,1.707l17.32-24.127c-6.856,36.134-6.827,34.805-6.827,36.652c0,7.614,7.9,12.659,14.811,9.508
	c18.46-8.43,42.795-15.286,62.933-12.231c-16.366,7.67-40.35,19.728-56.126,31.299c-8.476,6.222-3.339,19.761,6.837,18.875
	c14.712-0.919,30.596,2.009,39.984,13.541c-25.425-4.853-69.9-11.173-93.561-0.67c-9.498,4.208-7.65,18.258,2.611,19.891
	c6.695,1.077,20.409,4.165,28.129,12.119c-22.128-5.656-51.92-9.189-70.084,4.5c-1.571,1.191-1.616,1.628-8.828,10.047
	c-2.469-2.749-4.168-4.155-10.585-10.291c6.066-7.215,7.701-8.388,12.627-17.686c1.971-3.718,0.559-8.33-3.159-10.301
	c-3.708-1.971-8.33-0.559-10.301,3.149c-5.229,9.864-7.143,10.134-11.246,15.512c-10.555-6.339-22.837-9.641-36.175-9.641h-0.315
	c-4.206,0.02-7.599,3.454-7.578,7.66c0.02,4.196,3.434,7.578,7.619,7.578h0.274c28.509,0,39.62,17.761,44.982,21.618
	c26.795,25.428,19.517,74.195-15.685,101.698l-25.478,19.911l-30.334-28.789c-3.048-2.895-7.873-2.763-10.768,0.284
	c-2.895,3.048-2.773,7.873,0.284,10.768l28.678,27.225l-84.296,65.868c-5.67,4.434-2.531,13.623,4.693,13.623
	c4.056,0-5.726,6.523,126.607-96.883c37.065-28.97,46.802-76.172,29.267-108.474l9.295-11.002
	c15.773-11.356,48.471-4.604,67.006,1.351c7.869,2.469,15.285-4.556,13.359-12.454c-3.525-14.374-14.943-22.593-26.565-27.296
	c33.424-2.818,75.661,7.954,79.044,7.954c7.393,0,12.492-7.535,9.671-14.395c-7.335-17.899-22.958-28.779-44.505-31.258
	c18.712-11.357,42.097-22.125,52.754-26.859c3.779-1.676,6.217-5.425,6.217-9.559C511.346,59.468,508.806,55.669,504.885,54.034z"/>
<g>
</g>
<g>
</g>
<g>
</g>
<g>
</g>
<g>
</g>
<g>
</g>
<g>
</g>
<g>
</g>
<g>
</g>
<g>
</g>
<g>
</g>
<g>
</g>
<g>
</g>
<g>
</g>
<g>
</g>
</svg>
