<?xml version="1.0" encoding="iso-8859-1"?>
<!-- Generator: Adobe Illustrator 19.0.0, SVG Export Plug-In . SVG Version: 6.00 Build 0)  -->
<svg version="1.1" id="Capa_1" xmlns="http://www.w3.org/2000/svg" xmlns:xlink="http://www.w3.org/1999/xlink" x="0px" y="0px"
	 viewBox="0 0 512 512" style="enable-background:new 0 0 512 512;" xml:space="preserve">
<path style="fill:#884D00;" d="M293.601,466.84c112.134,0,203.819-87.533,210.454-197.999
	c7.306-121.619-90.932-223.668-212.77-223.668H221.26l-3.691,421.667H293.601z"/>
<circle style="fill:#AA6100;" cx="218.644" cy="256" r="210.844"/>
<g>
	<circle style="fill:#91CC04;" cx="218.644" cy="256" r="170.808"/>
	<circle style="fill:#91CC04;" cx="218.644" cy="256" r="170.808"/>
</g>
<path style="fill:#85BB04;" d="M201.511,86.045c5.633-0.564,11.347-0.857,17.131-0.857c94.342,0,170.818,76.476,170.818,170.818
	c0,94.332-76.476,170.808-170.818,170.808c-5.784,0-11.498-0.292-17.131-0.857c86.301-8.586,153.687-81.403,153.687-169.951
	C355.198,167.448,287.812,94.631,201.511,86.045z"/>
<path style="fill:#C2FB3B;" d="M311.413,256.002c0,9.443-11.687,16.925-14.455,25.447c-2.868,8.832,2.091,21.734-3.259,29.086
	c-5.403,7.425-19.243,6.669-26.668,12.072c-7.351,5.35-10.88,18.775-19.711,21.643c-8.521,2.767-19.229-5.929-28.673-5.929
	s-20.151,8.697-28.673,5.929c-8.832-2.868-12.361-16.293-19.712-21.643c-7.425-5.403-21.264-4.649-26.667-12.073
	c-5.35-7.351-0.391-20.254-3.259-29.086c-2.767-8.521-14.455-16.003-14.455-25.446c0-9.443,11.687-16.925,14.455-25.447
	c2.868-8.832-2.091-21.734,3.259-29.086c5.403-7.425,19.243-6.669,26.668-12.072c7.351-5.35,10.88-18.775,19.711-21.643
	c8.521-2.767,19.229,5.929,28.673,5.929s20.151-8.697,28.673-5.929c8.832,2.868,12.361,16.293,19.711,21.643
	c7.425,5.403,21.264,4.649,26.667,12.073c5.35,7.351,0.391,20.254,3.259,29.086C299.725,239.078,311.413,246.558,311.413,256.002z"
	/>
<path d="M454.21,380.63c-37.742,48.565-94.078,77.001-155.239,78.576c143.04-56.504,185.089-241.106,77.914-353.737
	c-6.889-7.235-17.848,3.17-10.951,10.421c122.521,128.75,30.767,343.125-146.976,343.393
	c-0.186-0.051-115.408,3.804-176.406-101.646c-5.005-8.645-18.096-1.093-13.084,7.569
	c40.196,69.489,113.501,109.323,189.503,109.193h74.63c69.493,0,132.177-32.548,172.544-84.493
	C472.276,382.018,460.351,372.729,454.21,380.63z"/>
<path d="M291.286,37.615l-72.637-0.014c-154.435,0-260.168,156.239-202.85,299.489c3.712,9.281,17.751,3.673,14.033-5.615
	c-9.601-23.998-14.469-49.391-14.468-75.473C15.364,85.77,212.461-7.76,344.408,96.274c7.847,6.184,17.217-5.675,9.359-11.87
	c-16.813-13.255-35.107-23.801-54.466-31.503c153.92,5.869,246.237,171.51,171.094,303.515c-4.944,8.681,8.186,16.176,13.136,7.478
	C565.11,220.584,462.207,37.615,291.286,37.615z"/>
<path d="M147.593,92.347C82.401,120.69,40.277,184.929,40.277,256.002c0,98.354,80.017,178.371,178.371,178.371
	c0.005,0,0.009,0,0.014,0c6.906,0,13.866-0.4,20.685-1.189c4.147-0.48,7.118-4.229,6.64-8.376c-0.48-4.148-4.246-7.126-8.376-6.64
	c-6.246,0.723-12.621,1.088-18.95,1.088c-0.004,0-0.009,0-0.013,0c-90.019,0-163.256-73.236-163.256-163.255
	c0-65.053,38.556-123.85,98.227-149.793C162.782,102.227,156.769,88.358,147.593,92.347z"/>
<path d="M270.216,426.803c72.159-21.758,126.803-88.988,126.803-170.802c0-114.885-107.499-200.048-219.509-173.601
	c-9.727,2.297-6.266,17.007,3.474,14.712c102.732-24.253,200.919,53.977,200.919,158.891c0,71.442-47.721,135.726-116.051,156.329
	C256.285,415.216,260.636,429.694,270.216,426.803z"/>
<path d="M137.485,197.023c-7.323,10.064-2.083,24.261-4.336,31.198c-2.145,6.611-14.823,14.964-14.823,27.781
	c0,12.846,12.666,21.135,14.823,27.779c2.273,7.003-3.012,21.103,4.337,31.2c7.353,10.104,22.56,9.537,28.33,13.736
	c5.771,4.202,9.759,18.803,21.824,22.72c11.762,3.821,23.46-5.561,31.008-5.561c7.393,0,19.327,9.351,31.006,5.561
	c11.954-3.881,16.187-18.619,21.824-22.719c5.846-4.255,20.937-3.576,28.332-13.737c7.252-9.966,2.125-24.386,4.335-31.198
	c2.15-6.615,14.824-14.961,14.824-27.781c0-12.846-12.666-21.136-14.822-27.781c-2.275-7.005,3.011-21.103-4.337-31.198
	c-7.353-10.105-22.56-9.538-28.331-13.736c-5.771-4.202-9.759-18.803-21.824-22.72c-11.764-3.82-23.46,5.561-31.007,5.561
	c-7.523,0-19.261-9.373-31.007-5.561c-12.052,3.914-16.066,18.528-21.824,22.72C159.966,187.542,144.882,186.86,137.485,197.023z
	 M160.281,201.388c4.971-1.344,10.11-2.735,14.43-5.879c9.041-6.579,12.914-20.742,18.894-20.742c5.587,0,15.412,6.476,25.044,6.476
	c10.484,0,21.673-7.813,26.339-6.299c5.088,1.652,9.228,14.473,17.599,20.565c8.269,6.018,21.963,6.234,25.004,10.41
	c2.978,4.092-1.017,17.12,2.181,26.972c3.129,9.633,14.085,17.64,14.085,23.113c0,5.505-10.925,13.38-14.086,23.112
	c-3.173,9.778,0.785,22.896-2.18,26.973c-3.044,4.181-16.713,4.376-25.004,10.41c-4.269,3.107-7.147,7.535-9.93,11.816
	c-6.765,10.411-7.113,10.564-18.542,6.228c-13.292-5.041-17.621-5.046-30.929,0c-11.431,4.335-11.777,4.186-18.543-6.229
	c-7.504-11.545-10.746-14.013-24.361-17.697c-11.885-3.216-12.192-3.559-11.596-15.861c0.69-14.347-0.789-18.148-9.229-28.565
	c-7.941-9.802-7.946-10.567,0-20.376c8.438-10.413,9.922-14.218,9.229-28.566C148.091,204.963,148.379,204.608,160.281,201.388z"/>
<path d="M211.091,117.339v21.832c0,9.993,15.116,10.007,15.116,0v-21.832C226.206,107.345,211.091,107.332,211.091,117.339z"/>
<path d="M164.5,128.08l7.466,20.515c3.417,9.389,17.628,4.234,14.205-5.17l-7.466-20.515
	C175.289,113.522,161.077,118.676,164.5,128.08z"/>
<path d="M144.221,173.533c6.333,0,9.941-7.464,5.785-12.416l-14.034-16.724c-6.422-7.653-18.013,2.051-11.579,9.717
	C137.075,168.049,138.232,173.533,144.221,173.533z"/>
<path d="M103.166,179.194c-8.654-5.001-16.223,8.087-7.558,13.09c18.952,10.568,19.173,11.93,22.679,11.93
	c7.713,0,10.462-10.249,3.786-14.105L103.166,179.194z"/>
<path d="M81.615,238.003c22.518,3.931,21.636,3.907,22.821,3.907c9.15,0,10.369-13.403,1.304-15.003l-21.5-3.791
	C74.382,221.388,71.776,236.268,81.615,238.003z"/>
<path d="M84.104,285.751l21.501-3.791c9.839-1.735,7.229-16.622-2.625-14.886l-21.501,3.791
	C71.641,272.599,74.248,287.488,84.104,285.751z"/>
<path d="M102.772,329.768l18.908-10.917c8.655-4.997,1.106-18.095-7.558-13.09l-18.908,10.917
	C86.558,321.675,94.109,334.773,102.772,329.768z"/>
<path d="M135.37,364.745l14.033-16.724c6.424-7.654-5.147-17.383-11.579-9.716l-14.033,16.724
	C117.365,362.685,128.938,372.411,135.37,364.745z"/>
<path d="M171.228,360.778l-7.467,20.515c-3.418,9.389,10.782,14.575,14.205,5.171l7.467-20.515
	C188.85,356.559,174.649,351.374,171.228,360.778z"/>
<path d="M210.303,370.474v21.832c0,4.174,3.383,7.558,7.558,7.558s7.558-3.384,7.558-7.558v-21.832
	C225.418,360.48,210.303,360.467,210.303,370.474z"/>
<path d="M272.009,381.564l-7.466-20.515c-3.416-9.389-17.628-4.234-14.205,5.17l7.466,20.515
	C261.226,396.135,275.427,390.954,272.009,381.564z"/>
<path d="M286.503,348.527c12.681,13.941,13.837,19.424,19.827,19.424c6.333,0,9.941-7.464,5.785-12.416l-14.033-16.723
	C291.66,331.156,280.069,340.862,286.503,348.527z"/>
<path d="M314.436,319.534c18.952,10.568,19.173,11.93,22.679,11.93c7.713,0,10.462-10.249,3.786-14.105l-18.907-10.917
	C313.341,301.444,305.771,314.529,314.436,319.534z"/>
<path d="M354.894,271.64l-21.501-3.791c-9.856-1.734-12.466,13.152-2.625,14.886c22.519,3.931,21.637,3.907,22.822,3.907
	C362.739,286.643,363.961,273.238,354.894,271.64z"/>
<path d="M352.406,223.892l-21.501,3.791c-9.836,1.734-7.233,16.624,2.624,14.886l21.501-3.791
	C364.867,237.044,362.263,222.159,352.406,223.892z"/>
<path d="M322.387,203.882l18.908-10.917c3.615-2.087,4.853-6.709,2.766-10.324c-2.086-3.616-6.71-4.854-10.324-2.766l-18.908,10.917
	C306.197,195.775,313.741,208.877,322.387,203.882z"/>
<path d="M301.139,144.899l-14.033,16.724c-6.426,7.656,5.147,17.382,11.579,9.716l14.033-16.724
	C319.142,146.96,307.571,137.232,301.139,144.899z"/>
<path d="M258.544,123.179l-7.466,20.515c-3.418,9.39,10.783,14.574,14.205,5.17l7.466-20.515c1.428-3.923-0.596-8.259-4.517-9.687
	C264.303,117.235,259.971,119.257,258.544,123.179z"/>
<g>
</g>
<g>
</g>
<g>
</g>
<g>
</g>
<g>
</g>
<g>
</g>
<g>
</g>
<g>
</g>
<g>
</g>
<g>
</g>
<g>
</g>
<g>
</g>
<g>
</g>
<g>
</g>
<g>
</g>
</svg>
