<?xml version="1.0" encoding="iso-8859-1"?>
<!-- Generator: Adobe Illustrator 19.0.0, SVG Export Plug-In . SVG Version: 6.00 Build 0)  -->
<svg version="1.1" id="Capa_1" xmlns="http://www.w3.org/2000/svg" xmlns:xlink="http://www.w3.org/1999/xlink" x="0px" y="0px"
	 viewBox="0 0 512 512" style="enable-background:new 0 0 512 512;" xml:space="preserve">
<path style="fill:#5EAC24;" d="M402.277,113.598c-17.49,2.591-68.47,13.938-87.26,59.725c-3.152,7.664-5.393,16.299-6.434,26.015
	H203.863c-7.214-67.749-73.272-82.718-93.694-85.74c-2.551-0.38-3.672-3.712-1.921-5.773c8.015-9.435,16.179-15.939,24.254-20.192
	c45.486-23.914,88.441,23.714,88.441,23.714c-5.143-55.032,17.08-87.431,30.928-101.959c1.281-1.341,2.832-1.901,4.353-1.871
	c1.521-0.03,3.072,0.53,4.353,1.871c13.848,14.528,36.071,46.927,30.928,101.959c0,0,59.564-66.048,112.695-3.522
	C405.951,109.886,404.83,113.218,402.277,113.598z"/>
<path style="fill:#6DC82A;" d="M402.277,113.598c-13.888,2.061-48.918,9.646-72.152,35.621
	c-20.822-14.909-46.337-23.684-73.903-23.684c-11.908,0-23.433,1.636-34.359,4.695c-5.721,1.602-11.826-0.288-15.637-4.846
	c-23.02-27.532-59.232-35.568-73.726-37.751c45.486-23.914,88.441,23.714,88.441,23.714C215.8,56.315,238.023,23.917,251.87,9.388
	c1.281-1.341,2.832-1.901,4.353-1.871c1.521-0.03,3.072,0.53,4.353,1.871c13.848,14.528,36.071,46.927,30.928,101.959
	c0,0,59.564-66.048,112.695-3.522C405.951,109.886,404.83,113.218,402.277,113.598z"/>
<path style="fill:#DDB200;" d="M379.095,273.611v108.002c0,19.761-4.733,38.472-13.118,55.052
	c-2.261,4.493-4.803,8.835-7.584,12.998c-10.716,15.999-25.074,29.377-41.874,38.913c-4.993,2.832-10.206,5.333-15.609,7.454
	c-8.785,3.462-18.06,5.933-27.676,7.274c-5.563,0.79-11.246,1.191-17.01,1.191c-15.739,0-30.818-3.002-44.686-8.465
	c-5.403-2.121-10.616-4.623-15.609-7.454c-16.8-9.536-31.158-22.913-41.874-38.913c-2.782-4.162-5.323-8.505-7.584-12.998
	c-8.385-16.58-13.118-35.29-13.118-55.052V273.611c0-20.132,4.913-39.183,13.588-55.992c2.301-4.473,4.873-8.785,7.694-12.917
	c10.856-15.929,25.365-29.217,42.294-38.622c5.053-2.802,10.326-5.263,15.769-7.344c13.548-5.173,28.226-8.005,43.525-8.005
	c5.763,0,11.447,0.4,17.01,1.181c9.195,1.291,18.07,3.602,26.515,6.824c5.443,2.081,10.716,4.543,15.769,7.344
	c10.116,5.613,19.361,12.617,27.486,20.742c5.473,5.473,10.436,11.467,14.809,17.88c2.822,4.132,5.393,8.445,7.694,12.917
	C374.182,234.428,379.095,253.479,379.095,273.611z"/>
<path style="fill:#FFCD00;" d="M379.095,273.611v108.002c0,19.761-4.733,38.472-13.118,55.052
	c-2.261,4.493-4.803,8.835-7.584,12.998c-10.716,15.999-25.074,29.377-41.874,38.913c-4.993,2.832-10.206,5.333-15.609,7.454
	c-8.785,3.462-18.06,5.933-27.676,7.274c-9.616-1.341-18.891-3.812-27.676-7.274c-5.403-2.121-10.616-4.623-15.609-7.454
	c-16.8-9.536-31.158-22.913-41.874-38.913c-2.782-4.162-5.323-8.505-7.584-12.998c-8.385-16.58-13.118-35.29-13.118-55.052V273.611
	c0-20.132,4.913-39.183,13.588-55.992c2.301-4.473,4.873-8.785,7.694-12.917c10.856-15.929,25.365-29.217,42.294-38.622
	c5.053-2.802,10.326-5.263,15.769-7.344c8.445-3.222,17.32-5.533,26.515-6.824c9.195,1.291,18.07,3.602,26.515,6.824
	c5.443,2.081,10.716,4.543,15.769,7.344c10.116,5.613,19.361,12.617,27.486,20.742c5.473,5.473,10.436,11.467,14.809,17.88
	c2.822,4.132,5.393,8.445,7.694,12.917C374.182,234.428,379.095,253.479,379.095,273.611z"/>
<path d="M411.821,106.905c-0.099-0.354-0.181-0.726-0.326-1.054c-0.367-0.953-0.828-2.005-1.573-2.88
	c-32.261-37.977-73.05-37.542-110.164-9.065c-0.43-47.658-21.272-76.614-33.75-89.692c-5.507-5.784-14.381-5.451-19.571,0
	c-12.477,13.078-33.319,42.044-33.749,89.702c-8.785-6.734-21.232-14.428-35.781-18.191c-4.012-1.041-8.105,1.381-9.145,5.393
	c-1.031,4.012,1.381,8.105,5.393,9.145c23.924,6.174,42.044,25.915,42.224,26.105c4.795,5.323,13.707,1.466,13.038-5.723
	c-3.238-34.741,4.536-69.649,27.806-94.925c23.251,25.256,31.048,60.149,27.806,94.925c-0.669,7.187,8.228,11.068,13.038,5.723
	c0.26-0.28,25.565-27.946,56.122-27.946c13.658,0,26.532,5.705,38.368,16.94c-23.427,8.646-61.785,27.662-76.71,51.8
	c-18.974-9.595-40.056-14.368-61.435-13.908c-4.142,0.09-7.434,3.522-7.344,7.664c0.09,4.142,3.542,7.474,7.664,7.344
	c12.511-0.301,25.716,1.52,38.432,5.713l-35.941,24.814l-35.899-24.786c2.234-0.735,4.159-1.312,5.611-1.709
	c3.992-1.091,6.344-5.223,5.253-9.215c-1.101-4.002-5.223-6.354-9.225-5.263c-8.604,2.358-16.991,5.665-24.294,9.355
	c-20.702-33.609-58.674-45.586-78.956-49.689c8.935-9.095,18.491-14.989,28.486-17.55c4.022-1.021,6.444-5.113,5.413-9.125
	c-1.031-4.022-5.123-6.444-9.125-5.413c-14.869,3.802-28.647,13.078-40.964,27.576c-5.475,6.448-1.979,16.783,6.544,18.05
	c14.558,2.151,54.902,10.976,75.484,43.775c-26.187,17.304-45.974,44.111-54.336,75.5c-5.378,20.194-4.555,22.455-4.367,141.431
	c0.105,74.153,62.06,133.329,135.998,130.15c4.142-0.18,7.354-3.682,7.174-7.825c-0.18-4.142-3.682-7.354-7.815-7.174
	c-14.751,0.626-28.998-1.541-42.154-6.043l37.171-25.665l37.131,25.635c-4.256,1.477-9.09,1.965-9.729,7.523
	c-0.746,4.982,3.586,10.062,9.559,8.296c51.674-15.411,88.96-61.392,93.026-115.013c0.654-8.524,0.341-121.371,0.326-121.892
	c-1.231-42.055-22.81-81.351-58.732-105.042c14.118-22.703,58.301-42.725,78.833-48.508
	C410.63,115.039,412.952,110.897,411.821,106.905z M305.331,240.932l-49.108,33.91l-49.108-33.91l49.108-33.91L305.331,240.932z
	 M243.015,370.007l-49.108,33.91l-49.098-33.91l49.098-33.91L243.015,370.007z M144.809,283.957l49.098-33.91l49.108,33.91
	l-49.108,33.91L144.809,283.957z M207.115,326.982l49.108-33.91l49.108,33.91l-49.108,33.91L207.115,326.982z M318.539,336.097
	l49.098,33.91l-49.098,33.91l-49.108-33.91L318.539,336.097z M269.431,283.957l49.108-33.91l49.098,33.91l-49.098,33.91
	L269.431,283.957z M203.855,170.873l39.161,27.035l-49.108,33.91l-33.085-22.854C172.134,192.312,187.131,179.436,203.855,170.873z
	 M153.186,221.929l27.514,19.003l-39.716,27.431C141.702,252.637,145.66,236.851,153.186,221.929z M140.856,299.466l39.843,27.516
	l-39.843,27.516V299.466z M140.936,385.566l39.763,27.466l-28.045,19.37C145.4,417.661,141.468,401.747,140.936,385.566z
	 M202.785,483.84c-17.615-9.249-32.141-22.677-42.617-38.4l33.74-23.293l49.108,33.91L202.785,483.84z M207.115,413.032
	l49.108-33.91l49.108,33.91l-49.108,33.91L207.115,413.032z M309.583,483.784l-40.151-27.728l49.108-33.91l33.582,23.181
	C341.528,461.208,327.158,474.517,309.583,483.784z M359.649,432.303l-27.902-19.271l39.76-27.457
	C370.951,401.502,367.083,417.288,359.649,432.303z M371.59,354.498l-39.843-27.516l39.843-27.516V354.498z M371.466,268.365
	l-39.718-27.433l27.576-19.041C366.473,236.049,370.707,251.735,371.466,268.365z M351.697,208.915l-33.157,22.902l-49.108-33.91
	l39.195-27.061C325.933,179.732,340.67,192.745,351.697,208.915z"/>
<g>
</g>
<g>
</g>
<g>
</g>
<g>
</g>
<g>
</g>
<g>
</g>
<g>
</g>
<g>
</g>
<g>
</g>
<g>
</g>
<g>
</g>
<g>
</g>
<g>
</g>
<g>
</g>
<g>
</g>
</svg>
