<?xml version="1.0" encoding="iso-8859-1"?>
<!-- Generator: Adobe Illustrator 19.0.0, SVG Export Plug-In . SVG Version: 6.00 Build 0)  -->
<svg version="1.1" id="Capa_1" xmlns="http://www.w3.org/2000/svg" xmlns:xlink="http://www.w3.org/1999/xlink" x="0px" y="0px"
	 viewBox="0 0 512 512" style="enable-background:new 0 0 512 512;" xml:space="preserve">
<path style="fill:#4E901E;" d="M282.247,40.323v139.988c0,12.783-10.463,23.256-23.256,23.256h-6.282
	c-12.794,0-23.256-10.473-23.256-23.256V40.323c0-12.783,10.463-23.246,23.256-23.246h6.282c1.37,0,2.721,0.12,4.031,0.36
	C273.915,19.347,282.247,28.91,282.247,40.323z"/>
<path style="fill:#5EAC24;" d="M479.731,165.357c-53.245-16.865-147.32-39.501-209.607-13.974c-0.05,0.02-0.1,0.04-0.15,0.06
	c-8.972,3.681-18.975,3.681-27.948,0c-0.05-0.02-0.1-0.04-0.15-0.06c7.272-15.374,17.955-28.748,31.088-39.131
	c7.652-6.062,16.144-11.103,25.287-14.934c35.55-14.894,89.064-25.357,151.581,1.52c0,0,22.766,9.633,42.442,28.258
	c2.521,2.361,4.981,4.891,7.342,7.562C512.39,149.123,498.126,171.179,479.731,165.357z"/>
<g>
	<path style="fill:#6DC82A;" d="M492.275,127.097c-3.701,1.42-7.992,1.69-12.543,0.25c-52.444-16.615-144.5-38.821-206.767-15.094
		c7.652-6.062,16.144-11.103,25.287-14.934c35.55-14.894,89.064-25.357,151.581,1.52
		C449.833,98.839,472.599,108.472,492.275,127.097z"/>
	<path style="fill:#6DC82A;" d="M270.124,151.383l-0.15,0.06c-8.972,3.681-18.975,3.681-27.948,0c-0.05-0.02-0.1-0.04-0.15-0.06
		c-62.287-25.527-156.363-2.891-209.607,13.974c-18.395,5.822-32.659-16.234-19.885-30.698c2.131-2.411,4.351-4.701,6.612-6.872
		c19.835-19.075,43.172-28.948,43.172-28.948c62.517-26.877,116.032-16.414,151.581-1.52c10.103,4.231,19.415,9.953,27.688,16.875
		C253.479,124.286,263.302,136.949,270.124,151.383z"/>
</g>
<path style="fill:#FF6243;" d="M430.608,362.131l0.05,0.02c-1.06,1.61-2.491,3.491-4.261,5.622
	c-5.872,7.432-12.453,14.294-19.655,20.446c-12.643,12.173-22.906,19.175-38.24,31.349c-3.871,3.081-8.062,6.492-12.693,10.393
	c-1.21,1.01-2.461,2.071-3.731,3.161l-53.275,38.931c-75.201-14.774-129.425-80.692-129.425-157.333v-35.94
	c0-58.886,35.36-109.5,85.994-131.776c5.421-2.401,11.023-4.461,16.775-6.152c1.4-0.43,2.811-0.83,4.231-1.2
	c11.593-3.071,23.767-4.721,36.31-4.781c79.172-0.32,144.289,64.338,144.51,143.519
	C457.275,309.607,447.422,338.525,430.608,362.131z"/>
<path style="fill:#FF5023;" d="M363.539,409.604c-2.281,6.902-4.851,13.704-7.732,20.356c-1.21,1.01-2.461,2.071-3.731,3.161
	l-53.275,38.931c-75.201-14.774-129.425-80.692-129.425-157.333v-35.94c0-58.886,35.36-109.5,85.994-131.776
	c5.421-2.401,11.023-4.461,16.775-6.152c5.742,1.71,11.323,3.771,16.735,6.152c12.563,5.522,24.177,12.783,34.539,21.476
	c15.994,13.414,28.028,30.888,35.23,50.484c6.272,17.055,13.864,42.862,17.085,74.13v0.02
	C379.214,326.951,377.563,367.182,363.539,409.604z"/>
<path style="fill:#FF7956;" d="M330.03,409.604c-5.141,15.554-11.783,30.568-19.965,44.742c-2.551,4.431-5.251,8.772-8.102,13.034
	c-20.366,30.378-62.407,36.73-90.705,13.554l-41.881-34.309c-25.457-21.786-48.693-42.342-65.358-58.406
	c-7.202-6.152-13.784-13.014-19.655-20.446c-1.77-2.131-3.211-4.011-4.261-5.622l0.04-0.02
	c-16.745-23.506-26.587-52.284-26.587-83.353c0-7.142,0.52-14.164,1.53-21.026c4.911-33.569,21.416-63.377,45.322-85.233
	c25.587-23.386,59.656-37.65,97.057-37.65c20.596,0,40.201,4.331,57.906,12.133c12.563,5.522,24.177,12.783,34.539,21.476
	c15.994,13.414,28.028,30.888,35.23,50.484c6.272,17.055,13.864,42.862,17.085,74.13v0.02
	C345.705,326.951,344.054,367.182,330.03,409.604z"/>
<path style="fill:#FF9478;" d="M330.03,409.604c-5.141,15.554-11.783,30.568-19.965,44.742c-21.936,14.764-51.964,14.464-73.8-3.421
	l-41.881-34.309c-25.457-21.786-48.693-42.342-65.358-58.406c-7.202-6.152-13.784-13.014-19.655-20.446
	c-1.77-2.131-3.211-4.011-4.261-5.622l0.04-0.02c-16.745-23.506-26.587-52.284-26.587-83.353c0-7.142,0.52-14.164,1.53-21.026
	c2.931-20.045,10.003-38.751,20.316-55.225c25.587-23.386,59.656-37.65,97.057-37.65c20.596,0,40.201,4.331,57.906,12.133
	c12.563,5.522,24.177,12.783,34.539,21.476c15.994,13.414,28.028,30.888,35.23,50.484c6.272,17.055,13.864,42.862,17.085,74.13v0.02
	C345.705,326.951,344.054,367.182,330.03,409.604z"/>
<path style="fill:#5EAC24;" d="M282.247,40.323v54.635h-7.242c-6.602,0-12.003-5.401-12.003-12.003V17.937c0-0.17,0-0.33,0.02-0.5
	C273.915,19.347,282.247,28.91,282.247,40.323z"/>
<path style="fill:#7ED63E;" d="M241.436,114.193c-62.287-25.237-156.043-2.671-209.167,14.154c-4.851,1.53-9.413,1.13-13.274-0.56
	c19.835-19.075,43.172-28.948,43.172-28.948c62.517-26.877,116.032-16.414,151.581-1.52
	C223.851,101.55,233.164,107.271,241.436,114.193z"/>
<path d="M444.292,338.905c-3.671-1.931-8.212-0.51-10.133,3.161c-19.798,37.72-49.969,53.724-86.744,85.163l-23.566,17.225
	c10.211-20.621,17.448-42.8,21.906-65.008c0.82-4.061-1.81-8.012-5.872-8.832c-4.071-0.81-8.022,1.82-8.832,5.882
	c-7.43,37.008-23.241,70.265-35.63,87.154c-17.796,26.072-54.447,31.923-79.412,11.483l-41.821-34.259
	c-45.848-39.244-63.733-56.933-65.298-58.356c-38.325-32.794-54.643-82.575-45.252-130.296c0.8-4.061-1.841-8.002-5.902-8.812
	c-4.061-0.8-8.012,1.851-8.812,5.912c-10.091,51.2,6.313,106.949,50.044,144.449c45.75,44.07,95.127,82.568,107.539,92.965
	c29.242,23.963,72.211,19.993,96.676-8.592c0.1-0.05,53.429-39.044,53.775-39.321c35.998-30.846,68.758-48.411,90.485-89.785
	C449.373,345.366,447.953,340.825,444.292,338.905z"/>
<path d="M505.238,129.687c-3.861-4.361-8.242-8.652-13.014-12.733c-3.151-2.701-7.892-2.331-10.583,0.82s-2.321,7.882,0.83,10.573
	c4.241,3.641,8.122,7.432,11.523,11.273c7.746,8.796-0.712,22.114-12.003,18.585c-33.499-10.613-81.602-23.066-128.535-25.407
	c-25.023-6.921-52.764-7.447-79.428-0.3c-1.57,0.421-3.207-0.393-3.784-1.913l-0.649-1.709c-1.416-3.726,0.021-7.907,3.388-10.041
	c58.642-37.158,131.998-37.843,186.063-6.863c3.591,2.061,8.182,0.81,10.243-2.781c2.051-3.601,0.81-8.182-2.791-10.243
	c-24.943-14.289-60.128-24.217-94.546-24.217c-32.949,0-61.097,8.612-82.202,18.195v-12.38c0-3.814-2.74-7.214-6.524-7.693
	c-4.577-0.58-8.48,2.977-8.48,7.44v20.156c-7.912,4.371-14.234,8.532-18.735,11.733c-4.661-3.331-11.073-7.562-19.055-11.953V40.323
	c0-8.682,7.062-15.744,15.754-15.744h6.282c8.692,0,15.754,7.062,15.754,15.744v9.71c0,3.814,2.74,7.214,6.524,7.693
	c4.577,0.58,8.48-2.977,8.48-7.44v-9.963c0-16.955-13.794-30.748-30.758-30.748h-6.282c-16.965,0-30.758,13.794-30.758,30.748
	v52.394c-11.648-5.263-25.387-10.201-40.892-13.561c-4.034-0.874-8.229,1.464-9.206,5.475c-1.002,4.12,1.586,8.23,5.705,9.115
	c28.38,6.095,55.484,19.332,74.34,34.084c0,0,3.836,3.699,4.718,9.127c0.406,1.068-0.68,2.109-1.728,1.678
	c-31.663-13-66.379-14.537-97.966-5.76c-66.793,3.67-125.105,25.937-130.676,25.937c-8.912,0-15.255-11.256-8.242-19.185
	c30.732-34.793,84.115-52.044,131.036-49.664c4.445,0.247,8.196-3.478,7.861-8.073c-0.279-3.829-3.567-6.738-7.402-6.927
	C98.931,72.485,41.037,90.905,6.762,129.697C2.331,134.699,0,140.74,0,147.152c0,14.454,12.023,26.667,26.247,26.667
	c11.001,0,31.396-11.239,86.734-20.736c-23.746,15.944-42.982,38.631-54.755,66.118c-1.63,3.811,0.13,8.222,3.941,9.853
	s8.222-0.13,9.853-3.941c16.374-38.21,48.743-66.138,87.354-77.341c64.79-18.777,136.347,12.876,158.723,73.77
	c14.587,39.666,20.866,83.704,17.115,126.075c-0.387,4.316,2.974,8.162,7.482,8.162c3.841,0,7.112-2.931,7.462-6.832
	c0.75-8.462,1.13-17.105,1.13-25.697c0-45.372-10.383-83.163-19.105-106.879c-10.74-29.243-30.544-52.066-58.186-68.259
	c102.045-30.744,199.763,63.714,170.647,167.576c-1.12,3.991,1.21,8.132,5.201,9.253c3.925,1.113,8.11-1.171,9.243-5.201
	c17.589-62.744-6.849-130.162-62.017-166.986c55.894,9.344,77.63,21.066,88.684,21.066c14.224,0,26.247-12.213,26.247-26.667
	C512,140.74,509.669,134.699,505.238,129.687z"/>
<g>
</g>
<g>
</g>
<g>
</g>
<g>
</g>
<g>
</g>
<g>
</g>
<g>
</g>
<g>
</g>
<g>
</g>
<g>
</g>
<g>
</g>
<g>
</g>
<g>
</g>
<g>
</g>
<g>
</g>
</svg>
