<?xml version="1.0" encoding="iso-8859-1"?>
<!-- Generator: Adobe Illustrator 19.0.0, SVG Export Plug-In . SVG Version: 6.00 Build 0)  -->
<svg version="1.1" id="Capa_1" xmlns="http://www.w3.org/2000/svg" xmlns:xlink="http://www.w3.org/1999/xlink" x="0px" y="0px"
	 viewBox="0 0 511.999 511.999" style="enable-background:new 0 0 511.999 511.999;" xml:space="preserve">
<path style="fill:#7ED63E;" d="M343.556,480.988C192.094,564.661,32.233,413.369,80.82,254.335v-0.01
	c1.057-3.502,2.292-7.135,3.556-10.617l0.01-0.01c35.127-96.824,135.322-145.755,227.076-115.17h0.01
	c57.095,19.442,98.913,64.123,117.416,117.89c0,0.01,0.01,0.02,0.01,0.04C461.168,340.207,415.471,445.031,343.556,480.988z"/>
<path style="fill:#A4E276;" d="M428.898,246.457c0-0.02-0.01-0.03-0.01-0.04c-24.822-72.128-87.167-118.598-154.053-125.828
	c-50.41,5.309-94.159,31.164-124.367,70.867c-92.558,121.39-17.92,296.649,124.206,311.814c0.06,0.01,0.999,0.184,1.06,0.194
	C399.595,489.278,467.087,359.582,428.898,246.457z"/>
<path d="M446.95,299.484c-0.242-4.16-3.808-7.333-7.978-7.102c-4.17,0.252-7.344,3.828-7.102,7.988
	c0.516,8.909,0.43,17.771-0.245,26.619c-0.004,0.045-0.046,0.078-0.092,0.07c-22.691-4.48-44.113-9.938-64.274-16.107
	c-0.059-0.018-0.073-0.095-0.023-0.132c19.538-14.628,39.746-31.941,57.934-50.307c0.041-0.041,0.111-0.023,0.127,0.033
	c1.003,3.626,1.908,7.311,2.695,11.035c0.876,4.09,4.886,6.689,8.965,5.822c4.08-0.866,6.689-4.876,5.822-8.955
	c-18.001-85.116-89.377-152.492-179.105-156.246c-0.04-0.002-0.072-0.034-0.072-0.075V43.241c0-0.054,0.057-0.091,0.108-0.069
	c11.033,4.945,20.356,9.019,27.886,12.171c10.497,4.412,24.096,6.638,40.415,6.638c25.123,0,48.766-5.218,52.714-6.125
	c0.292-0.071,0.473-0.111,0.544-0.131c3.526-0.846,5.863-4.029,5.792-7.505c-0.01-0.534-0.081-1.058-0.212-1.602
	c-0.977-4.06-5.057-6.558-9.116-5.581c-0.242,0.05-24.62,5.833-49.723,5.833c-14.294,0-25.929-1.833-34.572-5.46
	c-13.055-5.48-32.517-14.153-56.28-25.103C218,5.641,192.273,0,166.747,0h-37.839c-3.878,0-7.362,2.781-7.819,6.632
	c-0.544,4.582,3.026,8.478,7.501,8.478h38.158c23.693,0,46.6,5.017,68.087,14.919c4.739,2.189,9.278,4.267,13.616,6.246
	c0.027,0.012,0.043,0.039,0.043,0.069v75.784c0,0.04-0.031,0.073-0.072,0.075c-161.11,6.69-241.999,206.89-135.569,332.27
	c1.501,1.763,3.626,2.669,5.772,2.669c6.301,0,9.978-7.458,5.752-12.441c-3.511-4.141-6.823-8.43-9.946-12.85
	c-0.152-0.216,12.752-2.423,33.809-7.733c0.605-0.153,33.54,23.378,87.064,46.567c0.062,0.027,0.06,0.116-0.004,0.14
	c-17.558,6.379-36.216,12.257-55.954,17.426c-0.177,0.046-17.595-8.535-34.52-23.011c-3.173-2.71-7.948-2.337-10.658,0.836
	c-2.71,3.173-2.337,7.938,0.836,10.658c113.036,96.665,280.479,29.296,308.48-114.908l0.01-0.01
	C446.816,334.736,447.982,317.065,446.95,299.484z M412.961,251.314c-18.326,18.344-39.771,36.754-63.53,53.849
	c-0.02,0.014-0.046,0.018-0.07,0.01c-28.31-9.589-53.963-20.503-76.928-31.948c-0.054-0.027-0.055-0.104-0.003-0.133
	c24.353-13.672,47.53-28.92,69.282-45.604v-0.01c23.029,9.201,46.8,17.118,71.214,23.709
	C412.982,251.203,413.003,251.273,412.961,251.314z M239.665,273.093c0.052,0.029,0.051,0.106-0.003,0.133
	c-22.976,11.445-48.628,22.368-76.928,31.948c-0.023,0.008-0.049,0.004-0.07-0.01c-21.861-15.713-43.718-34.017-63.51-53.859
	c-0.041-0.041-0.022-0.111,0.034-0.126c24.404-6.581,48.175-14.498,71.194-23.699v0.01
	C192.135,244.173,215.323,259.421,239.665,273.093z M186.691,220.709c23.82-10.3,47.108-22.211,69.319-35.455
	c0.023-0.014,0.052-0.014,0.077,0c21.583,12.869,44.496,24.692,69.308,35.455c0.053,0.023,0.062,0.095,0.016,0.129
	c-18.94,14.034-42.022,29.21-69.327,43.884c-0.022,0.012-0.05,0.012-0.073,0c-27.323-14.684-50.416-29.859-69.337-43.884
	C186.629,220.802,186.638,220.731,186.691,220.709z M178.272,315.864c28.178-10.062,53.574-21.289,77.742-33.889
	c0.021-0.011,0.047-0.011,0.068,0c24.166,12.599,49.563,23.827,77.742,33.889c0.058,0.021,0.07,0.099,0.018,0.133
	c-21.756,14.575-47.683,29.7-77.762,43.772c-0.02,0.01-0.044,0.01-0.064,0c-30.1-14.082-56.017-29.206-77.762-43.772
	C178.201,315.962,178.213,315.885,178.272,315.864z M416.818,236.419c0.025,0.058-0.03,0.121-0.091,0.105
	c-21.725-5.891-42.103-12.619-61.113-19.927c-0.054-0.021-0.064-0.093-0.019-0.129c11.91-9.751,22.334-19.112,31.321-27.755
	C387.052,188.579,404.578,207.916,416.818,236.419z M320.953,140.33c20.63,8.683,39.504,21.36,55.619,37.209
	c0.196,0.193-17.113,16.668-37.11,32.534c-0.021,0.017-0.051,0.021-0.077,0.011c-25.485-10.624-48.343-22.161-68.582-33.819
	c-0.049-0.028-0.049-0.099-0.002-0.129c18.319-11.664,35.396-23.996,50.076-35.796C320.898,140.324,320.927,140.32,320.953,140.33z
	 M207.958,134.136c30.809-9.181,64.109-9.512,96.06,0.091c0.058,0.017,0.077,0.094,0.028,0.132
	c-10.885,8.605-29.394,21.653-47.958,33.098c-0.024,0.015-0.055,0.015-0.08,0c-18.51-11.413-36.364-23.995-48.078-33.189
	C207.882,134.23,207.899,134.153,207.958,134.136z M135.393,177.399c16.015-15.809,34.838-28.516,55.588-37.189
	c0.025-0.011,0.055-0.007,0.077,0.01c15.589,12.48,32.18,24.42,50.237,35.918c0.047,0.03,0.047,0.101-0.002,0.129
	c-20.251,11.668-43.107,23.194-68.582,33.819c-0.025,0.01-0.055,0.006-0.077-0.011c-14.424-11.454-26.825-22.515-37.242-32.566
	C135.363,177.478,135.363,177.429,135.393,177.399z M124.96,188.606c0.028-0.033,0.079-0.036,0.11-0.006
	c9.018,8.673,19.472,18.075,31.432,27.866c0.044,0.036,0.034,0.109-0.019,0.129c-19.02,7.308-39.397,14.047-61.114,19.937
	c-0.061,0.017-0.116-0.045-0.091-0.104C102.795,218.863,112.858,202.756,124.96,188.606z M80.48,326.98
	c-1.8-23.12,0.595-45.646,6.338-66.414c0.015-0.055,0.086-0.075,0.127-0.033c18.018,18.18,38.114,35.463,57.913,50.287
	c0.049,0.037,0.036,0.114-0.023,0.132c-20.171,6.17-41.582,11.619-64.265,16.097C80.528,327.057,80.485,327.025,80.48,326.98z
	 M105.644,408.056c-0.032,0.006-9.958-16.243-16.798-37.906c-0.023-0.073,0.063-0.13,0.122-0.081
	c13.419,11.414,27.376,22.197,42.129,32.501C131.342,402.739,118.265,405.652,105.644,408.056z M150.942,397.752
	c-40.284-26.643-68.158-53.475-70.031-55.282c-0.044-0.042-0.019-0.113,0.041-0.124c26.618-5.193,54.021-12.166,79.251-20.336
	c0.022-0.007,0.046-0.003,0.065,0.01c24.346,17.065,50.265,32.406,77.429,45.841c0.057,0.028,0.056,0.111-0.003,0.137
	C194.292,386.588,151.226,397.939,150.942,397.752z M168.375,408.694c50.478-14.427,84.33-30.767,87.649-32.107
	c0.018-0.007,0.031-0.007,0.05,0c3.208,1.296,36.85,17.571,87.649,32.107c0.063,0.018,0.077,0.103,0.021,0.137
	c-24.833,15.168-54.028,30.431-87.656,44.031c-0.018,0.007-0.039,0.007-0.057,0C207.777,433.365,167.807,408.856,168.375,408.694z
	 M310.066,487.845c-34.955,11.849-72.805,11.858-107.974-0.02c-0.577-0.194,22.181-6.122,53.929-18.551
	c0.017-0.007,0.036-0.007,0.054,0c17.587,6.887,35.593,13.036,53.988,18.426C310.133,487.72,310.135,487.821,310.066,487.845z
	 M397.583,421.841c-16.879,23.853-39.097,43.315-64.779,56.413c-0.017,0.009-0.035,0.011-0.054,0.006
	c-5.969-1.717-25.654-6.433-55.953-17.435c-0.064-0.023-0.068-0.113-0.006-0.14c30.147-13.06,59.487-28.76,87.006-46.558
	c0.017-0.011,0.038-0.015,0.058-0.01c11.114,2.797,22.338,5.336,33.681,7.604C397.59,421.734,397.615,421.796,397.583,421.841z
	 M406.482,408.009c-0.016,0.028-0.045,0.043-0.078,0.037c-3.116-0.623-11.493-2.128-25.38-5.341
	c-0.063-0.015-0.082-0.098-0.028-0.136c14.992-10.47,29.153-21.445,42.12-32.491c0.057-0.049,0.144,0.009,0.121,0.082
	C419.011,383.518,413.357,396.2,406.482,408.009z M431.161,342.417c-1.784,1.767-27.629,27.303-70.008,55.335
	c-0.018,0.012-0.041,0.016-0.062,0.01c-31.738-8.393-60.628-18.612-86.691-29.764c-0.059-0.025-0.06-0.108-0.003-0.137
	c27.164-13.435,53.084-28.776,77.429-45.841c0.019-0.013,0.043-0.017,0.065-0.01c25.231,8.171,52.61,15.081,79.229,20.283
	C431.179,342.304,431.203,342.375,431.161,342.417z"/>
<g>
</g>
<g>
</g>
<g>
</g>
<g>
</g>
<g>
</g>
<g>
</g>
<g>
</g>
<g>
</g>
<g>
</g>
<g>
</g>
<g>
</g>
<g>
</g>
<g>
</g>
<g>
</g>
<g>
</g>
</svg>
