<?xml version="1.0" encoding="iso-8859-1"?>
<!-- Generator: Adobe Illustrator 19.0.0, SVG Export Plug-In . SVG Version: 6.00 Build 0)  -->
<svg version="1.1" id="Capa_1" xmlns="http://www.w3.org/2000/svg" xmlns:xlink="http://www.w3.org/1999/xlink" x="0px" y="0px"
	 viewBox="0 0 511.999 511.999" style="enable-background:new 0 0 511.999 511.999;" xml:space="preserve">
<path style="fill:#5EAC24;" d="M504.367,149.305c-9.042,120.387-103.681,216.91-223.228,228.888
	c-8.272,0.83-16.656,1.255-25.141,1.255c-131.191,0-238.699-101.433-248.368-230.143c-0.689-9.143,6.652-16.909,15.815-16.909
	h465.106C497.715,132.396,505.056,140.162,504.367,149.305z"/>
<path style="fill:#6DC82A;" d="M504.367,149.305c-9.042,120.387-103.681,216.91-223.228,228.888
	c-119.537-11.978-214.176-108.5-223.218-228.888c-0.689-9.143,6.642-16.909,15.815-16.909h414.814
	C497.715,132.396,505.056,140.162,504.367,149.305z"/>
<path style="fill:#C70024;" d="M457.599,132.396c-0.82,103.985-80.373,189.217-181.978,199.019
	c-6.46,0.628-13.001,0.952-19.622,0.952c-110.799,0-200.73-89.374-201.6-199.97L457.599,132.396L457.599,132.396z"/>
<path style="fill:#FF0C38;" d="M457.599,132.396c-0.82,103.985-80.373,189.217-181.978,199.019
	c-101.605-9.801-181.168-95.024-181.988-199.019L457.599,132.396L457.599,132.396z"/>
<path d="M164.6,353.954C80.633,319.6,21.988,239.045,15.204,148.729c-0.256-5.121,3.732-8.738,8.242-8.738h23.551
	c1.914,44.905,17.79,86.974,46.15,122.098c6.311,7.802,18.125-1.724,11.816-9.538c-26.153-32.4-40.865-71.169-42.768-112.561H186.47
	c4.192,0,7.594-3.402,7.594-7.594c0-4.192-3.402-7.594-7.594-7.594H54.399H23.447c-13.295,0-24.349,11.139-23.389,25.07
	C7.354,246.812,69.11,331.298,158.85,368.018c3.895,1.592,8.317-0.287,9.902-4.151C170.342,359.978,168.478,355.543,164.6,353.954z"
	/>
<path d="M488.552,124.803H216.845c-4.192,0-7.594,3.402-7.594,7.594s3.402,7.594,7.594,7.594h232.958
	c-7.717,163.232-203.897,244.654-324.853,133.843c-3.088-2.835-7.887-2.622-10.722,0.466c-2.835,3.088-2.622,7.898,0.466,10.733
	c131.597,120.567,342.752,30.49,350.308-145.042h23.551c4.473,0,8.5,3.579,8.242,8.748
	C485.61,297.65,339.853,403.479,192.474,363.41c-4.05-1.094-8.222,1.296-9.325,5.336c-1.094,4.05,1.296,8.222,5.336,9.325
	c156.368,42.508,311.456-68.553,323.456-228.199C512.902,135.934,501.839,124.803,488.552,124.803z"/>
<ellipse cx="107.062" cy="174.293" rx="7.728" ry="13.395"/>
<ellipse cx="149.304" cy="227.875" rx="7.728" ry="13.396"/>
<ellipse cx="207.017" cy="178.414" rx="7.728" ry="13.396"/>
<ellipse cx="214.226" cy="266.006" rx="7.728" ry="13.395"/>
<ellipse cx="279.148" cy="214.479" rx="7.728" ry="13.395"/>
<ellipse cx="337.792" cy="170.192" rx="7.728" ry="13.396"/>
<ellipse cx="382.191" cy="210.359" rx="7.728" ry="13.395"/>
<ellipse cx="331.191" cy="260.852" rx="7.728" ry="13.395"/>
<g>
</g>
<g>
</g>
<g>
</g>
<g>
</g>
<g>
</g>
<g>
</g>
<g>
</g>
<g>
</g>
<g>
</g>
<g>
</g>
<g>
</g>
<g>
</g>
<g>
</g>
<g>
</g>
<g>
</g>
</svg>
