<?xml version="1.0" encoding="iso-8859-1"?>
<!-- Generator: Adobe Illustrator 19.0.0, SVG Export Plug-In . SVG Version: 6.00 Build 0)  -->
<svg version="1.1" id="Capa_1" xmlns="http://www.w3.org/2000/svg" xmlns:xlink="http://www.w3.org/1999/xlink" x="0px" y="0px"
	 viewBox="0 0 512 512" style="enable-background:new 0 0 512 512;" xml:space="preserve">
<path style="fill:#4E901E;" d="M422.327,127.761c-3.158,2.811-7.073,6.04-11.672,9.342c-25.613,18.448-72.648,39.625-130.528,8.054
	c-3.056-1.666-6.143-3.485-9.25-5.448c0,0,56.581-87.673,150.069-28.71C426.865,114.729,427.549,123.11,422.327,127.761z"/>
<path style="fill:#5EAC24;" d="M410.655,137.102c-25.613,18.448-72.648,39.625-130.528,8.054
	C303.91,123.744,349.28,98.826,410.655,137.102z"/>
<path style="fill:#6DC82A;" d="M372.859,53.855c-0.971,3.659-2.279,7.921-3.986,12.571c-10.241,27.841-35.261,69.613-94.398,78.862
	c-6.725,1.053-13.9,1.686-21.545,1.829c0,0-0.951-104.342,109.555-106.499C369.476,40.477,374.658,47.1,372.859,53.855z"/>
<path style="fill:#7ED63E;" d="M368.873,66.427c-10.241,27.841-35.261,69.613-94.398,78.862
	C281.936,115.864,303.951,72.212,368.873,66.427z"/>
<path style="fill:#EE8700;" d="M413.547,413.335c-30.151,52.227-82.286,83.85-137.968,89.911
	c-37.091,4.058-75.755-3.24-110.546-23.323C78.024,429.688,48.211,318.426,98.445,231.408
	c37.223-64.472,107.95-97.546,177.502-89.911c24.305,2.668,48.476,10.313,71.013,23.323
	C433.968,215.065,463.781,326.327,413.547,413.335z"/>
<path style="fill:#FF9811;" d="M413.547,413.335c-30.151,52.227-82.286,83.85-137.968,89.911
	c-24.315-2.668-48.487-10.302-71.023-23.323c-87.018-50.234-116.832-161.496-66.587-248.514
	c30.151-52.227,82.286-83.85,137.978-89.911c24.305,2.668,48.476,10.313,71.013,23.323
	C433.968,215.065,463.781,326.327,413.547,413.335z"/>
<path d="M409.449,210.957c-2.484-3.424-7.277-4.19-10.701-1.707c-3.434,2.494-4.19,7.287-1.707,10.711
	c67.862,93.589,27.267,225.756-80.222,265.716c-3.966,1.472-5.989,5.887-4.518,9.853c1.155,3.097,4.078,4.998,7.195,4.998
	c5.779,0,65.354-22.135,100.683-83.359c16.639-28.812,25.439-61.538,25.439-94.623C445.619,282.746,432.772,243.121,409.449,210.957
	z"/>
<path d="M79.782,284.668c3.414-0.01,6.521-2.3,7.42-5.754c33.134-128.568,194.367-175.172,290.674-81.141
	c3.036,2.964,7.89,2.903,10.844-0.123c2.964-3.025,2.903-7.88-0.123-10.844c-7.308-7.134-15.208-13.685-23.62-19.572
	c9.117-1.983,17.324-4.865,24.458-8.044c29.824-13.277,47.465-33.984,48.2-34.863c1.359-1.625,1.993-3.741,1.738-5.846
	c-0.255-2.105-1.37-4.017-3.076-5.274c-22.434-16.414-44.674-25.95-66.465-28.536c10.885-22.046,13.225-40.842,13.358-41.925
	c0.245-2.116-0.388-4.231-1.758-5.846c-1.38-1.625-3.352-2.606-5.478-2.708c-15.402-0.767-29.742,0.235-42.681,2.954
	c-4.139,0.869-6.797,4.937-5.928,9.076c0.879,4.139,4.937,6.797,9.086,5.928c14.551-3.068,26.413-2.719,29.936-2.882
	c-4.739,20.046-13.369,37.236-25.552,52.289c-4.156,5.003-0.559,12.571,5.887,12.571c2.197,0,4.385-0.94,5.897-2.77
	c3.281-3.935,6.214-7.952,8.831-11.968c18.929,0.828,38.532,7.901,58.564,21.146c-6.909,6.531-19.624,17.007-36.794,24.652
	c-12.837,5.703-25.797,8.861-38.849,9.454c-9.73-5.131-19.859-9.393-30.263-12.735c5.029-2.494,9.853-5.325,14.442-8.493
	c3.495-2.402,4.374-7.175,1.973-10.66s-7.175-4.364-10.66-1.962c-9.454,6.511-20.073,11.427-31.745,14.718
	c-8.585-1.492-17.273-2.371-26.012-2.647c3.271-19.624,13.808-53.29,47.618-71.238c3.741-1.993,5.161-6.633,3.179-10.374
	c-1.993-3.731-6.623-5.161-10.364-3.168c-23.957,12.714-37.898,32.072-46.003,50.388c-8.728-37.121-34.944-83.584-109.667-98.322
	c-4.15-0.818-8.187,1.881-9.004,6.03c-0.818,4.16,1.891,8.187,6.04,9.004c87.427,17.252,101.153,80.804,101.389,117.895
	c-28.975,1.666-57.348,9.975-82.675,24.284c-46.003,25.972-77.818,69.517-90.248,117.721
	C71.103,279.945,74.788,284.668,79.782,284.668z"/>
<path d="M288.559,493.567C175.024,515.218,72.751,421.973,82.307,307.828c0.347-4.221-2.79-7.921-7.011-8.279
	c-4.201-0.347-7.921,2.79-8.268,7.011c-3.166,38.216,5.376,76.324,23.947,109.218c39.073,69.143,119.116,108.375,200.457,92.844
	c4.16-0.787,6.889-4.804,6.091-8.963C296.736,495.499,292.719,492.78,288.559,493.567z"/>
<g>
</g>
<g>
</g>
<g>
</g>
<g>
</g>
<g>
</g>
<g>
</g>
<g>
</g>
<g>
</g>
<g>
</g>
<g>
</g>
<g>
</g>
<g>
</g>
<g>
</g>
<g>
</g>
<g>
</g>
</svg>
