<?xml version="1.0" encoding="iso-8859-1"?>
<!-- Generator: Adobe Illustrator 19.0.0, SVG Export Plug-In . SVG Version: 6.00 Build 0)  -->
<svg version="1.1" id="Capa_1" xmlns="http://www.w3.org/2000/svg" xmlns:xlink="http://www.w3.org/1999/xlink" x="0px" y="0px"
	 viewBox="0 0 512 512" style="enable-background:new 0 0 512 512;" xml:space="preserve">
<path style="fill:#ACABB1;" d="M238.269,474.427c-0.36,16.58-13.938,30.028-30.729,30.028c-17.371,0-31.289-14.369-30.729-31.729
	l9.566-296.319h42.326l9.556,296.319C238.279,473.297,238.279,473.867,238.269,474.427z"/>
<path style="fill:#C6C5CA;" d="M238.269,474.427c-0.37,0.01-0.73,0.02-1.101,0.02c-17.361,0-31.279-14.379-30.719-31.739
	l8.585-266.301h13.668l9.556,296.319C238.279,473.297,238.279,473.867,238.269,474.427z"/>
<path style="fill:#ACABB1;" d="M367.908,484.613c-2.151,11.287-12.187,19.872-24.305,19.872c-13.978,0-25.175-11.417-24.725-25.205
	l7.695-302.873h34.061l7.695,302.873C368.388,481.111,368.238,482.892,367.908,484.613z"/>
<path style="fill:#C6C5CA;" d="M367.908,484.613c-11.217-2.582-19.452-12.688-19.062-24.555l7.194-283.652h4.593l7.695,302.873
	C368.388,481.111,368.238,482.892,367.908,484.613z"/>
<path style="fill:#D8D7DA;" d="M281.085,145.588c0,8.755-2.111,17.04-5.854,24.365c-8.945,17.561-27.216,29.658-48.179,29.658
	h-39.024c-29.718,0-54.033-24.315-54.033-54.023l14.709-126.076c0-6.604,4.323-12.007,9.606-12.007h0.2
	c6.904,0,12.508,5.603,12.508,12.508v81.679c0,6.234,4.603,11.707,10.807,12.317c7.134,0.7,13.208-4.953,13.208-11.947v-82.05
	c0-6.904,5.593-12.508,12.508-12.508c3.452,0,6.574,1.401,8.845,3.662c2.261,2.271,3.662,5.393,3.662,8.845v81.679
	c0,6.234,4.603,11.707,10.807,12.317c7.134,0.7,13.208-4.953,13.208-11.947v-82.05c0-6.904,5.593-12.508,12.508-12.508h0.2
	c5.283,0,9.606,5.403,9.606,12.007L281.085,145.588z"/>
<g>
	<path style="fill:#E0E0E2;" d="M281.085,145.588c0,8.755-2.111,17.04-5.854,24.365c-4.453,1.211-9.136,1.851-13.958,1.851H222.25
		c-29.718,0-54.033-24.315-54.033-54.023l2.802-24.015v7.925c0,6.234,4.603,11.707,10.807,12.317
		c7.134,0.7,13.208-4.953,13.208-11.947v-82.05c0-6.904,5.593-12.508,12.508-12.508c3.452,0,6.574,1.401,8.845,3.662
		c2.261,2.271,3.662,5.393,3.662,8.845v81.679c0,6.234,4.603,11.707,10.807,12.317c7.134,0.7,13.208-4.953,13.208-11.947v-82.05
		c0-6.904,5.593-12.508,12.508-12.508h0.2c5.283,0,9.606,5.403,9.606,12.007L281.085,145.588z"/>
	<path style="fill:#E0E0E2;" d="M378.004,10.897v249.341c0,8.635-7.004,15.639-15.639,15.639H338.1
		c-15.96,0-28.908-12.097-28.908-27.016v-165.1c0-41.305,22.504-74.325,65.73-75.826C376.603,7.875,378.004,9.216,378.004,10.897z"
		/>
</g>
<path style="fill:#D8D7DA;" d="M378.004,38.483v221.754c0,8.635-7.004,15.639-15.639,15.639H338.67c-0.07-0.7-0.1-1.421-0.1-2.141
	v-165.1C338.57,76.746,351.988,49.79,378.004,38.483z"/>
<path d="M231.365,259.037c-4.143,0.14-7.384,3.602-7.254,7.745c7.079,219.569,6.738,206.624,6.624,208.336
	c-0.24,4.143,2.912,7.685,7.054,7.935c3.974,0.271,7.68-2.817,7.925-7.054c0.191-2.858,0.448,9.899-6.604-209.697
	C238.98,262.159,235.508,258.897,231.365,259.037z"/>
<path d="M219.378,493.719c-3.562,2.121-7.655,3.232-11.837,3.242c-13.348,0-23.756-11.247-23.224-23.984l5.153-159.747
	c0.13-4.143-3.122-7.615-7.264-7.745c-4.163-0.16-7.605,3.112-7.735,7.254c-4.643,144.123-5.173,160.061-5.173,160.997
	c0,29.638,32.415,47.925,57.745,32.89c3.562-2.121,4.733-6.724,2.622-10.286C227.543,492.778,222.94,491.598,219.378,493.719z"/>
<path d="M374.432,424.067c-0.11-4.072-3.442-7.314-7.505-7.314h-0.19c-4.143,0.11-7.414,3.552-7.314,7.695
	c1.493,58.668,1.411,55.376,1.411,55.634c0,9.316-7.735,16.9-17.23,16.9c-9.93,0-17.609-8.192-17.22-17.511l3.522-138.654
	c0.1-4.143-3.172-7.585-7.314-7.695h-0.2c-4.052,0-7.395,3.232-7.495,7.314c-2.284,90.101-3.532,138.62-3.532,139.645
	c0,17.591,14.459,31.909,32.24,31.909c18.2,0,32.816-14.996,32.22-32.9L374.432,424.067z"/>
<path d="M278.504,58.716c-0.48-4.122-4.213-7.074-8.325-6.584c-4.112,0.48-7.064,4.203-6.584,8.325l9.986,85.552
	c-0.2,22.163-15.98,40.675-36.892,45.087c-6.676,1.417-11.17,0.898-14.989,1.011c-33.307-0.29-35.459,0.655-43.306-1.011
	c-20.913-4.413-36.692-22.924-36.892-45.087L156.16,20.382c0.03-0.29,0.05-0.58,0.05-0.871c0-2.902,1.581-4.503,2.101-4.503h0.2
	c2.762,0,5.003,2.241,5.003,5.003v43.726c0,4.153,3.362,7.505,7.505,7.505s7.505-3.352,7.505-7.505V20.012
	C178.523,8.975,169.548,0,158.511,0h-0.2c-9.296,0-16.88,8.495-17.11,19.032l-14.659,125.686c-0.04,0.29-0.05,0.58-0.05,0.871
	c0,30.478,22.283,55.854,51.411,60.687l-2.471,76.466c-0.13,4.143,3.122,7.605,7.264,7.745h0.25c4.022,0,7.364-3.202,7.495-7.264
	l2.451-76.106h29.298l0.951,29.668c0.14,4.143,3.602,7.415,7.745,7.254c4.143-0.13,7.394-3.602,7.264-7.745l-0.971-30.018
	c29.128-4.833,51.411-30.208,51.411-60.687c0-0.29-0.02-0.58-0.05-0.871L278.504,58.716z"/>
<path d="M178.523,93.757c0-4.143-3.362-7.505-7.505-7.505s-7.505,3.362-7.505,7.505v7.935c0,10.296,7.555,18.801,17.591,19.792
	c0.64,0.06,1.281,0.09,1.921,0.09c10.757,0,19.512-8.755,19.512-19.512v-82.05c0-2.762,2.241-5.003,5.003-5.003
	c2.762,0,5.003,2.241,5.003,5.003v81.679c0,10.296,7.555,18.801,17.591,19.792c0.64,0.06,1.281,0.09,1.921,0.09
	c10.757,0,19.512-8.755,19.512-19.512v-82.05c0-2.762,2.241-5.003,5.003-5.003h0.2c0.52,0,2.101,1.601,2.101,4.503
	c0,0.29,0.01,0.58,0.05,0.871l1.191,10.256c0.48,4.112,4.223,7.074,8.325,6.584c4.122-0.48,7.064-4.213,6.584-8.325l-1.151-9.866
	C273.651,8.495,266.066,0,256.771,0h-0.2c-11.037,0-20.012,8.975-20.012,20.012v82.05c0,2.441-2.061,4.503-4.503,4.503
	c-0.16,0-0.31-0.01-0.46-0.02c-2.271-0.23-4.042-2.361-4.042-4.853V20.012C227.553,8.975,218.577,0,207.541,0
	s-20.012,8.975-20.012,20.012v82.05c0,2.441-2.061,4.503-4.503,4.503c-0.16,0-0.31-0.01-0.46-0.02
	c-2.271-0.23-4.042-2.361-4.042-4.853L178.523,93.757L178.523,93.757z"/>
<path d="M378.004,114.129c-4.143,0-7.505,3.362-7.505,7.505v146.739h-0.02H355.46c-15.821-0.226-18.606,0.569-23.694-0.881
	c-7.404-2.091-13.098-7.755-14.639-14.769c-0.29-1.251-0.43-2.542-0.43-3.862V123.585c0-4.143-3.352-7.505-7.505-7.505
	c-4.143,0-7.505,3.362-7.505,7.505v125.276c0,11.377,5.844,21.493,14.829,27.777l-0.861,33.79c-0.1,4.143,3.172,7.585,7.314,7.695
	h0.19c4.062,0,7.395-3.231,7.505-7.314l0.71-28.017c5.382,0.962,7.807,0.44,24.465,0.59l2.822,111.057
	c0.1,4.082,3.442,7.314,7.495,7.314h0.2c4.143-0.11,7.414-3.552,7.314-7.695l-2.812-110.677h7.144c4.143,0,7.505-3.362,7.505-7.505
	V121.634C385.508,117.491,382.146,114.129,378.004,114.129z"/>
<path d="M378.004,0.38c-23.694,0-43.436,8.555-57.105,24.745c-23.436,27.785-18.575,63.318-19.212,68.441
	c0,4.153,3.362,7.505,7.505,7.505c4.153,0,7.505-3.352,7.505-7.505v-9.806c0-31.159,14.309-64.329,53.803-68.031v75.886
	c0,4.143,3.362,7.505,7.505,7.505c4.143,0,7.505-3.362,7.505-7.505V7.885C385.508,3.732,382.146,0.38,378.004,0.38z"/>
<g>
</g>
<g>
</g>
<g>
</g>
<g>
</g>
<g>
</g>
<g>
</g>
<g>
</g>
<g>
</g>
<g>
</g>
<g>
</g>
<g>
</g>
<g>
</g>
<g>
</g>
<g>
</g>
<g>
</g>
</svg>
