<?xml version="1.0" encoding="iso-8859-1"?>
<!-- Generator: Adobe Illustrator 19.0.0, SVG Export Plug-In . SVG Version: 6.00 Build 0)  -->
<svg version="1.1" id="Capa_1" xmlns="http://www.w3.org/2000/svg" xmlns:xlink="http://www.w3.org/1999/xlink" x="0px" y="0px"
	 viewBox="0 0 511.999 511.999" style="enable-background:new 0 0 511.999 511.999;" xml:space="preserve">
<path style="fill:#ACABB1;" d="M286.738,472.712c0.19,5.996-1.341,11.641-4.144,16.445c-5.325,9.129-15.224,15.294-26.595,15.294
	c-17.366,0-31.289-14.373-30.739-31.74l9.569-296.417h42.34L286.738,472.712z"/>
<path style="fill:#C6C5CA;" d="M286.738,472.712c0.19,5.996-1.341,11.641-4.144,16.445c-15.374-2.072-27.085-15.504-26.575-31.459
	l9.078-281.403h12.071L286.738,472.712z"/>
<path style="fill:#D8D7DA;" d="M326.746,118.07c0,42.49-23.692,78.023-55.372,86.831c-4.945,1.391-10.089,2.122-15.374,2.122
	c-39.077,0-70.746-39.827-70.746-88.953S216.923,7.507,256,7.507c5.275,0,10.42,1.121,15.374,3.183
	C303.054,23.882,326.746,75.581,326.746,118.07z"/>
<path style="fill:#E0E0E2;" d="M326.746,118.07c0,42.49-23.692,78.023-55.372,86.831c-31.68-8.808-55.372-44.341-55.372-86.831
	s23.692-94.188,55.372-107.38C303.054,23.882,326.746,75.581,326.746,118.07z"/>
<path d="M321.651,58.745c-1.612-3.814-6.016-5.605-9.839-3.994c-3.814,1.612-5.605,6.016-3.994,9.839
	c38.778,91.728-29.091,160.548-80.956,125.748c-11.04-7.407-20.369-18.998-26.535-33.672c-1.602-3.824-6.006-5.615-9.829-4.014
	c-3.824,1.612-5.615,6.016-4.014,9.829c8.728,20.749,22.931,36.414,39.827,44.902l-2.422,75.28c-0.14,4.144,3.113,7.607,7.257,7.747
	h0.25c4.034,0,7.367-3.203,7.497-7.267l2.272-70.346c9.723,2.299,19.853,2.321,29.668-0.01l0.771,23.902
	c0.14,4.144,3.583,7.417,7.747,7.257c4.144-0.13,7.397-3.603,7.267-7.747l-0.931-28.887c28.467-14.434,48.565-48.996,48.565-89.243
	C334.253,99.053,329.779,77.983,321.651,58.745z"/>
<path d="M193.401,129.761c-3.054-27.276,5.296-58.508,19.018-81.556c23.409-39.301,54.783-45.47,81.686-8.338
	c2.432,3.353,7.127,4.104,10.48,1.672c3.353-2.432,4.104-7.127,1.672-10.48C291.753,11.03,273.906,0,256,0
	c-20.86,0-40.918,14.393-56.473,40.528c-13.643,22.901-21.78,51.889-21.78,77.543c0,4.464,0.25,8.968,0.741,13.363
	c0.43,3.844,3.683,6.676,7.447,6.676C190.423,138.109,193.908,134.211,193.401,129.761z"/>
<path d="M279.842,258.952c-4.144,0.14-7.397,3.603-7.267,7.747c7.081,219.641,6.74,206.692,6.626,208.405
	c-0.24,4.144,2.913,7.687,7.057,7.937c4.009,0.273,7.683-2.836,7.937-7.057c0.158-2.956,0.44,9.618-6.616-209.766
	C287.449,262.075,283.966,258.812,279.842,258.952z"/>
<path d="M267.841,493.712c-3.563,2.122-7.657,3.243-11.841,3.243c-13.397,0-23.761-11.307-23.232-23.992l5.155-159.799
	c0.13-4.144-3.113-7.617-7.257-7.747c-4.184-0.16-7.617,3.113-7.747,7.257c-4.644,144.171-5.175,160.114-5.175,161.051
	c0,29.648,32.425,47.941,57.764,32.901c3.563-2.122,4.734-6.726,2.622-10.29C276.018,492.771,271.404,491.59,267.841,493.712z"/>
<g>
</g>
<g>
</g>
<g>
</g>
<g>
</g>
<g>
</g>
<g>
</g>
<g>
</g>
<g>
</g>
<g>
</g>
<g>
</g>
<g>
</g>
<g>
</g>
<g>
</g>
<g>
</g>
<g>
</g>
</svg>
