<?xml version="1.0" encoding="iso-8859-1"?>
<!-- Generator: Adobe Illustrator 19.0.0, SVG Export Plug-In . SVG Version: 6.00 Build 0)  -->
<svg version="1.1" id="Capa_1" xmlns="http://www.w3.org/2000/svg" xmlns:xlink="http://www.w3.org/1999/xlink" x="0px" y="0px"
	 viewBox="0 0 512 512" style="enable-background:new 0 0 512 512;" xml:space="preserve">
<circle style="fill:#FFDA44;" cx="195.41" cy="100.696" r="93.182"/>
<circle style="fill:#EEBF00;" cx="195.41" cy="100.696" r="65.257"/>
<path style="fill:#B3D8F4;" d="M313.926,379.371l-0.25,0.08c-3.457,1.122-6.954,2.024-10.47,2.705
	c-14.308,2.795-28.986,1.994-43.074-2.475c-0.311-0.1-0.631-0.21-0.952-0.311c-78.443-25.369-95.817-89.795-92.43-150.433
	c0.792-14.388,2.765-28.566,5.36-41.952c6.302-32.513,16.322-60.398,22.344-75.487c2.946-7.364,9.058-12.013,15.761-12.013h152.678
	c6.703,0,12.825,4.649,15.761,12.013c6.022,15.089,16.041,42.974,22.354,75.487c2.595,13.396,4.569,27.564,5.36,41.952
	C409.743,289.576,392.369,354.002,313.926,379.371z"/>
<rect x="271.158" y="302.339" style="fill:#D1E7F8;" width="30.796" height="183.598"/>
<path style="fill:#B3D8F4;" d="M283.088,468.003l-77.348,22.923c-9.638,2.857-6.902,13.56,3.466,13.56h154.697
	c10.368,0,13.104-10.704,3.466-13.56l-77.348-22.923C287.792,467.343,285.313,467.343,283.088,468.003z"/>
<path style="fill:#D1E7F8;" d="M313.926,379.371l-0.25,0.08c-3.457,1.122-6.954,2.024-10.47,2.705
	c-3.236-0.641-6.453-1.463-9.639-2.475c-0.311-0.1-0.631-0.21-0.952-0.311c-78.443-25.369-95.817-89.795-92.43-150.433
	c0.792-14.388,2.765-28.566,5.36-41.952c6.302-32.513,16.322-60.398,22.344-75.487c2.946-7.364,9.058-12.013,15.761-12.013h119.242
	c6.703,0,12.825,4.649,15.761,12.013c6.022,15.089,16.041,42.974,22.354,75.487c2.595,13.396,4.569,27.564,5.36,41.952
	C409.743,289.576,392.369,354.002,313.926,379.371z"/>
<path style="fill:#DDB200;" d="M313.926,379.371l-0.25,0.08c-3.457,1.122-6.954,2.024-10.47,2.705
	c-14.308,2.795-28.986,1.994-43.074-2.475c-0.311-0.1-0.631-0.21-0.952-0.311c-78.443-25.369-95.817-89.795-92.43-150.433h239.617
	C409.743,289.576,392.369,354.002,313.926,379.371z"/>
<path style="fill:#FFCD00;" d="M313.926,379.371l-0.25,0.08c-3.457,1.122-6.954,2.024-10.47,2.705
	c-3.236-0.641-6.453-1.463-9.639-2.475c-0.311-0.1-0.631-0.21-0.952-0.311c-78.443-25.369-95.817-89.795-92.43-150.433h206.182
	C409.743,289.576,392.369,354.002,313.926,379.371z"/>
<polygon points="361.314,496.968 361.318,496.97 361.315,496.969 "/>
<path d="M361.114,496.91c0.04,0.012,0.089,0.026,0.129,0.038C361.188,496.931,361.146,496.919,361.114,496.91
	C361.115,496.91,361.115,496.91,361.114,496.91z"/>
<path d="M301.953,421.353c4.148,0,7.515-3.357,7.515-7.515v-25.379c14.873-3.684,34.884-13.342,36.07-14.528
	c0.364-0.139,3.459-1.971,3.797-2.174c41.192-24.386,68.66-69.767,64.536-143.239v-0.01c-0.929-16.771-3.519-34.308-7.054-50.569
	c-0.872-4.058-4.859-6.633-8.927-5.771c-4.058,0.882-6.633,4.88-5.761,8.937c2.77,12.701,5.017,26.785,6.172,40.319h-26.792
	c-4.148,0-7.515,3.367-7.515,7.515s3.367,7.515,7.515,7.515h27.644c1.845,75.552-32.687,120.125-89.685,136.426
	c-22.756,6.784-43.085,2.891-64.997-7.254c-6.754-3.005-15.457-7.922-22.003-12.725c0,0,0-0.01-0.01,0
	c-16.935-12.246-29.684-28.605-37.543-47.803c0,0,0,0,0-0.01c-3.425-8.241-6.015-17.217-7.745-26.071
	c-0.802-4.078-4.749-6.733-8.817-5.932c-4.303,0.839-6.797,5.139-5.932,8.817c0.519,2.663,0.955,4.648,1.994,8.847
	c-0.01,0.03,0,0.07,0.03,0.1c1.158,4.711,2.635,9.614,4.828,15.538l0,0c0.27,0.725,0.549,1.443,0.829,2.159v0.001l0,0
	c8.453,21.619,21.487,39.369,39.131,53.224c15.721,12.402,37.458,22.493,54.404,26.707v77.451L203.6,483.724
	c-6.873,2.034-11.322,7.394-11.322,13.647c0,7.194,6.332,14.629,16.923,14.629h93.172c4.158,0,7.515-3.367,7.515-7.515
	s-3.357-7.515-7.515-7.515h-90.587l51.851-15.36c27.969-8.292,19.682-7.347,30.8-4.459c55.386,16.412,65.283,19.345,66.677,19.759
	l0,0h0.001c0.063,0.019,0.109,0.032,0.141,0.042c-0.004-0.001-0.008-0.002-0.012-0.003c0.009,0.002,0.018,0.005,0.028,0.008
	c0.011,0.003,0.019,0.006,0.026,0.008c0.006,0.001,0.01,0.003,0.016,0.004c-0.002,0-0.003-0.001-0.006-0.001
	c0.004,0.001,0.006,0.001,0.007,0.002c0.001,0,0.002,0,0.003,0.001l0,0h-28.886c-4.148,0-7.515,3.367-7.515,7.515
	s3.367,7.515,7.515,7.515h31.471c10.591,0,16.923-7.435,16.923-14.629c0-6.252-4.439-11.613-11.322-13.647l-60.037-17.795v-22.033
	c0-4.148-3.367-7.515-7.515-7.515s-7.515,3.367-7.515,7.515v17.584l-2.284-0.681c-3.607-1.072-7.615-1.072-11.202,0l-2.284,0.681
	v-70.517c5.281,0.448,10.611,0.437,15.771-0.01v22.885C294.438,417.997,297.805,421.353,301.953,421.353z"/>
<path d="M409.403,29.054H351.64c-10.994,0-20.609,7.811-22.872,18.615l-9,44.301h-24.048
	c-6.93-80.534-101.072-119.646-163.208-69.916c-17.484,14.007-29.938,33.656-35.078,55.338c-0.962,4.038,1.533,8.086,5.571,9.048
	c4.048,0.962,8.096-1.543,9.048-5.581c9.188-38.756,43.465-65.828,83.362-65.828c44.286,0,80.828,33.796,85.216,76.94h-12.985
	c-2.074-17.274-10.21-33.145-23.085-44.938c-15.857-14.512-37.406-21.533-59.666-18.346c-4.108,0.601-6.954,4.409-6.352,8.517
	c0.591,4.108,4.399,6.954,8.517,6.352c0.271-0.04,0.561-0.07,0.842-0.1v39.096l-27.654-27.644c0.751-0.581,1.513-1.152,2.294-1.703
	c3.417-2.365,4.258-7.044,1.894-10.45c-2.365-3.417-7.044-4.258-10.46-1.894c-38.569,26.77-41.972,82.136-7.715,113.501
	c6.593,6.032,14.128,10.741,22.233,13.967c-0.992,4.098-1.944,8.306-2.826,12.605c-30.099-11.312-52.653-39.196-55.588-72.622
	c-0.361-4.138-4.008-7.194-8.146-6.833c-4.128,0.371-7.184,4.018-6.823,8.146c2.194,24.979,13.607,48.124,32.123,65.167
	c10.4,9.579,22.534,16.743,35.639,21.211c-2.955,17.999-4.556,37.089-3.898,54.867c0,3.64,3.226,7.254,7.505,7.254h0.271
	c4.148-0.15,7.394-3.627,7.244-7.775c-0.124-2.927-0.175-9.086-0.04-13.897H341.45c4.148,0,7.515-3.367,7.515-7.515
	s-3.367-7.515-7.515-7.515h-32.642L332.053,107h30.839c3.567,0,7.014,2.856,8.777,7.284c3.367,8.436,8.386,21.903,13.176,38.225
	c1.162,3.978,5.34,6.262,9.318,5.09c3.988-1.162,6.262-5.34,5.1-9.318c-4.95-16.883-10.15-30.83-13.627-39.567
	c-4.058-10.17-12.985-16.743-22.744-16.743h-27.786l8.383-41.266c0.804-3.836,4.231-6.621,8.152-6.621h57.764
	c4.15,0,7.515-3.364,7.515-7.515S413.553,29.054,409.403,29.054z M252.476,91.971h-37.714L241.134,65.6
	C246.946,73.144,250.974,82.142,252.476,91.971z M202.93,43.456c10.22,1.353,19.678,5.431,27.574,11.522L202.93,82.553V43.456z
	 M149.616,65.529l27.654,27.654h-39.106C139.486,83.074,143.464,73.545,149.616,65.529z M138.164,108.213h39.106l-27.584,27.574
	C143.634,127.941,139.516,118.513,138.164,108.213z M172.35,153.561c-4.298-1.894-8.336-4.298-12.033-7.144l20.861-20.861
	C178.372,133.552,175.296,143.041,172.35,153.561z M293.471,221.423H174.815c3.09-36.043,13.761-75,26.612-107.129
	c1.773-4.429,5.22-7.294,8.787-7.294c37.905,0,68.934,0,106.502,0L293.471,221.423z"/>
<g>
</g>
<g>
</g>
<g>
</g>
<g>
</g>
<g>
</g>
<g>
</g>
<g>
</g>
<g>
</g>
<g>
</g>
<g>
</g>
<g>
</g>
<g>
</g>
<g>
</g>
<g>
</g>
<g>
</g>
</svg>
