<?xml version="1.0" encoding="iso-8859-1"?>
<!-- Generator: Adobe Illustrator 19.0.0, SVG Export Plug-In . SVG Version: 6.00 Build 0)  -->
<svg version="1.1" id="Capa_1" xmlns="http://www.w3.org/2000/svg" xmlns:xlink="http://www.w3.org/1999/xlink" x="0px" y="0px"
	 viewBox="0 0 512 512" style="enable-background:new 0 0 512 512;" xml:space="preserve">
<rect x="384.271" y="257.671" transform="matrix(-0.9932 0.1164 -0.1164 -0.9932 837.5679 678.6582)" style="fill:#C2DFF6;" width="29.393" height="212.23"/>
<path style="fill:#B3D8F4;" d="M398.695,453.093l-62.515,39.992c-8.885,5.683-1.277,12.715,12.064,11.151l132.585-15.543
	c13.343-1.564,19.117-10.164,9.158-13.638l-70.07-24.449C413.729,448.446,404.218,449.561,398.695,453.093z"/>
<rect x="179.454" y="257.66" transform="matrix(0.9932 0.1164 -0.1164 0.9932 43.6633 -20.1264)" style="fill:#C2DFF6;" width="29.393" height="212.23"/>
<path style="fill:#B3D8F4;" d="M194.45,453.093l62.515,39.992c8.885,5.683,1.278,12.715-12.064,11.151l-132.585-15.543
	c-13.343-1.564-19.117-10.164-9.158-13.638l70.07-24.449C179.417,448.446,188.928,449.561,194.45,453.093z"/>
<g>
	<path style="fill:#D1E7F8;" d="M134.448,86.343l-27.38-72.905c-1.292-4.146-6.312-5.749-9.766-3.115L82.769,21.403l-14.532,11.08
		c-3.454,2.634-3.239,7.9,0.418,10.242l56.444,50.745C130.015,96.62,136.183,91.917,134.448,86.343z"/>
	<path style="fill:#D1E7F8;" d="M101.44,113.511L42.55,62.553c-3.115-3.026-8.292-2.033-10.067,1.93L25.012,81.16l-7.471,16.677
		c-1.775,3.964,0.929,8.487,5.262,8.797l73.832,17.604C102.456,124.656,105.628,117.578,101.44,113.511z"/>
	<path style="fill:#D1E7F8;" d="M111.376,146.894l-76.54,14.371c-4.307,0.555-6.753,5.224-4.755,9.081l8.402,16.229l8.402,16.228
		c1.997,3.857,7.221,4.555,10.16,1.358l59.735-46.827C120.732,153.035,117.166,146.147,111.376,146.894z"/>
</g>
<path style="fill:#C2DFF6;" d="M296.54,27.696l-6.136,52.288l-11.417,97.424c-7.514,55.567-24.585,74.368-51.614,100.774
	c-0.08,0.08-0.161,0.161-0.241,0.241c-2.454,2.384-5.211,4.245-8.118,5.583c-12.886,5.955-28.981,1.891-37.099-10.884
	c-0.06-0.101-0.121-0.191-0.181-0.292c-20.199-31.938-35.298-50.206-26.919-109.978l11.397-97.233l6.156-52.479
	c0.402-3.47,3.551-5.955,7.021-5.553l19.062,2.233l13.922,1.63l45.639,5.352l32.974,3.873
	C294.467,21.077,296.952,24.225,296.54,27.696z"/>
<path style="fill:#D1E7F8;" d="M296.54,27.696l-17.553,149.712c-7.514,55.567-24.585,74.368-51.614,100.774
	c-0.08,0.08-0.161,0.161-0.241,0.241c-2.454,2.384-5.211,4.245-8.118,5.583c-4.929-2.253-9.295-5.915-12.453-10.884
	c-0.06-0.101-0.121-0.191-0.181-0.292c-20.199-31.938-35.298-50.206-26.919-109.978L197.013,13.14
	c0.151-1.267,0.664-2.404,1.438-3.32l13.922,1.63l45.639,5.352l32.974,3.873C294.467,21.077,296.952,24.225,296.54,27.696z"/>
<path style="fill:#C2DFF6;" d="M411.416,272.829c-0.06,0.101-0.121,0.191-0.181,0.292c-1.972,3.108-4.426,5.694-7.182,7.756
	c-1.147,0.865-2.354,1.63-3.591,2.293c-10.834,5.834-24.877,4.557-34.443-4.748c-0.08-0.08-0.161-0.161-0.241-0.241
	c-27.039-26.406-44.1-45.206-51.624-100.774L302.676,79.44l-6.066-51.745c-0.412-3.47,2.072-6.619,5.543-7.021l17.533-2.062
	l0.463-0.05l14.988-1.76l45.639-5.352l32.984-3.863c3.47-0.402,6.619,2.082,7.021,5.553l6.207,52.922l11.347,96.79
	C446.714,222.624,431.605,240.891,411.416,272.829z"/>
<path style="fill:#D1E7F8;" d="M411.416,272.829c-0.06,0.101-0.121,0.191-0.181,0.292c-1.972,3.108-4.426,5.694-7.182,7.756
	c-5.523-0.976-10.844-3.551-15.23-7.816c-0.08-0.08-0.161-0.161-0.241-0.241c-27.039-26.406-44.1-45.206-51.624-100.774
	L319.414,22.334c-0.161-1.358,0.121-2.656,0.734-3.772l14.988-1.76l45.639-5.352l32.984-3.863c3.47-0.402,6.619,2.082,7.021,5.553
	l17.553,149.712C446.714,222.624,431.605,240.891,411.416,272.829z"/>
<path style="fill:#FFDA44;" d="M290.403,79.984l-11.417,97.424c-7.514,55.567-24.585,74.368-51.614,100.774
	c-0.08,0.08-0.161,0.161-0.241,0.241c-2.454,2.384-5.211,4.245-8.118,5.583c-12.886,5.955-28.981,1.891-37.099-10.884
	c-0.06-0.101-0.121-0.191-0.181-0.292c-20.199-31.938-35.298-50.206-26.919-109.978l11.397-97.233
	c0.946-0.201,1.962-0.251,2.998-0.131l22.905,2.736l16.729,2.002l54.833,6.559L290.403,79.984z"/>
<path style="fill:#EBE5DD;" d="M290.403,79.984l-11.417,97.424c-7.514,55.567-24.585,74.368-51.614,100.774
	c-0.08,0.08-0.161,0.161-0.241,0.241c-2.454,2.384-5.211,4.245-8.118,5.583c-4.929-2.253-9.295-5.915-12.453-10.884
	c-0.06-0.101-0.121-0.191-0.181-0.292c-20.199-31.938-35.298-50.206-26.919-109.978l11.115-94.808l1.539,0.181l16.729,2.002
	l54.833,6.559L290.403,79.984z"/>
<g>
	<path style="fill:#FFE477;" d="M290.403,79.984l-11.417,97.424c-7.514,55.567-24.585,74.368-51.614,100.774
		c-0.08,0.08-0.161,0.161-0.241,0.241c-2.454,2.384-5.211,4.245-8.118,5.583c-4.929-2.253-9.295-5.915-12.453-10.884
		c-0.06-0.101-0.121-0.191-0.181-0.292c-20.199-31.938-35.298-50.206-26.919-109.978l11.115-94.808l1.539,0.181l16.729,2.002
		l54.833,6.559L290.403,79.984z"/>
	<path style="fill:#FFE477;" d="M411.416,272.829c-0.06,0.101-0.121,0.191-0.181,0.292c-1.972,3.108-4.426,5.694-7.182,7.756
		c-1.147,0.865-2.354,1.63-3.591,2.293c-10.834,5.834-24.877,4.557-34.443-4.748c-0.08-0.08-0.161-0.161-0.241-0.241
		c-27.039-26.406-44.1-45.206-51.624-100.774L302.676,79.44c0.121-0.02,0.251-0.04,0.372-0.05l20.33-2.193l0.533-0.05l17.382-1.871
		l52.922-5.694l32.773-3.521l11.347,96.79C446.714,222.624,431.605,240.891,411.416,272.829z"/>
</g>
<path style="fill:#FFDA44;" d="M404.053,280.877c-1.147,0.865-2.354,1.63-3.591,2.293c-10.834,5.834-24.877,4.557-34.443-4.748
	c-0.08-0.08-0.161-0.161-0.241-0.241c-27.039-26.406-44.1-45.206-51.624-100.774L302.676,79.44c0.121-0.02,0.251-0.04,0.372-0.05
	l20.33-2.193l0.533-0.05l1.901-0.201l11.146,95.1c7.524,55.567,24.585,74.368,51.624,100.774c0.08,0.08,0.161,0.161,0.241,0.241
	C393.209,277.327,398.53,279.901,404.053,280.877z"/>
<path d="M492.474,467.93l-15.33-5.352c-3.943-1.368-8.239,0.704-9.617,4.637c-1.368,3.943,0.704,8.239,4.637,9.617l10.904,3.802
	c-1.937,0.501-136.423,16.325-138.868,16.276c61.659-39.446,58.679-37.537,58.786-37.591c3.818-2.311,10.955-2.909,14.445-1.589l0,0
	c0.001,0,0.002,0,0.003,0.001c0.002,0.001,0.004,0.002,0.008,0.003c-0.001,0-0.002-0.001-0.004-0.001
	c0.013,0.004,0.023,0.008,0.035,0.012c0.021,0.008,0.052,0.018,0.091,0.031c0.003,0.001,0.006,0.002,0.01,0.003
	c0.02,0.007,0.044,0.015,0.069,0.024c0.016,0.006,0.029,0.011,0.043,0.016c0.001,0,0.003,0.001,0.004,0.001
	c0.034,0.012,0.063,0.022,0.087,0.03c-0.001,0-0.003-0.001-0.004-0.001c0.008,0.003,0.015,0.005,0.024,0.008
	c-0.006-0.002-0.012-0.004-0.02-0.007c0.012,0.004,0.021,0.007,0.031,0.011c0.005,0.002,0.011,0.004,0.015,0.005
	c1.365,0.476,6.871,2.396,25.852,9.017c3.933,1.378,8.239-0.704,9.607-4.637c1.378-3.933-0.704-8.239-4.637-9.607l-17.574-6.126
	l-7.414-63.253c-0.483-4.144-4.255-7.102-8.369-6.619c-4.144,0.483-7.102,4.235-6.619,8.369l6.689,57.056
	c-4.107-0.367-9.37,0.114-14.204,1.67l-17.528-149.568c4.883,0.369,9.605-0.209,14.2-1.702l7.332,62.578
	c0.483,4.134,4.245,7.092,8.369,6.609c4.134-0.483,7.102-4.225,6.619-8.369l-8.128-69.298c4.362-4.443,5.916-7.346,5.774-7.122
	c22.895-36.2,36.406-55.104,28.024-114.973l-8.566-73.068c-0.002-0.019-0.001-0.038-0.004-0.057l-8.973-76.501
	c-0.861-7.387-7.488-13.035-15.391-12.172C296.24,14.086,300.635,12.532,296.569,14.608c-4.183-2.151-0.415-0.613-116.325-14.516
	c-7.675-0.885-14.495,4.657-15.371,12.162l-5.526,47.113l0,0c-17.87,152.382-25.565,153.073,16.367,218.047
	c1.564,2.426,3.484,4.734,5.404,6.581l-8.118,69.288c-0.483,4.144,2.475,7.886,6.619,8.369c4.134,0.483,7.886-2.475,8.369-6.609
	l7.333-62.589c4.66,1.501,9.556,2.02,14.204,1.671l-17.533,149.61c-4.741-1.527-10.042-2.046-14.204-1.67l6.689-57.056
	c0.483-4.134-2.485-7.886-6.619-8.369c-4.144-0.463-7.886,2.475-8.369,6.619l-7.414,63.243l-17.584,6.136
	c-3.933,1.368-6.005,5.673-4.637,9.607c1.378,3.933,5.673,6.015,9.617,4.637l10.653-3.712v-0.01
	c14.797-4.848,15.414-6.116,20.4-6.116c9.424,0,11.304,4.01,23.77,11.297v0.01l44.653,28.558
	c-2.041,0.041-136.518-15.673-138.878-16.276l10.904-3.802c3.933-1.378,6.015-5.673,4.637-9.617
	c-1.368-3.933-5.673-6.005-9.607-4.637l-15.33,5.352c-15.748,5.498-13.7,25.396,10.763,28.256
	c139.47,16.258,133.015,15.813,137.148,15.813c11.628,0,19.756-5.643,19.756-13.731c0-2.565-0.946-7.464-7.313-11.538
	l-54.783-35.046l19.042-162.457c3.003-1.753,4.97-3.395,7.247-5.541c55.087-54.277,50.185-74.735,64.033-191.48
	c14.041,119.786,10.236,138.922,63.937,191.377l0.07,0.07c1.689,1.698,4.469,3.938,7.272,5.582l0,0l19.042,162.447l-54.773,35.046
	c-6.367,4.074-7.313,8.973-7.313,11.538c0,8.088,8.118,13.731,19.746,13.731c1.489,0,3.028-0.091,4.567-0.273l132.591-15.542
	c12.463-1.459,20.843-7.957,20.843-16.155C502.553,477.455,501.577,471.108,492.474,467.93z M221.943,272.941
	c-11.196,10.199-26.525,6.98-33.474-3.6c-24.713-37.82-33.321-54.557-26.18-105.443c0-0.105,10.575-90.228,10.592-90.373
	L282.034,86.58C267.334,211.202,272.186,222.681,221.943,272.941z M283.796,71.596L174.636,58.539l5.075-43.317l109.193,12.795
	L283.796,71.596z M304.245,28.017l109.183-12.795l5.179,44.154L309.296,71.13L304.245,28.017z M339.013,234.663
	c-5.339-9.287-12.524-29.929-15.403-45.727c-2.085-11.487-1.406-8.244-12.558-102.821l109.311-11.755l1.126,9.601
	c14.22,121.318,20.389,127.239-12.066,177.944v0.01c-0.063,0.101-4.942,7.757-4.557,7.152c-6.724,10.589-22.21,14.369-33.684,3.85
	C359.351,261.087,348.02,250.429,339.013,234.663z"/>
<polygon points="417.579,457.781 417.574,457.779 417.566,457.776 "/>
<path d="M63.98,48.67c59.914,53.813,56.124,50.554,57.046,51.151c9.246,5.902,21.265-0.754,21.265-11.558
	c0-1.69-0.345-3.424-0.785-4.567l-27.311-72.749c-1.881-5.663-7.122-9.456-13.117-9.456c-3.038,0-5.925,0.976-8.349,2.837
	l-29.061,22.15c-3.46,2.636-5.442,6.639-5.442,10.975C58.226,41.94,60.368,46.074,63.98,48.67z M100.485,17.385l24.846,66.15
	L74.119,37.483L100.485,17.385z"/>
<path d="M106.691,108.099c-0.314-0.313,2.016,1.731-59.068-51.141c-2.575-2.404-5.905-3.722-9.415-3.722
	c-5.442,0-10.391,3.209-12.614,8.158L10.656,94.761c-0.805,1.791-1.207,3.692-1.207,5.633c0,6.961,5.251,12.836,12.081,13.691
	l73.352,17.493C107.394,134.388,116.665,117.742,106.691,108.099z M25.101,99.428L38.65,69.16l53.445,46.242L25.101,99.428z"/>
<path d="M125.995,153.145c0-8.338-7.318-14.832-15.572-13.731c-0.33,0.021,3.451-0.667-76.802,14.405
	c-6.74,0.996-11.789,6.82-11.789,13.66c0,2.183,0.533,4.376,1.549,6.337l16.809,32.451c2.374,4.597,7.082,7.454,12.262,7.454
	c3.601,0,7.072-1.418,9.637-3.933l59.35-46.524C123.818,161.405,125.995,157.443,125.995,153.145z M52.834,197.878l-15.25-29.454
	l69.449-13.037L52.834,197.878z"/>
<g>
</g>
<g>
</g>
<g>
</g>
<g>
</g>
<g>
</g>
<g>
</g>
<g>
</g>
<g>
</g>
<g>
</g>
<g>
</g>
<g>
</g>
<g>
</g>
<g>
</g>
<g>
</g>
<g>
</g>
</svg>
