<?xml version="1.0" encoding="iso-8859-1"?>
<!-- Generator: Adobe Illustrator 19.0.0, SVG Export Plug-In . SVG Version: 6.00 Build 0)  -->
<svg version="1.1" id="Capa_1" xmlns="http://www.w3.org/2000/svg" xmlns:xlink="http://www.w3.org/1999/xlink" x="0px" y="0px"
	 viewBox="0 0 511.999 511.999" style="enable-background:new 0 0 511.999 511.999;" xml:space="preserve">
<path style="fill:#806749;" d="M427.313,188.504v153.021c0,84.7-64.624,154.313-147.261,162.207
	c-5.169,0.501-10.398,0.751-15.698,0.751h-16.71c-89.999,0-162.958-72.959-162.958-162.958V188.504L427.313,188.504L427.313,188.504
	z"/>
<path style="fill:#957856;" d="M427.313,188.504v153.021c0,84.7-64.624,154.313-147.261,162.207
	c-82.636-7.894-147.261-77.507-147.261-162.207V188.504L427.313,188.504L427.313,188.504z"/>
<path style="fill:#5F4D37;" d="M427.313,188.363c0,4.147-2.314,8.154-6.622,11.961C400.155,218.406,334.198,231.64,256,231.64
	s-144.155-13.233-164.691-31.315c-4.308-3.807-6.622-7.814-6.622-11.961c0-23.902,76.696-43.277,171.313-43.277
	S427.313,164.461,427.313,188.363z"/>
<path style="fill:#47821C;" d="M420.691,200.324c-19.064,16.79-77.287,29.402-148.112,31.115c-5.45,0.13-10.989,0.2-16.579,0.2
	c-78.198,0-144.155-13.233-164.691-31.315c20.536-18.092,86.493-31.325,164.691-31.325c5.59,0,11.13,0.07,16.579,0.2
	C343.404,170.912,401.627,183.525,420.691,200.324z"/>
<path style="fill:#5EAC24;" d="M420.691,200.324c-19.064,16.79-77.287,29.402-148.112,31.115
	c-58.133-1.402-107.791-10.138-134.288-22.5c-7.333-3.416-7.333-13.814,0-17.23c26.497-12.372,76.155-21.107,134.288-22.51
	C343.404,170.912,401.627,183.525,420.691,200.324z"/>
<path d="M201.378,120.212c0,4.15,3.363,7.513,7.513,7.513s7.513-3.363,7.513-7.513c0-10.287,9.843-11.903,9.843-28.196
	c0-9.413-3.626-14.607-6.275-18.4c-2.226-3.189-3.569-5.113-3.569-9.799c0-10.288,9.843-11.904,9.843-28.199
	c0-4.15-3.363-7.513-7.513-7.513c-4.15,0-7.513,3.363-7.513,7.513c0,10.288-9.843,11.904-9.843,28.199
	c0,9.413,3.626,14.608,6.275,18.401c2.226,3.189,3.569,5.113,3.569,9.798c0,4.685-1.343,6.61-3.569,9.796
	C205.004,105.605,201.378,110.799,201.378,120.212z"/>
<path d="M285.75,120.212c0,4.15,3.363,7.513,7.513,7.513s7.513-3.363,7.513-7.513c0-10.287,9.843-11.903,9.843-28.196
	c0-9.413-3.626-14.607-6.275-18.4c-2.226-3.189-3.569-5.113-3.569-9.799c0-10.288,9.843-11.904,9.843-28.199
	c0-4.15-3.363-7.513-7.513-7.513c-4.15,0-7.513,3.363-7.513,7.513c0,10.288-9.843,11.904-9.843,28.199
	c0,9.413,3.626,14.608,6.275,18.401c2.226,3.189,3.569,5.113,3.569,9.798c0,4.685-1.343,6.61-3.569,9.796
	C289.377,105.605,285.75,110.799,285.75,120.212z"/>
<path d="M243.564,119.179c0,4.15,3.363,7.513,7.513,7.513s7.513-3.363,7.513-7.513c0-15.629,9.843-16.813,9.843-37.219
	c0-20.148-9.843-21.863-9.843-37.224c0-15.632,9.843-16.813,9.843-37.223c0-4.15-3.363-7.513-7.513-7.513
	c-4.15,0-7.513,3.363-7.513,7.513c0,15.63-9.843,16.815-9.843,37.223c0,20.148,9.843,21.863,9.843,37.224
	c0,7.44-1.787,10.818-4.05,15.096C246.777,101.935,243.564,108.008,243.564,119.179z"/>
<path d="M434.825,188.44c0.099-21.51-34.991-32.695-55.847-37.963c-51.674-13.053-120.984-15.148-174.574-10.93
	c-4.136,0.325-7.226,3.943-6.9,8.079c0.325,4.135,3.944,7.213,8.078,6.9c52.319-4.115,119.935-2.056,169.714,10.52
	c35.202,8.893,44.504,19.139,44.504,23.315s-9.301,14.424-44.504,23.316c-65.735,16.606-172.837,16.612-238.596,0
	c-35.202-8.893-44.504-19.14-44.504-23.316c0-7.475,22.78-22.423,83.911-30.71c4.111-0.557,6.992-4.343,6.435-8.454
	c-0.558-4.112-4.348-7.001-8.454-6.435c-36.196,4.907-96.919,17.356-96.919,45.601c0,0.026,0.003,0.052,0.003,0.079
	c0,0.02-0.003,0.039-0.003,0.058v153.023c0,32.34,9.097,63.814,26.308,91.02c16.744,26.468,40.392,47.814,68.391,61.728
	c1.074,0.534,2.215,0.787,3.338,0.787c7.917,0,10.43-10.726,3.35-14.243c-53.268-26.477-86.359-79.85-86.359-139.293V210.362
	c9.316,6.057,22.936,11.366,40.823,15.885c87.658,22.143,239.176,15.062,286.779-15.885v131.159
	c0,85.716-69.734,155.451-155.451,155.451c-11.134-0.483-31.273,2.019-59.099-5.849c-3.994-1.133-8.145,1.19-9.274,5.185
	c-1.129,3.993,1.192,8.145,5.185,9.274c15.055,4.258,30.695,6.416,46.486,6.416h16.702c94.001,0,170.478-76.476,170.478-170.478
	C434.827,338.95,434.829,189.16,434.825,188.44z"/>
<g>
</g>
<g>
</g>
<g>
</g>
<g>
</g>
<g>
</g>
<g>
</g>
<g>
</g>
<g>
</g>
<g>
</g>
<g>
</g>
<g>
</g>
<g>
</g>
<g>
</g>
<g>
</g>
<g>
</g>
</svg>
