<?xml version="1.0" encoding="iso-8859-1"?>
<!-- Generator: Adobe Illustrator 19.0.0, SVG Export Plug-In . SVG Version: 6.00 Build 0)  -->
<svg version="1.1" id="Capa_1" xmlns="http://www.w3.org/2000/svg" xmlns:xlink="http://www.w3.org/1999/xlink" x="0px" y="0px"
	 viewBox="0 0 512 512" style="enable-background:new 0 0 512 512;" xml:space="preserve">
<path style="fill:#FFCD00;" d="M329.055,133.119c0,21.426-25.389,39.279-59.024,43.222c-4.533,0.53-9.227,0.811-14.03,0.811
	c-40.35,0-73.054-19.715-73.054-44.033c0-20.355,22.917-37.478,54.04-42.522V68.641c-8.766-6.054-14.511-16.162-14.511-27.61
	c0-18.514,15.011-33.525,33.525-33.525c5.004,0,9.757,1.101,14.02,3.072c11.519,5.304,19.504,16.943,19.504,30.453
	c0,11.448-5.744,21.556-14.511,27.61v21.956C306.138,95.641,329.055,112.764,329.055,133.119z"/>
<path style="fill:#FFDE55;" d="M329.055,133.119c0,21.426-25.389,39.279-59.024,43.222c-33.645-3.943-59.034-21.796-59.034-43.222
	c0-20.355,22.917-37.478,54.04-42.522V68.641c-8.767-6.054-14.511-16.162-14.511-27.61c0-13.51,7.986-25.149,19.494-30.453
	c11.519,5.304,19.504,16.943,19.504,30.453c0,11.448-5.744,21.556-14.511,27.61v21.956
	C306.138,95.641,329.055,112.764,329.055,133.119z"/>
<path style="fill:#D9CCBC;" d="M357.106,198.457v237.486c0,2.592-0.15,5.154-0.44,7.666c-1.541,13.739-7.185,26.29-15.682,36.367
	c-12.589,14.971-31.453,24.518-52.429,24.518h-61.105c-37.708,0-68.551-30.843-68.551-68.551V198.457
	c0-17.613,14.411-32.024,32.024-32.024h134.16C342.695,166.434,357.106,180.844,357.106,198.457z"/>
<path style="fill:#EBE5DD;" d="M357.106,198.457v237.486c0,2.592-0.15,5.154-0.44,7.666c-1.541,13.739-7.185,26.29-15.682,36.367
	c-4.944,1.151-10.087,1.751-15.371,1.751h-61.105c-37.708,0-68.551-30.843-68.551-68.551V175.69c0-3.212,0.48-6.325,1.371-9.257
	h127.755C342.695,166.434,357.106,180.844,357.106,198.457z"/>
<path style="fill:#96C8EF;" d="M363.771,166.434c0,1.121-0.06,2.232-0.18,3.322c-0.771,7.486-4.163,14.231-9.227,19.294
	c-5.804,5.804-13.81,9.407-22.617,9.407H180.254c-17.613,0-32.024-14.411-32.024-32.024c0-8.807,3.603-16.812,9.407-22.617
	c5.064-5.064,11.809-8.456,19.294-9.227c1.091-0.12,2.202-0.18,3.322-0.18h151.492C349.36,134.41,363.771,148.82,363.771,166.434z"
	/>
<path style="fill:#B3D8F4;" d="M363.771,166.434c0,1.121-0.06,2.232-0.18,3.322c-1.091,0.12-2.202,0.18-3.322,0.18H208.775
	c-17.613,0-32.024-14.411-32.024-32.024c0-1.121,0.06-2.232,0.18-3.322c1.091-0.12,2.202-0.18,3.322-0.18h151.492
	C349.36,134.41,363.771,148.82,363.771,166.434z"/>
<path d="M326.773,483.449c-10.818,8.737-24.388,13.54-38.208,13.54h-61.115c-33.665,0-61.045-27.38-61.045-61.045V321.499
	c0-4.143-3.363-7.506-7.506-7.506c-4.153,0-7.506,3.362-7.506,7.506v114.445c0,41.941,34.115,76.056,76.056,76.056h61.115
	c17.243,0,34.165-5.984,47.635-16.872c3.232-2.602,3.733-7.325,1.131-10.548C334.729,481.347,329.995,480.847,326.773,483.449z"/>
<path d="M364.611,198.457c0-2.972-0.32-5.874-0.961-8.706c-0.001-0.005-0.003-0.01-0.004-0.015c4.79-6.54,7.627-14.595,7.627-23.304
	c0-20.347-15.454-37.148-35.241-39.293c-0.614-3.504-1.758-6.938-3.446-10.273c-1.871-3.703-6.385-5.174-10.087-3.312
	c-3.693,1.871-5.184,6.395-3.312,10.087c0.55,1.081,1.001,2.171,1.35,3.261H191.444c6.493-20.062,39.516-27.405,39.618-27.449
	c16.353-3.196,13.2,1.189,13.43-17.373V68.747c0-2.481-1.159-4.859-3.204-6.264c-20.948-14.388-10.829-47.472,14.713-47.472
	c25.577,0,35.618,33.113,14.713,47.472c-2.046,1.405-3.204,3.783-3.204,6.264c0,0.22,0.001,25.824,0.001,26.273
	c0,1.244,0.894,2.309,2.12,2.524c4.9,0.997,17.386,1.843,31.144,9.164c3.663,1.941,8.206,0.55,10.148-3.112
	c1.951-3.653,0.56-8.206-3.102-10.148c-7.516-3.993-16.102-7.045-25.299-9.057V72.334C311.665,47.616,293.899,0,256.001,0
	c-22.627,0-41.03,18.404-41.03,41.03c0,12.119,5.354,23.537,14.511,31.303v12.009c-28.962,6.255-50.027,22.587-53.52,42.792
	c0,0-0.001,0.004-0.001,0.006c-19.783,2.149-35.233,18.948-35.233,39.292c0,10.57,4.178,20.175,10.958,27.274
	c-0.001,0.006-0.002,0.011-0.003,0.017c-0.19,1.551-0.29,3.132-0.29,4.734v92.706c0,4.107,3.163,7.688,7.267,7.815
	c4.251,0.131,7.744-3.269,7.744-7.502v-88.025c4.313,1.619,8.981,2.511,13.853,2.511h91.01c4.11,0,7.694-3.167,7.817-7.275
	c0.127-4.251-3.28-7.736-7.503-7.736h-91.325c-13.491,0-24.518-10.972-24.518-24.518c0-13.528,11.02-24.517,24.516-24.517h10.688
	v-0.001h128.595v0.001c1.753,0,2.825,0,3.45,0c0.059,0,0.101,0,0.152,0c0.057,0,0.123,0,0.171,0c0.781,0,2.894,0,7.877-0.001
	c18.219,0,30.51,18.584,22.717,34.998c0,0-0.001,0-0.002,0c-3.864,8.205-12.35,14.038-22.159,14.038h-29.826
	c-4.11,0-7.694,3.167-7.817,7.275c-0.127,4.251,3.28,7.736,7.503,7.736h30.14c6.424,0,12.488-1.55,17.856-4.28v46.793H306.35
	c-4.11,0-7.694,3.167-7.817,7.275c-0.127,4.251,3.28,7.736,7.503,7.736h43.562v45.03H306.35c-4.11,0-7.694,3.167-7.817,7.275
	c-0.127,4.251,3.28,7.736,7.503,7.736h43.562v45.03H306.35c-4.11,0-7.694,3.167-7.817,7.275c-0.127,4.251,3.28,7.736,7.503,7.736
	h43.562v45.03H306.35c-4.11,0-7.694,3.167-7.817,7.275c-0.127,4.251,3.28,7.736,7.503,7.736h43.07
	c-0.833,6.632-2.739,13.04-5.732,19.113c-1.831,3.723-0.31,8.216,3.413,10.047c1.071,0.53,2.202,0.781,3.312,0.781
	c2.772,0,5.434-1.541,6.735-4.193c5.169-10.479,7.78-21.826,7.78-33.254c0-0.017-0.004-0.029-0.004-0.161
	C364.611,410.076,364.611,225.158,364.611,198.457z"/>
<g>
</g>
<g>
</g>
<g>
</g>
<g>
</g>
<g>
</g>
<g>
</g>
<g>
</g>
<g>
</g>
<g>
</g>
<g>
</g>
<g>
</g>
<g>
</g>
<g>
</g>
<g>
</g>
<g>
</g>
</svg>
