<?xml version="1.0" encoding="iso-8859-1"?>
<!-- Generator: Adobe Illustrator 19.0.0, SVG Export Plug-In . SVG Version: 6.00 Build 0)  -->
<svg version="1.1" id="Capa_1" xmlns="http://www.w3.org/2000/svg" xmlns:xlink="http://www.w3.org/1999/xlink" x="0px" y="0px"
	 viewBox="0 0 512 512" style="enable-background:new 0 0 512 512;" xml:space="preserve">
<path style="fill:#D9CCBC;" d="M280.76,275.194V479.68c0,13.647-11.164,24.811-24.811,24.811s-24.811-11.164-24.811-24.811V275.194
	c0-6.548,5.357-11.905,11.905-11.905h25.812C275.403,263.289,280.76,268.646,280.76,275.194z"/>
<path style="fill:#C0AB91;" d="M280.76,275.194v73.252c-8.04,2.283-16.541,3.504-25.312,3.504c-8.411,0-16.561-1.121-24.31-3.234
	v-73.522c0-6.548,5.357-11.905,11.905-11.905h25.812C275.403,263.289,280.76,268.646,280.76,275.194z"/>
<path style="fill:#EA348B;" d="M256.098,300.406c-45.979,0-88.903-22.626-114.822-60.524
	C98.039,176.645,114.305,90.024,177.536,46.79c23.211-15.871,50.273-24.259,78.263-24.259c11.263,0,22.525,1.371,33.476,4.074
	c33.155,8.177,62.045,28.223,81.347,56.446c20.798,30.413,28.609,67.122,21.99,103.366c-6.613,36.219-26.86,67.778-57.009,88.864
	l-0.1,0.07c-0.351,0.25-0.711,0.5-1.069,0.742c-10.2,6.975-21.141,12.521-32.598,16.536c-14.559,5.114-29.8,7.73-45.31,7.776
	L256.098,300.406z"/>
<path style="fill:#E4187A;" d="M344.209,287.589c-0.451,0.32-0.911,0.641-1.372,0.951c-11.434,7.82-23.549,13.887-36.035,18.263
	c-16.36,5.747-33.352,8.571-50.233,8.621c-19.855,0.06-39.579-3.715-58.023-11.104c-11.905-9.412-22.608-20.746-31.62-33.932
	c-47.99-70.188-30.008-165.977,40.18-213.967c37.677-25.762,82.733-32.511,123.815-22.368c6.959,1.712,13.807,3.915,20.476,6.598
	c11.905,9.402,22.608,20.746,31.62,33.922C430.697,144.29,413.256,239.299,344.209,287.589z"/>
<path style="fill:#A71159;" d="M383.018,74.572c-9.011-13.176-19.715-24.521-31.62-33.922
	c-17.432-13.797-37.457-23.429-58.523-28.626C251.794,1.881,206.738,8.63,169.06,34.392c-70.188,47.99-88.17,143.78-40.18,213.967
	c17.862,26.123,42.343,45.006,69.667,55.96c18.443,7.389,38.168,11.164,58.023,11.104c16.881-0.05,33.872-2.874,50.233-8.621
	c12.486-4.375,24.601-10.443,36.035-18.263c0.461-0.31,0.921-0.631,1.372-0.951C413.256,239.299,430.697,144.29,383.018,74.572z
	 M335.599,275.284l-0.1,0.07c-0.35,0.25-0.711,0.501-1.061,0.741c-10.203,6.979-21.146,12.516-32.601,16.531
	c-14.558,5.116-29.797,7.73-45.307,7.78h-0.431c-45.977,0-88.901-22.628-114.824-60.526
	c-43.234-63.239-26.974-149.857,36.265-193.091c23.209-15.87,50.273-24.259,78.258-24.259c11.264,0,22.528,1.372,33.472,4.075
	c33.161,8.18,62.048,28.225,81.352,56.451c20.796,30.408,28.606,67.124,21.987,103.359
	C386.002,222.638,365.756,254.198,335.599,275.284z"/>
<path d="M159.579,271.76c-62.124-54.325-67.136-149.43-11.094-209.802c2.824-3.044,2.643-7.8-0.4-10.613
	c-3.044-2.824-7.79-2.643-10.613,0.39c-61.909,66.74-56.152,171.48,12.215,231.329c3.103,2.731,7.856,2.424,10.593-0.701
	C163.013,279.239,162.702,274.493,159.579,271.76z"/>
<path d="M255.809,0c-32.967,0-66.08,10.036-94.799,30.879c-3.354,2.443-4.105,7.139-1.662,10.493
	c2.443,3.354,7.139,4.095,10.493,1.652c25.268-18.332,55.075-28.005,85.967-28.005c98.291,0,169.194,95.031,140.075,189.597
	c-1.222,3.965,1.001,8.17,4.966,9.382c0.741,0.23,1.482,0.34,2.213,0.34c3.214,0,6.188-2.083,7.179-5.307
	C442.33,104.593,364.046,0,255.809,0z"/>
<path d="M395.053,227.875c-3.645-1.962-8.2-0.591-10.163,3.064c-13.922,25.892-34.661,45.888-58.633,58.984
	c-10.093,1.141-20.395,2.073-25.051,2.073c-55.379,0-104.193-33.916-120.36-78.498c-1.412-3.905-5.727-5.917-9.622-4.506
	c-3.895,1.422-5.917,5.727-4.496,9.622c17.267,47.647,64.739,80.655,114.613,87.099c-32.206,5.79-67.77,0.356-98.563-17.372
	c-3.594-2.063-8.18-0.831-10.253,2.763s-0.831,8.19,2.763,10.253c15.049,8.671,31.399,14.829,48.33,18.283v160.04
	c0,17.822,14.508,32.32,32.33,32.32s32.33-14.498,32.33-32.32v-89.632c0-4.145-3.364-7.509-7.509-7.509
	c-4.155,0-7.509,3.364-7.509,7.509v89.632c0,9.542-7.77,17.302-17.312,17.302c-9.542,0-17.312-7.76-17.312-17.302V321.983
	c11.19,1.223,22.789,1.303,34.623,0.03v37.997c0,4.145,3.354,7.509,7.509,7.509c4.145,0,7.509-3.364,7.509-7.509v-40.32
	c48.056-9.777,87.923-40.89,109.837-81.642C400.079,234.393,398.707,229.847,395.053,227.875z"/>
<path d="M174.838,186.163c-2.634-31.609,8.456-62.083,30.829-84.456c34.494-34.494,89.78-31.593,120.651,2.313
	c2.794,3.064,7.539,3.294,10.613,0.501c3.064-2.783,3.294-7.539,0.501-10.603c-36.583-40.371-101.943-43.279-142.378-2.824
	c-25.943,25.932-38.25,61.188-35.174,96.35c0.33,3.915,3.615,6.869,7.469,6.869C171.751,194.313,175.209,190.548,174.838,186.163z"
	/>
<path d="M240.65,166.608c0-10.473,4.075-20.325,11.474-27.735c2.934-2.934,2.934-7.69,0-10.623c-2.934-2.924-7.69-2.924-10.613,0.01
	c-10.243,10.243-15.88,23.86-15.88,38.348c0,51.241,68.865,78.589,109.106,38.348c22.64-22.625,28.718-54.945,19.374-82.673
	c-1.322-3.935-5.587-6.048-9.512-4.726c-3.935,1.322-6.048,5.577-4.726,9.512c7.7,22.862,2.459,49.05-15.75,67.274
	C293.344,225.091,240.65,204.555,240.65,166.608z"/>
<g>
</g>
<g>
</g>
<g>
</g>
<g>
</g>
<g>
</g>
<g>
</g>
<g>
</g>
<g>
</g>
<g>
</g>
<g>
</g>
<g>
</g>
<g>
</g>
<g>
</g>
<g>
</g>
<g>
</g>
</svg>
