<?xml version="1.0" encoding="iso-8859-1"?>
<!-- Generator: Adobe Illustrator 19.0.0, SVG Export Plug-In . SVG Version: 6.00 Build 0)  -->
<svg version="1.1" id="Capa_1" xmlns="http://www.w3.org/2000/svg" xmlns:xlink="http://www.w3.org/1999/xlink" x="0px" y="0px"
	 viewBox="0 0 512 512" style="enable-background:new 0 0 512 512;" xml:space="preserve">
<path style="fill:#FF9811;" d="M350.018,319.401L316.75,480.95c-2.905,13.714-15.006,23.531-29.03,23.531h-67.106
	c-14.014,0-26.125-9.817-29.02-23.531l-34.79-161.55L350.018,319.401L350.018,319.401z"/>
<path style="fill:#FFA733;" d="M350.018,319.401L316.75,480.95c-2.905,13.714-15.006,23.531-29.03,23.531h-36.052
	c-14.014,0-26.125-9.817-29.02-23.531l-34.79-161.55L350.018,319.401L350.018,319.401z"/>
<g>
	<path style="fill:#C70024;" d="M413.187,308.051c0,13.223-10.819,24.042-24.042,24.042H122.855c-6.611,0-12.622-2.705-16.979-7.062
		c-4.358-4.358-7.062-10.368-7.062-16.979c0-12.231,9.256-22.409,21.117-23.861c-6.261-9.096-8.294-20.946-3.847-32.276
		c0,0,3.486-12.562,16.328-17.07c2.785-0.972,3.426-3.436,1.342-5.52c-13.704-13.744-31.665-42.373,7.253-76.412
		c1.352-1.122,2.013-2.875,1.733-4.618c-1.713-10.989-0.761-24.172,4.658-39.879c0,0,14.715-41.141,73.627-54.094
		c0,0,57.73-12.762,80.84-43.235c3.757-4.959,11.27-4.708,14.796,0.411c2.424,3.536,5.199,7.814,8.054,12.742
		c1.743,2.995,3.516,6.231,5.249,9.677c0.311,0.611,0.621,1.242,0.932,1.863c0.24,0.481,0.471,0.962,0.711,1.442
		c0.11,0.23,0.22,0.461,0.331,0.691c12.111,25.324,21.968,60.635,9.887,97.118c-0.711,2.174,0.521,4.508,2.735,5.089
		c1.102,0.28,2.334,0.671,3.676,1.182c8.735,2.895,23.4,12.111,30.433,41.412c0.25,1.052,0.501,2.084,0.761,3.125
		c1.783,7.012,5.98,47.202-27.247,65.093c-0.671,0.371-1.102,1.062-1.102,1.833c0,1.112,0.882,2.034,2.003,2.064
		c10.288,0.27,23.921,3.216,32.586,15.256c0.461,0.651,0.912,1.322,1.342,2.023c0.741,1.182,1.432,2.444,2.074,3.787
		c0.27,0.571,0.541,1.162,0.791,1.763c0.28,0.671,0.551,1.352,0.811,2.064c0,0,0.591,1.683,1.122,4.438
		c5.99,0.671,11.34,3.566,15.186,7.834C410.843,296.251,413.187,301.891,413.187,308.051z"/>
	<path style="fill:#C70024;" d="M291.977,317.397L291.977,317.397c-8.159,0-15.226,4.834-18.532,11.77v-30.302
		c0-11.295-9.241-20.536-20.536-20.536l0,0c-11.295,0-20.536,9.241-20.536,20.536v67.116c0,11.295,9.241,20.536,20.536,20.536l0,0
		c8.159,0,15.225-4.834,18.532-11.77v30.302c0,11.295,9.241,20.536,20.536,20.536l0,0c11.295,0,20.536-9.241,20.536-20.536v-67.116
		C312.513,326.638,303.272,317.397,291.977,317.397z"/>
</g>
<path style="fill:#FF0C38;" d="M406.997,291.993c-3.847-4.267-9.196-7.162-15.186-7.834c-0.531-2.755-1.122-4.438-1.122-4.438
	c-0.26-0.711-0.531-1.392-0.811-2.064c-0.25-0.601-0.521-1.192-0.791-1.763c-0.641-1.342-1.332-2.605-2.074-3.787
	c-0.431-0.701-0.882-1.372-1.342-2.023c-8.665-12.041-22.299-14.986-32.586-15.256c-1.122-0.03-2.003-0.952-2.003-2.064
	c0-0.771,0.431-1.463,1.102-1.833c33.228-17.891,29.03-58.08,27.247-65.093c-0.26-1.042-0.511-2.074-0.761-3.125
	c-7.032-29.301-21.698-38.517-30.433-41.412c-1.342-0.511-2.574-0.902-3.676-1.182c-2.214-0.581-3.446-2.915-2.735-5.089
	c12.081-36.483,2.224-71.794-9.887-97.118c-0.13-0.271-0.26-0.544-0.39-0.815c-0.684-0.107-0.924-0.144-1.608-0.251
	c-0.329,0.358-0.664,0.713-1.007,1.067c-25.474,26.306-75.851,37.445-75.851,37.445c-58.912,12.952-73.627,54.094-73.627,54.094
	c-5.419,15.707-6.371,28.89-4.658,39.879c0.28,1.743-0.381,3.496-1.733,4.618c-38.917,34.039-20.956,62.668-7.253,76.412
	c2.084,2.084,1.443,4.548-1.342,5.52c-12.842,4.508-16.328,17.07-16.328,17.07c-4.448,11.33-2.414,23.18,3.847,32.276
	c-11.861,1.453-21.117,11.63-21.117,23.861c0,1.022,0.06,2.023,0.19,3.005h96.477c2.673,0,4.838,2.167,4.838,4.838l0,0
	c0,11.295,9.241,20.536,20.536,20.536l0,0c6.077,0,11.549-2.683,15.311-6.918c1.123-1.263,3.221-0.427,3.221,1.263v24.187
	c0,11.295,9.241,20.536,20.536,20.536l0,0c11.295,0,20.536-9.241,20.536-20.536v-39.068c0-2.673,2.167-4.838,4.838-4.838h71.267
	c12.898,0,23.897-9.946,24.538-22.828C413.487,302.633,411.095,296.529,406.997,291.993z"/>
<path d="M289.233,496.918c-0.511,0.03-1.012,0.05-1.513,0.05h-67.106c-10.408,0-19.524-7.393-21.678-17.6l-13.423-62.318
	c-0.871-4.057-4.858-6.641-8.925-5.77c-4.057,0.882-6.631,4.868-5.76,8.925l13.413,62.298c3.606,17.09,18.903,29.491,36.373,29.491
	c70.301-0.03,67.36,0.076,69.631-0.09c4.137-0.27,7.263-3.857,6.992-7.994C296.956,499.763,293.36,496.658,289.233,496.918z"/>
<path d="M123.306,253.988c0.11-0.361,2.765-8.956,11.58-12.051c4.628-1.613,7.613-5.56,7.613-10.057c0-2.855-1.222-5.65-3.426-7.854
	c-6.431-6.461-14.114-16.759-14.114-29.16c0-11.891,7.042-24.082,20.936-36.243c3.443-2.916,4.936-7.338,4.267-11.48
	c-1.467-9.487-0.448-19.202,1.983-28.529c1.052-4.017-1.362-8.114-5.369-9.166c-4.017-1.042-8.124,1.362-9.166,5.379
	c-2.863,10.986-3.984,22.192-2.494,33.268c-16.709,14.906-25.184,30.643-25.184,46.771c0,14.796,7.162,26.907,14.475,35.421
	c-10.759,6.201-14.655,16.759-15.417,19.153c-1.863,4.828-2.815,9.867-2.815,14.976c0,5.239,0.992,10.398,2.895,15.256
	C98.473,284.831,91.3,295.7,91.3,308.051c0,16.684,13.784,28.439,19.754,28.439c7.706,0,10.394-10.261,3.716-14.044
	c-13.928-7.87-9.675-28.859,6.071-30.803c5.544-0.661,8.506-7.034,5.279-11.71c-3.216-4.668-4.919-10.037-4.919-15.517
	c0-3.316,0.631-6.591,1.873-9.757C123.175,254.418,123.236,254.238,123.306,253.988z"/>
<path d="M153.818,96.064c1.392,1.152,3.085,1.713,4.768,1.713c2.164,0,4.317-0.932,5.81-2.745
	c9.426-11.45,27.177-26.546,58.251-33.378c2.464-0.541,60.705-13.724,85.207-46.03c0.655-0.874,1.994-0.773,2.605,0.12
	c12.208,17.806,21.85,38.237,26.406,58.732c0.902,4.057,4.919,6.611,8.966,5.71c4.047-0.902,6.601-4.909,5.7-8.966
	c-4.96-22.383-15.399-44.612-28.68-63.981c-6.37-9.249-20.074-9.808-26.977-0.691c-21.147,27.888-75.921,40.32-76.462,40.43
	c-35.251,7.753-55.686,25.224-66.625,38.507C150.152,88.692,150.613,93.43,153.818,96.064z"/>
<path d="M397.951,277.759c-3.941-12.625-14.453-24.103-30.403-28.439c35.493-31.72,21.953-101.619-17.51-115.36
	c2.965-10.027,4.578-20.485,4.778-31.144c0.08-4.147-3.216-7.573-7.363-7.653c-4.117-0.07-7.583,3.216-7.663,7.363
	c-0.365,19.853-5.68,29.212-5.68,33.768c0,5.209,3.516,9.777,8.585,11.099c18.187,4.808,25.03,22.29,29.451,40.3
	c0.331,1.302,0.962,5.209,0.962,10.668c0,12.241-3.185,34.48-24.552,45.99c-8.506,4.682-5.498,17.728,4.327,17.991
	c18.888,0.499,29.079,10.662,31.555,23.24c0.621,3.226,3.266,5.68,6.541,6.04c8.234,0.928,14.695,8,14.695,16.428
	c0,9.116-7.413,16.529-16.529,16.529c-16.393,0-59.571-0.349-77.494,0c-6.276,0.122-6.693,4.15-6.652,9.667v65.223
	c0,4.147,3.366,7.513,7.513,7.513c4.147,0,7.513-3.366,7.513-7.513v-59.864h18.161c-15.624,75.062-22.621,110.065-26.112,127.07
	c-0.974,4.741-1.674,8.083-2.213,10.503c-1.278,5.743-1.648,6.301-2.589,8.058c-2.692,5.052,1.026,11.059,6.621,11.059
	c2.685,0,5.279-1.443,6.631-3.977c1.643-3.085,2.845-6.381,3.586-9.857l29.421-142.857h35.612c17.4,0,31.555-14.155,31.555-31.555
	C420.7,293.747,411.093,281.597,397.951,277.759z"/>
<path d="M306.543,421.327c-1.543-3.857-5.92-5.72-9.767-4.177c-8.508,3.391-17.821-2.908-17.821-12.101v-30.302
	c0-7.974-10.859-10.426-14.295-3.236c-6.028,12.64-24.773,8.208-24.773-5.53c-0.698-33.273,1.575-35.269-2.084-39.068
	c-4.048-4.285-2.829-1.457-87.572-2.334h-9.667c-4.147,0-7.513,3.366-7.513,7.513s3.366,7.513,7.513,7.513h12.902l11.029,51.229
	c0.761,3.516,3.877,5.93,7.343,5.93c0.521,0,1.052-0.06,1.593-0.17c4.047-0.871,6.631-4.868,5.76-8.925l-10.348-48.063h56.017
	v26.376c0,20.086,20.62,33.714,39.068,25.755v13.313c0,19.834,20.141,33.397,38.436,26.045
	C306.212,429.552,308.085,425.174,306.543,421.327z"/>
<path d="M237.343,133.424c1.37,1.066,2.995,1.583,4.608,1.583c2.238,0,4.454-0.996,5.935-2.901
	c2.547-3.276,1.957-7.995-1.317-10.542l-27.045-21.035c-3.275-2.546-7.995-1.959-10.542,1.317
	c-2.547,3.276-1.957,7.995,1.317,10.542L237.343,133.424z"/>
<path d="M204.093,300.065l31.688-13.03c1.606-0.66,2.861-1.814,3.661-3.214c1.111-1.942,1.347-4.361,0.43-6.592
	c-1.578-3.838-5.968-5.669-9.805-4.091l-31.688,13.03c-3.836,1.578-5.671,5.967-4.091,9.806
	C195.866,299.812,200.256,301.644,204.093,300.065z"/>
<path d="M273.379,162.313c-1.727-3.774-6.188-5.434-9.957-3.704l-31.155,14.26c-3.774,1.727-5.432,6.186-3.704,9.957
	c1.263,2.76,3.987,4.389,6.836,4.389c1.046,0,2.109-0.22,3.121-0.684l31.155-14.26C273.447,170.544,275.106,166.085,273.379,162.313
	z"/>
<path d="M284.268,229.484c1.006,0,2.027-0.203,3.008-0.632l31.388-13.739c3.802-1.664,5.534-6.095,3.871-9.895
	c-1.665-3.803-6.094-5.532-9.895-3.871l-31.388,13.739c-3.802,1.664-5.534,6.095-3.871,9.895
	C278.616,227.802,281.374,229.484,284.268,229.484z"/>
<path d="M319.417,296.994c2.556,3.285,7.28,3.853,10.543,1.313c3.275-2.548,3.862-7.27,1.313-10.543l-21.047-27.037
	c-2.548-3.274-7.269-3.861-10.543-1.313c-3.275,2.548-3.862,7.27-1.313,10.543L319.417,296.994z"/>
<path d="M281.827,114.776l25.542-25.543c2.934-2.934,2.934-7.691-0.001-10.624c-2.933-2.933-7.69-2.934-10.624,0.001l-25.542,25.543
	c-2.934,2.934-2.934,7.691,0.001,10.624c1.467,1.467,3.39,2.2,5.312,2.2S280.359,116.243,281.827,114.776z"/>
<path d="M174.281,228.51l45.076,18.03c0.915,0.366,1.858,0.539,2.788,0.539c2.981,0,5.803-1.787,6.978-4.725
	c1.541-3.853-0.334-8.224-4.186-9.766l-45.076-18.03c-3.851-1.54-8.225,0.332-9.766,4.186
	C168.555,222.595,170.429,226.968,174.281,228.51z"/>
<path d="M200.418,120.574c-2.151-3.548-6.772-4.68-10.32-2.532l-34.791,21.078c-3.548,2.15-4.682,6.771-2.532,10.32
	c2.145,3.537,6.759,4.688,10.32,2.532l34.791-21.078C201.433,128.743,202.567,124.123,200.418,120.574z"/>
<g>
</g>
<g>
</g>
<g>
</g>
<g>
</g>
<g>
</g>
<g>
</g>
<g>
</g>
<g>
</g>
<g>
</g>
<g>
</g>
<g>
</g>
<g>
</g>
<g>
</g>
<g>
</g>
<g>
</g>
</svg>
