<?xml version="1.0" encoding="iso-8859-1"?>
<!-- Generator: Adobe Illustrator 19.0.0, SVG Export Plug-In . SVG Version: 6.00 Build 0)  -->
<svg version="1.1" id="Capa_1" xmlns="http://www.w3.org/2000/svg" xmlns:xlink="http://www.w3.org/1999/xlink" x="0px" y="0px"
	 viewBox="0 0 512.001 512.001" style="enable-background:new 0 0 512.001 512.001;" xml:space="preserve">
<path style="fill:#2D2D30;" d="M504.493,99.598v312.805c0,10.22-8.288,18.508-18.518,18.508H26.025
	c-10.23,0-18.518-8.288-18.518-18.508V99.598c0-10.22,8.288-18.508,18.518-18.508h459.949
	C496.205,81.09,504.493,89.378,504.493,99.598z"/>
<path style="fill:#D9CCBC;" d="M284.027,296.04v92.09c0,6.606-5.405,12.012-12.012,12.012H44.794
	c-6.606,0-12.012-5.405-12.012-12.012v-92.09c0-6.606,5.405-12.012,12.012-12.012h227.222
	C278.622,284.028,284.027,289.433,284.027,296.04z"/>
<path style="fill:#EBE5DD;" d="M284.027,296.04v92.09c0,6.606-5.405,12.012-12.012,12.012H68.817
	c-6.606,0-12.012-5.405-12.012-12.012v-92.09c0-6.606,5.405-12.012,12.012-12.012h203.198
	C278.622,284.028,284.027,289.433,284.027,296.04z"/>
<g>
	<path style="fill:#FFA733;" d="M231.316,121.87v95.253c0,8.588-7.037,15.625-15.625,15.625c-8.598,0-15.625-7.037-15.625-15.625
		V121.87c0-8.588,7.027-15.625,15.625-15.625c1.521,0,2.993,0.22,4.394,0.641c2.532,0.741,4.805,2.122,6.636,3.954
		C229.554,113.672,231.316,117.575,231.316,121.87z"/>
	<path style="fill:#FFA733;" d="M292.045,121.87v95.253c0,8.588-7.037,15.625-15.625,15.625c-8.588,0-15.625-7.037-15.625-15.625
		V121.87c0-8.588,7.037-15.625,15.625-15.625c1.521,0,2.993,0.22,4.394,0.641c2.532,0.741,4.805,2.122,6.636,3.954
		C290.283,113.672,292.045,117.575,292.045,121.87z"/>
</g>
<g>
	<path style="fill:#FFB655;" d="M231.316,121.87v94.222c-6.476-1.902-11.231-7.918-11.231-14.985v-94.222
		c2.532,0.741,4.805,2.122,6.636,3.954C229.554,113.672,231.316,117.575,231.316,121.87z"/>
	<path style="fill:#FFB655;" d="M292.045,121.87v94.222c-6.466-1.902-11.231-7.918-11.231-14.985v-94.222
		c2.532,0.741,4.805,2.122,6.636,3.954C290.283,113.672,292.045,117.575,292.045,121.87z"/>
</g>
<g>
	<path style="fill:#781900;" d="M470.319,118.256v26.976c0,6.606-5.405,12.012-12.012,12.012H333.696
		c-6.606,0-12.012-5.405-12.012-12.012v-26.976c0-6.606,5.405-12.012,12.012-12.012h124.612
		C464.914,106.244,470.319,111.65,470.319,118.256z"/>
	<path style="fill:#781900;" d="M470.319,193.76v26.976c0,6.606-5.405,12.012-12.012,12.012H333.696
		c-6.606,0-12.012-5.405-12.012-12.012V193.76c0-6.606,5.405-12.012,12.012-12.012h124.612
		C464.914,181.748,470.319,187.153,470.319,193.76z"/>
</g>
<g>
	<path style="fill:#891C00;" d="M470.319,118.256v26.976c0,6.606-5.405,12.012-12.012,12.012h-98.586
		c-6.606,0-12.012-5.405-12.012-12.012v-26.976c0-6.606,5.405-12.012,12.012-12.012h98.586
		C464.914,106.244,470.319,111.65,470.319,118.256z"/>
	<path style="fill:#891C00;" d="M470.319,193.76v26.976c0,6.606-5.405,12.012-12.012,12.012h-98.586
		c-6.606,0-12.012-5.405-12.012-12.012V193.76c0-6.606,5.405-12.012,12.012-12.012h98.586
		C464.914,181.748,470.319,187.153,470.319,193.76z"/>
</g>
<path style="fill:#5EAC24;" d="M438.438,291.655c0,5.465-2.823,10.791-7.868,13.703l-62.721,36.205l-9.229,5.335
	c-7.507,4.334-17.207,1.732-21.541-5.776c-4.334-7.507-1.732-17.197,5.776-21.531l71.95-41.541
	c7.507-4.334,17.197-1.742,21.531,5.766c1.021,1.772,1.662,3.654,1.932,5.575C438.388,290.144,438.438,290.905,438.438,291.655z"/>
<path style="fill:#7ED63E;" d="M438.438,291.655c0,5.465-2.823,10.791-7.868,13.703l-62.721,36.205
	c-0.911-6.206,1.952-12.652,7.698-15.966l62.721-36.205C438.388,290.144,438.438,290.905,438.438,291.655z"/>
<path style="fill:#5EAC24;" d="M483.272,332.505c0,2.382-0.551,4.805-1.692,7.067l-26.206,52.701l-0.51,1.031
	c-3.914,7.738-13.443,10.871-21.191,6.957c-7.738-3.914-10.861-13.443-6.957-21.181l26.726-53.742
	c3.914-7.738,13.443-10.861,21.181-6.957c1.101,0.551,2.102,1.221,3.003,1.982C481.24,323.396,483.272,327.891,483.272,332.505z"/>
<path style="fill:#7ED63E;" d="M483.272,332.505c0,2.382-0.551,4.805-1.692,7.067l-26.206,52.701
	c-5.485-4.584-7.327-12.552-3.964-19.199l26.216-52.711C481.24,323.396,483.272,327.891,483.272,332.505z"/>
<path style="fill:#830018;" d="M399.81,387.799c0,2.502-0.43,4.895-1.221,7.117c-2.933,8.298-10.841,14.234-20.14,14.234
	c-11.792,0-21.351-9.559-21.351-21.351c0-9.299,5.936-17.207,14.234-20.14c2.222-0.791,4.614-1.221,7.117-1.221
	C390.251,366.438,399.81,375.998,399.81,387.799z"/>
<g>
	<path style="fill:#A5001E;" d="M399.81,387.799c0,2.502-0.43,4.895-1.221,7.117c-2.232,0.791-4.625,1.221-7.127,1.221
		c-11.792,0-21.351-9.559-21.351-21.351c0-2.502,0.43-4.895,1.221-7.127c2.222-0.791,4.614-1.221,7.117-1.221
		C390.251,366.438,399.81,375.998,399.81,387.799z"/>
	<path style="fill:#A5001E;" d="M138.215,167.584c0,23.713-15.855,43.723-37.537,49.999c-4.604,1.341-9.479,2.052-14.514,2.052
		c-28.748,0-52.051-23.303-52.051-52.051s23.303-52.051,52.051-52.051c5.035,0,9.91,0.711,14.514,2.052
		C122.359,123.861,138.215,143.871,138.215,167.584z"/>
</g>
<path style="fill:#C70024;" d="M138.215,167.584c0,23.713-15.855,43.723-37.537,49.999c-21.681-6.276-37.537-26.286-37.537-49.999
	s15.855-43.723,37.537-49.999C122.359,123.861,138.215,143.871,138.215,167.584z"/>
<g>
	<path style="fill:#D9CCBC;" d="M220.978,348.456c1.082-10.311,7.063-32.579,38.355-35.544c2.876-0.272,5.281,2.338,4.878,5.277
		c-1.486,10.826-8.214,33.758-38.502,35.4C222.954,353.738,220.682,351.276,220.978,348.456z"/>
	<path style="fill:#D9CCBC;" d="M117.421,317.247c9.541,4.054,29.082,16.294,22.754,47.082c-0.582,2.829-3.782,4.365-6.474,3.119
		c-9.916-4.591-29.872-17.739-22.573-47.18C111.792,317.591,114.812,316.138,117.421,317.247z"/>
	<path style="fill:#D9CCBC;" d="M57.404,349.527c-0.646-8.455,0.828-27.195,25.014-33.704c2.222-0.599,4.494,1.19,4.603,3.613
		c0.401,8.924-1.563,28.297-25.151,33.606C59.725,353.525,57.58,351.839,57.404,349.527z"/>
	<path style="fill:#D9CCBC;" d="M171.625,343.87c8.431,0.906,26.589,5.769,28.581,30.737c0.183,2.294-1.989,4.202-4.391,3.868
		c-8.848-1.231-27.538-6.693-28.461-30.853C167.27,345.425,169.319,343.622,171.625,343.87z"/>
</g>
<path d="M504.493,348.643c4.146,0,7.507-3.36,7.507-7.507V99.602c0-14.348-11.673-26.02-26.021-26.02H256.116
	c-4.146,0-7.507,3.36-7.507,7.507s3.361,7.507,7.507,7.507h229.862c6.069,0,11.007,4.938,11.007,11.006v148.891H316.551
	c-0.289-0.034-0.581-0.056-0.879-0.056c-0.298,0-0.59,0.022-0.879,0.056H174.542V88.596h51.545c4.146,0,7.507-3.36,7.507-7.507
	s-3.361-7.507-7.507-7.507H26.021C11.673,73.581,0,85.254,0,99.602v271.33c0,4.147,3.361,7.507,7.507,7.507s7.507-3.36,7.507-7.507
	V263.508h293.15v159.897H26.021c-6.069,0-11.007-4.938-11.007-11.006v-11.438c0-4.147-3.361-7.507-7.507-7.507S0,396.814,0,400.961
	v11.438c0,14.348,11.673,26.02,26.021,26.02H485.98c14.348,0,26.021-11.672,26.021-26.02v-41.234c0-4.147-3.361-7.507-7.507-7.507
	c-4.146,0-7.507,3.36-7.507,7.507v41.234c0,6.069-4.938,11.006-11.007,11.006H323.181V263.508h173.805v77.628
	C496.985,345.282,500.347,348.643,504.493,348.643z M159.528,248.493H15.015V99.602c0-6.069,4.938-11.006,11.007-11.006h133.506
	L159.528,248.493L159.528,248.493z"/>
<path d="M188.244,276.521H44.794c-10.763,0-19.519,8.757-19.519,19.519v92.09c0,10.763,8.757,19.519,19.519,19.519h227.222
	c10.763,0,19.519-8.757,19.519-19.519v-92.09c0-10.763-8.757-19.519-19.519-19.519h-53.742c-4.146,0-7.507,3.36-7.507,7.507
	c0,4.147,3.361,7.507,7.507,7.507h53.742c2.441,0,4.504,2.063,4.504,4.504v92.09c0,2.441-2.063,4.504-4.504,4.504H44.794
	c-2.441,0-4.504-2.063-4.504-4.504v-92.09c0-2.441,2.063-4.504,4.504-4.504h143.45c4.146,0,7.507-3.36,7.507-7.507
	C195.751,279.881,192.39,276.521,188.244,276.521z"/>
<path d="M215.69,113.756c2.067,0,4.042,0.792,5.56,2.231c3.011,2.851,7.763,2.721,10.613-0.29c2.851-3.011,2.721-7.763-0.29-10.613
	c-4.319-4.09-9.961-6.342-15.885-6.342c-12.753,0-23.129,10.375-23.129,23.129v95.254c0,12.753,10.376,23.129,23.129,23.129
	c12.753,0,23.13-10.375,23.13-23.129v-77.925c0-4.147-3.361-7.507-7.507-7.507s-7.507,3.36-7.507,7.507v77.925
	c0,4.474-3.641,8.114-8.115,8.114s-8.114-3.641-8.114-8.114V121.87C207.575,117.395,211.215,113.756,215.69,113.756z"/>
<path d="M292.041,143.704c4.146,0,7.507-3.36,7.507-7.507V121.87c0-12.753-10.376-23.129-23.13-23.129
	c-12.753,0-23.129,10.375-23.129,23.129v95.254c0,12.753,10.376,23.129,23.129,23.129c12.753,0,23.13-10.375,23.13-23.129v-50.899
	c0-4.147-3.361-7.507-7.507-7.507c-4.146,0-7.507,3.36-7.507,7.507v50.899c0,4.474-3.641,8.114-8.115,8.114
	c-4.474,0-8.114-3.641-8.114-8.114V121.87c0-4.474,3.641-8.114,8.114-8.114c4.474,0,8.115,3.641,8.115,8.114v14.327
	C284.534,140.343,287.895,143.704,292.041,143.704z"/>
<path d="M333.696,113.756h20.893c4.146,0,7.507-3.36,7.507-7.507s-3.361-7.507-7.507-7.507h-20.893
	c-10.763,0-19.519,8.757-19.519,19.519v26.971c0,10.763,8.757,19.519,19.519,19.519H458.31c10.763,0,19.519-8.757,19.519-19.519
	V118.26c0-10.763-8.757-19.519-19.519-19.519h-73.692c-4.146,0-7.507,3.36-7.507,7.507s3.361,7.507,7.507,7.507h73.692
	c2.441,0,4.504,2.063,4.504,4.504v26.971c0,2.441-2.063,4.504-4.504,4.504H333.696c-2.441,0-4.504-2.063-4.504-4.504V118.26
	C329.191,115.818,331.254,113.756,333.696,113.756z"/>
<path d="M314.177,220.734c0,10.763,8.757,19.519,19.519,19.519H458.31c10.763,0,19.519-8.757,19.519-19.519v-26.971
	c0-10.763-8.757-19.519-19.519-19.519h-73.692c-4.146,0-7.507,3.36-7.507,7.507c0,4.147,3.361,7.507,7.507,7.507h73.692
	c2.441,0,4.504,2.063,4.504,4.504v26.971c0,2.441-2.063,4.504-4.504,4.504H333.696c-2.441,0-4.504-2.063-4.504-4.504v-26.971
	c0-2.441,2.063-4.504,4.504-4.504h20.893c4.146,0,7.507-3.36,7.507-7.507c0-4.147-3.361-7.507-7.507-7.507h-20.893
	c-10.763,0-19.519,8.757-19.519,19.519V220.734z"/>
<path d="M445.148,297.721c1.612-6.017,0.793-12.286-2.307-17.655c-6.415-11.114-20.676-14.936-31.791-8.519l-71.951,41.541
	c-11.113,6.417-14.934,20.678-8.517,31.792c4.305,7.457,12.144,11.631,20.194,11.631c3.945,0,7.942-1.003,11.597-3.113l71.95-41.541
	C439.691,308.757,443.535,303.737,445.148,297.721z M430.645,293.834c-0.574,2.143-1.934,3.926-3.829,5.02l-71.95,41.541
	c-1.896,1.094-4.121,1.38-6.261,0.807c-2.142-0.574-3.925-1.934-5.019-3.829c-2.276-3.943-0.92-9.005,3.023-11.282l71.95-41.541
	c1.256-0.726,2.657-1.096,4.082-1.096c0.726,0,1.456,0.096,2.179,0.289c2.143,0.575,3.925,1.935,5.02,3.83
	S431.218,291.692,430.645,293.834z"/>
<path d="M430.291,406.959c3.289,1.663,6.85,2.502,10.441,2.502c2.45,0,4.915-0.391,7.315-1.18
	c5.918-1.943,10.717-6.061,13.535-11.636l26.7-53.69c2.797-5.531,3.266-11.838,1.322-17.755
	c-1.944-5.917-6.061-10.716-11.593-13.513c-11.452-5.789-25.48-1.183-31.292,10.314l-26.699,53.689
	C414.233,387.142,418.839,401.168,430.291,406.959z M433.443,382.419l26.699-53.689c1.452-2.873,4.365-4.531,7.383-4.531
	c1.251,0,2.521,0.285,3.712,0.888c1.953,0.987,3.41,2.692,4.102,4.799c0.693,2.107,0.53,4.343-0.479,6.34l-26.7,53.69
	c-0.987,1.953-2.692,3.409-4.799,4.102c-2.108,0.692-4.344,0.529-6.297-0.457C433.002,391.504,431.367,386.526,433.443,382.419z"/>
<path d="M378.453,401.643c-4.963,0-9.576-2.683-12.04-6.999c-2.055-3.603-6.641-4.858-10.241-2.8
	c-3.602,2.055-4.855,6.639-2.8,10.24c5.129,8.989,14.739,14.573,25.08,14.573c15.914,0,28.861-12.948,28.861-28.861
	c0-15.915-12.948-28.862-28.861-28.862c-6.619,0-13.088,2.298-18.214,6.471c-3.215,2.618-3.7,7.347-1.082,10.562
	c2.619,3.215,7.347,3.701,10.561,1.082c2.491-2.028,5.511-3.101,8.734-3.101c7.634,0,13.847,6.212,13.847,13.848
	S386.088,401.643,378.453,401.643z"/>
<path d="M44.496,206.276c1.567,0,3.147-0.487,4.496-1.5c3.317-2.486,3.992-7.192,1.504-10.509
	c-5.806-7.746-8.875-16.974-8.875-26.685c0-19.54,13.061-37.093,31.761-42.685c3.973-1.188,6.23-5.37,5.042-9.343
	c-1.188-3.974-5.373-6.235-9.343-5.042c-25.008,7.477-42.474,30.945-42.474,57.07c0,12.986,4.107,25.327,11.875,35.69
	C39.958,205.239,42.212,206.276,44.496,206.276z"/>
<path d="M86.166,212.125c-5.28,0-10.442-0.912-15.344-2.712c-3.895-1.427-8.206,0.568-9.634,4.461
	c-1.428,3.892,0.569,8.205,4.46,9.634c6.564,2.408,13.467,3.631,20.518,3.631c32.841,0,59.558-26.717,59.558-59.558
	c0-26.268-17.589-49.773-42.771-57.159c-3.979-1.163-8.15,1.112-9.317,5.092c-1.167,3.979,1.112,8.15,5.091,9.317
	c18.83,5.522,31.982,23.102,31.982,42.75C130.71,192.142,110.728,212.125,86.166,212.125z"/>
<path d="M256.359,339.721c3.708,1.859,8.217,0.358,10.075-3.349c3.253-6.49,4.63-12.916,5.212-17.154
	c0.076-0.552,0.115-1.114,0.115-1.676c0-6.704-5.39-12.158-12.016-12.158c-0.362,0-0.729,0.016-1.121,0.052
	c-15.749,1.492-27.779,7.523-35.756,17.923c-6.517,8.498-8.686,17.911-9.358,24.309c-0.044,0.423-0.067,0.855-0.067,1.28
	c0,6.7,5.395,12.151,12.027,12.151c0.201,0,0.403-0.005,0.645-0.017c4.75-0.258,9.245-1.005,13.36-2.221
	c3.976-1.175,6.247-5.351,5.072-9.326c-1.174-3.977-5.346-6.246-9.327-5.072c-1.955,0.578-4.055,1.012-6.264,1.296
	c2.002-10.424,8.6-21.791,27.138-24.866c-0.599,2.633-1.556,5.701-3.084,8.752C251.153,333.353,252.653,337.863,256.359,339.721z"/>
<path d="M126.02,353.379c-3-2.863-7.753-2.75-10.614,0.249c-2.862,3-2.751,7.753,0.249,10.614
	c5.255,5.014,10.999,8.215,14.893,10.019c1.622,0.751,3.348,1.131,5.13,1.131c5.73,0,10.713-4.018,11.851-9.551
	c0.922-4.488,1.39-8.859,1.39-12.988c0-27.42-19.975-38.867-28.552-42.513c-1.52-0.648-3.128-0.978-4.78-0.978
	c-5.588,0-10.418,3.741-11.745,9.098c-1.144,4.611-1.746,9.121-1.789,13.406c-0.042,4.147,3.285,7.541,7.43,7.583
	c0.026,0,0.052,0,0.078,0c4.11,0,7.464-3.312,7.505-7.431c0.021-2.029,0.22-4.154,0.595-6.351
	c8.021,4.264,16.244,12.274,16.244,27.185c0,1.93-0.14,3.95-0.417,6.039C131.144,357.549,128.489,355.735,126.02,353.379z"/>
<path d="M89.838,310.357c-2.734-2-6.15-2.65-9.369-1.782c-30.657,8.249-31.134,33.868-30.55,41.523
	c0.253,3.322,1.934,6.363,4.61,8.342c1.943,1.436,4.26,2.191,6.605,2.191c0.797,0,1.598-0.088,2.386-0.265
	c20.37-4.584,31.959-20.012,31.002-41.269C94.363,315.603,92.656,312.417,89.838,310.357z M64.868,344.329
	c0.524-7.243,3.909-15.101,14.546-19.574C78.702,332.343,75.218,340.365,64.868,344.329z"/>
<path d="M163.386,339.418c-2.367,2.209-3.655,5.304-3.533,8.49c0.797,20.865,13.854,35.071,34.928,38.003
	c0.536,0.074,1.071,0.111,1.603,0.111c2.905,0,5.698-1.098,7.846-3.123c2.464-2.323,3.726-5.564,3.461-8.89
	c-2.525-31.647-27.629-36.784-35.263-37.604C169.116,336.05,165.819,337.149,163.386,339.418z M191.971,370.026
	c-7.331-2.082-14.584-6.969-16.596-17.869C182.402,353.992,189.512,358.751,191.971,370.026z"/>
<g>
</g>
<g>
</g>
<g>
</g>
<g>
</g>
<g>
</g>
<g>
</g>
<g>
</g>
<g>
</g>
<g>
</g>
<g>
</g>
<g>
</g>
<g>
</g>
<g>
</g>
<g>
</g>
<g>
</g>
</svg>
