<?xml version="1.0" encoding="iso-8859-1"?>
<!-- Generator: Adobe Illustrator 19.0.0, SVG Export Plug-In . SVG Version: 6.00 Build 0)  -->
<svg version="1.1" id="Capa_1" xmlns="http://www.w3.org/2000/svg" xmlns:xlink="http://www.w3.org/1999/xlink" x="0px" y="0px"
	 viewBox="0 0 512 512" style="enable-background:new 0 0 512 512;" xml:space="preserve">
<path style="fill:#3D9AE2;" d="M503.622,241.514v38.018c0,12.916-1.28,25.692-3.769,38.188
	c-2.619,13.156-7.508,26.631-14.265,39.977h-0.01c-34.939,69.048-119.771,134.626-197.676,134.626h-60.2
	c-82.323,0-176.863-73.906-207.803-146.852c-3.539-8.347-6.248-16.685-8.007-24.902c-2.869-13.406-4.349-27.141-4.349-41.037
	v-38.018L503.622,241.514L503.622,241.514z"/>
<path style="fill:#5AAAE7;" d="M46.53,241.514v38.018c0,13.895,1.48,27.631,4.349,41.037c1.759,8.217,4.469,16.555,8.007,24.902
	c5.828,13.736,13.905,27.501,23.732,40.807c42.376,57.351,117.252,106.046,184.07,106.046h21.213
	c77.905,0,162.737-65.579,197.676-134.626h0.01c6.758-13.346,11.646-26.821,14.265-39.977c2.489-12.496,3.769-25.272,3.769-38.188
	v-38.018L46.53,241.514L46.53,241.514z"/>
<path style="fill:#C2DFF6;" d="M503.622,241.514c0,6.478-1.25,12.826-3.649,18.994c-11.246,29.031-47.824,54.172-99.208,70.757
	c-11.616,3.749-24.002,7.068-37.018,9.877c-13.056,2.829-26.751,5.158-40.957,6.948c-21.373,2.669-43.916,4.099-67.208,4.099
	c-57.151,0-109.774-8.617-151.711-23.102c-14.565-5.038-27.851-10.777-39.577-17.114c-12.816-6.918-23.792-14.545-32.559-22.723
	c-9.627-8.967-16.625-18.604-20.553-28.721c-2.389-6.178-3.639-12.526-3.639-19.014c0-61.12,111.054-110.674,248.04-110.674
	S503.622,180.394,503.622,241.514z"/>
<path style="fill:#B3D8F4;" d="M485.578,357.697c-34.939,69.048-119.771,134.626-197.676,134.626h-60.2
	c-82.323,0-176.863-73.906-207.803-146.852c16.668,11.66,29.894,30.328,83.973,49.034
	C217.359,433.731,385.326,424.247,485.578,357.697z"/>
<path style="fill:#96C8EF;" d="M82.618,386.277c-6.458-2.809-12.576-5.768-18.324-8.877c-12.816-6.918-23.792-14.545-32.559-22.723
	c-3.159-2.939-7.278-6.018-11.836-9.207c30.94,72.946,125.479,146.852,207.803,146.852h38.987
	C199.87,492.323,124.995,443.629,82.618,386.277z"/>
<path style="fill:#B3D8F4;" d="M483.518,197.808c-44.546-29.54-120.161-48.974-205.943-48.974
	c-136.986,0-248.04,49.554-248.04,110.674c0,6.488,1.25,12.836,3.639,19.014c3.339,8.607,8.907,16.865,16.415,24.662
	c-6.678-4.429-12.656-9.087-17.854-13.935c-9.627-8.967-16.625-18.604-20.553-28.721c-2.389-6.178-3.639-12.526-3.639-19.014
	c0-61.12,111.054-110.674,248.04-110.674C357.779,130.84,445.541,158.421,483.518,197.808z"/>
<path style="fill:#FFB655;" d="M499.973,260.508c-17.435,45.007-87.948,70.214-136.226,80.634
	c-144.536,31.318-323.901-6.799-352.566-80.614c20.163-52.083,121.91-91.7,244.401-91.7c5.878,0,11.716,0.09,17.494,0.27
	C387.64,172.656,480.769,210.934,499.973,260.508z"/>
<path style="fill:#FFC477;" d="M499.973,260.508c-11.246,29.031-47.824,54.172-99.208,70.757
	c-11.616,3.749-24.002,7.068-37.018,9.877c-13.056,2.829-26.751,5.158-40.957,6.948c-15.955,1.989-32.559,3.299-49.644,3.819
	c-50.404-1.549-96.649-9.827-134.286-22.823c-14.565-5.038-27.851-10.777-39.577-17.114c-12.816-6.918-23.792-14.545-32.559-22.723
	c-0.096-0.09-0.192-0.179-0.288-0.269c-16.544-15.518-16.212-41.868,0.401-57.312c37.603-34.958,115.141-59.74,206.24-62.569
	C387.64,172.656,480.769,210.934,499.973,260.508z"/>
<path d="M292.974,260.362c18.281,0.758,43.319,1.794,53.428,12.947c1.682,1.854,2.894,5.277,1.219,7.035
	c-0.266,0.278-0.615,0.557-1.042,0.825c-8.9,5.632,0.629,21.343,11.897,9.519c7.333-7.695,6.06-19.703-0.965-27.451
	c-14.325-15.804-42.989-16.99-63.917-17.856c-18.53-0.768-46.569-3.163-89.401,0.557c-11.742,1.021-63.733,15.475-97.679,15.475
	c-6.974,0-23.194-0.756-23.194-7.758c0-1.284,0.315-2.835,0.938-4.612c2.585-7.387,17.367-25.869,98.574-37.912
	c23.555-3.493,47.476-5.33,71.094-5.46c4.141-0.022,7.48-3.398,7.456-7.539c-0.022-4.127-3.375-7.457-7.497-7.457
	c-0.014,0-0.028,0-0.042,0c-24.325,0.134-48.957,2.025-73.211,5.622c-37.921,5.623-112.308,19.071-112.308,57.356
	c0,45.482,118.391,8.854,137.167,7.222C246.138,257.346,272.632,259.521,292.974,260.362z"/>
<path d="M355.494,308.793c-49.251,8.338-98.598,8.683-148.534,7.239c-7.815-0.226-15.897-0.459-22.961-2.617
	c-13.115-4.006-12.898-16.163,0.699-18.725c61.86-11.654,89.199,9.337,137.235,6.768c4.136-0.222,7.308-3.754,7.086-7.888
	c-0.222-4.136-3.758-7.284-7.888-7.086c-45.647,2.451-74.43-18.734-139.209-6.529c-28.721,5.412-30.592,39.164-2.303,47.802
	c8.993,2.748,18.511,3.022,26.908,3.266c51.137,1.479,101.206,1.066,151.47-7.444c4.083-0.691,6.832-4.562,6.141-8.643
	C363.447,310.853,359.589,308.096,355.494,308.793z"/>
<path d="M505.166,88.183L290.988,69.112V46.214l214.179-19.071c4.125-0.367,7.171-4.009,6.804-8.133
	c-0.367-4.124-4.014-7.149-8.133-6.804L290.988,31.16v-0.155c0-4.142-3.356-7.498-7.498-7.498s-7.498,3.356-7.498,7.498v1.49
	l-8.913,0.794v-2.283c0-4.142-3.356-7.498-7.498-7.498c-4.141,0-7.498,3.356-7.498,7.498v3.619l-7.998,0.712v-4.331
	c0-4.142-3.357-7.498-7.498-7.498s-7.498,3.356-7.498,7.498v5.666l-17.159,1.528c-4.125,0.367-7.171,4.009-6.803,8.133
	c0.361,4.051,3.924,7.167,8.132,6.804l15.83-1.41v11.874l-15.83-1.41c-4.124-0.351-7.765,2.679-8.132,6.804
	c-0.368,4.125,2.678,7.766,6.803,8.133l17.159,1.528v29.658c0,4.142,3.357,7.498,7.498,7.498s7.498-3.356,7.498-7.498V79.991
	l7.998,0.712v10.45c0,4.142,3.357,7.498,7.498,7.498c4.142,0,7.498-3.356,7.498-7.498v-9.114l8.913,0.794v40.877
	c-65.285-2.344-140.016,6.446-198.858,32.701c-49.714,22.183-77.093,52.409-77.093,85.109c0.673,29.467-2.157,49.456,4.523,80.62
	c9.836,45.888,46.33,90.548,82.513,120.097c44.811,36.595,96.066,57.584,140.62,57.584h60.202c44.977,0,95.875-21.37,139.643-58.629
	c35.894-30.557,70.49-75.88,79.666-122.004c2.596-13.046,3.912-26.388,3.912-39.659v-38.009c-0.001-26.08-17.327-50.61-50.107-70.94
	c-30.661-19.015-72.711-33.14-121.607-40.85c-4.1-0.655-7.93,2.147-8.573,6.238c-0.646,4.091,2.147,7.929,6.238,8.573
	c46.937,7.401,87.063,20.811,116.038,38.782c18.694,11.593,40.792,30.276,42.845,54.541c-17.176-19.523-45.641-37.168-82.263-50.714
	c-36.321-13.435-78.914-22.106-122.705-25.175v-22.493c5.634,0.364,11.234,0.806,16.776,1.343c4.12,0.399,7.786-2.619,8.185-6.739
	c0.399-4.122-2.618-7.786-6.739-8.185c-6.018-0.583-12.101-1.061-18.223-1.445v-40.29l212.85,18.952
	c0.227,0.02,0.451,0.029,0.674,0.029c3.84,0,7.112-2.935,7.46-6.833C512.337,92.192,509.291,88.55,505.166,88.183z M252.084,65.648
	l-7.998-0.712V50.391l7.998-0.712V65.648z M267.08,66.984v-18.64l8.913-0.794v20.226L267.08,66.984z M408.492,201.214
	c41.418,15.32,71.212,35.636,84.169,57.331c-32.361,79.683-249.32,112.308-389.552,62.321c-3.9-1.389-8.189,0.643-9.58,4.545
	c-1.391,3.9,0.644,8.189,4.545,9.58c128.325,45.762,336.552,27.072,398.022-52.887c-0.403,29.141-6.443,50.394-16.32,70.428
	c-16.813,10.926-38.288,21.415-62.286,30.396c-9.189,3.44-4.136,17.559,5.256,14.044c14.902-5.577,28.905-11.738,41.546-18.242
	c-12.434,18.034-28.223,35.509-46.468,51.041c-41.097,34.987-88.451,55.052-129.923,55.052h-60.202
	c-69.249,0-144.092-53.108-183.201-110.621c86.251,58.074,247.018,62.499,349.301,32.477c3.974-1.167,6.249-5.333,5.082-9.306
	c-1.167-3.974-5.333-6.251-9.306-5.082c-95.341,27.987-237.079,24.241-321.724-21.492c-23.859-12.88-26.84-15.394-40.209-28.607
	c-1.01-0.998-1.821-2.196-2.345-3.516c-2.642-6.662-4.691-13.249-6.071-19.682c-2.598-12.12-3.983-24.511-4.156-36.871
	c17.658,22.981,53.173,41.768,57.846,41.768c7.931,0,10.418-10.779,3.28-14.244c-22.543-10.946-48.845-28.464-57.925-51.56
	c18.724-28.369,67.844-54.979,128.93-69.707c4.098-0.988,6.59-5.166,5.476-9.261c-1.076-3.955-5.293-6.211-9.277-5.247
	C86.286,187.685,40.042,210.99,15.217,237.861c2.206-24.808,26.709-49.321,68.027-67.756
	c57.248-25.546,130.14-33.696,192.748-31.388v22.428c-35.474-1.438-69.629,0.921-102.149,6.469c-4.04,0.689-7.019,4.424-6.446,8.481
	c0.594,4.205,4.535,7.064,8.691,6.348c26.039-4.46,52.785-6.721,79.495-6.721c6.808,0,13.617,0.144,20.409,0.427v22.802
	c0,4.142,3.356,7.498,7.498,7.498c3.189,0,15.531,1.044,19.856,1.466c38.39,3.74,88.513,4.326,115.633,30.195
	c6.445,6.148,10.011,11.902,10.596,17.096c0.551,4.846-2.338,10.485-7.513,11.918c-4.773,1.322-11.141-0.749-16.693-5.249
	c-14.055-11.394-10.632-17.665-48.168-30.955c-47.96-16.983-79.425-17.369-143.825-14.125c-27.275,1.373-58.19,2.929-85.578,13.643
	c-3.857,1.509-5.76,5.857-4.252,9.714c1.51,3.856,5.86,5.761,9.714,4.251c25.117-9.825,53.461-11.251,80.87-12.632
	c61.557-3.095,91.937-3.056,138.066,13.285c34.105,12.074,26.953,14.866,43.731,28.469c8.438,6.84,19.589,10.969,30.138,8.052
	c16.755-4.646,30.121-28.699,3.264-54.315c-31.105-29.672-82.639-30.188-124.53-34.27c-4.568-0.445-9.189-0.804-13.811-1.122
	v-14.865C332.995,180.03,373.755,188.366,408.492,201.214z"/>
<g>
</g>
<g>
</g>
<g>
</g>
<g>
</g>
<g>
</g>
<g>
</g>
<g>
</g>
<g>
</g>
<g>
</g>
<g>
</g>
<g>
</g>
<g>
</g>
<g>
</g>
<g>
</g>
<g>
</g>
</svg>
