<?xml version="1.0" encoding="iso-8859-1"?>
<!-- Generator: Adobe Illustrator 19.0.0, SVG Export Plug-In . SVG Version: 6.00 Build 0)  -->
<svg version="1.1" id="Capa_1" xmlns="http://www.w3.org/2000/svg" xmlns:xlink="http://www.w3.org/1999/xlink" x="0px" y="0px"
	 viewBox="0 0 512 512" style="enable-background:new 0 0 512 512;" xml:space="preserve">
<path style="fill:#4E901E;" d="M309.089,118.019l-5.389,2.238l-219.85,91.499c-3.994-3.031-7.055-13.659-8.972-26.224
	c-3.091-20.313-3.212-45.714,0.492-52.489c5.992-10.959,27.158-2.328,35.839-10.197c8.621-7.798,8.189-35.698,17.674-40.917
	c10.407-5.721,28.151,13.037,37.354,9.855c17.955-6.222,10.327-29.657,26.335-32.035c12.395-1.867,26.907,21.256,37.495,20.795
	c12.846-0.562,23.123-24.438,33.541-23.324c6.483,0.703,15.024,14.131,23.233,28.211c8.741,14.984,17.101,30.71,22.2,32.567
	C309.059,118.009,309.069,118.009,309.089,118.019z"/>
<path style="fill:#5EAC24;" d="M313.183,131.337L87.994,225.094c-3.994-3.031-11.2-26.997-13.117-39.562
	c0.331-8.099,1.345-14.633,3.091-17.613c6.453-11.04,28.753-2.629,38.027-10.598c9.203-7.918,9.053-35.869,19.149-41.188
	c11.08-5.851,29.657,12.746,39.422,9.454c19.069-6.433,11.26-29.827,28.221-32.386c13.137-2.007,28.241,20.995,39.452,20.423
	c10.859-0.562,31.222-20.624,44.6-28.191C295.58,100.416,308.085,129.481,313.183,131.337z"/>
<g>
	<circle style="fill:#C70024;" cx="323.081" cy="208.148" r="129.686"/>
	<circle style="fill:#C70024;" cx="323.081" cy="208.148" r="129.686"/>
</g>
<path style="fill:#FF3F62;" d="M322.985,317.779c-24.074,0-46.965-7.721-66.199-22.327
	c-48.137-36.556-57.559-105.458-21.002-153.596c20.912-27.537,52.767-43.33,87.396-43.33c24.075,0,46.966,7.721,66.2,22.327
	c48.137,36.556,57.559,105.458,21.003,153.595C389.469,301.985,357.614,317.779,322.985,317.779z"/>
<path style="fill:#A5001E;" d="M269.723,278.415c38.806,29.472,94.149,21.903,123.621-16.904l0,0
	c2.123-2.796,1.108-6.84-2.083-8.302L348.905,233.8c-3.26-1.493-4.204-5.091-2.142-8.024c2.372-3.371,4.051-7.167,4.963-11.15
	c0.819-3.575,4.126-5.269,7.46-3.741l42.558,19.5c3.216,1.473,6.931-0.445,7.664-3.905c6.853-32.361-4.871-67.254-32.967-88.59
	c-38.806-29.472-94.158-21.898-123.621,16.904l0,0c-2.131,2.793-1.12,6.841,2.073,8.304l38.856,17.804
	c3.182,1.458,4.059,4.936,1.958,7.737c-2.596,3.463-4.439,7.412-5.443,11.575c-0.802,3.327-4.002,4.883-7.114,3.457l-38.732-17.749
	c-3.216-1.473-6.932,0.445-7.665,3.905C229.903,222.187,241.626,257.079,269.723,278.415z"/>
<g>
	<circle style="fill:#FF3F62;" cx="328.791" cy="139.953" r="8.363"/>
	<circle style="fill:#FF3F62;" cx="305.829" cy="144.399" r="8.363"/>
	<circle style="fill:#FF3F62;" cx="377.406" cy="167.743" r="8.363"/>
</g>
<g>
	<path style="fill:#4E901E;" d="M500.992,328.797l-18.582-33.738c-5.413-12.547,0.076-31.36-7.677-42.681
		c-7.668-11.197-27.084-12.744-36.779-22.508c-9.517-9.585-11.001-29.17-22.225-37.153c-10.971-7.803-29.768-2.691-42.137-8.753
		c-12.057-5.909-19.637-24.016-32.807-28.078c-12.796-3.947-29.123,6.73-42.772,4.705c-13.209-1.96-25.759-16.994-39.587-16.994
		c-13.829,0-26.377,15.034-39.587,16.994c-13.65,2.025-29.976-8.651-42.773-4.705c-13.17,4.062-20.75,22.17-32.807,28.078
		c-12.37,6.063-31.166,0.95-42.138,8.753c-11.223,7.982-12.708,27.567-22.225,37.153c-9.695,9.764-29.112,11.312-36.779,22.509
		c-7.753,11.322-2.263,30.134-7.677,42.681c-5.403,12.525-22.804,21.344-25.609,34.851c0,0-13.203,38.183,49.602,48.749
		l398.444,24.059l39.79-41.291C505.105,352.674,506.857,339.446,500.992,328.797z"/>
	<path style="fill:#4E901E;" d="M496.673,361.424l-39.793,41.298l-1.546-0.09L58.438,378.656
		c-10.929-1.837-19.56-4.516-26.355-7.678C-0.173,355.964,8.83,329.911,8.83,329.911c2.81-13.509,20.213-22.33,25.612-34.855
		c5.409-12.545-0.08-31.353,7.678-42.673c7.668-11.2,27.087-12.746,36.782-22.511c9.514-9.584,11-29.175,22.22-37.154
		c10.969-7.808,29.767-2.69,42.141-8.751c12.053-5.911,19.631-24.016,32.808-28.081c12.796-3.944,29.115,6.734,42.774,4.707
		c13.207-1.967,25.753-17.001,39.582-17.001c13.83,0,26.375,15.034,39.592,17.001c13.649,2.027,29.968-8.651,42.764-4.707
		c13.177,4.065,20.755,22.17,32.808,28.081c12.374,6.062,31.172,0.943,42.141,8.751c11.22,7.979,12.706,27.569,22.22,37.154
		c9.695,9.765,29.115,11.311,36.782,22.501c7.748,11.331,2.268,30.138,7.678,42.683l18.577,33.741
		C506.859,339.445,505.103,352.673,496.673,361.424z"/>
</g>
<path style="fill:#5EAC24;" d="M482.211,371.149l-26.877,31.483L58.438,378.656c-10.929-1.837-19.56-4.516-26.355-7.678
	c-1.154-1.224-2.077-2.489-2.77-3.804c-2.198-4.175-1.525-8.44-1.505-8.48l0.411-1.375l0.271-1.415
	c0.582-2.098,5.269-7.427,8.069-10.618c5.801-6.584,12.385-14.061,16.309-24.348c3.964-10.347,4.255-20.965,4.526-30.339
	c0.12-4.446,0.331-11.833,1.285-13.98c1.425-1.696,7.216-4.476,10.708-6.152c7.758-3.713,16.539-7.928,23.755-16.118
	c7.126-8.099,10.769-18.035,13.99-26.806c1.505-4.115,4.024-10.969,5.6-12.595c1.827-1.024,7.788-1.405,11.762-1.666
	c8.541-0.552,18.225-1.184,27.599-6.363c9.173-5.078,15.486-13.268,21.046-20.484c2.569-3.342,6.845-8.882,8.792-9.875
	c0.08-0.01,0.231-0.02,0.452-0.02c2.569,0,6.915,1.285,11.12,2.529c6.443,1.907,13.749,4.075,21.668,4.075
	c2.268,0,4.486-0.181,6.614-0.542c10.167-1.706,18.366-7.427,25.602-12.465c3.392-2.369,9.053-6.313,11.08-6.473
	c1.947,0.161,7.607,4.105,11,6.473c7.236,5.048,15.435,10.759,25.602,12.465c2.128,0.361,4.356,0.542,6.614,0.542
	c7.918,0,15.215-2.168,21.658-4.075c4.205-1.244,8.561-2.529,11.13-2.529c0.231,0,0.381,0.01,0.472,0.02
	c1.877,0.933,6.182,6.523,8.772,9.875c5.56,7.216,11.873,15.405,21.046,20.484c9.374,5.179,19.058,5.811,27.599,6.363
	c3.984,0.261,9.966,0.652,11.782,1.676c1.525,1.536,4.065,8.44,5.58,12.585c3.222,8.772,6.865,18.707,13.99,26.806
	c7.206,8.189,15.997,12.405,23.755,16.118c3.503,1.676,9.334,4.476,10.729,6.162c0.933,2.027,1.144,9.494,1.265,13.97
	c0.271,9.364,0.562,19.992,4.516,30.339l0.391,0.994l19.048,39.03C485.041,364.314,484.559,368.399,482.211,371.149z"/>
<path style="fill:#EE8700;" d="M487.068,419.021v0.141c-0.01,19.048-15.456,34.484-34.504,34.484H72.157
	c-19.048,0-34.494-15.435-34.504-34.484v-0.141c0-89.592,52.438-166.95,128.311-203.03c29.205-13.9,61.892-21.678,96.396-21.678
	c123.092,0,223.082,98.996,224.687,221.707C487.058,417.014,487.068,418.017,487.068,419.021z"/>
<path style="fill:#FF9811;" d="M487.048,416.02H127.847c-19.048,0-34.484-15.446-34.504-34.494v-0.13
	c0-65.445,27.981-124.357,72.621-165.404c29.205-13.9,61.892-21.678,96.396-21.678C385.453,194.314,485.442,293.309,487.048,416.02z
	"/>
<path d="M507.582,325.164l-18.386-33.39c-1.766-4.326-1.947-10.257-2.148-16.519c-0.77-23.671-4.586-32.655-28.944-42.422
	c3.434-18.973,2.843-38.59-1.766-57.416c-2.359-9.679-16.994-6.089-14.612,3.583c3.702,15.145,4.492,30.949,2.348,46.286
	c-9.609-8.187-10.055-32.753-28.382-41.248c-18.154-69.314-102.805-94.569-155.73-47.922c-18.845-1.11-32.16,18.001-46.076,17.172
	c45.389-89.961,172.951-88.908,217.973-0.803c4.527,8.861,17.943,2.018,13.398-6.855c-28.589-55.959-92.556-86.387-155.856-70.557
	c-1.75-2.75-4.596-7.556-8.505-12.612c-24.423-31.61-38.896,11.166-50.471,11.672c-6.443-0.09-21.962-23.161-38.288-20.714
	c-21.43,3.172-14.821,27.767-27.569,32.326c-6.515,0.28-24.5-17.071-38.649-9.293c-13.463,7.411-12.695,36.143-19.099,41.931
	c-5.417,4.929-28.913-3.329-37.384,12.164c-7.114,13.028-3.834,73.187,8.852,86.792c-4.364,8.994-8.31,10.739-19.691,15.556
	c-22.36,9.504-27.967,16.003-28.793,42.362c-0.201,6.413-0.391,12.475-2.278,16.82c-4.556,10.591-22.402,19.88-25.983,35.929
	c-5.538,18.676,3.543,40.595,31.865,51.736c-3.387,19.905-3.024,33.151-3.282,39.422c0.01,23.173,18.868,42.011,42.031,42.011
	h258.971c9.973,0,9.949-15.054,0-15.054H72.157c-14.873,0-26.967-12.093-26.977-26.957c0.208-5.314-0.279-24.313,5.63-49.729
	c11.361-49.217,39.642-92.954,81.322-124.236c7.973-5.979-1.055-18.003-9.032-12.043c-43.076,32.326-74.073,79.105-86.621,131.533
	c-18.811-8.298-23.744-21.625-20.534-32.316c1.761-4.804,0.606-5.431,11.712-16.62C42,301.326,44.196,296.176,44.849,275.736
	c0.624-19.597,2.045-21.521,19.641-28.984c16.313-6.931,22.289-10.872,29.235-26.987v-0.01c9.361-21.101,8.193-23.385,30.048-24.649
	c21.134-1.237,26.338-3.9,39.903-19.5c12.793-14.733,15.027-15.106,33.009-10.427c3.633,0.953,7.326,1.917,11.06,2.529
	c28.353,4.807,39.151-22.465,56.904-15.225c9.683,3.819,19.912,13.715,32.256,15.556c15.3,2.252,31.918-7.973,41.66-4.958
	c5.078,1.566,9.705,6.885,14.612,12.525c13.563,15.598,18.765,18.263,39.903,19.5c16.115,0.944,19.97,1.795,25.733,14.512
	c0,0,0,0,0,0.01c10.854,23.754,8.958,26.532,35.738,38.057c15.657,6.71,16.865,9.565,17.453,28.051
	c0.162,5.059,0.413,17.007,3.814,22.952l18.577,33.741c8.66,15.705-6.621,26.957-7.216,28.001
	c-37.559-145.286-204.304-218.98-338.015-144.228c-8.716,4.863-1.323,17.988,7.346,13.137
	c144.793-80.884,323.031,24.773,323.031,189.682v0.13c-0.01,14.873-12.114,26.967-26.977,26.967h-91.328
	c-9.959,0-9.961,15.054,0,15.054h91.328c23.163,0,42.011-18.838,42.031-42.011c-0.116-2.678,0.336-18.981-3.573-41.027l11.07-11.481
	C512.881,355.453,515.089,338.783,507.582,325.164z M198.682,150.145c-8.169-2.118-16.57-3.994-24.829-1.455
	c-15.75,4.853-23.795,23.557-33.902,28.512c-14.367,7.051-39.717-4.922-53.894,22.631c-6.266-20.795-6.258-56.737-3.412-62.063
	c1.174-2.138,7.095-2.268,12.324-2.389c23.099-0.529,26.745-7.054,32.396-29.707c1.275-5.118,3.653-14.643,5.811-16.028
	c7.465-4.143,39.308,33.956,54.837-12.023c3.744-11.1,5.03-13.68,21.096-0.04c21.168,17.957,28.173,14.418,47.18-5.61
	c2.529-2.67,5.55-5.64,7.116-6.102c3.339,1.594,9.176,10.747,11.141,13.822C241.328,92.17,213.817,117.717,198.682,150.145z
	 M364.538,165.731c-16.968-19.527-25.045-21.174-48.193-15.114c-21.469,5.655-19.243,2.228-39.281-8.802
	c42.971-29.885,103.419-11.367,121.717,38.569C377.937,178.699,377.429,180.556,364.538,165.731z"/>
<g>
</g>
<g>
</g>
<g>
</g>
<g>
</g>
<g>
</g>
<g>
</g>
<g>
</g>
<g>
</g>
<g>
</g>
<g>
</g>
<g>
</g>
<g>
</g>
<g>
</g>
<g>
</g>
<g>
</g>
</svg>
