<?xml version="1.0" encoding="iso-8859-1"?>
<!-- Generator: Adobe Illustrator 19.0.0, SVG Export Plug-In . SVG Version: 6.00 Build 0)  -->
<svg version="1.1" id="Capa_1" xmlns="http://www.w3.org/2000/svg" xmlns:xlink="http://www.w3.org/1999/xlink" x="0px" y="0px"
	 viewBox="0 0 512 512" style="enable-background:new 0 0 512 512;" xml:space="preserve">
<path style="fill:#FFB655;" d="M458.772,238.621l-35.528,26.13l-36.893,27.133L106.858,497.451
	c-23.742,17.463-57.255,0.512-57.255-28.968V16.463c0-4.915,4.022-8.937,8.937-8.937h0.05c168.695,0,317.027,87.206,402.358,218.988
	C463.536,230.506,462.594,235.812,458.772,238.621z"/>
<path style="fill:#FFA733;" d="M460.949,226.514C379.626,100.922,241.082,15.817,82.223,8.1V8.099
	c-2.395-0.116-4.799-0.21-7.204-0.29c-0.599-0.02-1.199-0.036-1.798-0.054c-1.838-0.055-3.677-0.099-5.52-0.133
	c-0.653-0.012-1.306-0.026-1.96-0.035c-2.379-0.035-4.762-0.058-7.15-0.058h-0.05c-4.916,0-8.937,4.022-8.937,8.937v28.788v423.231
	c0,24.485,23.121,40.323,44.556,34.977c-7.292-6.57-12.127-16.24-12.127-27.775V76.849c0-16.175,14.416-28.568,30.403-26.11
	c134.281,20.651,250.182,97.055,323.276,204.843l23.06-16.962C462.594,235.812,463.536,230.506,460.949,226.514z"/>
<path style="fill:#FF9811;" d="M386.352,291.888L106.86,497.451c-23.744,17.463-57.26,0.51-57.26-28.965V110.886
	c0.007-0.007,0.01-0.01,0.017-0.017C190.464,110.292,314.501,182.425,386.352,291.888z"/>
<g>
	<path style="fill:#A5001E;" d="M159.71,189.642c0,21.425-17.363,38.788-38.788,38.788c-5.136,0-10.031-1.003-14.514-2.809
		c-14.223-5.748-24.264-19.69-24.264-35.98c0-21.415,17.363-38.778,38.778-38.778c16.29,0,30.232,10.041,35.98,24.264
		C158.706,179.611,159.71,184.506,159.71,189.642z"/>
	<path style="fill:#A5001E;" d="M234.488,312.978c-3.13,24.505-25.538,41.838-50.043,38.708c-4.765-0.612-9.248-1.946-13.371-3.882
		c-17.102-8.024-27.865-26.411-25.347-46.161c3.13-24.505,25.538-41.838,50.043-38.708c15.748,2.016,28.527,11.966,34.816,25.337
		C234.107,295.715,235.611,304.211,234.488,312.978z"/>
	<path style="fill:#A5001E;" d="M146.108,419.533c-6.69,13.16-21.596,19.399-35.298,15.638c-1.976-0.532-3.932-1.284-5.828-2.247
		c-15.056-7.663-21.054-26.08-13.391-41.135c7.663-15.046,26.08-21.044,41.135-13.381c8.004,4.072,13.441,11.184,15.628,19.209
		C150.291,404.688,149.699,412.481,146.108,419.533z"/>
	<path style="fill:#A5001E;" d="M331.785,295.334c-6.139,14.123-21.656,21.275-36.09,17.313c-1.394-0.381-2.778-0.863-4.143-1.454
		c-15.497-6.731-22.599-24.746-15.868-40.233c6.731-15.497,24.745-22.599,40.243-15.868c8.837,3.842,14.946,11.365,17.303,19.991
		C335.014,281.572,334.673,288.684,331.785,295.334z"/>
</g>
<g>
	<path style="fill:#C70024;" d="M159.71,189.642c0,21.425-17.363,38.788-38.788,38.788c-5.136,0-10.031-1.003-14.514-2.809
		c-1.806-4.484-2.809-9.379-2.809-14.514c0-21.425,17.363-38.788,38.788-38.788c5.136,0,10.031,1.003,14.514,2.809
		C158.706,179.611,159.71,184.506,159.71,189.642z"/>
	<path style="fill:#C70024;" d="M234.488,312.978c-3.13,24.505-25.538,41.838-50.043,38.708c-4.765-0.612-9.248-1.946-13.371-3.882
		c-3.511-7.443-5.015-15.939-3.892-24.705c3.13-24.505,25.538-41.838,50.053-38.708c4.755,0.612,9.238,1.946,13.351,3.882
		C234.107,295.715,235.611,304.211,234.488,312.978z"/>
	<path style="fill:#C70024;" d="M146.108,419.533c-6.69,13.16-21.596,19.399-35.298,15.638c-1.936-7.072-1.344-14.865,2.237-21.917
		c6.7-13.16,21.606-19.399,35.308-15.638C150.291,404.688,149.699,412.481,146.108,419.533z"/>
	<path style="fill:#C70024;" d="M331.785,295.334c-6.139,14.123-21.656,21.275-36.09,17.313c-1.785-6.48-1.444-13.591,1.444-20.232
		c6.139-14.133,21.656-21.275,36.09-17.333C335.014,281.572,334.673,288.684,331.785,295.334z"/>
</g>
<path style="fill:#EE8700;" d="M94.16,503.459c-21.435,5.346-44.556-10.492-44.556-34.977V110.881l0.01-0.01
	c10.913-0.04,21.726,0.351,32.419,1.164v363.649C82.033,487.219,86.867,496.89,94.16,503.459z"/>
<g>
	<circle style="fill:#FFA5B5;" cx="127.951" cy="177.11" r="8.359"/>
	<circle style="fill:#FFA5B5;" cx="107.217" cy="196.499" r="8.359"/>
	<circle style="fill:#FFA5B5;" cx="131.963" cy="207.202" r="8.359"/>
	<circle style="fill:#FFA5B5;" cx="197.493" cy="286.103" r="8.359"/>
	<circle style="fill:#FFA5B5;" cx="170.079" cy="313.526" r="8.359"/>
	<circle style="fill:#FFA5B5;" cx="203.511" cy="323.557" r="8.359"/>
	<circle style="fill:#FFA5B5;" cx="121.28" cy="390.903" r="5.16"/>
	<circle style="fill:#FFA5B5;" cx="104.349" cy="407.824" r="5.16"/>
	<circle style="fill:#FFA5B5;" cx="124.992" cy="414.023" r="5.16"/>
	<circle style="fill:#FFA5B5;" cx="301.53" cy="270.917" r="5.16"/>
	<circle style="fill:#FFA5B5;" cx="295.793" cy="291.309" r="5.16"/>
	<circle style="fill:#FFA5B5;" cx="318.532" cy="291.309" r="5.16"/>
</g>
<path style="fill:#CD2A00;" d="M423.244,264.751l-36.893,27.133C314.502,182.43,190.463,110.289,49.614,110.871l-0.01,0.01V68.683
	C202.951,73.036,338.304,149.208,423.244,264.751z"/>
<path style="fill:#AB2300;" d="M49.604,68.683c10.903,0.311,22.45,1.076,33.163,2.099l-0.734,41.253
	c-10.693-0.812-21.506-1.204-32.419-1.164l-0.01,0.01V68.683z"/>
<path d="M467.269,222.428L467.269,222.428C423.948,155.528,364.27,99.717,294.686,61.026C222.884,21.102,141.243,0,58.54,0
	c-9.078,0-16.462,7.385-16.462,16.462v94.424v357.599c0,16.488,9.14,31.356,23.853,38.798C71.965,510.336,78.667,512,85.592,512
	c9.073,0,18.08-2.865,25.725-8.488l279.491-205.563c0.005-0.004,0.009-0.008,0.014-0.011l72.405-53.253
	C470.236,239.529,472.011,229.752,467.269,222.428z M102.404,491.391c-18.788,13.819-45.28,0.469-45.28-22.906V118.43
	c128.283,1.876,246.577,65.536,318.973,171.661L102.404,491.391z M454.312,232.564l-66.096,48.612
	C312.984,171.187,190.236,105.264,57.124,103.388V16.462c0-0.768,0.648-1.416,1.465-1.416c160.589,0,308.646,80.583,396.05,215.559
	C455.063,231.259,454.918,232.118,454.312,232.564z"/>
<path d="M120.925,235.954c25.535,0,46.308-20.773,46.308-46.308c0-26.504-22.36-47.788-49.035-46.228
	c-4.148,0.241-7.314,3.8-7.074,7.947c0.241,4.149,3.808,7.327,7.947,7.074c18.247-1.049,33.115,13.519,33.115,31.207
	c0,17.239-14.024,31.262-31.262,31.262c-27.114,0-41.236-32.325-23.169-52.25c2.791-3.078,2.558-7.837-0.521-10.627
	s-7.837-2.556-10.626,0.521C59.804,188.119,80.843,235.954,120.925,235.954z"/>
<path d="M190.051,255.045c-28.522,0-52.21,23.226-52.21,52.323c0,40.797,45.037,65.759,79.634,44.468
	c3.539-2.178,4.641-6.812,2.465-10.35c-2.178-3.537-6.81-4.641-10.35-2.465c-26.272,16.168-60.388-5.216-56.398-36.423
	c2.574-20.154,21.043-34.828,41.63-32.202c23.392,2.987,38.452,26.968,30.285,49.594c-1.411,3.908,0.613,8.219,4.521,9.631
	c3.908,1.411,8.22-0.613,9.63-4.522C251.598,290.923,226.144,255.045,190.051,255.045z"/>
<path d="M118.877,367.549c-20.203,0-36.272,15.472-37.989,34.718c-0.369,4.139,2.686,7.793,6.825,8.162
	c4.131,0.357,7.793-2.687,8.162-6.826c1.436-16.095,18.757-25.965,33.438-18.493c11.471,5.837,15.829,19.738,10.094,31.014
	c-6.731,13.225-23.719,16.572-35.002,7.524c-3.242-2.599-7.976-2.077-10.575,1.166c-2.598,3.242-2.076,7.976,1.166,10.575
	c18.726,15.003,46.758,9.297,57.821-12.441c2.715-5.337,4.151-11.305,4.151-17.26C156.967,384.39,139.703,367.549,118.877,367.549z"
	/>
<path d="M297.085,252.35c-0.116,4.154,3.156,7.615,7.308,7.732c16.145,0.452,27.043,17.163,20.495,32.25
	c-5.034,11.587-18.553,17.082-30.342,11.962c-13.323-5.788-18.147-22.42-9.639-34.48c2.395-3.395,1.586-8.089-1.81-10.484
	c-3.396-2.394-8.089-1.584-10.484,1.809c-13.974,19.805-6.176,47.348,15.939,56.955c25.26,10.971,53.3-7.69,53.3-34.937
	c0-20.899-16.72-37.544-37.034-38.116C300.634,244.927,297.202,248.197,297.085,252.35z"/>
<g>
</g>
<g>
</g>
<g>
</g>
<g>
</g>
<g>
</g>
<g>
</g>
<g>
</g>
<g>
</g>
<g>
</g>
<g>
</g>
<g>
</g>
<g>
</g>
<g>
</g>
<g>
</g>
<g>
</g>
</svg>
