<?xml version="1.0" encoding="iso-8859-1"?>
<!-- Generator: Adobe Illustrator 19.0.0, SVG Export Plug-In . SVG Version: 6.00 Build 0)  -->
<svg version="1.1" id="Capa_1" xmlns="http://www.w3.org/2000/svg" xmlns:xlink="http://www.w3.org/1999/xlink" x="0px" y="0px"
	 viewBox="0 0 512 512" style="enable-background:new 0 0 512 512;" xml:space="preserve">
<path style="fill:#A78966;" d="M435.225,399.564v0.01c-17.782,40.02-52.475,74.257-98.824,92.222
	c-107.123,41.518-219.855-23.526-223.349-128.404c-4.21-120.868-49.306-149.692-49.306-215.076c0-35.23,12.992-69.194,35.989-94.976
	c69.225-77.573,196.408-52.097,234.438,46.005c10.853,23.458,22.827,79.208,80.667,147.056
	C450.37,288.165,458.888,346.303,435.225,399.564z"/>
<path style="fill:#B39A7C;" d="M435.225,399.564v0.01c-18.795,22.369-43.888,40.779-73.842,52.394
	c-108.087,41.892-219.881-24.391-223.349-128.404c-4.236-121.629-49.306-149.748-49.306-215.076
	c0-19.129,3.828-37.873,11.007-55.149c14.025-15.716,31.777-28.384,52.566-36.445c34.997-13.569,72.414-11.666,104.849,2.359
	c4.648,2.005,9.195,4.253,13.61,6.754c27.919,15.747,50.885,41.022,63.412,73.336l14.916,38.47
	c26.275,67.783,64.198,104.575,75.462,121.396c5.686,8.411,10.618,17.824,14.461,27.716
	C453.443,324.152,450.972,364.121,435.225,399.564z"/>
<path d="M153.872,24.429c33.783-12.989,68.004-11.894,99.351,1.428v0.01c-3.534,5.468-9.073,13.073-16.688,20.749
	c-4.785,4.801-1.308,12.942,5.387,12.942c1.954,0,3.899-0.749,5.387-2.238c9.215-9.276,15.686-18.41,19.625-24.698
	c26.835,15.2,48.546,39.493,60.161,69.468l14.906,38.47c26.941,69.498,65.524,106.538,77.073,124.11
	c-4.84,4.699-12.071,11.433-20.891,18.785c-3.22,2.684-3.656,7.473-0.972,10.694c2.695,3.218,7.46,3.664,10.704,0.972
	c7.635-6.359,14.096-12.243,18.957-16.871c6.16,12.286,10.487,25.768,12.597,39.736c0.591,3.927,4.183,6.966,8.638,6.38
	c4.152-0.628,7.008-4.496,6.38-8.648c-11.076-73.453-59.55-80.658-98.318-180.646L341.252,96.6
	c-30.381-78.388-118.5-116.431-193-86.277c-3.899,1.549-5.802,5.975-4.243,9.863C145.557,24.085,149.973,25.989,153.872,24.429z"/>
<path d="M106.195,268.132c-8.246-29.23-18.508-50.598-26.643-73.275c13.063,1.986,23.57,1.877,24.273,1.914
	c4.152,0,7.544-3.352,7.585-7.514c0.051-4.202-3.321-7.635-7.514-7.676c-9.566-0.098-19.785-1.067-29.144-3.038
	c-12.033-52.305,8.016-109.109,53.863-140.626c3.463-2.37,4.334-7.099,1.965-10.562c-2.38-3.453-7.109-4.334-10.562-1.954
	c-56.207,38.633-78.899,112.387-53.579,177.73c12.376,32.733,18.394,45.232,25.134,69.123c0.952,3.352,4,5.539,7.311,5.539
	C103.882,277.793,107.578,272.999,106.195,268.132z"/>
<path d="M237.952,493.78c-14.015-2.714-27.25-7.17-39.443-13.144c18.319-2.896,41.437-7.747,64.566-15.838
	c3.959-1.387,6.046-5.711,4.658-9.671s-5.711-6.046-9.681-4.668c-25.431,8.906-54.293,14.707-80.546,17.63
	c-32.233-23.064-52.402-57.619-56.253-95.928c7.089-0.537,17.944-1.904,31.048-5.337c4.061-1.063,6.481-5.215,5.418-9.276
	s-5.215-6.481-9.266-5.418c-11.969,3.129-21.731,4.375-28.081,4.871c-0.952-20.05-3.301-39.777-6.997-58.713
	c-0.81-4.121-4.8-6.805-8.911-6.005c-4.121,0.8-6.805,4.79-6.005,8.911c3.818,19.534,6.147,39.949,6.927,60.688
	c0.895,17.285,2.788,31.804,10.035,50.48c19.275,49.72,64.172,85.605,119.644,96.323c3.947,0.822,8.089-1.791,8.901-6.015
	C244.767,498.56,242.072,494.57,237.952,493.78z"/>
<path d="M448.744,339.565c-4.192-0.263-7.787,2.916-8.061,7.099c-5.441,85.939-86.719,151.895-173.871,150.115h-0.142
	c-4.132,0-7.514,3.311-7.585,7.463c-0.071,4.192,3.261,7.656,7.453,7.727c95.604,1.788,183.357-70.461,189.304-164.342
	C456.115,343.433,452.936,339.828,448.744,339.565z"/>
<path d="M126.581,188.093c0.608,3.727,3.828,6.38,7.483,6.38c2.358,0,20.622-3.179,39.817-10.714
	c3.909-1.529,5.833-5.934,4.304-9.843c-1.539-3.909-5.944-5.823-9.853-4.294c-11.494,4.506-23.423,7.787-35.473,9.752
	C128.717,180.053,125.902,183.951,126.581,188.093z"/>
<path d="M224.614,66.808c-2.137-3.605-6.795-4.79-10.41-2.653c-6.38,3.797-13.114,6.845-20.01,9.063
	c-3.99,1.296-6.187,5.57-4.901,9.57c1.043,3.21,4.02,5.256,7.23,5.256c0.77,0,1.559-0.111,2.329-0.365
	c7.98-2.572,15.747-6.096,23.109-10.461C225.566,75.071,226.761,70.413,224.614,66.808z"/>
<path d="M374.558,301.438c-11.21,7.706-22.035,13.904-32.172,18.44c-3.828,1.711-5.539,6.197-3.828,10.025
	c1.256,2.825,4.03,4.506,6.937,4.506c1.033,0,2.086-0.213,3.089-0.668c10.977-4.901,22.612-11.564,34.582-19.787
	c3.453-2.37,4.334-7.099,1.954-10.562C382.74,299.94,378.011,299.059,374.558,301.438z"/>
<path d="M298.822,205.936c-2.37-3.463-7.099-4.354-10.552-1.975c-28.668,19.625-51.939,29.731-52.323,29.903
	c-3.858,1.651-5.651,6.116-3.99,9.964c1.235,2.886,4.03,4.608,6.977,4.608c1.003,0,2.015-0.192,2.987-0.618
	c1.003-0.425,24.85-10.734,54.926-31.331C300.31,214.118,301.191,209.389,298.822,205.936z"/>
<path d="M329.758,181.217c-2.724-3.19-7.524-3.554-10.704-0.82c-2.258,1.934-4.587,3.878-6.926,5.772
	c-3.261,2.643-3.757,7.423-1.104,10.683c1.499,1.853,3.686,2.805,5.894,2.805c3.438,0,4.932-1.652,12.02-7.737
	C332.128,189.197,332.492,184.397,329.758,181.217z"/>
<path d="M203.39,327.646c-8.739,5.701-17.964,10.704-27.412,14.866c-3.848,1.691-5.59,6.177-3.899,10.015
	c1.256,2.846,4.04,4.537,6.957,4.537c1.023,0,2.056-0.203,3.058-0.648c10.207-4.496,20.172-9.894,29.6-16.05
	c3.514-2.299,4.496-6.997,2.208-10.511C211.603,326.339,206.904,325.357,203.39,327.646z"/>
<path d="M291.997,452.697c14.288-7.139,26.622-15.342,36.648-24.395c3.109-2.815,3.362-7.615,0.547-10.734
	c-2.815-3.109-7.615-3.352-10.724-0.547c-9.002,8.132-20.192,15.564-33.255,22.086c-3.757,1.873-5.276,6.43-3.402,10.187
	C283.688,453.068,288.269,454.561,291.997,452.697z"/>
<g>
</g>
<g>
</g>
<g>
</g>
<g>
</g>
<g>
</g>
<g>
</g>
<g>
</g>
<g>
</g>
<g>
</g>
<g>
</g>
<g>
</g>
<g>
</g>
<g>
</g>
<g>
</g>
<g>
</g>
</svg>
