<?xml version="1.0" encoding="iso-8859-1"?>
<!-- Generator: Adobe Illustrator 19.0.0, SVG Export Plug-In . SVG Version: 6.00 Build 0)  -->
<svg version="1.1" id="Capa_1" xmlns="http://www.w3.org/2000/svg" xmlns:xlink="http://www.w3.org/1999/xlink" x="0px" y="0px"
	 viewBox="0 0 512.001 512.001" style="enable-background:new 0 0 512.001 512.001;" xml:space="preserve">
<path style="fill:#79AB03;" d="M253.716,504.446h86.629c5.825,0,11.641-0.745,17.227-2.397
	c65.386-19.328,108.224-108.469,96.632-194.359l0,0c-5.785-42.859-26.832-78.409-54.829-98.9
	c-32.226-23.586-54.337-64.552-60.549-110.582l0,0c-7.421-54.984-44.987-91.324-90.606-90.293l-18.966-0.308h-6.108"/>
<path style="fill:#85BB04;" d="M393.942,339.04c0,90.988-58.81,165.441-130.696,165.441h-76.679
	c-35.938,0-68.607-18.611-92.302-48.603C70.58,425.897,55.88,384.534,55.88,339.04c0-43.208,16.054-81.903,40.992-106.982
	c14.349-14.439,25.62-32.709,33.301-53.175c7.691-20.466,11.782-43.118,11.782-66.321c0-57.757,37.332-105.006,82.956-105.006
	c8.082,0,15.913,1.484,23.314,4.252c13.487,5.034,25.57,14.309,35.276,26.593c15.031,19.032,24.366,45.283,24.366,74.162
	c0,46.407,16.385,90.617,45.083,119.496c12.474,12.534,22.722,28.478,29.851,46.687C389.931,296.956,393.942,317.431,393.942,339.04
	z"/>
<path style="fill:#91CC04;" d="M393.942,339.04c0,90.988-58.81,165.441-130.696,165.441h-30.052
	c-35.948,0-68.617-18.611-92.302-48.603c-23.695-29.982-38.395-71.345-38.395-116.839c0-43.208,16.064-81.903,40.992-106.982
	c14.349-14.439,25.62-32.709,33.311-53.175c7.681-20.466,11.782-43.118,11.782-66.321c0-47.53,25.269-87.94,59.643-100.755
	c13.487,5.034,25.57,14.309,35.276,26.593c15.031,19.032,24.366,45.283,24.366,74.162c0,46.407,16.385,90.617,45.083,119.496
	c12.474,12.534,22.722,28.478,29.851,46.687C389.931,296.956,393.942,317.431,393.942,339.04z"/>
<path style="fill:#884D00;" d="M326.007,344.736c0,47.159-33.15,86.576-77.411,96.222c-6.778,1.474-13.828,2.256-21.057,2.256
	c-54.388,0-98.479-44.09-98.479-98.478s44.09-98.479,98.479-98.479c7.23,0,14.279,0.782,21.057,2.256
	C292.856,258.16,326.007,297.577,326.007,344.736z"/>
<path style="fill:#AA6100;" d="M326.007,344.736c0,47.159-33.15,86.576-77.411,96.222c-44.271-9.646-77.421-49.064-77.421-96.222
	s33.15-86.576,77.421-96.222C292.856,258.16,326.007,297.577,326.007,344.736z"/>
<path d="M454.953,359.589c-4.111-0.586-7.92,2.268-8.509,6.38c-9.101,63.681-45.674,115.469-91.004,128.868
	c-4.688,1.385-9.767,2.088-15.096,2.088h-20.771c1.889-1.064,3.77-2.167,5.632-3.342c3.512-2.217,4.561-6.862,2.344-10.374
	c-2.217-3.514-6.863-4.56-10.374-2.345c-16.347,10.32-33.84,15.708-52.021,16.062h-11.44c-0.23,0-0.455,0.014-0.679,0.034h-66.467
	c-55.61,0-104.549-48.25-119.011-117.334c-0.851-4.066-4.835-6.667-8.902-5.82c-4.065,0.851-6.67,4.836-5.82,8.901
	c15.937,76.126,70.929,129.294,133.733,129.294c16.33-0.004,139.942-0.031,153.775-0.034c6.773,0,13.286-0.909,19.36-2.704
	c25.854-7.643,49.228-25.603,67.595-51.941c17.513-25.112,29.282-55.966,34.035-89.223
	C461.921,363.985,459.065,360.177,454.953,359.589z"/>
<path d="M330.852,95.705c0.336,2.076,6.368,76.916,64.081,119.155c27.61,20.208,46.497,54.41,51.818,93.837
	c2.017,14.96,1.814,28.061,1.821,28.312c-0.024,4.167,3.346,7.565,7.522,7.565c4.132,0,7.495-3.338,7.52-7.476
	c0.191-67.288-28.626-111.561-59.797-134.376c-51.874-37.967-57.796-107.443-58.117-109.423c-0.664-4.099-4.52-6.883-8.628-6.22
	C332.973,87.743,330.187,91.606,330.852,95.705z"/>
<path d="M63.748,350.932c-2.494-42.057,9.457-84.403,38.455-113.576c30.042-30.223,47.273-75.707,47.273-124.79
	c0-22.003,5.93-43.628,16.699-60.892c2.198-3.524,1.123-8.163-2.401-10.361c-3.526-2.199-8.163-1.124-10.361,2.401
	c-12.416,19.903-18.979,43.712-18.979,68.853c0,44.475-16.037,87.162-42.899,114.186C59.55,258.93,45.989,305.408,48.732,351.819
	c0.237,3.996,3.55,7.077,7.5,7.077C60.576,358.897,64.001,355.245,63.748,350.932z"/>
<path d="M184.136,30.727c30.293-25.41,68.845-18.821,93.458,12.337c14.671,18.571,22.75,43.254,22.75,69.503
	c0,49.082,17.231,94.566,47.273,124.789c57.295,57.64,48.36,168.325-8.432,225.71c-2.921,2.952-2.897,7.714,0.056,10.635
	c1.466,1.451,3.377,2.175,5.289,2.175c1.937,0,3.875-0.745,5.346-2.231c62.274-62.927,71.867-183.052,8.409-246.894
	c-26.862-27.024-42.899-69.71-42.899-114.186c0-38.076-15.286-71.79-38.621-92.162c20.067,7.845,36.588,24.636,46.426,48.125
	c1.207,2.882,3.999,4.617,6.94,4.617c0.969,0,1.953-0.189,2.903-0.586c3.83-1.604,5.635-6.011,4.032-9.842
	c-7.881-18.819-19.978-34.519-34.982-45.402C286.283,5.855,267.62-0.003,248.204,0.393c-24.298-0.394-46.897-3.699-73.731,18.809
	c-3.182,2.669-3.598,7.413-0.929,10.595C176.21,32.979,180.951,33.396,184.136,30.727z"/>
<path d="M132.409,318.084c-4.08-0.811-8.033,1.839-8.84,5.913c-13.024,65.622,37.3,126.734,103.966,126.734
	c58.445,0,105.995-47.549,105.995-105.995s-47.55-105.995-105.995-105.995c-38.654,0-74.257,21.055-92.914,54.948
	c-2.002,3.638-0.677,8.211,2.961,10.215c3.641,2.003,8.212,0.678,10.216-2.962c16.014-29.089,46.567-47.161,79.738-47.161
	c50.153,0,90.954,40.801,90.954,90.954s-40.801,90.954-90.954,90.954c-56.949,0-100.438-52.194-89.213-108.766
	C139.13,322.85,136.483,318.892,132.409,318.084z"/>
<g>
</g>
<g>
</g>
<g>
</g>
<g>
</g>
<g>
</g>
<g>
</g>
<g>
</g>
<g>
</g>
<g>
</g>
<g>
</g>
<g>
</g>
<g>
</g>
<g>
</g>
<g>
</g>
<g>
</g>
</svg>
