<?xml version="1.0" encoding="iso-8859-1"?>
<!-- Generator: Adobe Illustrator 19.0.0, SVG Export Plug-In . SVG Version: 6.00 Build 0)  -->
<svg version="1.1" id="Capa_1" xmlns="http://www.w3.org/2000/svg" xmlns:xlink="http://www.w3.org/1999/xlink" x="0px" y="0px"
	 viewBox="0 0 512 512" style="enable-background:new 0 0 512 512;" xml:space="preserve">
<path style="fill:#5EAC24;" d="M339.469,25.194c-0.14,0.271-0.321,0.541-0.501,0.812c-21.144,30.387-81.407,96.736-224.43,87.472
	c-6.005-0.381-12.161-0.912-18.467-1.574c0,0,1.694-3.288,5.293-8.702c18.236-27.42,85.517-109.388,230.084-93.708
	c1.414,0.15,2.697,0.561,3.84,1.173C340.332,13.364,342.507,19.921,339.469,25.194z"/>
<path style="fill:#A5001E;" d="M429.588,461.021c-12.391,18.988-30.367,32.142-50.348,38.708
	c-26.758,8.792-57.125,5.795-82.54-10.797c-44.403-28.994-56.894-88.485-27.911-132.887c24.332-37.265,70.148-52.052,110.501-38.708
	c7.73,2.556,15.259,6.146,22.387,10.797C446.08,357.127,458.572,416.618,429.588,461.021z"/>
<g>
	<path style="fill:#C70024;" d="M429.588,461.021c-12.391,18.988-30.367,32.142-50.348,38.708
		c-7.73-2.556-15.259-6.146-22.387-10.797c-44.403-28.994-56.894-88.485-27.911-132.887c12.391-18.988,30.367-32.142,50.348-38.708
		c7.73,2.556,15.259,6.146,22.387,10.797C446.08,357.127,458.572,416.618,429.588,461.021z"/>
	<path style="fill:#C70024;" d="M277.953,444.178c-2.717,4.301-5.815,8.451-9.294,12.391c-35.109,39.741-95.783,43.5-135.524,8.391
		c-39.751-35.109-43.5-95.783-8.401-135.524c6.216-7.028,13.224-12.943,20.783-17.685c35.139-22.166,82.028-19.6,114.741,9.294
		C296.059,352.665,302.656,405.038,277.953,444.178z"/>
</g>
<path style="fill:#FF0C38;" d="M277.953,444.178c-35.139,22.166-82.028,19.6-114.741-9.294
	c-35.811-31.63-42.408-84.003-17.695-123.133c35.139-22.166,82.028-19.6,114.741,9.294
	C296.059,352.665,302.656,405.038,277.953,444.178z"/>
<path d="M452.667,405.068c-0.14-4.151-3.639-7.389-7.77-7.258c-4.151,0.14-7.399,3.629-7.258,7.78
	c1.899,47.501-35.636,89.444-85.076,91.382c-4.141,0.16-7.379,3.659-7.218,7.81c0.16,4.05,3.499,7.218,7.509,7.218
	c0.105-0.031,52.193,0.351,83.031-46.869C447.236,447.737,453.411,427.025,452.667,405.068z"/>
<path d="M325.163,493.734c-19.607-5.553-36.973-17.83-48.704-34.738c26.916-32.503,31.211-77.74,11.67-114.531
	c46.462-44.41,122.844-25.54,144.296,33.996c1.428,3.97,5.811,5.929,9.624,4.522c3.9-1.404,5.925-5.715,4.521-9.614
	c-7.68-21.304-21.775-39.119-40.784-51.531c-25.939-16.919-49.207-16.077-53.495-16.803c-19.865-36.912-46.656-70.693-79.726-100.45
	c-38.749-34.866-83.946-62.354-130.372-82.713c12.83-0.036,25.417-0.708,37.424-2.009c4.128-0.447,7.113-4.158,6.666-8.285
	c-0.447-4.129-4.159-7.105-8.285-6.666c-11.811,1.279-24.222,1.929-36.889,1.929c-4.233,0-8.544-0.091-12.894-0.236
	c45.337-22.214,141.86-67.221,198.862-77.156c-20.669,26.409-57.382,57.531-120.157,70.872c-4.062,0.863-6.655,4.855-5.792,8.918
	s4.855,6.654,8.918,5.792c73.839-15.692,114.219-54.735,135.09-84.725c2.123-3.051,3.245-6.605,3.245-10.279
	c0-9.27-6.933-17.01-16.124-18.007C319.91,0.679,307.655,0,295.836,0c-77.701,0-129.597,29.315-159.451,53.908
	c-24.198,19.935-38.092,39.798-43.852,49.114c-14.371-4.59-23.246-6.621-24.09-6.811c-3.852-0.866-7.713,1.394-8.849,5.172
	c-1.136,3.779,0.842,7.792,4.531,9.193c56.152,21.337,93.782,58.672,111.847,110.968c10.57,30.596,11.021,57.707,10.684,68.413
	c-15.568,1.505-30.614,6.517-43.976,14.686c-3.539,2.165-4.652,6.797-2.486,10.336c2.166,3.549,6.797,4.662,10.336,2.496
	c32.5-19.905,75.138-16.949,104.756,9.203c61.318,54.11,22.163,154.813-58.629,154.813c-75.009,0-116.383-88.705-67.14-146.101
	c2.707-3.148,2.346-7.9-0.802-10.607c-3.158-2.697-7.9-2.336-10.607,0.812c-57.88,67.436-8.943,170.934,78.549,170.934
	c25.675,0,50.298-9.534,69.196-26.497c13.773,18.624,33.436,32.026,55.22,38.167c4.111,1.149,8.173-1.282,9.284-5.193
	C331.479,499.017,329.153,494.856,325.163,493.734z M318.129,15.849C255.553,28.723,157.892,75.046,116.16,95.735
	C158.92,41.979,228.405,9.477,318.129,15.849z M279.988,331.502c-31.011-41.999-78.154-41.857-78.256-41.906
	c0.355-12.377-0.386-40.318-11.336-72.346c-11.305-33.067-30.083-60.414-54.459-81.678c82.199,35.919,155.916,93.17,199.643,170.31
	C314.749,308.633,295.421,317.602,279.988,331.502z"/>
<g>
</g>
<g>
</g>
<g>
</g>
<g>
</g>
<g>
</g>
<g>
</g>
<g>
</g>
<g>
</g>
<g>
</g>
<g>
</g>
<g>
</g>
<g>
</g>
<g>
</g>
<g>
</g>
<g>
</g>
</svg>
