<?xml version="1.0" encoding="iso-8859-1"?>
<!-- Generator: Adobe Illustrator 19.0.0, SVG Export Plug-In . SVG Version: 6.00 Build 0)  -->
<svg version="1.1" id="Capa_1" xmlns="http://www.w3.org/2000/svg" xmlns:xlink="http://www.w3.org/1999/xlink" x="0px" y="0px"
	 viewBox="0 0 512 512" style="enable-background:new 0 0 512 512;" xml:space="preserve">
<path style="fill:#FFEB99;" d="M452.144,474.336c-21.016,5.951-67.232-7.045-67.232-7.045
	C278.61,431.793,217.369,372.65,182.423,312.092c-48.485-84.022-46.347-170.805-43.737-201.044
	c1.897-22.059,10.949-45.464,22.702-64.181c7.427-11.833,17.332-22.832,30.399-28.422c2.439-1.044,4.968-1.887,7.547-2.509
	c8.982-2.168,17.864-0.863,25.181,2.83c10.357,5.219,17.563,15.225,17.443,26.937c-0.733,74.408,22.451,143.125,53.513,201.566
	c52.499,98.725,127.509,168.075,147.782,185.799c5.56,4.857,10.387,10.367,14.111,16.459
	C466.446,464.381,462.15,471.506,452.144,474.336z"/>
<path style="fill:#FFF5CC;" d="M452.144,474.336c-17.583-2.489-33.782-7.045-33.782-7.045
	C312.06,431.793,250.82,372.65,215.874,312.092c-48.485-84.022-46.347-170.805-43.737-201.044
	c1.897-22.059,10.949-45.464,22.702-64.181c7.286-11.612,16.961-22.421,29.677-28.101c10.357,5.219,17.563,15.225,17.443,26.937
	c-0.733,74.408,22.451,143.125,53.513,201.566c52.499,98.725,127.509,168.075,147.782,185.799
	c5.56,4.857,10.387,10.367,14.111,16.459C466.446,464.381,462.15,471.506,452.144,474.336z"/>
<path style="fill:#AA6100;" d="M476.625,495.39l-49.535-24.456c-5.939-2.933-8.4-10.191-5.468-16.13l3.78-7.656
	c2.933-5.939,10.191-8.4,16.13-5.468l49.535,24.456c8.045,3.971,11.377,13.803,7.406,21.848l0,0
	C494.502,496.028,484.67,499.361,476.625,495.39z"/>
<path style="fill:#FFD422;" d="M384.912,467.291C278.61,431.793,217.369,372.65,182.423,312.092
	c17.272-6.604,35.779-10.377,54.878-10.899c5.322-0.149,9.607-0.016,12.566,0.153c1.669,0.095,3.306,0.442,4.874,1.023l1.151,0.428
	c0,0,1.091-7.123,6.641-16.296c9.033-14.934,20.193-28.101,32.939-39.231c52.499,98.725,127.509,168.075,147.782,185.799
	c5.56,4.857,10.387,10.367,14.111,16.459C485.545,495.603,384.912,467.291,384.912,467.291z"/>
<path style="fill:#FFDE55;" d="M463.565,206.472l-43.226-0.301c-63.539-5.108-123.424,26.867-156.423,81.403
	c-0.994,1.636-1.887,3.171-2.69,4.597c-3.663,6.544-5.339,10.628-5.339,10.628c-5.891-16.72-10.197-48.535-10.197-48.535
	c-2.9-62.395,36.702-119.309,96.578-137.104c67.473-20.042,120.905,17.633,138.137,32.025c0,0,21.899,18.607,23.916,34.625
	C505.757,195.192,497.166,205.278,463.565,206.472z"/>
<path style="fill:#FFE477;" d="M463.565,206.472l-43.226-0.301c-63.539-5.108-123.424,26.867-156.423,81.403
	c-0.994,1.636-1.887,3.171-2.69,4.597c-1.365-7.989-2.148-13.82-2.148-13.82c-2.9-62.395,36.692-119.309,96.568-137.104
	c67.483-20.042,120.915,17.633,138.137,32.025c0,0,5.058,4.295,10.538,10.538C505.757,195.192,497.166,205.278,463.565,206.472z"/>
<path style="fill:#EEBF00;" d="M418.363,467.291c0,0,16.198,4.556,33.782,7.045c-21.016,5.951-67.232-7.045-67.232-7.045
	C278.61,431.793,217.369,372.65,182.423,312.092c9.314-3.563,18.978-6.293,28.914-8.139c1.455,2.71,2.971,5.43,4.536,8.139
	C250.82,372.65,312.06,431.793,418.363,467.291z"/>
<path style="fill:#FFDE55;" d="M255.888,302.799c0,0-4.536-0.582-12.304-0.602c-1.515,0-3.151,0.01-4.898,0.06
	c-63.719,1.756-122.24,38.699-149.187,96.457L68.403,436.45c-16.078,26.104-28.322,30.48-37.314,25.833
	c-14.763-7.607-20.805-39.482-20.805-39.482c-4.004-22.09-10.377-87.164,40.385-135.929
	c45.042-43.276,114.101-49.589,166.911-16.238C217.58,270.633,244.266,289.421,255.888,302.799z"/>
<path style="fill:#FFE477;" d="M243.584,302.197c-1.515,0-3.151,0.01-4.898,0.06c-63.719,1.756-122.24,38.699-149.187,96.457
	L68.403,436.45c-16.078,26.104-28.322,30.48-37.314,25.833c-2.81-8.009-4.085-14.733-4.085-14.733
	C23,425.47,16.637,360.396,67.389,311.631c45.052-43.276,114.101-49.589,166.921-16.249
	C234.31,295.382,238.164,298.102,243.584,302.197z"/>
<path d="M494.396,459.383l-31.845-15.717c-3.814-5.811-8.631-11.271-14.342-16.269c-17.854-15.616-90.807-82.637-143.105-178.262
	c28.332-22.852,64.231-35.99,101.596-35.99c8.177,0,12.749,0.552,13.579,0.552c46.14,0.32,43.354,0.31,43.547,0.291
	c21.97-0.783,48.173-5.951,48.173-27.87c0-19.41-23.986-40.345-26.776-42.704c-5.058-4.225-10.598-8.32-16.479-12.144
	c-3.483-2.278-8.149-1.295-10.418,2.188c-2.268,3.483-1.285,8.149,2.198,10.418c6.704,4.376,11.883,8.44,15.004,11.05
	c6.985,5.931,21.417,21.367,21.417,31.192c0,10.448-23.294,12.445-33.491,12.826l-42.794-0.301
	c-65.016-5.077-128.563,25.89-163.589,82.366c-1.472-7.877-4.004-23.9-4.004-33.169c0-90.731,91.347-156.14,182.085-117.523
	c3.834,1.626,8.25-0.161,9.876-3.984c1.626-3.824-0.151-8.25-3.974-9.876c-66.83-28.407-135.813-6.367-173.926,44.299
	c-1.234-3.914-2.399-7.858-3.513-11.833c-1.124-4.004-5.269-6.343-9.273-5.219c-4.004,1.114-6.343,5.269-5.229,9.273
	c2.228,7.979,4.707,15.957,7.437,23.936c-12.174,21.568-18.537,45.785-18.537,70.925c0,9.528,1.856,22.097,3.462,31.503
	c-6.518-5.328-14.079-11.024-19.872-15.084c-18.487-11.662-39.221-18.958-60.749-21.427c-12.947-41.75-15.767-79.526-15.767-104.426
	c0-30.042,2.607-55.589,22.672-87.535c28.605-45.579,66.68-27.874,66.68-5.45c-0.2,25.199,2.062,50.733,7.507,77.75
	c0.813,4.075,4.787,6.714,8.862,5.901c4.075-0.823,6.714-4.797,5.891-8.872c-5.167-25.66-7.398-50.072-7.206-74.779
	c0-37.016-57.354-61.651-94.49-2.559c-21.105,33.615-24.97,61.247-24.97,95.544c0,27.238,2.991,63.77,14.512,103.462
	c-1.634,0.317-54.668-3.094-99.097,39.572C6.099,319.255-6.311,373.713,2.887,424.196c0.913,4.837,9.685,47.24,34.695,47.24
	c12.194,0,24.368-10.157,37.234-31.042c0.06-0.108-0.747,1.334,8.721-15.586c2.027-3.623,0.733-8.21-2.9-10.237
	c-3.623-2.027-8.21-0.733-10.247,2.89l-8.481,15.175c-13.218,21.427-21.417,23.745-24.328,23.745
	c-9.483,0-22.411-25.369-22.411-63.749c0-112.326,113.604-169.026,198.234-115.737c1.345,0.943,11.843,8.41,21.808,16.831
	c-64.951,2.466-122.064,40.56-150.522,97.641c-1.857,3.713-0.341,8.24,3.372,10.086c3.723,1.857,8.24,0.351,10.096-3.372
	c17.483-35.066,46.457-61.863,81.042-76.616c39.924,66.108,102.328,115.426,185.839,146.768c9.581,3.525,14.402-10.671,5.289-14.101
	c-89.211-33.481-143.497-84.986-176.345-138.127c13.9-4.376,28.523-6.885,43.517-7.296c15.638-0.43,18.439,1.937,22.049-1.415
	c0,0,0,0,0.01,0c0.746-0.689,1.514-1.717,1.897-2.7c0-1.047,11.138-24.678,32.035-45.122
	c36.979,66.743,92.005,133.021,144.801,179.255c5.199,4.546,9.454,9.494,12.646,14.723c1.58,2.576,3.874,6.859,3.874,9.876
	c0,4.398-11.507,5.002-15.917,5.038c-0.703-0.068-13.555,0.652-40.807-5.55c-4.055-0.923-8.079,1.616-9.012,5.67
	c-0.923,4.045,1.616,8.079,5.67,9.012c11.07,2.519,26.766,5.49,40.546,5.871c36.4,17.234,39.178,21.226,48.505,21.226
	c12.961,0,23.876-10.475,23.876-23.786C507.674,471.777,502.465,463.367,494.396,459.383z M479.954,488.638l-19.53-9.645
	c7.457-4.125,9.263-10.317,9.434-14.934l17.874,8.832c2.971,1.455,4.888,4.566,4.888,7.919
	C492.62,487.325,485.675,491.474,479.954,488.638z"/>
<g>
</g>
<g>
</g>
<g>
</g>
<g>
</g>
<g>
</g>
<g>
</g>
<g>
</g>
<g>
</g>
<g>
</g>
<g>
</g>
<g>
</g>
<g>
</g>
<g>
</g>
<g>
</g>
<g>
</g>
</svg>
