<?xml version="1.0" encoding="iso-8859-1"?>
<!-- Generator: Adobe Illustrator 19.0.0, SVG Export Plug-In . SVG Version: 6.00 Build 0)  -->
<svg version="1.1" id="Capa_1" xmlns="http://www.w3.org/2000/svg" xmlns:xlink="http://www.w3.org/1999/xlink" x="0px" y="0px"
	 viewBox="0 0 512.002 512.002" style="enable-background:new 0 0 512.002 512.002;" xml:space="preserve">
<path style="fill:#5EAC24;" d="M428.646,375.832c0,70.76-61.605,128.645-136.917,128.645h-80.325
	c-37.651,0-71.883-14.469-96.699-37.791c-24.817-23.312-40.218-55.479-40.218-90.853c0-33.6,16.825-63.691,42.945-83.193
	c15.03-11.22,26.842-25.438,34.883-41.341c8.052-15.923,12.343-33.53,12.343-51.578c0-44.91,39.115-81.659,86.913-81.659
	c6.537,0,12.915,0.692,19.051,1.995c16.284,3.449,30.883,11.24,42.323,21.989c15.752,14.8,25.528,35.214,25.528,57.675
	c0,36.087,17.166,70.469,47.227,92.919c13.065,9.756,23.804,22.149,31.274,36.307C424.444,343.104,428.646,359.027,428.646,375.832z
	"/>
<g>
	<path style="fill:#6DC82A;" d="M428.646,375.832c0,70.76-61.605,128.645-136.917,128.645h-42.223
		c-37.651,0-71.883-14.469-96.699-37.791c-24.816-23.312-40.218-55.479-40.218-90.853c0-33.6,16.825-63.691,42.945-83.193
		c15.03-11.22,26.842-25.438,34.883-41.341c8.052-15.923,12.343-33.53,12.343-51.578c0-38.764,29.138-71.451,67.862-79.663
		c16.284,3.449,30.883,11.24,42.323,21.989c15.752,14.8,25.528,35.214,25.528,57.675c0,36.087,17.166,70.469,47.227,92.919
		c13.065,9.756,23.804,22.149,31.274,36.307C424.444,343.104,428.646,359.027,428.646,375.832z"/>
	<path style="fill:#6DC82A;" d="M434.962,142.336c-0.401,2.527-1.504,4.863-3.148,6.748c-1.825,2.136-4.332,3.7-7.219,4.342
		c-1.023,0.231-2.096,0.341-3.209,0.321c-30.762-0.572-97.12-11.832-123.772-94.523c-0.531-1.654-0.732-3.319-0.622-4.923
		c0.08-1.384,0.381-2.727,0.872-3.991c1.514-3.88,4.793-6.989,8.994-8.162c1.013-0.291,2.086-0.461,3.199-0.501
		c33.239-1.233,105.653,6.698,124.764,95.676C435.193,139.038,435.223,140.732,434.962,142.336z"/>
</g>
<path style="fill:#5EAC24;" d="M431.814,149.084c-1.825,2.136-4.332,3.7-7.219,4.342c-1.023,0.231-2.096,0.341-3.209,0.321
	c-30.762-0.572-97.12-11.832-123.772-94.523c-0.531-1.654-0.732-3.319-0.622-4.923c0.08-1.384,0.381-2.727,0.872-3.991
	C319.513,58.051,370.038,81.854,431.814,149.084z"/>
<path d="M427.011,397.048c-4.039-0.981-8.103,1.493-9.084,5.53c-13.307,54.69-66.378,94.384-126.194,94.384h-80.331
	c-21.894,0-43.567-5.279-62.676-15.267c-3.68-1.922-8.224-0.499-10.148,3.182c-1.923,3.681-0.499,8.224,3.182,10.148
	c21.25,11.107,45.332,16.978,69.643,16.978h80.331c32.722,0,64.833-10.713,90.418-30.165c25.297-19.234,43.193-46.119,50.39-75.704
	C433.524,402.097,431.048,398.031,427.011,397.048z"/>
<path d="M121.929,298.662c31.937-23.849,50.254-59.912,50.254-98.941c0-4.188,0.382-8.389,1.134-12.485
	c0.751-4.085-1.953-8.004-6.037-8.754c-4.083-0.752-8.004,1.952-8.754,6.037c-0.916,4.99-1.382,10.105-1.382,15.203
	c0,34.238-16.114,65.909-44.211,86.891c-29.211,21.812-45.964,54.332-45.964,89.218c0,38.651,17.674,75.678,48.492,101.587
	c1.41,1.185,3.127,1.764,4.836,1.764c2.144,0,4.272-0.911,5.76-2.68c2.673-3.18,2.262-7.923-0.916-10.595
	c-27.41-23.045-43.132-55.877-43.132-90.075C82.006,345.734,96.557,317.608,121.929,298.662z"/>
<path d="M444.97,152.035c-5.925-45.246-24.432-78.2-55.009-97.945C364.27,37.5,335.517,34.018,315.919,34.018
	c-9.414,0-16.766,0.798-20.782,1.36c-16.095-11.728-37.836-17.913-63.167-17.913c-14.021,0-25.662,1.861-31.554,3.019
	c-9.47-8.599-20.008-15.302-31.448-19.933c-3.848-1.556-8.233,0.3-9.792,4.149c-1.558,3.849,0.3,8.234,4.149,9.792
	c38.837,15.72,60.778,57.727,68.94,97.981c-25.399,5.103-48.052,20.068-61.719,41.57c-2.228,3.505-1.192,8.153,2.312,10.381
	c3.503,2.227,8.152,1.192,10.381-2.312c14.323-22.534,40.505-36.532,68.328-36.532c43.773,0,79.386,33.259,79.386,74.14
	c0,39.031,18.317,75.093,50.254,98.941c24.992,18.662,39.541,46.36,39.916,75.992c0.052,4.121,3.407,7.425,7.517,7.425
	c4.199,0,7.574-3.431,7.521-7.615c-0.434-34.348-17.184-66.369-45.955-87.852c-28.097-20.981-44.212-52.652-44.212-86.891
	c0-49.174-42.359-89.179-94.426-89.179c-1.44,0-2.874,0.043-4.305,0.106c-1.608-8.383-5.288-23.937-12.809-41.134
	c-5.945-13.594-13.171-25.579-21.516-35.792c5.276-0.664,11.829-1.216,19.033-1.216c15.689,0,37.613,2.696,54.588,15.229
	c3.94,15.857,9.392,30.341,16.263,43.055c1.976,3.655,6.539,5.016,10.191,3.041c3.655-1.974,5.015-6.538,3.041-10.191
	c-4.294-7.947-7.99-16.693-11.067-26.108c20.609,9.189,69.262,34.909,113.919,88.621c-22.261-0.829-58.901-7.565-86.763-39.242
	c-2.744-3.118-7.495-3.424-10.613-0.68c-3.118,2.742-3.423,7.495-0.681,10.613c34.018,38.674,79.234,44.449,103.16,44.449
	c8.829,0,14.38-0.809,14.61-0.844C442.676,159.847,445.503,156.103,444.97,152.035z M322.657,49.209
	c34.308,1.515,84.928,15.548,102.792,81.412C387.044,86.319,346.999,61.497,322.657,49.209z"/>
<g>
</g>
<g>
</g>
<g>
</g>
<g>
</g>
<g>
</g>
<g>
</g>
<g>
</g>
<g>
</g>
<g>
</g>
<g>
</g>
<g>
</g>
<g>
</g>
<g>
</g>
<g>
</g>
<g>
</g>
</svg>
