<?xml version="1.0" encoding="iso-8859-1"?>
<!-- Generator: Adobe Illustrator 19.0.0, SVG Export Plug-In . SVG Version: 6.00 Build 0)  -->
<svg version="1.1" id="Capa_1" xmlns="http://www.w3.org/2000/svg" xmlns:xlink="http://www.w3.org/1999/xlink" x="0px" y="0px"
	 viewBox="0 0 512 512" style="enable-background:new 0 0 512 512;" xml:space="preserve">
<path style="fill:#5EAC24;" d="M375.096,67.621c-0.362,10.101-4.061,20.966-11.85,30.956c-19.83,25.438-60.636,42.917-85.311,51.661
	c-4.262,1.508-8.051,2.764-11.156,3.749c-2.332,0.734-4.292,1.327-5.779,1.759c-2.161,0.633-3.357,0.955-3.357,0.955
	c-0.794-4.583-1.045-9.347-0.824-14.212c1.759-39.66,34.404-86.235,52.656-99.944c34.655-26.031,61.732-8.774,65.259,17.528
	C375.066,62.526,375.186,65.048,375.096,67.621z"/>
<path style="fill:#6DC82A;" d="M375.096,67.621c-0.362,10.101-4.061,20.966-11.85,30.956c-19.83,25.438-60.636,42.917-85.311,51.661
	c-4.262,1.508-8.051,2.764-11.156,3.749c-2.332,0.734-4.292,1.327-5.779,1.759c14.182-35.951,47.188-70.164,65.903-80.647
	C346.331,64.214,362.844,62.978,375.096,67.621z"/>
<path style="fill:#C70024;" d="M446.004,363.706c-6.977,11.158-65.008,103.963-70.546,112.819
	c-19.863,28.595-66.174,36.68-98.879,17.488c-12.543-7.377-28.042-7.377-40.585,0c-32.47,19.1-78.91,11.276-98.879-17.488
	L66.569,363.706c-43.483-69.551-24.817-145.919,14.765-186.521c0,0,0-0.01,0.01-0.01c43.406-44.515,117.153-50.697,164.4-17.87
	c6.251,4.704,14.835,4.704,21.086,0c57.486-39.942,158.981-24.421,193.607,64.144C477.929,268.2,474.755,317.719,446.004,363.706z"
	/>
<path style="fill:#FF0C38;" d="M446.004,363.706l-57.199,91.472c-23.136,20.281-61.676,23.584-89.612,7.176
	c-12.543-7.377-28.042-7.377-40.585,0c-32.471,19.1-78.917,11.266-98.879-17.488L89.183,332.046
	c-31.843-50.932-32.435-107.162-7.85-154.862c0,0,0-0.01,0.01-0.01c43.406-44.515,117.153-50.697,164.4-17.87
	c6.251,4.704,14.835,4.704,21.086,0c57.486-39.942,158.981-24.421,193.607,64.144C477.929,268.2,474.755,317.719,446.004,363.706z"
	/>
<path d="M59.141,332.478c-32.979-83.479,17.09-186.361,117.443-186.361c24.95,0,47.838,7.512,64.747,19.297
	c8.61,6.425,20.806,6.791,29.911,0c17.951-12.443,40.937-19.297,64.747-19.297c0.131,0,0.281,0,0.412-0.01
	c0.101-0.01,0.844-0.04,2.141-0.04c13.95,0,85.059,3.859,114.87,80.124c4.754,12.151,7.88,24.785,9.307,37.549
	c0.462,4.131,4.191,7.116,8.332,6.654c4.141-0.462,7.116-4.191,6.654-8.332c-1.578-14.071-5.025-27.981-10.252-41.359
	c-33.378-85.391-113.242-89.713-128.911-89.713c-0.726,0-1.321,0.008-1.79,0.019c10.345-6.49,20.032-13.926,27.762-22.302
	c2.824-3.059,2.632-7.829-0.427-10.652c-3.059-2.823-7.829-2.632-10.652,0.427c-19.351,20.967-53.936,35.949-76.35,44.027
	c19.09-21.157,42.654-46.607,54.672-57.081c3.136-2.734,3.468-7.498,0.724-10.634c-2.734-3.146-7.488-3.467-10.634-0.734
	c-12.739,11.108-36.977,37.289-56.382,58.801c5.935-34.404,32.99-72.612,48.534-84.289c9.912-7.447,19.693-11.382,28.289-11.382
	c16.605,0,25.293,14.477,25.293,28.777c0,3.246-0.416,6.557-1.235,9.84c-1.009,4.039,1.447,8.131,5.487,9.14
	c4.037,1.005,8.131-1.447,9.14-5.487c1.118-4.476,1.685-9.015,1.685-13.493c0-25-17.355-43.853-40.369-43.853
	c-12.057,0-24.62,4.846-37.343,14.405c-11.484,8.628-28.829,29.732-41.12,54.677V7.538c0-4.163-3.375-7.538-7.538-7.538
	c-4.163,0-7.538,3.375-7.538,7.538V152.19l-0.372-0.213C187.273,111.1,81.434,127.804,45.12,220.704
	c-14.468,36.997-15.539,77.998,0,117.322c1.176,2.955,4.01,4.764,7.015,4.764c0.925,0,1.859-0.171,2.764-0.523
	C58.779,340.73,60.679,336.358,59.141,332.478z"/>
<path d="M471.271,285.491c-4.141-0.362-7.809,2.694-8.181,6.845c-2.05,23.066-9.95,45.731-23.478,67.37l-70.446,112.659
	c-10.604,15.156-30.816,24.564-52.786,24.564c-32.092,0-36.216-15.991-60.093-15.991c-23.808,0-28.017,15.991-60.093,15.991
	c-21.971,0-42.183-9.407-52.786-24.564c-0.478-0.765-70.985-113.51-71.35-114.126c-2.181-3.548-6.814-4.664-10.372-2.493
	c-3.548,2.171-4.664,6.814-2.493,10.362c2.876,4.618,67.143,107.389,71.531,114.407c0.06,0.111,0.131,0.211,0.201,0.312
	c22.11,31.825,72.75,40.897,108.89,19.679c10.199-5.992,22.761-5.984,32.946,0c36.145,21.222,86.786,12.137,108.89-19.679
	c0.07-0.1,0.141-0.201,0.201-0.312l70.546-112.819c14.795-23.669,23.448-48.575,25.71-74.024
	C478.477,289.521,475.412,285.863,471.271,285.491z"/>
<g>
</g>
<g>
</g>
<g>
</g>
<g>
</g>
<g>
</g>
<g>
</g>
<g>
</g>
<g>
</g>
<g>
</g>
<g>
</g>
<g>
</g>
<g>
</g>
<g>
</g>
<g>
</g>
<g>
</g>
</svg>
